<?xml version="1.0" encoding="us-ascii" standalone="no"?><svg xmlns="http://www.w3.org/2000/svg" xmlns:xlink="http://www.w3.org/1999/xlink" contentStyleType="text/css" height="445px" preserveAspectRatio="none" style="width:801px;height:445px;background:#F5F5DC;" version="1.1" viewBox="0 0 801 445" width="801px" zoomAndPan="magnify"><defs/><g><rect fill="#F5F5DC" height="445" style="stroke:none;stroke-width:1.0;" width="801" x="0" y="0"/><text fill="#000000" font-family="sans-serif" font-size="14" font-weight="bold" lengthAdjust="spacing" textLength="99" x="349.5" y="36.2399">AddAfter()&#26041;&#27861;</text><ellipse cx="184.25" cy="61.2719" fill="#F0E8F5" rx="10" ry="10" style="stroke:#222222;stroke-width:1.0;"/><rect fill="#FFB6C1" height="311.0725" style="stroke:#DDA0DD;stroke-width:1.5;" width="779" x="11" y="81.2719"/><path d="M90,81.2719 L90,94.5438 L80,104.5438 L11,104.5438 " fill="none" style="stroke:#DDA0DD;stroke-width:1.5;"/><text fill="#FF69B4" font-family="Comic Sans MS" font-size="14" lengthAdjust="spacing" textLength="69" x="14" y="98.5118">AddAfter()</text><polygon fill="#FFDEE3" points="104.25,121.5438,264.25,121.5438,276.25,144.7119,264.25,167.8799,104.25,167.8799,92.25,144.7119,104.25,121.5438" style="stroke:#FF69B4;stroke-width:0.5;"/><text fill="#FF1493" font-family="Comic Sans MS" font-size="16" lengthAdjust="spacing" textLength="160" x="104.25" y="140.1039">&#22914;&#26524;queue&#27491;&#22312;&#34987;&#20851;&#38381;</text><text fill="#FF1493" font-family="Comic Sans MS" font-size="16" lengthAdjust="spacing" textLength="120" x="136.25" y="163.2719">q.shuttingDown</text><text fill="#0000FF" font-family="Comic Sans MS" font-size="16" lengthAdjust="spacing" textLength="16" x="76.25" y="140.1039">&#26159;</text><text fill="#0000FF" font-family="Comic Sans MS" font-size="16" lengthAdjust="spacing" textLength="16" x="276.25" y="140.1039">&#21542;</text><rect fill="#F0E8F5" height="37.3761" rx="12.5" ry="12.5" style="stroke:#181818;stroke-width:0.5;" width="92" x="23" y="177.8799"/><text fill="#333333" font-family="Comic Sans MS" font-size="12" lengthAdjust="spacing" textLength="72" x="33" y="201.8">&#21017;&#36820;&#22238;return</text><polygon fill="#FFDEE3" points="247.5,177.8799,351.5,177.8799,363.5,201.048,351.5,224.216,247.5,224.216,235.5,201.048,247.5,177.8799" style="stroke:#FF69B4;stroke-width:0.5;"/><text fill="#FF1493" font-family="Comic Sans MS" font-size="16" lengthAdjust="spacing" textLength="96" x="247.5" y="196.44">&#22914;&#26524;&#26102;&#38388;&#21040;&#20102;</text><text fill="#FF1493" font-family="Comic Sans MS" font-size="16" lengthAdjust="spacing" textLength="100" x="251.5" y="219.608">duration &lt;= 0</text><text fill="#0000FF" font-family="Comic Sans MS" font-size="16" lengthAdjust="spacing" textLength="16" x="219.5" y="196.44">&#26159;</text><text fill="#0000FF" font-family="Comic Sans MS" font-size="16" lengthAdjust="spacing" textLength="16" x="363.5" y="196.44">&#21542;</text><rect fill="#F0E8F5" height="54.7522" rx="12.5" ry="12.5" style="stroke:#181818;stroke-width:0.5;" width="88" x="145" y="234.216"/><text fill="#333333" font-family="Comic Sans MS" font-size="12" lengthAdjust="spacing" textLength="60" x="155" y="258.1361">&#23601;&#30452;&#25509;&#28155;&#21152;</text><text fill="#333333" font-family="Comic Sans MS" font-size="12" lengthAdjust="spacing" textLength="65" x="158" y="275.5122">q.Add(item)</text><rect fill="#F0E8F5" height="37.3761" rx="12.5" ry="12.5" style="stroke:#181818;stroke-width:0.5;" width="56" x="161" y="308.9683"/><text fill="#333333" font-family="Comic Sans MS" font-size="12" lengthAdjust="spacing" textLength="36" x="171" y="332.8884">return</text><path d="M253,234.216 L253,263.04 A0,0 0 0 0 253,263.04 L341,263.04 A0,0 0 0 0 341,263.04 L341,252.628 L361,248.628 L341,244.628 L341,244.216 L331,234.216 L253,234.216 A0,0 0 0 0 253,234.216 " fill="#E6E6FA" style="stroke:#8A2BE2;stroke-width:0.5;"/><path d="M331,234.216 L331,244.216 L341,244.216 L331,234.216 " fill="#E6E6FA" style="stroke:#8A2BE2;stroke-width:0.5;"/><text fill="#0000FF" font-family="Comic Sans MS" font-size="13" lengthAdjust="spacing" textLength="67" x="259" y="254.296">&lt;-q.stopCh</text><polygon fill="#FFDEE3" points="388,234.216,432,234.216,444,246.216,432,258.216,388,258.216,376,246.216,388,234.216" style="stroke:#FF69B4;stroke-width:0.5;"/><text fill="#FF1493" font-family="Comic Sans MS" font-size="16" lengthAdjust="spacing" textLength="44" x="388" y="253.192">select</text><polygon fill="#FFDEE3" points="410,356.3444,410,356.3444,422,368.3444,410,380.3444,410,380.3444,398,368.3444,410,356.3444" style="stroke:#FF69B4;stroke-width:0.5;"/><ellipse cx="184.25" cy="423.3444" fill="none" rx="11" ry="11" style="stroke:#222222;stroke-width:1.0;"/><ellipse cx="184.25" cy="423.3444" fill="#F0E8F5" rx="6" ry="6" style="stroke:#222222;stroke-width:1.0;"/><line style="stroke:#181818;stroke-width:1.0;" x1="189" x2="189" y1="288.9683" y2="308.9683"/><polygon fill="#181818" points="185,298.9683,189,308.9683,193,298.9683,189,302.9683" style="stroke:#181818;stroke-width:1.0;"/><line style="stroke:#181818;stroke-width:1.0;" x1="376" x2="361" y1="246.216" y2="246.216"/><line style="stroke:#181818;stroke-width:1.0;" x1="361" x2="361" y1="246.216" y2="368.3444"/><line style="stroke:#181818;stroke-width:1.0;" x1="361" x2="398" y1="368.3444" y2="368.3444"/><polygon fill="#181818" points="388,364.3444,398,368.3444,388,372.3444,392,368.3444" style="stroke:#181818;stroke-width:1.0;"/><line style="stroke:#181818;stroke-width:1.0;" x1="444" x2="450" y1="246.216" y2="246.216"/><line style="stroke:#181818;stroke-width:1.0;" x1="450" x2="450" y1="246.216" y2="368.3444"/><line style="stroke:#181818;stroke-width:1.0;" x1="450" x2="422" y1="368.3444" y2="368.3444"/><polygon fill="#181818" points="432,364.3444,422,368.3444,432,372.3444,428,368.3444" style="stroke:#181818;stroke-width:1.0;"/><text fill="#0000FF" font-family="Comic Sans MS" font-size="16" lengthAdjust="spacing" textLength="309" x="454" y="230.024">&#26500;&#36896;&#19968;&#20010;waitFor{}&#65292;&#20002;&#21040;waitingForAddCh</text><text fill="#0000FF" font-family="Comic Sans MS" font-size="16" lengthAdjust="spacing" textLength="320" x="458" y="253.192">q.waitingForAddCh &lt;- &amp;waitFor{data: item,</text><text fill="#0000FF" font-family="Comic Sans MS" font-size="16" lengthAdjust="spacing" textLength="287" x="458" y="276.3601">readyAt: q.clock.Now().Add(duration)}:</text><line style="stroke:#181818;stroke-width:1.0;" x1="235.5" x2="189" y1="201.048" y2="201.048"/><line style="stroke:#181818;stroke-width:1.0;" x1="189" x2="189" y1="201.048" y2="234.216"/><polygon fill="#181818" points="185,224.216,189,234.216,193,224.216,189,228.216" style="stroke:#181818;stroke-width:1.0;"/><line style="stroke:#181818;stroke-width:1.0;" x1="363.5" x2="410" y1="201.048" y2="201.048"/><line style="stroke:#181818;stroke-width:1.0;" x1="410" x2="410" y1="201.048" y2="234.216"/><polygon fill="#181818" points="406,224.216,410,234.216,414,224.216,410,228.216" style="stroke:#181818;stroke-width:1.0;"/><line style="stroke:#181818;stroke-width:1.0;" x1="410" x2="410" y1="380.3444" y2="385.3444"/><line style="stroke:#181818;stroke-width:1.0;" x1="410" x2="184.25" y1="385.3444" y2="385.3444"/><line style="stroke:#181818;stroke-width:1.0;" x1="184.25" x2="184.25" y1="385.3444" y2="412.3444"/><polygon fill="#181818" points="180.25,402.3444,184.25,412.3444,188.25,402.3444,184.25,406.3444" style="stroke:#181818;stroke-width:1.0;"/><line style="stroke:#181818;stroke-width:1.0;" x1="92.25" x2="69" y1="144.7119" y2="144.7119"/><line style="stroke:#181818;stroke-width:1.0;" x1="69" x2="69" y1="144.7119" y2="177.8799"/><polygon fill="#181818" points="65,167.8799,69,177.8799,73,167.8799,69,171.8799" style="stroke:#181818;stroke-width:1.0;"/><line style="stroke:#181818;stroke-width:1.0;" x1="276.25" x2="299.5" y1="144.7119" y2="144.7119"/><line style="stroke:#181818;stroke-width:1.0;" x1="299.5" x2="299.5" y1="144.7119" y2="177.8799"/><polygon fill="#181818" points="295.5,167.8799,299.5,177.8799,303.5,167.8799,299.5,171.8799" style="stroke:#181818;stroke-width:1.0;"/><line style="stroke:#181818;stroke-width:1.0;" x1="184.25" x2="184.25" y1="71.2719" y2="121.5438"/><polygon fill="#181818" points="180.25,111.5438,184.25,121.5438,188.25,111.5438,184.25,115.5438" style="stroke:#181818;stroke-width:1.0;"/><!--SRC=[bLDTQnD157tVNt51a0tOkcq-RDCe9Flnf7qmhtaPTYV9qCrCEZjhgALGHAM8Y0zgbPPGAXPHYfKMZH_WdyckxPD_mTdT9Dsafk1zMiwTUyyzvzujUMBDnRSKP0joZuWrWw06HorOLq161Tah3SvywkZCPHokM9gvOEMJ7ECEvaFSqZMz4kCMesA0PhFP4RICMXXqrY8sL17ru4vLsL0KXw0MeyvKEiimpQJ7RKBn22qiLdAJP9Orbrkyb6-OgfBx6EOA4J_Yd7K6xAbUcWpB-izURSG54OJHGR-nYNDvJRiuSI6Rkn6ZTnFHd68EyzeqCyoSEHSnKIRmfKEdg1VAynLp_jyTpO9PiChn7fZjjp0LKnUHj_A67hsCuFP5yjHEKkI6KTOCOvgSIa6Fv9Ik3svGkkTYA3jEkIumLpFXgs_XyKl54zBO0UzvCcvAwg061m_2xkwgZtqS7huDTj-VxdyC7XsVRH_MQ4sipdfDNmX26mRhq0o89gQWXgy_9Gra58EjDwU_NWGxNOw5p-dICB52N3V-ngw7rU3vmQWanHjkVpdRFWcsZlhV7qEDWkDp5Dz0wIPe6I1UGXRpZieZqgFFltTEmcVlmgy_WYTxKUdgh5Id4e5RcQNqqucnqfCDfuFnyG2y3X5s4rGFkzWMwGo0ZQISSGZYYt9nNOp3CaepqaB1sdfpF8NbNnjLNMmTTX-URUxrUvlzteSE8i9YV7tZpy-d_Tw-z2b2v3OaADNgpKJu95YQWQl3KWS9L8J8bcloBSV8MIkBeYooNMQlp2wpZfg9dHjQdzaefjN9GHCtb1H2wihvLoGbFYyb4leN]--></g></svg>