<?xml version="1.0" encoding="us-ascii" standalone="no"?><svg xmlns="http://www.w3.org/2000/svg" xmlns:xlink="http://www.w3.org/1999/xlink" contentStyleType="text/css" height="513px" preserveAspectRatio="none" style="width:587px;height:513px;background:#F5F5DC;" version="1.1" viewBox="0 0 587 513" width="587px" zoomAndPan="magnify"><defs/><g><rect fill="#F5F5DC" height="513" style="stroke:none;stroke-width:1.0;" width="587" x="0" y="0"/><text fill="#000000" font-family="sans-serif" font-size="14" font-weight="bold" lengthAdjust="spacing" textLength="78" x="253" y="36.2399">insert()&#26041;&#27861;</text><ellipse cx="315.25" cy="61.2719" fill="#F0E8F5" rx="10" ry="10" style="stroke:#222222;stroke-width:1.0;"/><rect fill="#FFB6C1" height="379.5566" style="stroke:#DDA0DD;stroke-width:1.5;" width="565" x="11" y="81.2719"/><path d="M69,81.2719 L69,94.5438 L59,104.5438 L11,104.5438 " fill="none" style="stroke:#DDA0DD;stroke-width:1.5;"/><text fill="#FF69B4" font-family="Comic Sans MS" font-size="14" lengthAdjust="spacing" textLength="48" x="14" y="98.5118">insert()</text><rect fill="#F0E8F5" height="54.7522" rx="12.5" ry="12.5" style="stroke:#181818;stroke-width:0.5;" width="267" x="181.75" y="121.5438"/><text fill="#333333" font-family="Comic Sans MS" font-size="12" lengthAdjust="spacing" textLength="126" x="263.75" y="145.4639">entry&#65288;&#34920;&#39033;&#65289;&#26159;&#21542;&#23384;&#22312;</text><text fill="#333333" font-family="Comic Sans MS" font-size="12" lengthAdjust="spacing" textLength="244" x="194.75" y="162.84">existing, exists := knownEntries[entry.data]</text><polygon fill="#FFDEE3" points="244.75,200.5721,385.75,200.5721,397.75,212.5721,385.75,224.5721,244.75,224.5721,232.75,212.5721,244.75,200.5721" style="stroke:#FF69B4;stroke-width:0.5;"/><text fill="#FF1493" font-family="Comic Sans MS" font-size="16" lengthAdjust="spacing" textLength="141" x="244.75" y="219.5481">&#22914;&#26524;&#24050;&#32463;&#23384;&#22312; exists</text><text fill="#FFD700" font-family="Comic Sans MS" font-size="16" lengthAdjust="spacing" textLength="16" x="216.75" y="207.9641">&#26159;</text><text fill="#FFD700" font-family="Comic Sans MS" font-size="16" lengthAdjust="spacing" textLength="16" x="397.75" y="207.9641">&#21542;</text><rect fill="#F0E8F5" height="54.7522" rx="12.5" ry="12.5" style="stroke:#181818;stroke-width:0.5;" width="204" x="70" y="310.4922"/><text fill="#333333" font-family="Comic Sans MS" font-size="12" lengthAdjust="spacing" textLength="60" x="131" y="334.4123">&#23601;&#26356;&#26032;&#26102;&#38388;</text><text fill="#333333" font-family="Comic Sans MS" font-size="12" lengthAdjust="spacing" textLength="181" x="83" y="351.7885">existing.readyAt = entry.readyAt</text><polygon fill="#FFDEE3" points="35,234.5721,309,234.5721,321,257.7402,309,280.9082,35,280.9082,23,257.7402,35,234.5721" style="stroke:#FF69B4;stroke-width:0.5;"/><text fill="#FFD700" font-family="Comic Sans MS" font-size="16" lengthAdjust="spacing" textLength="16" x="176" y="299.4683">&#26159;</text><text fill="#FF1493" font-family="Comic Sans MS" font-size="16" lengthAdjust="spacing" textLength="215" x="67" y="253.1322">&#24182;&#19988;&#26032;&#30340;entry&#30340;&#23601;&#32490;&#26102;&#38388;&#26356;&#30701;</text><text fill="#FF1493" font-family="Comic Sans MS" font-size="16" lengthAdjust="spacing" textLength="270" x="39" y="276.3002">existing.readyAt.After(entry.readyAt)</text><text fill="#FFD700" font-family="Comic Sans MS" font-size="16" lengthAdjust="spacing" textLength="16" x="321" y="253.1322">&#21542;</text><polygon fill="#FFDEE3" points="172,394.8285,184,406.8285,172,418.8285,160,406.8285,172,394.8285" style="stroke:#FF69B4;stroke-width:0.5;"/><rect fill="#F0E8F5" height="54.7522" rx="12.5" ry="12.5" style="stroke:#181818;stroke-width:0.5;" width="138" x="389.5" y="234.5721"/><text fill="#333333" font-family="Comic Sans MS" font-size="12" lengthAdjust="spacing" textLength="115" x="399.5" y="258.4922">&#22914;&#26524;&#19981;&#23384;&#22312;&#23601;&#20002;&#21040;q&#37324;</text><text fill="#333333" font-family="Comic Sans MS" font-size="12" lengthAdjust="spacing" textLength="110" x="402.5" y="275.8683">heap.Push(q, entry)</text><rect fill="#F0E8F5" height="54.7522" rx="12.5" ry="12.5" style="stroke:#181818;stroke-width:0.5;" width="211" x="353" y="324.3244"/><text fill="#333333" font-family="Comic Sans MS" font-size="12" lengthAdjust="spacing" textLength="181" x="363" y="348.2445">&#21516;&#26102;&#22312;map&#20013;&#35760;&#24405;&#19968;&#19979;&#65292;&#29992;&#20110;&#26597;&#37325;</text><text fill="#333333" font-family="Comic Sans MS" font-size="12" lengthAdjust="spacing" textLength="188" x="366" y="365.6206">knownEntries[entry.data] = entry</text><polygon fill="#FFDEE3" points="315.25,424.8285,327.25,436.8285,315.25,448.8285,303.25,436.8285,315.25,424.8285" style="stroke:#FF69B4;stroke-width:0.5;"/><ellipse cx="315.25" cy="491.8285" fill="none" rx="11" ry="11" style="stroke:#222222;stroke-width:1.0;"/><ellipse cx="315.25" cy="491.8285" fill="#F0E8F5" rx="6" ry="6" style="stroke:#222222;stroke-width:1.0;"/><line style="stroke:#181818;stroke-width:1.0;" x1="172" x2="172" y1="280.9082" y2="310.4922"/><polygon fill="#181818" points="168,300.4922,172,310.4922,176,300.4922,172,304.4922" style="stroke:#181818;stroke-width:1.0;"/><line style="stroke:#181818;stroke-width:1.0;" x1="321" x2="333" y1="257.7402" y2="257.7402"/><polygon fill="#181818" points="329,322.2843,333,332.2843,337,322.2843,333,326.2843" style="stroke:#181818;stroke-width:1.0;"/><line style="stroke:#181818;stroke-width:1.0;" x1="333" x2="333" y1="257.7402" y2="406.8285"/><line style="stroke:#181818;stroke-width:1.0;" x1="333" x2="184" y1="406.8285" y2="406.8285"/><polygon fill="#181818" points="194,402.8285,184,406.8285,194,410.8285,190,406.8285" style="stroke:#181818;stroke-width:1.0;"/><line style="stroke:#181818;stroke-width:1.0;" x1="172" x2="172" y1="365.2445" y2="394.8285"/><polygon fill="#181818" points="168,384.8285,172,394.8285,176,384.8285,172,388.8285" style="stroke:#181818;stroke-width:1.0;"/><line style="stroke:#181818;stroke-width:1.0;" x1="458.5" x2="458.5" y1="289.3244" y2="324.3244"/><polygon fill="#181818" points="454.5,314.3244,458.5,324.3244,462.5,314.3244,458.5,318.3244" style="stroke:#181818;stroke-width:1.0;"/><line style="stroke:#181818;stroke-width:1.0;" x1="232.75" x2="172" y1="212.5721" y2="212.5721"/><line style="stroke:#181818;stroke-width:1.0;" x1="172" x2="172" y1="212.5721" y2="234.5721"/><polygon fill="#181818" points="168,224.5721,172,234.5721,176,224.5721,172,228.5721" style="stroke:#181818;stroke-width:1.0;"/><line style="stroke:#181818;stroke-width:1.0;" x1="397.75" x2="458.5" y1="212.5721" y2="212.5721"/><line style="stroke:#181818;stroke-width:1.0;" x1="458.5" x2="458.5" y1="212.5721" y2="234.5721"/><polygon fill="#181818" points="454.5,224.5721,458.5,234.5721,462.5,224.5721,458.5,228.5721" style="stroke:#181818;stroke-width:1.0;"/><line style="stroke:#181818;stroke-width:1.0;" x1="172" x2="172" y1="418.8285" y2="436.8285"/><line style="stroke:#181818;stroke-width:1.0;" x1="172" x2="303.25" y1="436.8285" y2="436.8285"/><polygon fill="#181818" points="293.25,432.8285,303.25,436.8285,293.25,440.8285,297.25,436.8285" style="stroke:#181818;stroke-width:1.0;"/><line style="stroke:#181818;stroke-width:1.0;" x1="458.5" x2="458.5" y1="379.0766" y2="436.8285"/><line style="stroke:#181818;stroke-width:1.0;" x1="458.5" x2="327.25" y1="436.8285" y2="436.8285"/><polygon fill="#181818" points="337.25,432.8285,327.25,436.8285,337.25,440.8285,333.25,436.8285" style="stroke:#181818;stroke-width:1.0;"/><line style="stroke:#181818;stroke-width:1.0;" x1="315.25" x2="315.25" y1="176.2961" y2="200.5721"/><polygon fill="#181818" points="311.25,190.5721,315.25,200.5721,319.25,190.5721,315.25,194.5721" style="stroke:#181818;stroke-width:1.0;"/><line style="stroke:#181818;stroke-width:1.0;" x1="315.25" x2="315.25" y1="71.2719" y2="121.5438"/><polygon fill="#181818" points="311.25,111.5438,315.25,121.5438,319.25,111.5438,315.25,115.5438" style="stroke:#181818;stroke-width:1.0;"/><line style="stroke:#181818;stroke-width:1.0;" x1="315.25" x2="315.25" y1="448.8285" y2="480.8285"/><polygon fill="#181818" points="311.25,470.8285,315.25,480.8285,319.25,470.8285,315.25,474.8285" style="stroke:#181818;stroke-width:1.0;"/><!--SRC=[bP9RQnD168RlzrSCU6429MwQGyz2ajszKX5pQRmOifDaI3AJpawiiGWYGYkccekUq6AfO2b2D6gfgOt_PdVJNEKlE7l8eJKHt8NTvPtzdlVzlfbbWzTAwBO4inm_nhocO9Xdi0pM9I2k9CmMyunMYPwY9Sh03KrMvxMOjqQPZjX0rr9oAkdg6YNSLoEHo52w1yi8f6WPPq4Q4WFSJKlF94d7i4o9FjLEKrJLOzp110tL-48oUjrCqyBHXN_w3PRI-2a2uRZZ3ncZQxxx5POo9yl_oQf0nZ77bFYyAucZiJ7Ug8z8TCvL7tXDCu8Oc9Md3KEDgc77YL2E_WujYqlJhblF9sQJwknaeXfNurh2tGUQhPOHuLCt8gR5b9JpfoDN9arik2TZvegIa1LbMZl9UCffP_cMVmR5z4e8O68WnWD1U_VS_h4Z6LoCrNSTBBd0nGntRX6QrVgTpSkZazxHUR_pojx_QZMEhUQ-TN02CWIW9zZWcEHdl2y3BAw08g5hH1ML61aFNK98Xnm-MdB9E0S2rl4B-yE1zVDxz-Ajp_BAWm0R821CWe0N474B1aKPRfsVcUrjUxVLVVVIvOgtrVhMlVXixvtrzaxjzwVTm-Puh113KAybU2YHuuW5l32-5fncvdSF15eGXPr7dyG5A-0ASqcwEQ8KSQaqXAAIWKJZZUFWI28wpaaJ5nUz2PdjBMyy8ehP_cXjjbPx6tKdI071IkX-rIW4LcUy2C6bOMsZBXABgZAicEtcvPUMzNl7R3ytsw_xdNft-yJyzSO-_DJRs798qtPhq9g7zRAA9t0FYpWujF87]--></g></svg>