<?xml version="1.0" encoding="us-ascii" standalone="no"?><svg xmlns="http://www.w3.org/2000/svg" xmlns:xlink="http://www.w3.org/1999/xlink" contentStyleType="text/css" height="1959px" preserveAspectRatio="none" style="width:1424px;height:1959px;background:#F5F5DC;" version="1.1" viewBox="0 0 1424 1959" width="1424px" zoomAndPan="magnify"><defs/><g><rect fill="#F5F5DC" height="1959" style="stroke:none;stroke-width:1.0;" width="1424" x="0" y="0"/><text fill="#000000" font-family="sans-serif" font-size="14" font-weight="bold" lengthAdjust="spacing" textLength="124" x="648.75" y="36.2399">waitingLoop()&#26041;&#27861;</text><ellipse cx="402.875" cy="61.2719" fill="#F0E8F5" rx="10" ry="10" style="stroke:#222222;stroke-width:1.0;"/><rect fill="#FFB6C1" height="1825.0316" style="stroke:#DDA0DD;stroke-width:1.5;" width="1402.5" x="11" y="81.2719"/><path d="M113,81.2719 L113,94.5438 L103,104.5438 L11,104.5438 " fill="none" style="stroke:#DDA0DD;stroke-width:1.5;"/><text fill="#FF69B4" font-family="Comic Sans MS" font-size="14" lengthAdjust="spacing" textLength="92" x="14" y="98.5118">waitingLoop()</text><rect fill="#F0E8F5" height="54.7522" rx="12.5" ry="12.5" style="stroke:#181818;stroke-width:0.5;" width="209" x="298.375" y="121.5438"/><text fill="#333333" font-family="Comic Sans MS" font-size="12" lengthAdjust="spacing" textLength="120" x="347.375" y="145.4639">&#38431;&#21015;&#37324;&#27809;&#26377;&#20803;&#32032;&#26102;&#31561;&#24453;</text><text fill="#333333" font-family="Comic Sans MS" font-size="12" lengthAdjust="spacing" textLength="186" x="311.375" y="162.84">never := make(&lt;-chan time.Time)</text><rect fill="#F0E8F5" height="54.7522" rx="12.5" ry="12.5" style="stroke:#181818;stroke-width:0.5;" width="276" x="264.875" y="196.2961"/><text fill="#333333" font-family="Comic Sans MS" font-size="12" lengthAdjust="spacing" textLength="108" x="346.875" y="220.2162">&#26500;&#36896;&#19968;&#20010;&#20248;&#20808;&#32423;&#38431;&#21015;</text><text fill="#333333" font-family="Comic Sans MS" font-size="12" lengthAdjust="spacing" textLength="253" x="277.875" y="237.5923">waitingForQueue := &amp;waitForPriorityQueue{}</text><rect fill="#F0E8F5" height="54.7522" rx="12.5" ry="12.5" style="stroke:#181818;stroke-width:0.5;" width="335" x="235.375" y="271.0483"/><text fill="#333333" font-family="Comic Sans MS" font-size="12" lengthAdjust="spacing" textLength="312" x="245.375" y="294.9684">&#36825;&#19968;&#34892;&#20854;&#23454;&#21151;&#33021;&#19978;&#27809;&#26377;&#20160;&#20040;&#20316;&#29992;&#65292;&#19981;&#36807;&#22312;&#21487;&#35835;&#24615;&#19978;&#26377;&#28857;&#24110;&#21161;</text><text fill="#333333" font-family="Comic Sans MS" font-size="12" lengthAdjust="spacing" textLength="156" x="344.375" y="312.3445">heap.Init(waitingForQueue)</text><rect fill="#F0E8F5" height="54.7522" rx="12.5" ry="12.5" style="stroke:#181818;stroke-width:0.5;" width="264" x="270.875" y="345.8006"/><text fill="#333333" font-family="Comic Sans MS" font-size="12" lengthAdjust="spacing" textLength="241" x="280.875" y="369.7206">&#36825;&#20010;map&#29992;&#26469;&#22788;&#29702;&#37325;&#22797;&#28155;&#21152;&#36923;&#36753;&#65292;&#19979;&#38754;&#20250;&#35762;&#21040;</text><text fill="#333333" font-family="Comic Sans MS" font-size="12" lengthAdjust="spacing" textLength="225" x="289.875" y="387.0968">waitingEntryByData := map[t]*waitFor{}</text><polygon fill="#FFDEE3" points="205.875,488.8889,599.875,488.8889,611.875,523.641,599.875,558.393,205.875,558.393,193.875,523.641,205.875,488.8889" style="stroke:#FF69B4;stroke-width:0.5;"/><text fill="#FF1493" font-family="Comic Sans MS" font-size="16" lengthAdjust="spacing" textLength="371" x="205.875" y="507.4489">&#36825;&#20010;&#22320;&#26041;Interface&#20174;&#35821;&#27861;&#19978;&#26469;&#30475;&#21487;&#26377;&#21487;&#26080;&#65292;&#19981;&#36807;&#25918;&#22312;</text><text fill="#FF1493" font-family="Comic Sans MS" font-size="16" lengthAdjust="spacing" textLength="390" x="205.875" y="530.617">&#36825;&#37324;&#33021;&#22815;&#24378;&#35843;&#35843;&#29992;&#20102;&#20869;&#37096;Queue&#30340;shuttingDown()&#26041;&#27861;</text><text fill="#FF1493" font-family="Comic Sans MS" font-size="16" lengthAdjust="spacing" textLength="251" x="273.875" y="553.785">q.TypedInterface.ShuttingDown()</text><text fill="#FFD700" font-family="Comic Sans MS" font-size="16" lengthAdjust="spacing" textLength="16" x="177.875" y="519.033">&#26159;</text><text fill="#FFD700" font-family="Comic Sans MS" font-size="16" lengthAdjust="spacing" textLength="16" x="611.875" y="519.033">&#21542;</text><rect fill="#F0E8F5" height="37.3761" rx="12.5" ry="12.5" style="stroke:#181818;stroke-width:0.5;" width="56" x="41" y="568.393"/><text fill="#333333" font-family="Comic Sans MS" font-size="12" lengthAdjust="spacing" textLength="36" x="51" y="592.3131">return</text><rect fill="#F0E8F5" height="54.7522" rx="12.5" ry="12.5" style="stroke:#181818;stroke-width:0.5;" width="268" x="612.75" y="654.7892"/><text fill="#333333" font-family="Comic Sans MS" font-size="12" lengthAdjust="spacing" textLength="84" x="694.75" y="678.7093">&#33719;&#21462;&#31532;&#19968;&#20010;&#20803;&#32032;</text><text fill="#333333" font-family="Comic Sans MS" font-size="12" lengthAdjust="spacing" textLength="245" x="625.75" y="696.0854">entry := waitingForQueue.Peek().(*waitFor)</text><polygon fill="#FFDEE3" points="648.25,729.5414,845.25,729.5414,857.25,752.7095,845.25,775.8775,648.25,775.8775,636.25,752.7095,648.25,729.5414" style="stroke:#FF69B4;stroke-width:0.5;"/><text fill="#FF1493" font-family="Comic Sans MS" font-size="16" lengthAdjust="spacing" textLength="176" x="648.25" y="748.1014">&#26102;&#38388;&#36824;&#27809;&#21040;&#65292;&#20808;&#19981;&#20316;&#22788;&#29702;</text><text fill="#FF1493" font-family="Comic Sans MS" font-size="16" lengthAdjust="spacing" textLength="197" x="648.25" y="771.2695">if entry.readyAt.After(now)</text><text fill="#FFD700" font-family="Comic Sans MS" font-size="16" lengthAdjust="spacing" textLength="16" x="620.25" y="748.1014">&#26159;</text><text fill="#FFD700" font-family="Comic Sans MS" font-size="16" lengthAdjust="spacing" textLength="16" x="857.25" y="748.1014">&#21542;</text><rect fill="#F0E8F5" height="72.1284" rx="12.5" ry="12.5" style="stroke:#181818;stroke-width:0.5;" width="340" x="697.25" y="785.8775"/><text fill="#333333" font-family="Comic Sans MS" font-size="12" lengthAdjust="spacing" textLength="320" x="707.25" y="809.7976">&#26102;&#38388;&#21040;&#20102;&#65292;pop&#20986;&#31532;&#19968;&#20010;&#20803;&#32032;&#12290;&#27880;&#24847;waitingForQueue.Pop()</text><text fill="#333333" font-family="Comic Sans MS" font-size="12" lengthAdjust="spacing" textLength="220" x="755.25" y="827.1737">&#26159;&#26368;&#21518;&#19968;&#20010;&#20803;&#32032;,heap.Pop()&#26159;&#31532;&#19968;&#20010;&#20803;&#32032;</text><text fill="#333333" font-family="Comic Sans MS" font-size="12" lengthAdjust="spacing" textLength="263" x="734.25" y="844.5498">entry = heap.Pop(waitingForQueue).(*waitFor)</text><rect fill="#F0E8F5" height="54.7522" rx="12.5" ry="12.5" style="stroke:#181818;stroke-width:0.5;" width="139" x="797.75" y="878.0059"/><text fill="#333333" font-family="Comic Sans MS" font-size="12" lengthAdjust="spacing" textLength="108" x="810.75" y="901.926">&#23558;&#25968;&#25454;&#21152;&#21040;&#24310;&#26102;&#38431;&#21015;</text><text fill="#333333" font-family="Comic Sans MS" font-size="12" lengthAdjust="spacing" textLength="116" x="810.75" y="919.3021">q.Add(entry.data.(T))</text><rect fill="#F0E8F5" height="54.7522" rx="12.5" ry="12.5" style="stroke:#181818;stroke-width:0.5;" width="245" x="744.75" y="952.7581"/><text fill="#333333" font-family="Comic Sans MS" font-size="12" lengthAdjust="spacing" textLength="205" x="760.75" y="976.6782">&#22312;map&#20013;&#21024;&#38500;&#24050;&#32463;&#21152;&#21040;&#24310;&#26102;&#38431;&#21015;&#30340;&#20803;&#32032;</text><text fill="#333333" font-family="Comic Sans MS" font-size="12" lengthAdjust="spacing" textLength="222" x="757.75" y="994.0543">delete(waitingEntryByData, entry.data)</text><polygon fill="#FFDEE3" points="645.75,568.393,847.75,568.393,859.75,591.5611,847.75,614.7291,645.75,614.7291,633.75,591.5611,645.75,568.393" style="stroke:#FF69B4;stroke-width:0.5;"/><text fill="#FFD700" font-family="Comic Sans MS" font-size="16" lengthAdjust="spacing" textLength="16" x="750.75" y="633.2892">&#26159;</text><text fill="#FF1493" font-family="Comic Sans MS" font-size="16" lengthAdjust="spacing" textLength="192" x="649.75" y="586.9531">&#38431;&#21015;&#37324;&#26377;&#26377;&#20803;&#32032;&#23601;&#24320;&#22987;&#24490;&#29615;</text><text fill="#FF1493" font-family="Comic Sans MS" font-size="16" lengthAdjust="spacing" textLength="198" x="649.75" y="610.1211">waitingForQueue.Len() &gt; 0</text><text fill="#FFD700" font-family="Comic Sans MS" font-size="16" lengthAdjust="spacing" textLength="16" x="617.75" y="586.9531">&#21542;</text><rect fill="#F0E8F5" height="37.3761" rx="12.5" ry="12.5" style="stroke:#181818;stroke-width:0.5;" width="152" x="670.75" y="1049.5103"/><text fill="#333333" font-family="Comic Sans MS" font-size="12" lengthAdjust="spacing" textLength="132" x="680.75" y="1073.4304">&#22914;&#26524;&#38431;&#21015;&#20026;&#31354;&#21017;&#19968;&#30452;&#31561;&#24453;</text><polygon fill="#FFDEE3" points="724.75,1106.8865,768.75,1106.8865,780.75,1118.8865,768.75,1130.8865,724.75,1130.8865,712.75,1118.8865,724.75,1106.8865" style="stroke:#FF69B4;stroke-width:0.5;"/><text fill="#FF1493" font-family="Comic Sans MS" font-size="16" lengthAdjust="spacing" textLength="44" x="724.75" y="1125.8625">select</text><rect fill="#F0E8F5" height="37.3761" rx="12.5" ry="12.5" style="stroke:#181818;stroke-width:0.5;" width="56" x="107" y="1207.2226"/><text fill="#333333" font-family="Comic Sans MS" font-size="12" lengthAdjust="spacing" textLength="36" x="117" y="1231.1427">return</text><polygon fill="#FFDEE3" points="850.75,1230.3906,1135.75,1230.3906,1147.75,1253.5587,1135.75,1276.7267,850.75,1276.7267,838.75,1253.5587,850.75,1230.3906" style="stroke:#FF69B4;stroke-width:0.5;"/><text fill="#FF1493" font-family="Comic Sans MS" font-size="16" lengthAdjust="spacing" textLength="96" x="946.75" y="1248.9506">&#26102;&#38388;&#26159;&#21542;&#27809;&#21040;</text><text fill="#FF1493" font-family="Comic Sans MS" font-size="16" lengthAdjust="spacing" textLength="281" x="854.75" y="1272.1187">waitEntry.readyAt.After(q.clock.Now()</text><text fill="#FFD700" font-family="Comic Sans MS" font-size="16" lengthAdjust="spacing" textLength="32" x="806.75" y="1248.9506">&#27809;&#21040;</text><text fill="#FFD700" font-family="Comic Sans MS" font-size="16" lengthAdjust="spacing" textLength="32" x="1147.75" y="1248.9506">&#21040;&#20102;</text><rect fill="#F0E8F5" height="54.7522" rx="12.5" ry="12.5" style="stroke:#181818;stroke-width:0.5;" width="339" x="659.25" y="1286.7267"/><text fill="#333333" font-family="Comic Sans MS" font-size="12" lengthAdjust="spacing" textLength="108" x="765.25" y="1310.6468">&#23601;&#21152;&#21040;&#20248;&#20808;&#32423;&#38431;&#21015;&#37324;</text><a href="https://github.com/asjfoajs/MyOperatorProjects/blob/main/note/images/ch05/01/2&#24310;&#26102;&#38431;&#21015;DelayingQueue/insert()-insert__.svg" target="_top" title="https://github.com/asjfoajs/MyOperatorProjects/blob/main/note/images/ch05/01/2&#24310;&#26102;&#38431;&#21015;DelayingQueue/insert()-insert__.svg" xlink:actuate="onRequest" xlink:href="https://github.com/asjfoajs/MyOperatorProjects/blob/main/note/images/ch05/01/2&#24310;&#26102;&#38431;&#21015;DelayingQueue/insert()-insert__.svg" xlink:show="new" xlink:title="https://github.com/asjfoajs/MyOperatorProjects/blob/main/note/images/ch05/01/2&#24310;&#26102;&#38431;&#21015;DelayingQueue/insert()-insert__.svg" xlink:type="simple"><text fill="#0000FF" font-family="Comic Sans MS" font-size="12" lengthAdjust="spacing" text-decoration="underline" textLength="319" x="669.25" y="1328.0229">insert(waitingForQueue, waitingEntryByData, waitEntry)</text></a><rect fill="#F0E8F5" height="54.7522" rx="12.5" ry="12.5" style="stroke:#181818;stroke-width:0.5;" width="164" x="1075.75" y="1286.7267"/><text fill="#333333" font-family="Comic Sans MS" font-size="12" lengthAdjust="spacing" textLength="84" x="1118.75" y="1310.6468">&#23601;&#21152;&#21040;&#24310;&#26102;&#38431;&#21015;</text><text fill="#333333" font-family="Comic Sans MS" font-size="12" lengthAdjust="spacing" textLength="141" x="1088.75" y="1328.0229">q.Add(waitEntry.data.(T))</text><polygon fill="#FFDEE3" points="993.25,1347.4789,1005.25,1359.4789,993.25,1371.4789,981.25,1359.4789,993.25,1347.4789" style="stroke:#FF69B4;stroke-width:0.5;"/><rect fill="#FFE4E1" height="456.8245" rx="10" ry="10" style="stroke:#FF4500;stroke-width:1.5;" width="786.5" x="597" y="1381.4789"/><path d="M932,1381.4789 L932,1394.7509 L922,1404.7509 L597,1404.7509 " fill="none" style="stroke:#FF4500;stroke-width:1.5;"/><text fill="#FF6347" font-family="Comic Sans MS" font-size="14" lengthAdjust="spacing" textLength="325" x="600" y="1398.7189">&#19979;&#38754;&#30340;&#36923;&#36753;&#23601;&#26159;&#23558;waitingForAddCh&#20013;&#30340;&#25968;&#25454;&#22788;&#29702;&#23436;</text><rect fill="#F0E8F5" height="37.3761" rx="12.5" ry="12.5" style="stroke:#181818;stroke-width:0.5;" width="106" x="940.25" y="1421.7509"/><text fill="#333333" font-family="Comic Sans MS" font-size="12" lengthAdjust="spacing" textLength="86" x="950.25" y="1445.671">drained := false</text><polygon fill="#FFDEE3" points="971.25,1554.5711,1015.25,1554.5711,1027.25,1566.5711,1015.25,1578.5711,971.25,1578.5711,959.25,1566.5711,971.25,1554.5711" style="stroke:#FF69B4;stroke-width:0.5;"/><text fill="#FF1493" font-family="Comic Sans MS" font-size="16" lengthAdjust="spacing" textLength="44" x="971.25" y="1573.5471">select</text><polygon fill="#FFDEE3" points="832.5,1629.2151,1117.5,1629.2151,1129.5,1652.3832,1117.5,1675.5512,832.5,1675.5512,820.5,1652.3832,832.5,1629.2151" style="stroke:#FF69B4;stroke-width:0.5;"/><text fill="#FF1493" font-family="Comic Sans MS" font-size="16" lengthAdjust="spacing" textLength="96" x="928.5" y="1647.7752">&#26102;&#38388;&#26159;&#21542;&#27809;&#21040;</text><text fill="#FF1493" font-family="Comic Sans MS" font-size="16" lengthAdjust="spacing" textLength="281" x="836.5" y="1670.9432">waitEntry.readyAt.After(q.clock.Now()</text><text fill="#FFD700" font-family="Comic Sans MS" font-size="16" lengthAdjust="spacing" textLength="32" x="788.5" y="1647.7752">&#27809;&#21040;</text><text fill="#FFD700" font-family="Comic Sans MS" font-size="16" lengthAdjust="spacing" textLength="32" x="1129.5" y="1647.7752">&#21040;&#20102;</text><rect fill="#F0E8F5" height="54.7522" rx="12.5" ry="12.5" style="stroke:#181818;stroke-width:0.5;" width="339" x="641" y="1685.5512"/><text fill="#333333" font-family="Comic Sans MS" font-size="12" lengthAdjust="spacing" textLength="108" x="747" y="1709.4713">&#23601;&#21152;&#21040;&#20248;&#20808;&#32423;&#38431;&#21015;&#37324;</text><a href="https://github.com/asjfoajs/MyOperatorProjects/blob/main/note/images/ch05/01/2&#24310;&#26102;&#38431;&#21015;DelayingQueue/insert()-insert__.svg" target="_top" title="https://github.com/asjfoajs/MyOperatorProjects/blob/main/note/images/ch05/01/2&#24310;&#26102;&#38431;&#21015;DelayingQueue/insert()-insert__.svg" xlink:actuate="onRequest" xlink:href="https://github.com/asjfoajs/MyOperatorProjects/blob/main/note/images/ch05/01/2&#24310;&#26102;&#38431;&#21015;DelayingQueue/insert()-insert__.svg" xlink:show="new" xlink:title="https://github.com/asjfoajs/MyOperatorProjects/blob/main/note/images/ch05/01/2&#24310;&#26102;&#38431;&#21015;DelayingQueue/insert()-insert__.svg" xlink:type="simple"><text fill="#0000FF" font-family="Comic Sans MS" font-size="12" lengthAdjust="spacing" text-decoration="underline" textLength="319" x="651" y="1726.8475">insert(waitingForQueue, waitingEntryByData, waitEntry)</text></a><rect fill="#F0E8F5" height="54.7522" rx="12.5" ry="12.5" style="stroke:#181818;stroke-width:0.5;" width="164" x="1057.5" y="1685.5512"/><text fill="#333333" font-family="Comic Sans MS" font-size="12" lengthAdjust="spacing" textLength="84" x="1100.5" y="1709.4713">&#23601;&#21152;&#21040;&#24310;&#26102;&#38431;&#21015;</text><text fill="#333333" font-family="Comic Sans MS" font-size="12" lengthAdjust="spacing" textLength="141" x="1070.5" y="1726.8475">q.Add(waitEntry.data.(T))</text><polygon fill="#FFDEE3" points="975,1746.3035,987,1758.3035,975,1770.3035,963,1758.3035,975,1746.3035" style="stroke:#FF69B4;stroke-width:0.5;"/><rect fill="#F0E8F5" height="37.3761" rx="12.5" ry="12.5" style="stroke:#181818;stroke-width:0.5;" width="100" x="1251.5" y="1629.2151"/><text fill="#333333" font-family="Comic Sans MS" font-size="12" lengthAdjust="spacing" textLength="80" x="1261.5" y="1653.1352">drained = true</text><polygon fill="#FFDEE3" points="993.25,1780.3035,993.25,1780.3035,1005.25,1792.3035,993.25,1804.3035,993.25,1804.3035,981.25,1792.3035,993.25,1780.3035" style="stroke:#FF69B4;stroke-width:0.5;"/><polygon fill="#FFDEE3" points="961.75,1483.403,1024.75,1483.403,1036.75,1495.403,1024.75,1507.403,961.75,1507.403,949.75,1495.403,961.75,1483.403" style="stroke:#FF69B4;stroke-width:0.5;"/><text fill="#FFD700" font-family="Comic Sans MS" font-size="16" lengthAdjust="spacing" textLength="21" x="997.25" y="1525.9631">&#26159;)</text><text fill="#FF1493" font-family="Comic Sans MS" font-size="16" lengthAdjust="spacing" textLength="63" x="961.75" y="1502.3791">!drained</text><text fill="#FFD700" font-family="Comic Sans MS" font-size="16" lengthAdjust="spacing" textLength="16" x="933.75" y="1490.795">&#21542;</text><polygon fill="#FFDEE3" points="746.75,1848.3035,746.75,1848.3035,758.75,1860.3035,746.75,1872.3035,746.75,1872.3035,734.75,1860.3035,746.75,1848.3035" style="stroke:#FF69B4;stroke-width:0.5;"/><polygon fill="#FFDEE3" points="387.375,424.8289,418.375,424.8289,430.375,436.8289,418.375,448.8289,387.375,448.8289,375.375,436.8289,387.375,424.8289" style="stroke:#FF69B4;stroke-width:0.5;"/><text fill="#FFD700" font-family="Comic Sans MS" font-size="16" lengthAdjust="spacing" textLength="16" x="406.875" y="467.3889">&#26159;</text><text fill="#FF1493" font-family="Comic Sans MS" font-size="16" lengthAdjust="spacing" textLength="31" x="387.375" y="443.8049">true</text><text fill="#FFD700" font-family="Comic Sans MS" font-size="16" lengthAdjust="spacing" textLength="16" x="359.375" y="432.2208">&#21542;</text><ellipse cx="402.875" cy="1937.3035" fill="none" rx="11" ry="11" style="stroke:#222222;stroke-width:1.0;"/><ellipse cx="402.875" cy="1937.3035" fill="#F0E8F5" rx="6" ry="6" style="stroke:#222222;stroke-width:1.0;"/><line style="stroke:#181818;stroke-width:1.0;" x1="402.875" x2="402.875" y1="176.2961" y2="196.2961"/><polygon fill="#181818" points="398.875,186.2961,402.875,196.2961,406.875,186.2961,402.875,190.2961" style="stroke:#181818;stroke-width:1.0;"/><line style="stroke:#181818;stroke-width:1.0;" x1="402.875" x2="402.875" y1="251.0483" y2="271.0483"/><polygon fill="#181818" points="398.875,261.0483,402.875,271.0483,406.875,261.0483,402.875,265.0483" style="stroke:#181818;stroke-width:1.0;"/><line style="stroke:#181818;stroke-width:1.0;" x1="402.875" x2="402.875" y1="325.8006" y2="345.8006"/><polygon fill="#181818" points="398.875,335.8006,402.875,345.8006,406.875,335.8006,402.875,339.8006" style="stroke:#181818;stroke-width:1.0;"/><line style="stroke:#181818;stroke-width:1.0;" x1="867.25" x2="867.25" y1="858.0059" y2="878.0059"/><polygon fill="#181818" points="863.25,868.0059,867.25,878.0059,871.25,868.0059,867.25,872.0059" style="stroke:#181818;stroke-width:1.0;"/><line style="stroke:#181818;stroke-width:1.0;" x1="867.25" x2="867.25" y1="932.7581" y2="952.7581"/><polygon fill="#181818" points="863.25,942.7581,867.25,952.7581,871.25,942.7581,867.25,946.7581" style="stroke:#181818;stroke-width:1.0;"/><line style="stroke:#181818;stroke-width:1.0;" x1="636.25" x2="626.25" y1="752.7095" y2="752.7095"/><line style="stroke:#181818;stroke-width:1.0;" x1="626.25" x2="626.25" y1="752.7095" y2="785.8775"/><line style="stroke:#181818;stroke-width:1.0;" x1="626.25" x2="589.25" y1="785.8775" y2="785.8775"/><polygon fill="#181818" points="599.25,781.8775,589.25,785.8775,599.25,789.8775,595.25,785.8775" style="stroke:#181818;stroke-width:1.0;"/><line style="stroke:#181818;stroke-width:1.0;" x1="857.25" x2="867.25" y1="752.7095" y2="752.7095"/><line style="stroke:#181818;stroke-width:1.0;" x1="867.25" x2="867.25" y1="752.7095" y2="785.8775"/><polygon fill="#181818" points="863.25,775.8775,867.25,785.8775,871.25,775.8775,867.25,779.8775" style="stroke:#181818;stroke-width:1.0;"/><line style="stroke:#181818;stroke-width:1.0;" x1="867.25" x2="867.25" y1="1007.5103" y2="1017.5103"/><line style="stroke:#181818;stroke-width:1.0;" x1="867.25" x2="1059.25" y1="1017.5103" y2="1017.5103"/><polygon fill="#181818" points="1055.25,822.4817,1059.25,812.4817,1063.25,822.4817,1059.25,818.4817" style="stroke:#181818;stroke-width:1.0;"/><line style="stroke:#181818;stroke-width:1.0;" x1="1059.25" x2="1059.25" y1="591.5611" y2="1017.5103"/><line style="stroke:#181818;stroke-width:1.0;" x1="1059.25" x2="859.75" y1="591.5611" y2="591.5611"/><polygon fill="#181818" points="869.75,587.5611,859.75,591.5611,869.75,595.5611,865.75,591.5611" style="stroke:#181818;stroke-width:1.0;"/><line style="stroke:#181818;stroke-width:1.0;" x1="746.75" x2="746.75" y1="709.5414" y2="729.5414"/><polygon fill="#181818" points="742.75,719.5414,746.75,729.5414,750.75,719.5414,746.75,723.5414" style="stroke:#181818;stroke-width:1.0;"/><line style="stroke:#181818;stroke-width:1.0;" x1="746.75" x2="746.75" y1="614.7291" y2="654.7892"/><polygon fill="#181818" points="742.75,644.7892,746.75,654.7892,750.75,644.7892,746.75,648.7892" style="stroke:#181818;stroke-width:1.0;"/><line style="stroke:#181818;stroke-width:1.0;" x1="633.75" x2="589.25" y1="591.5611" y2="591.5611"/><polygon fill="#181818" points="585.25,808.4817,589.25,818.4817,593.25,808.4817,589.25,812.4817" style="stroke:#181818;stroke-width:1.0;"/><line style="stroke:#181818;stroke-width:1.0;" x1="589.25" x2="589.25" y1="591.5611" y2="1029.5103"/><line style="stroke:#181818;stroke-width:1.0;" x1="589.25" x2="746.75" y1="1029.5103" y2="1029.5103"/><line style="stroke:#181818;stroke-width:1.0;" x1="746.75" x2="746.75" y1="1029.5103" y2="1049.5103"/><polygon fill="#181818" points="742.75,1039.5103,746.75,1049.5103,750.75,1039.5103,746.75,1043.5103" style="stroke:#181818;stroke-width:1.0;"/><line style="stroke:#181818;stroke-width:1.0;" x1="838.75" x2="828.75" y1="1253.5587" y2="1253.5587"/><line style="stroke:#181818;stroke-width:1.0;" x1="828.75" x2="828.75" y1="1253.5587" y2="1286.7267"/><polygon fill="#181818" points="824.75,1276.7267,828.75,1286.7267,832.75,1276.7267,828.75,1280.7267" style="stroke:#181818;stroke-width:1.0;"/><line style="stroke:#181818;stroke-width:1.0;" x1="1147.75" x2="1157.75" y1="1253.5587" y2="1253.5587"/><line style="stroke:#181818;stroke-width:1.0;" x1="1157.75" x2="1157.75" y1="1253.5587" y2="1286.7267"/><polygon fill="#181818" points="1153.75,1276.7267,1157.75,1286.7267,1161.75,1276.7267,1157.75,1280.7267" style="stroke:#181818;stroke-width:1.0;"/><line style="stroke:#181818;stroke-width:1.0;" x1="828.75" x2="828.75" y1="1341.4789" y2="1359.4789"/><line style="stroke:#181818;stroke-width:1.0;" x1="828.75" x2="981.25" y1="1359.4789" y2="1359.4789"/><polygon fill="#181818" points="971.25,1355.4789,981.25,1359.4789,971.25,1363.4789,975.25,1359.4789" style="stroke:#181818;stroke-width:1.0;"/><line style="stroke:#181818;stroke-width:1.0;" x1="1157.75" x2="1157.75" y1="1341.4789" y2="1359.4789"/><line style="stroke:#181818;stroke-width:1.0;" x1="1157.75" x2="1005.25" y1="1359.4789" y2="1359.4789"/><polygon fill="#181818" points="1015.25,1355.4789,1005.25,1359.4789,1015.25,1363.4789,1011.25,1359.4789" style="stroke:#181818;stroke-width:1.0;"/><line style="stroke:#181818;stroke-width:1.0;" x1="820.5" x2="810.5" y1="1652.3832" y2="1652.3832"/><line style="stroke:#181818;stroke-width:1.0;" x1="810.5" x2="810.5" y1="1652.3832" y2="1685.5512"/><polygon fill="#181818" points="806.5,1675.5512,810.5,1685.5512,814.5,1675.5512,810.5,1679.5512" style="stroke:#181818;stroke-width:1.0;"/><line style="stroke:#181818;stroke-width:1.0;" x1="1129.5" x2="1139.5" y1="1652.3832" y2="1652.3832"/><line style="stroke:#181818;stroke-width:1.0;" x1="1139.5" x2="1139.5" y1="1652.3832" y2="1685.5512"/><polygon fill="#181818" points="1135.5,1675.5512,1139.5,1685.5512,1143.5,1675.5512,1139.5,1679.5512" style="stroke:#181818;stroke-width:1.0;"/><line style="stroke:#181818;stroke-width:1.0;" x1="810.5" x2="810.5" y1="1740.3035" y2="1758.3035"/><line style="stroke:#181818;stroke-width:1.0;" x1="810.5" x2="963" y1="1758.3035" y2="1758.3035"/><polygon fill="#181818" points="953,1754.3035,963,1758.3035,953,1762.3035,957,1758.3035" style="stroke:#181818;stroke-width:1.0;"/><line style="stroke:#181818;stroke-width:1.0;" x1="1139.5" x2="1139.5" y1="1740.3035" y2="1758.3035"/><line style="stroke:#181818;stroke-width:1.0;" x1="1139.5" x2="987" y1="1758.3035" y2="1758.3035"/><polygon fill="#181818" points="997,1754.3035,987,1758.3035,997,1762.3035,993,1758.3035" style="stroke:#181818;stroke-width:1.0;"/><line style="stroke:#181818;stroke-width:1.0;" x1="959.25" x2="975" y1="1566.5711" y2="1566.5711"/><line style="stroke:#181818;stroke-width:1.0;" x1="975" x2="975" y1="1566.5711" y2="1629.2151"/><polygon fill="#181818" points="971,1619.2151,975,1629.2151,979,1619.2151,975,1623.2151" style="stroke:#181818;stroke-width:1.0;"/><text fill="#FFD700" font-family="Comic Sans MS" font-size="16" lengthAdjust="spacing" textLength="251" x="975" y="1607.7151">waitEntry := &lt;-q.waitingForAddCh</text><line style="stroke:#181818;stroke-width:1.0;" x1="1027.25" x2="1301.5" y1="1566.5711" y2="1566.5711"/><line style="stroke:#181818;stroke-width:1.0;" x1="1301.5" x2="1301.5" y1="1566.5711" y2="1629.2151"/><polygon fill="#181818" points="1297.5,1619.2151,1301.5,1629.2151,1305.5,1619.2151,1301.5,1623.2151" style="stroke:#181818;stroke-width:1.0;"/><text fill="#FFD700" font-family="Comic Sans MS" font-size="16" lengthAdjust="spacing" textLength="54" x="1301.5" y="1607.7151">defalut</text><line style="stroke:#181818;stroke-width:1.0;" x1="975" x2="975" y1="1770.3035" y2="1792.3035"/><line style="stroke:#181818;stroke-width:1.0;" x1="975" x2="981.25" y1="1792.3035" y2="1792.3035"/><polygon fill="#181818" points="971.25,1788.3035,981.25,1792.3035,971.25,1796.3035,975.25,1792.3035" style="stroke:#181818;stroke-width:1.0;"/><line style="stroke:#181818;stroke-width:1.0;" x1="1301.5" x2="1301.5" y1="1666.5913" y2="1792.3035"/><line style="stroke:#181818;stroke-width:1.0;" x1="1301.5" x2="1005.25" y1="1792.3035" y2="1792.3035"/><polygon fill="#181818" points="1015.25,1788.3035,1005.25,1792.3035,1015.25,1796.3035,1011.25,1792.3035" style="stroke:#181818;stroke-width:1.0;"/><line style="stroke:#181818;stroke-width:1.0;" x1="993.25" x2="993.25" y1="1507.403" y2="1554.5711"/><polygon fill="#181818" points="989.25,1544.5711,993.25,1554.5711,997.25,1544.5711,993.25,1548.5711" style="stroke:#181818;stroke-width:1.0;"/><line style="stroke:#181818;stroke-width:1.0;" x1="993.25" x2="993.25" y1="1804.3035" y2="1814.3035"/><line style="stroke:#181818;stroke-width:1.0;" x1="993.25" x2="1367.5" y1="1814.3035" y2="1814.3035"/><polygon fill="#181818" points="1363.5,1713.0072,1367.5,1703.0072,1371.5,1713.0072,1367.5,1709.0072" style="stroke:#181818;stroke-width:1.0;"/><line style="stroke:#181818;stroke-width:1.0;" x1="1367.5" x2="1367.5" y1="1495.403" y2="1814.3035"/><line style="stroke:#181818;stroke-width:1.0;" x1="1367.5" x2="1036.75" y1="1495.403" y2="1495.403"/><polygon fill="#181818" points="1046.75,1491.403,1036.75,1495.403,1046.75,1499.403,1042.75,1495.403" style="stroke:#181818;stroke-width:1.0;"/><line style="stroke:#181818;stroke-width:1.0;" x1="949.75" x2="619" y1="1495.403" y2="1495.403"/><polygon fill="#181818" points="615,1699.0072,619,1709.0072,623,1699.0072,619,1703.0072" style="stroke:#181818;stroke-width:1.0;"/><line style="stroke:#181818;stroke-width:1.0;" x1="619" x2="619" y1="1495.403" y2="1826.3035"/><line style="stroke:#181818;stroke-width:1.0;" x1="619" x2="993.25" y1="1826.3035" y2="1826.3035"/><line style="stroke:#181818;stroke-width:1.0;" x1="993.25" x2="993.25" y1="1826.3035" y2="1860.3035"/><line style="stroke:#181818;stroke-width:1.0;" x1="993.25" x2="758.75" y1="1860.3035" y2="1860.3035"/><polygon fill="#181818" points="768.75,1856.3035,758.75,1860.3035,768.75,1864.3035,764.75,1860.3035" style="stroke:#181818;stroke-width:1.0;"/><line style="stroke:#181818;stroke-width:1.0;" x1="993.25" x2="993.25" y1="1459.127" y2="1483.403"/><polygon fill="#181818" points="989.25,1473.403,993.25,1483.403,997.25,1473.403,993.25,1477.403" style="stroke:#181818;stroke-width:1.0;"/><line style="stroke:#181818;stroke-width:1.0;" x1="993.25" x2="993.25" y1="1371.4789" y2="1421.7509"/><polygon fill="#181818" points="989.25,1411.7509,993.25,1421.7509,997.25,1411.7509,993.25,1415.7509" style="stroke:#181818;stroke-width:1.0;"/><line style="stroke:#181818;stroke-width:1.0;" x1="712.75" x2="135" y1="1118.8865" y2="1118.8865"/><line style="stroke:#181818;stroke-width:1.0;" x1="135" x2="135" y1="1118.8865" y2="1207.2226"/><polygon fill="#181818" points="131,1197.2226,135,1207.2226,139,1197.2226,135,1201.2226" style="stroke:#181818;stroke-width:1.0;"/><text fill="#FFD700" font-family="Comic Sans MS" font-size="16" lengthAdjust="spacing" textLength="82" x="135" y="1162.5545">&lt;-q.stopCh</text><line style="stroke:#181818;stroke-width:1.0;" x1="780.75" x2="993.25" y1="1118.8865" y2="1118.8865"/><line style="stroke:#181818;stroke-width:1.0;" x1="993.25" x2="993.25" y1="1118.8865" y2="1230.3906"/><polygon fill="#181818" points="989.25,1220.3906,993.25,1230.3906,997.25,1220.3906,993.25,1224.3906" style="stroke:#181818;stroke-width:1.0;"/><text fill="#FFD700" font-family="Comic Sans MS" font-size="16" lengthAdjust="spacing" textLength="242" x="993.25" y="1162.5545">waitingForAddCh&#25910;&#21040;&#20102;&#26032;&#30340;&#20803;&#32032;</text><text fill="#FFD700" font-family="Comic Sans MS" font-size="16" lengthAdjust="spacing" textLength="255" x="997.25" y="1185.7226">waitEntry := &lt;-q.waitingForAddCh:</text><line style="stroke:#181818;stroke-width:1.0;" x1="237" x2="237" y1="1118.8865" y2="1860.3035"/><line style="stroke:#181818;stroke-width:1.0;" x1="237" x2="734.75" y1="1860.3035" y2="1860.3035"/><polygon fill="#181818" points="724.75,1856.3035,734.75,1860.3035,724.75,1864.3035,728.75,1860.3035" style="stroke:#181818;stroke-width:1.0;"/><text fill="#FFD700" font-family="Comic Sans MS" font-size="16" lengthAdjust="spacing" textLength="130" x="237" y="1545.2189">&#24515;&#36339;&#26102;&#38388;&#26159;10&#31186;&#12290;</text><text fill="#FFD700" font-family="Comic Sans MS" font-size="16" lengthAdjust="spacing" textLength="160" x="237" y="1568.387">&#21040;&#20102;&#23601;&#32487;&#32493;&#19979;&#19968;&#36718;&#24490;&#29615;</text><text fill="#FFD700" font-family="Comic Sans MS" font-size="16" lengthAdjust="spacing" textLength="127" x="241" y="1591.555">&lt;-q.heartbeat.C()</text><line style="stroke:#181818;stroke-width:1.0;" x1="417" x2="417" y1="1118.8865" y2="1860.3035"/><polygon fill="#181818" points="413,1850.3035,417,1860.3035,421,1850.3035,417,1854.3035" style="stroke:#181818;stroke-width:1.0;"/><text fill="#FFD700" font-family="Comic Sans MS" font-size="16" lengthAdjust="spacing" textLength="160" x="417" y="1545.2189">&#31532;&#19968;&#20010;&#20803;&#32032;&#30340;&#31561;&#24453;&#26102;&#38388;</text><text fill="#FFD700" font-family="Comic Sans MS" font-size="16" lengthAdjust="spacing" textLength="160" x="417" y="1568.387">&#21040;&#20102;&#65292;&#32487;&#32493;&#19979;&#19968;&#36718;&#24490;&#29615;</text><text fill="#FFD700" font-family="Comic Sans MS" font-size="16" lengthAdjust="spacing" textLength="110" x="421" y="1591.555">&lt;-nextReadyAt</text><line style="stroke:#181818;stroke-width:1.0;" x1="746.75" x2="746.75" y1="1086.8865" y2="1106.8865"/><polygon fill="#181818" points="742.75,1096.8865,746.75,1106.8865,750.75,1096.8865,746.75,1100.8865" style="stroke:#181818;stroke-width:1.0;"/><line style="stroke:#181818;stroke-width:1.0;" x1="193.875" x2="69" y1="523.641" y2="523.641"/><line style="stroke:#181818;stroke-width:1.0;" x1="69" x2="69" y1="523.641" y2="568.393"/><polygon fill="#181818" points="65,558.393,69,568.393,73,558.393,69,562.393" style="stroke:#181818;stroke-width:1.0;"/><line style="stroke:#181818;stroke-width:1.0;" x1="611.875" x2="746.75" y1="523.641" y2="523.641"/><line style="stroke:#181818;stroke-width:1.0;" x1="746.75" x2="746.75" y1="523.641" y2="568.393"/><polygon fill="#181818" points="742.75,558.393,746.75,568.393,750.75,558.393,746.75,562.393" style="stroke:#181818;stroke-width:1.0;"/><line style="stroke:#181818;stroke-width:1.0;" x1="746.75" x2="746.75" y1="1872.3035" y2="1882.3035"/><line style="stroke:#181818;stroke-width:1.0;" x1="746.75" x2="1397.5" y1="1882.3035" y2="1882.3035"/><polygon fill="#181818" points="1393.5,1237.4981,1397.5,1227.4981,1401.5,1237.4981,1397.5,1233.4981" style="stroke:#181818;stroke-width:1.0;"/><line style="stroke:#181818;stroke-width:1.0;" x1="1397.5" x2="1397.5" y1="436.8289" y2="1882.3035"/><line style="stroke:#181818;stroke-width:1.0;" x1="1397.5" x2="430.375" y1="436.8289" y2="436.8289"/><polygon fill="#181818" points="440.375,432.8289,430.375,436.8289,440.375,440.8289,436.375,436.8289" style="stroke:#181818;stroke-width:1.0;"/><line style="stroke:#181818;stroke-width:1.0;" x1="402.875" x2="402.875" y1="448.8289" y2="488.8889"/><polygon fill="#181818" points="398.875,478.8889,402.875,488.8889,406.875,478.8889,402.875,482.8889" style="stroke:#181818;stroke-width:1.0;"/><line style="stroke:#181818;stroke-width:1.0;" x1="375.375" x2="27" y1="436.8289" y2="436.8289"/><polygon fill="#181818" points="23,1223.4981,27,1233.4981,31,1223.4981,27,1227.4981" style="stroke:#181818;stroke-width:1.0;"/><line style="stroke:#181818;stroke-width:1.0;" x1="27" x2="27" y1="436.8289" y2="1894.3035"/><line style="stroke:#181818;stroke-width:1.0;" x1="27" x2="402.875" y1="1894.3035" y2="1894.3035"/><line style="stroke:#181818;stroke-width:1.0;" x1="402.875" x2="402.875" y1="1894.3035" y2="1926.3035"/><polygon fill="#181818" points="398.875,1916.3035,402.875,1926.3035,406.875,1916.3035,402.875,1920.3035" style="stroke:#181818;stroke-width:1.0;"/><line style="stroke:#181818;stroke-width:1.0;" x1="402.875" x2="402.875" y1="400.5528" y2="424.8289"/><polygon fill="#181818" points="398.875,414.8289,402.875,424.8289,406.875,414.8289,402.875,418.8289" style="stroke:#181818;stroke-width:1.0;"/><line style="stroke:#181818;stroke-width:1.0;" x1="402.875" x2="402.875" y1="71.2719" y2="121.5438"/><polygon fill="#181818" points="398.875,111.5438,402.875,121.5438,406.875,111.5438,402.875,115.5438" style="stroke:#181818;stroke-width:1.0;"/><!--SRC=[tLThJnDP6FxUNp6RJPPsWssvgg0cq4jYeguhVWDZXlP0HzgPCdCgTer98_Sxkq515mKC2XA1hXeebCkFsPwPzfD_OTypPsRQJbjND-v-s84qxJbddlVsFE-ySqd1oIYwuk13MBWluAHVuFjbFiOzT71mTVAXWNvPIeXXdnILPExxe3Tm8TZ2zYGvZ6HpFUZp-ZhrzQ0aOcErgQd9Mhh1nn3das92YElYHOMxtkLuv7241JucYU6QveB-G81XN1D4PAssNknijXiB1XkQBtxMdhdL9Vo2k8PMQf-NPMd8i5w6vJ_lzNubLfoNiO05IJJmoZnkRYd1AyRHr7nUNxt5WfP597EDtbh923G76gWbKSAeqcalNC6WtVI5ZiREG6Drn41he3NOeTT12YLYICGr2z4IRF7xw4cw7A-MCQic9SRz_WwltryhdCvM7mtdaiVWe0FI5qNS40zP5FklILBSwLAV7geVdZWS2eRi6iRB3ZZQUZ35vmhBgsHYgJ0-exvVLrScoUYmzd5DNThNTYR9wMYFo8deFcItxJ8NumUGyzAvK8GNEIp4aFisVBZQAHBzKr-E559hkKmgbzdE7I-JqGdjQ9EXSm1ZM0zAyiy9b40Ky0Uw1WitPK6IGKJwniD7W9W_UmP0-VKPChfFTb-IgTNyy4akCyLyp6LJkSE9tCcAjhZrwNWcbvdDdusJbIqolvVVowgfJNfoPL9xV4WoksJgBPXdBaB84SJ7tLT50Jjj3hbCizinFWx0welNP6D4MnWhZC-IZLdr84kcrWgfRFxqLztcTE75gzpny_pkUpAHfW5oPeW14Sl9pgIVnpnBMxmRt_dHY9M6DnGHe5vEB8DLJb0ufxgyvzAhBVHnJkO4MKb33Q-A6CbzV0ZbidFvlHqeAGtjnMjjPHg2fUM2pwKrAmdguYdaeKS43AWev8nih9BZetnw6FuXgDpH61aRBGnlwI5hpqUKI09Jd_tIa6YonaWND-Y-dOoZiEM3kwliSD5r3aUGgFjFhpOPuOGijbiB0q8qglz0KGN29WjlNDQUaOeI5gvCMYmawJ_8SOfiJfFJRMrkhmgBtDSGUC9TuRosH9g-iAhdvmx8_5FjtJl6JePEuH0j5IsI7VScGWDEbzjfbitLNWfBomGIAInzp9yj0oU10L02O3nK0MZ9U0FuS4wtu9OH7qvsO7T77-JIAKf3DRDdNBrmnq2PJPgyyjoPCJ9Fm0UeBhWHb-9a_CWMx9-fn-g7BNLalY9GlHdO87KvBmE_KcHXhXIcNfUFVW_issnKeXZvlSnPjzb5Lol3Uc0SIO-fJzBgB8Xu3U8ZsNqQgzLI1jqTuR2JPJWCQdCxRxkgmN2W2L1XBhD39jOAppR8mNijEr-92NeeKYECeWWZPwMcwxcYnN9hI0mBVOwINpgxMT6AyY1l7gilLvZ5NEP8Utj49cYtqtx_o7fk4LCP4d0eubJ0bH0khrA8LsWp7dGhM8hx8XKbh9HXXHpBeCZPSFxW0wCIbBR1gst-1gJf4HclG8fQTbFBxa3ZevtvP9Tf4X95dO3wohWNyTZjWyPGYMvZ2YIQXShicKQ0lBMDYEW1liLaLCL0aLT02Lz4NTndaEhJj5LLetq4JCrJnsttjLNcaMhTUC2PoO62Cj5pfP0saG-wGr4fDE2-8GrPlLA_gRhWpLRLWsdNqwbfUuX2SwougRixWd5SQVDu-WKSIVIwGrBCmolt-YJ-dkAvdlmfZcGUqoUiT0yef7XwerAl9yOBeeSEGnuXnlSZnHEAU5iytWPFOwaQ_2ZA9o4tkb0zWgWW6JjTvzYNktVTolr-pbYrgRgUgwOQAr6kEtVQ7NKLUVv7K9NqDXuoUlLTrR8CdrQAgtUKOabhTnMRsCshECoo2G78nsO6C4cPanwpCGwQ4fmnkfp-t22xCmyhS7NVmp8K3eKfT_ju2BEzwZ7MTBup3bFcwOyPLzN3VzDbx9UbjS-9wFCG_wMcled6_iUQir-G-cybmw-JvRydqo-JRGN7mmWKbi1VuAafoiiSdUThEm26cT0SDNPBXWNxxgFAqlL59PuMXAESQdDKjyA2DR6DqHj-SleBeOEE3Wv77NixDCd6J1bAqIUTJySJ-VMjmlhXf-D9fbIoimmZbJv0Fn0KwaOz-wRGbZ00ywr82oCWfRiuAva4fE9dCv0nXp4mThzzBAuhRndaS3-NMMGFTHsPFjpfQB9jD1AOeLPtIXspTP2oSTnLqvgH0Cf0W0Hx3BuQC1I-3BH4PYNlEtNb_AkhlctCXl0MmP82vdEPLo20GMXCr3YRenDAn3beZA6kzkBD2pFWfZNhvdVJvEI9FdPDqycAlltDgQkluNsMGjMgaXcFWMluQv7cBm00]--></g></svg>