<?xml version="1.0" encoding="us-ascii" standalone="no"?><svg xmlns="http://www.w3.org/2000/svg" xmlns:xlink="http://www.w3.org/1999/xlink" contentStyleType="text/css" height="1959px" preserveAspectRatio="none" style="width:1426px;height:1959px;background:#F5F5DC;" version="1.1" viewBox="0 0 1426 1959" width="1426px" zoomAndPan="magnify"><defs/><g><rect fill="#F5F5DC" height="1959" style="stroke:none;stroke-width:1.0;" width="1426" x="0" y="0"/><text fill="#000000" font-family="sans-serif" font-size="14" font-weight="bold" lengthAdjust="spacing" textLength="124" x="649.5" y="36.2399">waitingLoop()&#26041;&#27861;</text><ellipse cx="403.25" cy="61.2719" fill="#F0E8F5" rx="10" ry="10" style="stroke:#222222;stroke-width:1.0;"/><rect fill="#FFB6C1" height="1825.0316" style="stroke:#DDA0DD;stroke-width:1.5;" width="1404" x="11" y="81.2719"/><path d="M113,81.2719 L113,94.5438 L103,104.5438 L11,104.5438 " fill="none" style="stroke:#DDA0DD;stroke-width:1.5;"/><text fill="#FF69B4" font-family="Comic Sans MS" font-size="14" lengthAdjust="spacing" textLength="92" x="14" y="98.5118">waitingLoop()</text><rect fill="#F0E8F5" height="54.7522" rx="12.5" ry="12.5" style="stroke:#181818;stroke-width:0.5;" width="209" x="298.75" y="121.5438"/><text fill="#333333" font-family="Comic Sans MS" font-size="12" lengthAdjust="spacing" textLength="120" x="347.75" y="145.4639">&#38431;&#21015;&#37324;&#27809;&#26377;&#20803;&#32032;&#26102;&#31561;&#24453;</text><text fill="#333333" font-family="Comic Sans MS" font-size="12" lengthAdjust="spacing" textLength="186" x="311.75" y="162.84">never := make(&lt;-chan time.Time)</text><rect fill="#F0E8F5" height="54.7522" rx="12.5" ry="12.5" style="stroke:#181818;stroke-width:0.5;" width="276" x="265.25" y="196.2961"/><text fill="#333333" font-family="Comic Sans MS" font-size="12" lengthAdjust="spacing" textLength="108" x="347.25" y="220.2162">&#26500;&#36896;&#19968;&#20010;&#20248;&#20808;&#32423;&#38431;&#21015;</text><text fill="#333333" font-family="Comic Sans MS" font-size="12" lengthAdjust="spacing" textLength="253" x="278.25" y="237.5923">waitingForQueue := &amp;waitForPriorityQueue{}</text><rect fill="#F0E8F5" height="54.7522" rx="12.5" ry="12.5" style="stroke:#181818;stroke-width:0.5;" width="335" x="235.75" y="271.0483"/><text fill="#333333" font-family="Comic Sans MS" font-size="12" lengthAdjust="spacing" textLength="312" x="245.75" y="294.9684">&#36825;&#19968;&#34892;&#20854;&#23454;&#21151;&#33021;&#19978;&#27809;&#26377;&#20160;&#20040;&#20316;&#29992;&#65292;&#19981;&#36807;&#22312;&#21487;&#35835;&#24615;&#19978;&#26377;&#28857;&#24110;&#21161;</text><text fill="#333333" font-family="Comic Sans MS" font-size="12" lengthAdjust="spacing" textLength="156" x="344.75" y="312.3445">heap.Init(waitingForQueue)</text><rect fill="#F0E8F5" height="54.7522" rx="12.5" ry="12.5" style="stroke:#181818;stroke-width:0.5;" width="264" x="271.25" y="345.8006"/><text fill="#333333" font-family="Comic Sans MS" font-size="12" lengthAdjust="spacing" textLength="241" x="281.25" y="369.7206">&#36825;&#20010;map&#29992;&#26469;&#22788;&#29702;&#37325;&#22797;&#28155;&#21152;&#36923;&#36753;&#65292;&#19979;&#38754;&#20250;&#35762;&#21040;</text><text fill="#333333" font-family="Comic Sans MS" font-size="12" lengthAdjust="spacing" textLength="225" x="290.25" y="387.0968">waitingEntryByData := map[t]*waitFor{}</text><polygon fill="#FFDEE3" points="206.25,488.8889,600.25,488.8889,612.25,523.641,600.25,558.393,206.25,558.393,194.25,523.641,206.25,488.8889" style="stroke:#FF69B4;stroke-width:0.5;"/><text fill="#FF1493" font-family="Comic Sans MS" font-size="16" lengthAdjust="spacing" textLength="371" x="206.25" y="507.4489">&#36825;&#20010;&#22320;&#26041;Interface&#20174;&#35821;&#27861;&#19978;&#26469;&#30475;&#21487;&#26377;&#21487;&#26080;&#65292;&#19981;&#36807;&#25918;&#22312;</text><text fill="#FF1493" font-family="Comic Sans MS" font-size="16" lengthAdjust="spacing" textLength="390" x="206.25" y="530.617">&#36825;&#37324;&#33021;&#22815;&#24378;&#35843;&#35843;&#29992;&#20102;&#20869;&#37096;Queue&#30340;shuttingDown()&#26041;&#27861;</text><text fill="#FF1493" font-family="Comic Sans MS" font-size="16" lengthAdjust="spacing" textLength="251" x="274.25" y="553.785">q.TypedInterface.ShuttingDown()</text><text fill="#FFD700" font-family="Comic Sans MS" font-size="16" lengthAdjust="spacing" textLength="16" x="178.25" y="519.033">&#26159;</text><text fill="#FFD700" font-family="Comic Sans MS" font-size="16" lengthAdjust="spacing" textLength="16" x="612.25" y="519.033">&#21542;</text><rect fill="#F0E8F5" height="37.3761" rx="12.5" ry="12.5" style="stroke:#181818;stroke-width:0.5;" width="56" x="41" y="568.393"/><text fill="#333333" font-family="Comic Sans MS" font-size="12" lengthAdjust="spacing" textLength="36" x="51" y="592.3131">return</text><rect fill="#F0E8F5" height="54.7522" rx="12.5" ry="12.5" style="stroke:#181818;stroke-width:0.5;" width="268" x="613.5" y="654.7892"/><text fill="#333333" font-family="Comic Sans MS" font-size="12" lengthAdjust="spacing" textLength="84" x="695.5" y="678.7093">&#33719;&#21462;&#31532;&#19968;&#20010;&#20803;&#32032;</text><text fill="#333333" font-family="Comic Sans MS" font-size="12" lengthAdjust="spacing" textLength="245" x="626.5" y="696.0854">entry := waitingForQueue.Peek().(*waitFor)</text><polygon fill="#FFDEE3" points="649,729.5414,846,729.5414,858,752.7095,846,775.8775,649,775.8775,637,752.7095,649,729.5414" style="stroke:#FF69B4;stroke-width:0.5;"/><text fill="#FF1493" font-family="Comic Sans MS" font-size="16" lengthAdjust="spacing" textLength="176" x="649" y="748.1014">&#26102;&#38388;&#36824;&#27809;&#21040;&#65292;&#20808;&#19981;&#20316;&#22788;&#29702;</text><text fill="#FF1493" font-family="Comic Sans MS" font-size="16" lengthAdjust="spacing" textLength="197" x="649" y="771.2695">if entry.readyAt.After(now)</text><text fill="#FFD700" font-family="Comic Sans MS" font-size="16" lengthAdjust="spacing" textLength="16" x="621" y="748.1014">&#26159;</text><text fill="#FFD700" font-family="Comic Sans MS" font-size="16" lengthAdjust="spacing" textLength="16" x="858" y="748.1014">&#21542;</text><rect fill="#F0E8F5" height="72.1284" rx="12.5" ry="12.5" style="stroke:#181818;stroke-width:0.5;" width="340" x="698" y="785.8775"/><text fill="#333333" font-family="Comic Sans MS" font-size="12" lengthAdjust="spacing" textLength="320" x="708" y="809.7976">&#26102;&#38388;&#21040;&#20102;&#65292;pop&#20986;&#31532;&#19968;&#20010;&#20803;&#32032;&#12290;&#27880;&#24847;waitingForQueue.Pop()</text><text fill="#333333" font-family="Comic Sans MS" font-size="12" lengthAdjust="spacing" textLength="220" x="756" y="827.1737">&#26159;&#26368;&#21518;&#19968;&#20010;&#20803;&#32032;,heap.Pop()&#26159;&#31532;&#19968;&#20010;&#20803;&#32032;</text><text fill="#333333" font-family="Comic Sans MS" font-size="12" lengthAdjust="spacing" textLength="263" x="735" y="844.5498">entry = heap.Pop(waitingForQueue).(*waitFor)</text><rect fill="#F0E8F5" height="54.7522" rx="12.5" ry="12.5" style="stroke:#181818;stroke-width:0.5;" width="139" x="798.5" y="878.0059"/><text fill="#333333" font-family="Comic Sans MS" font-size="12" lengthAdjust="spacing" textLength="108" x="811.5" y="901.926">&#23558;&#25968;&#25454;&#21152;&#21040;&#24310;&#26102;&#38431;&#21015;</text><text fill="#333333" font-family="Comic Sans MS" font-size="12" lengthAdjust="spacing" textLength="116" x="811.5" y="919.3021">q.Add(entry.data.(T))</text><rect fill="#F0E8F5" height="54.7522" rx="12.5" ry="12.5" style="stroke:#181818;stroke-width:0.5;" width="245" x="745.5" y="952.7581"/><text fill="#333333" font-family="Comic Sans MS" font-size="12" lengthAdjust="spacing" textLength="205" x="761.5" y="976.6782">&#22312;map&#20013;&#21024;&#38500;&#24050;&#32463;&#21152;&#21040;&#24310;&#26102;&#38431;&#21015;&#30340;&#20803;&#32032;</text><text fill="#333333" font-family="Comic Sans MS" font-size="12" lengthAdjust="spacing" textLength="222" x="758.5" y="994.0543">delete(waitingEntryByData, entry.data)</text><polygon fill="#FFDEE3" points="646.5,568.393,848.5,568.393,860.5,591.5611,848.5,614.7291,646.5,614.7291,634.5,591.5611,646.5,568.393" style="stroke:#FF69B4;stroke-width:0.5;"/><text fill="#FFD700" font-family="Comic Sans MS" font-size="16" lengthAdjust="spacing" textLength="16" x="751.5" y="633.2892">&#26159;</text><text fill="#FF1493" font-family="Comic Sans MS" font-size="16" lengthAdjust="spacing" textLength="192" x="650.5" y="586.9531">&#38431;&#21015;&#37324;&#26377;&#26377;&#20803;&#32032;&#23601;&#24320;&#22987;&#24490;&#29615;</text><text fill="#FF1493" font-family="Comic Sans MS" font-size="16" lengthAdjust="spacing" textLength="198" x="650.5" y="610.1211">waitingForQueue.Len() &gt; 0</text><text fill="#FFD700" font-family="Comic Sans MS" font-size="16" lengthAdjust="spacing" textLength="16" x="618.5" y="586.9531">&#21542;</text><rect fill="#F0E8F5" height="37.3761" rx="12.5" ry="12.5" style="stroke:#181818;stroke-width:0.5;" width="152" x="671.5" y="1049.5103"/><text fill="#333333" font-family="Comic Sans MS" font-size="12" lengthAdjust="spacing" textLength="132" x="681.5" y="1073.4304">&#22914;&#26524;&#38431;&#21015;&#20026;&#31354;&#21017;&#19968;&#30452;&#31561;&#24453;</text><polygon fill="#FFDEE3" points="725.5,1106.8865,769.5,1106.8865,781.5,1118.8865,769.5,1130.8865,725.5,1130.8865,713.5,1118.8865,725.5,1106.8865" style="stroke:#FF69B4;stroke-width:0.5;"/><text fill="#FF1493" font-family="Comic Sans MS" font-size="16" lengthAdjust="spacing" textLength="44" x="725.5" y="1125.8625">select</text><rect fill="#F0E8F5" height="37.3761" rx="12.5" ry="12.5" style="stroke:#181818;stroke-width:0.5;" width="56" x="107" y="1207.2226"/><text fill="#333333" font-family="Comic Sans MS" font-size="12" lengthAdjust="spacing" textLength="36" x="117" y="1231.1427">return</text><polygon fill="#FFDEE3" points="851.5,1230.3906,1136.5,1230.3906,1148.5,1253.5587,1136.5,1276.7267,851.5,1276.7267,839.5,1253.5587,851.5,1230.3906" style="stroke:#FF69B4;stroke-width:0.5;"/><text fill="#FF1493" font-family="Comic Sans MS" font-size="16" lengthAdjust="spacing" textLength="96" x="947.5" y="1248.9506">&#26102;&#38388;&#26159;&#21542;&#27809;&#21040;</text><text fill="#FF1493" font-family="Comic Sans MS" font-size="16" lengthAdjust="spacing" textLength="281" x="855.5" y="1272.1187">waitEntry.readyAt.After(q.clock.Now()</text><text fill="#FFD700" font-family="Comic Sans MS" font-size="16" lengthAdjust="spacing" textLength="32" x="807.5" y="1248.9506">&#27809;&#21040;</text><text fill="#FFD700" font-family="Comic Sans MS" font-size="16" lengthAdjust="spacing" textLength="32" x="1148.5" y="1248.9506">&#21040;&#20102;</text><polygon fill="#F0E8F5" points="657,1286.7267,1002,1286.7267,1012,1314.1028,1002,1341.4789,657,1341.4789" style="stroke:#181818;stroke-width:0.5;"/><text fill="#333333" font-family="Comic Sans MS" font-size="12" lengthAdjust="spacing" textLength="108" x="763" y="1310.6468">&#23601;&#21152;&#21040;&#20248;&#20808;&#32423;&#38431;&#21015;&#37324;</text><text fill="#333333" font-family="Comic Sans MS" font-size="12" lengthAdjust="spacing" textLength="322" x="670" y="1328.0229">insert(waitingForQueue, waitingEntryByData, waitEntry);</text><rect fill="#F0E8F5" height="54.7522" rx="12.5" ry="12.5" style="stroke:#181818;stroke-width:0.5;" width="164" x="1076.5" y="1286.7267"/><text fill="#333333" font-family="Comic Sans MS" font-size="12" lengthAdjust="spacing" textLength="84" x="1119.5" y="1310.6468">&#23601;&#21152;&#21040;&#24310;&#26102;&#38431;&#21015;</text><text fill="#333333" font-family="Comic Sans MS" font-size="12" lengthAdjust="spacing" textLength="141" x="1089.5" y="1328.0229">q.Add(waitEntry.data.(T))</text><polygon fill="#FFDEE3" points="994,1347.4789,1006,1359.4789,994,1371.4789,982,1359.4789,994,1347.4789" style="stroke:#FF69B4;stroke-width:0.5;"/><rect fill="#FFE4E1" height="456.8245" rx="10" ry="10" style="stroke:#FF4500;stroke-width:1.5;" width="788" x="597" y="1381.4789"/><path d="M932,1381.4789 L932,1394.7509 L922,1404.7509 L597,1404.7509 " fill="none" style="stroke:#FF4500;stroke-width:1.5;"/><text fill="#FF6347" font-family="Comic Sans MS" font-size="14" lengthAdjust="spacing" textLength="325" x="600" y="1398.7189">&#19979;&#38754;&#30340;&#36923;&#36753;&#23601;&#26159;&#23558;waitingForAddCh&#20013;&#30340;&#25968;&#25454;&#22788;&#29702;&#23436;</text><rect fill="#F0E8F5" height="37.3761" rx="12.5" ry="12.5" style="stroke:#181818;stroke-width:0.5;" width="106" x="941" y="1421.7509"/><text fill="#333333" font-family="Comic Sans MS" font-size="12" lengthAdjust="spacing" textLength="86" x="951" y="1445.671">drained := false</text><polygon fill="#FFDEE3" points="972,1554.5711,1016,1554.5711,1028,1566.5711,1016,1578.5711,972,1578.5711,960,1566.5711,972,1554.5711" style="stroke:#FF69B4;stroke-width:0.5;"/><text fill="#FF1493" font-family="Comic Sans MS" font-size="16" lengthAdjust="spacing" textLength="44" x="972" y="1573.5471">select</text><polygon fill="#FFDEE3" points="834,1629.2151,1119,1629.2151,1131,1652.3832,1119,1675.5512,834,1675.5512,822,1652.3832,834,1629.2151" style="stroke:#FF69B4;stroke-width:0.5;"/><text fill="#FF1493" font-family="Comic Sans MS" font-size="16" lengthAdjust="spacing" textLength="96" x="930" y="1647.7752">&#26102;&#38388;&#26159;&#21542;&#27809;&#21040;</text><text fill="#FF1493" font-family="Comic Sans MS" font-size="16" lengthAdjust="spacing" textLength="281" x="838" y="1670.9432">waitEntry.readyAt.After(q.clock.Now()</text><text fill="#FFD700" font-family="Comic Sans MS" font-size="16" lengthAdjust="spacing" textLength="32" x="790" y="1647.7752">&#27809;&#21040;</text><text fill="#FFD700" font-family="Comic Sans MS" font-size="16" lengthAdjust="spacing" textLength="32" x="1131" y="1647.7752">&#21040;&#20102;</text><rect fill="#F0E8F5" height="54.7522" rx="12.5" ry="12.5" style="stroke:#181818;stroke-width:0.5;" width="342" x="641" y="1685.5512"/><text fill="#333333" font-family="Comic Sans MS" font-size="12" lengthAdjust="spacing" textLength="108" x="747" y="1709.4713">&#23601;&#21152;&#21040;&#20248;&#20808;&#32423;&#38431;&#21015;&#37324;</text><text fill="#333333" font-family="Comic Sans MS" font-size="12" lengthAdjust="spacing" textLength="319" x="654" y="1726.8475">insert(waitingForQueue, waitingEntryByData, waitEntry)</text><rect fill="#F0E8F5" height="54.7522" rx="12.5" ry="12.5" style="stroke:#181818;stroke-width:0.5;" width="164" x="1059" y="1685.5512"/><text fill="#333333" font-family="Comic Sans MS" font-size="12" lengthAdjust="spacing" textLength="84" x="1102" y="1709.4713">&#23601;&#21152;&#21040;&#24310;&#26102;&#38431;&#21015;</text><text fill="#333333" font-family="Comic Sans MS" font-size="12" lengthAdjust="spacing" textLength="141" x="1072" y="1726.8475">q.Add(waitEntry.data.(T))</text><polygon fill="#FFDEE3" points="976.5,1746.3035,988.5,1758.3035,976.5,1770.3035,964.5,1758.3035,976.5,1746.3035" style="stroke:#FF69B4;stroke-width:0.5;"/><rect fill="#F0E8F5" height="37.3761" rx="12.5" ry="12.5" style="stroke:#181818;stroke-width:0.5;" width="100" x="1253" y="1629.2151"/><text fill="#333333" font-family="Comic Sans MS" font-size="12" lengthAdjust="spacing" textLength="80" x="1263" y="1653.1352">drained = true</text><polygon fill="#FFDEE3" points="994,1780.3035,994,1780.3035,1006,1792.3035,994,1804.3035,994,1804.3035,982,1792.3035,994,1780.3035" style="stroke:#FF69B4;stroke-width:0.5;"/><polygon fill="#FFDEE3" points="962.5,1483.403,1025.5,1483.403,1037.5,1495.403,1025.5,1507.403,962.5,1507.403,950.5,1495.403,962.5,1483.403" style="stroke:#FF69B4;stroke-width:0.5;"/><text fill="#FFD700" font-family="Comic Sans MS" font-size="16" lengthAdjust="spacing" textLength="21" x="998" y="1525.9631">&#26159;)</text><text fill="#FF1493" font-family="Comic Sans MS" font-size="16" lengthAdjust="spacing" textLength="63" x="962.5" y="1502.3791">!drained</text><text fill="#FFD700" font-family="Comic Sans MS" font-size="16" lengthAdjust="spacing" textLength="16" x="934.5" y="1490.795">&#21542;</text><polygon fill="#FFDEE3" points="747.5,1848.3035,747.5,1848.3035,759.5,1860.3035,747.5,1872.3035,747.5,1872.3035,735.5,1860.3035,747.5,1848.3035" style="stroke:#FF69B4;stroke-width:0.5;"/><polygon fill="#FFDEE3" points="387.75,424.8289,418.75,424.8289,430.75,436.8289,418.75,448.8289,387.75,448.8289,375.75,436.8289,387.75,424.8289" style="stroke:#FF69B4;stroke-width:0.5;"/><text fill="#FFD700" font-family="Comic Sans MS" font-size="16" lengthAdjust="spacing" textLength="16" x="407.25" y="467.3889">&#26159;</text><text fill="#FF1493" font-family="Comic Sans MS" font-size="16" lengthAdjust="spacing" textLength="31" x="387.75" y="443.8049">true</text><text fill="#FFD700" font-family="Comic Sans MS" font-size="16" lengthAdjust="spacing" textLength="16" x="359.75" y="432.2208">&#21542;</text><ellipse cx="403.25" cy="1937.3035" fill="none" rx="11" ry="11" style="stroke:#222222;stroke-width:1.0;"/><ellipse cx="403.25" cy="1937.3035" fill="#F0E8F5" rx="6" ry="6" style="stroke:#222222;stroke-width:1.0;"/><line style="stroke:#181818;stroke-width:1.0;" x1="403.25" x2="403.25" y1="176.2961" y2="196.2961"/><polygon fill="#181818" points="399.25,186.2961,403.25,196.2961,407.25,186.2961,403.25,190.2961" style="stroke:#181818;stroke-width:1.0;"/><line style="stroke:#181818;stroke-width:1.0;" x1="403.25" x2="403.25" y1="251.0483" y2="271.0483"/><polygon fill="#181818" points="399.25,261.0483,403.25,271.0483,407.25,261.0483,403.25,265.0483" style="stroke:#181818;stroke-width:1.0;"/><line style="stroke:#181818;stroke-width:1.0;" x1="403.25" x2="403.25" y1="325.8006" y2="345.8006"/><polygon fill="#181818" points="399.25,335.8006,403.25,345.8006,407.25,335.8006,403.25,339.8006" style="stroke:#181818;stroke-width:1.0;"/><line style="stroke:#181818;stroke-width:1.0;" x1="868" x2="868" y1="858.0059" y2="878.0059"/><polygon fill="#181818" points="864,868.0059,868,878.0059,872,868.0059,868,872.0059" style="stroke:#181818;stroke-width:1.0;"/><line style="stroke:#181818;stroke-width:1.0;" x1="868" x2="868" y1="932.7581" y2="952.7581"/><polygon fill="#181818" points="864,942.7581,868,952.7581,872,942.7581,868,946.7581" style="stroke:#181818;stroke-width:1.0;"/><line style="stroke:#181818;stroke-width:1.0;" x1="637" x2="627" y1="752.7095" y2="752.7095"/><line style="stroke:#181818;stroke-width:1.0;" x1="627" x2="627" y1="752.7095" y2="785.8775"/><line style="stroke:#181818;stroke-width:1.0;" x1="627" x2="590" y1="785.8775" y2="785.8775"/><polygon fill="#181818" points="600,781.8775,590,785.8775,600,789.8775,596,785.8775" style="stroke:#181818;stroke-width:1.0;"/><line style="stroke:#181818;stroke-width:1.0;" x1="858" x2="868" y1="752.7095" y2="752.7095"/><line style="stroke:#181818;stroke-width:1.0;" x1="868" x2="868" y1="752.7095" y2="785.8775"/><polygon fill="#181818" points="864,775.8775,868,785.8775,872,775.8775,868,779.8775" style="stroke:#181818;stroke-width:1.0;"/><line style="stroke:#181818;stroke-width:1.0;" x1="868" x2="868" y1="1007.5103" y2="1017.5103"/><line style="stroke:#181818;stroke-width:1.0;" x1="868" x2="1060" y1="1017.5103" y2="1017.5103"/><polygon fill="#181818" points="1056,822.4817,1060,812.4817,1064,822.4817,1060,818.4817" style="stroke:#181818;stroke-width:1.0;"/><line style="stroke:#181818;stroke-width:1.0;" x1="1060" x2="1060" y1="591.5611" y2="1017.5103"/><line style="stroke:#181818;stroke-width:1.0;" x1="1060" x2="860.5" y1="591.5611" y2="591.5611"/><polygon fill="#181818" points="870.5,587.5611,860.5,591.5611,870.5,595.5611,866.5,591.5611" style="stroke:#181818;stroke-width:1.0;"/><line style="stroke:#181818;stroke-width:1.0;" x1="747.5" x2="747.5" y1="709.5414" y2="729.5414"/><polygon fill="#181818" points="743.5,719.5414,747.5,729.5414,751.5,719.5414,747.5,723.5414" style="stroke:#181818;stroke-width:1.0;"/><line style="stroke:#181818;stroke-width:1.0;" x1="747.5" x2="747.5" y1="614.7291" y2="654.7892"/><polygon fill="#181818" points="743.5,644.7892,747.5,654.7892,751.5,644.7892,747.5,648.7892" style="stroke:#181818;stroke-width:1.0;"/><line style="stroke:#181818;stroke-width:1.0;" x1="634.5" x2="590" y1="591.5611" y2="591.5611"/><polygon fill="#181818" points="586,808.4817,590,818.4817,594,808.4817,590,812.4817" style="stroke:#181818;stroke-width:1.0;"/><line style="stroke:#181818;stroke-width:1.0;" x1="590" x2="590" y1="591.5611" y2="1029.5103"/><line style="stroke:#181818;stroke-width:1.0;" x1="590" x2="747.5" y1="1029.5103" y2="1029.5103"/><line style="stroke:#181818;stroke-width:1.0;" x1="747.5" x2="747.5" y1="1029.5103" y2="1049.5103"/><polygon fill="#181818" points="743.5,1039.5103,747.5,1049.5103,751.5,1039.5103,747.5,1043.5103" style="stroke:#181818;stroke-width:1.0;"/><line style="stroke:#181818;stroke-width:1.0;" x1="839.5" x2="829.5" y1="1253.5587" y2="1253.5587"/><line style="stroke:#181818;stroke-width:1.0;" x1="829.5" x2="829.5" y1="1253.5587" y2="1286.7267"/><polygon fill="#181818" points="825.5,1276.7267,829.5,1286.7267,833.5,1276.7267,829.5,1280.7267" style="stroke:#181818;stroke-width:1.0;"/><line style="stroke:#181818;stroke-width:1.0;" x1="1148.5" x2="1158.5" y1="1253.5587" y2="1253.5587"/><line style="stroke:#181818;stroke-width:1.0;" x1="1158.5" x2="1158.5" y1="1253.5587" y2="1286.7267"/><polygon fill="#181818" points="1154.5,1276.7267,1158.5,1286.7267,1162.5,1276.7267,1158.5,1280.7267" style="stroke:#181818;stroke-width:1.0;"/><line style="stroke:#181818;stroke-width:1.0;" x1="829.5" x2="829.5" y1="1341.4789" y2="1359.4789"/><line style="stroke:#181818;stroke-width:1.0;" x1="829.5" x2="982" y1="1359.4789" y2="1359.4789"/><polygon fill="#181818" points="972,1355.4789,982,1359.4789,972,1363.4789,976,1359.4789" style="stroke:#181818;stroke-width:1.0;"/><line style="stroke:#181818;stroke-width:1.0;" x1="1158.5" x2="1158.5" y1="1341.4789" y2="1359.4789"/><line style="stroke:#181818;stroke-width:1.0;" x1="1158.5" x2="1006" y1="1359.4789" y2="1359.4789"/><polygon fill="#181818" points="1016,1355.4789,1006,1359.4789,1016,1363.4789,1012,1359.4789" style="stroke:#181818;stroke-width:1.0;"/><line style="stroke:#181818;stroke-width:1.0;" x1="822" x2="812" y1="1652.3832" y2="1652.3832"/><line style="stroke:#181818;stroke-width:1.0;" x1="812" x2="812" y1="1652.3832" y2="1685.5512"/><polygon fill="#181818" points="808,1675.5512,812,1685.5512,816,1675.5512,812,1679.5512" style="stroke:#181818;stroke-width:1.0;"/><line style="stroke:#181818;stroke-width:1.0;" x1="1131" x2="1141" y1="1652.3832" y2="1652.3832"/><line style="stroke:#181818;stroke-width:1.0;" x1="1141" x2="1141" y1="1652.3832" y2="1685.5512"/><polygon fill="#181818" points="1137,1675.5512,1141,1685.5512,1145,1675.5512,1141,1679.5512" style="stroke:#181818;stroke-width:1.0;"/><line style="stroke:#181818;stroke-width:1.0;" x1="812" x2="812" y1="1740.3035" y2="1758.3035"/><line style="stroke:#181818;stroke-width:1.0;" x1="812" x2="964.5" y1="1758.3035" y2="1758.3035"/><polygon fill="#181818" points="954.5,1754.3035,964.5,1758.3035,954.5,1762.3035,958.5,1758.3035" style="stroke:#181818;stroke-width:1.0;"/><line style="stroke:#181818;stroke-width:1.0;" x1="1141" x2="1141" y1="1740.3035" y2="1758.3035"/><line style="stroke:#181818;stroke-width:1.0;" x1="1141" x2="988.5" y1="1758.3035" y2="1758.3035"/><polygon fill="#181818" points="998.5,1754.3035,988.5,1758.3035,998.5,1762.3035,994.5,1758.3035" style="stroke:#181818;stroke-width:1.0;"/><line style="stroke:#181818;stroke-width:1.0;" x1="960" x2="976.5" y1="1566.5711" y2="1566.5711"/><line style="stroke:#181818;stroke-width:1.0;" x1="976.5" x2="976.5" y1="1566.5711" y2="1629.2151"/><polygon fill="#181818" points="972.5,1619.2151,976.5,1629.2151,980.5,1619.2151,976.5,1623.2151" style="stroke:#181818;stroke-width:1.0;"/><text fill="#FFD700" font-family="Comic Sans MS" font-size="16" lengthAdjust="spacing" textLength="251" x="976.5" y="1607.7151">waitEntry := &lt;-q.waitingForAddCh</text><line style="stroke:#181818;stroke-width:1.0;" x1="1028" x2="1303" y1="1566.5711" y2="1566.5711"/><line style="stroke:#181818;stroke-width:1.0;" x1="1303" x2="1303" y1="1566.5711" y2="1629.2151"/><polygon fill="#181818" points="1299,1619.2151,1303,1629.2151,1307,1619.2151,1303,1623.2151" style="stroke:#181818;stroke-width:1.0;"/><text fill="#FFD700" font-family="Comic Sans MS" font-size="16" lengthAdjust="spacing" textLength="54" x="1303" y="1607.7151">defalut</text><line style="stroke:#181818;stroke-width:1.0;" x1="976.5" x2="976.5" y1="1770.3035" y2="1792.3035"/><line style="stroke:#181818;stroke-width:1.0;" x1="976.5" x2="982" y1="1792.3035" y2="1792.3035"/><polygon fill="#181818" points="972,1788.3035,982,1792.3035,972,1796.3035,976,1792.3035" style="stroke:#181818;stroke-width:1.0;"/><line style="stroke:#181818;stroke-width:1.0;" x1="1303" x2="1303" y1="1666.5913" y2="1792.3035"/><line style="stroke:#181818;stroke-width:1.0;" x1="1303" x2="1006" y1="1792.3035" y2="1792.3035"/><polygon fill="#181818" points="1016,1788.3035,1006,1792.3035,1016,1796.3035,1012,1792.3035" style="stroke:#181818;stroke-width:1.0;"/><line style="stroke:#181818;stroke-width:1.0;" x1="994" x2="994" y1="1507.403" y2="1554.5711"/><polygon fill="#181818" points="990,1544.5711,994,1554.5711,998,1544.5711,994,1548.5711" style="stroke:#181818;stroke-width:1.0;"/><line style="stroke:#181818;stroke-width:1.0;" x1="994" x2="994" y1="1804.3035" y2="1814.3035"/><line style="stroke:#181818;stroke-width:1.0;" x1="994" x2="1369" y1="1814.3035" y2="1814.3035"/><polygon fill="#181818" points="1365,1713.0072,1369,1703.0072,1373,1713.0072,1369,1709.0072" style="stroke:#181818;stroke-width:1.0;"/><line style="stroke:#181818;stroke-width:1.0;" x1="1369" x2="1369" y1="1495.403" y2="1814.3035"/><line style="stroke:#181818;stroke-width:1.0;" x1="1369" x2="1037.5" y1="1495.403" y2="1495.403"/><polygon fill="#181818" points="1047.5,1491.403,1037.5,1495.403,1047.5,1499.403,1043.5,1495.403" style="stroke:#181818;stroke-width:1.0;"/><line style="stroke:#181818;stroke-width:1.0;" x1="950.5" x2="619" y1="1495.403" y2="1495.403"/><polygon fill="#181818" points="615,1699.0072,619,1709.0072,623,1699.0072,619,1703.0072" style="stroke:#181818;stroke-width:1.0;"/><line style="stroke:#181818;stroke-width:1.0;" x1="619" x2="619" y1="1495.403" y2="1826.3035"/><line style="stroke:#181818;stroke-width:1.0;" x1="619" x2="994" y1="1826.3035" y2="1826.3035"/><line style="stroke:#181818;stroke-width:1.0;" x1="994" x2="994" y1="1826.3035" y2="1860.3035"/><line style="stroke:#181818;stroke-width:1.0;" x1="994" x2="759.5" y1="1860.3035" y2="1860.3035"/><polygon fill="#181818" points="769.5,1856.3035,759.5,1860.3035,769.5,1864.3035,765.5,1860.3035" style="stroke:#181818;stroke-width:1.0;"/><line style="stroke:#181818;stroke-width:1.0;" x1="994" x2="994" y1="1459.127" y2="1483.403"/><polygon fill="#181818" points="990,1473.403,994,1483.403,998,1473.403,994,1477.403" style="stroke:#181818;stroke-width:1.0;"/><line style="stroke:#181818;stroke-width:1.0;" x1="994" x2="994" y1="1371.4789" y2="1421.7509"/><polygon fill="#181818" points="990,1411.7509,994,1421.7509,998,1411.7509,994,1415.7509" style="stroke:#181818;stroke-width:1.0;"/><line style="stroke:#181818;stroke-width:1.0;" x1="713.5" x2="135" y1="1118.8865" y2="1118.8865"/><line style="stroke:#181818;stroke-width:1.0;" x1="135" x2="135" y1="1118.8865" y2="1207.2226"/><polygon fill="#181818" points="131,1197.2226,135,1207.2226,139,1197.2226,135,1201.2226" style="stroke:#181818;stroke-width:1.0;"/><text fill="#FFD700" font-family="Comic Sans MS" font-size="16" lengthAdjust="spacing" textLength="82" x="135" y="1162.5545">&lt;-q.stopCh</text><line style="stroke:#181818;stroke-width:1.0;" x1="781.5" x2="994" y1="1118.8865" y2="1118.8865"/><line style="stroke:#181818;stroke-width:1.0;" x1="994" x2="994" y1="1118.8865" y2="1230.3906"/><polygon fill="#181818" points="990,1220.3906,994,1230.3906,998,1220.3906,994,1224.3906" style="stroke:#181818;stroke-width:1.0;"/><text fill="#FFD700" font-family="Comic Sans MS" font-size="16" lengthAdjust="spacing" textLength="242" x="994" y="1162.5545">waitingForAddCh&#25910;&#21040;&#20102;&#26032;&#30340;&#20803;&#32032;</text><text fill="#FFD700" font-family="Comic Sans MS" font-size="16" lengthAdjust="spacing" textLength="255" x="998" y="1185.7226">waitEntry := &lt;-q.waitingForAddCh:</text><line style="stroke:#181818;stroke-width:1.0;" x1="237" x2="237" y1="1118.8865" y2="1860.3035"/><line style="stroke:#181818;stroke-width:1.0;" x1="237" x2="735.5" y1="1860.3035" y2="1860.3035"/><polygon fill="#181818" points="725.5,1856.3035,735.5,1860.3035,725.5,1864.3035,729.5,1860.3035" style="stroke:#181818;stroke-width:1.0;"/><text fill="#FFD700" font-family="Comic Sans MS" font-size="16" lengthAdjust="spacing" textLength="130" x="237" y="1545.2189">&#24515;&#36339;&#26102;&#38388;&#26159;10&#31186;&#12290;</text><text fill="#FFD700" font-family="Comic Sans MS" font-size="16" lengthAdjust="spacing" textLength="160" x="237" y="1568.387">&#21040;&#20102;&#23601;&#32487;&#32493;&#19979;&#19968;&#36718;&#24490;&#29615;</text><text fill="#FFD700" font-family="Comic Sans MS" font-size="16" lengthAdjust="spacing" textLength="127" x="241" y="1591.555">&lt;-q.heartbeat.C()</text><line style="stroke:#181818;stroke-width:1.0;" x1="417" x2="417" y1="1118.8865" y2="1860.3035"/><polygon fill="#181818" points="413,1850.3035,417,1860.3035,421,1850.3035,417,1854.3035" style="stroke:#181818;stroke-width:1.0;"/><text fill="#FFD700" font-family="Comic Sans MS" font-size="16" lengthAdjust="spacing" textLength="160" x="417" y="1545.2189">&#31532;&#19968;&#20010;&#20803;&#32032;&#30340;&#31561;&#24453;&#26102;&#38388;</text><text fill="#FFD700" font-family="Comic Sans MS" font-size="16" lengthAdjust="spacing" textLength="160" x="417" y="1568.387">&#21040;&#20102;&#65292;&#32487;&#32493;&#19979;&#19968;&#36718;&#24490;&#29615;</text><text fill="#FFD700" font-family="Comic Sans MS" font-size="16" lengthAdjust="spacing" textLength="110" x="421" y="1591.555">&lt;-nextReadyAt</text><line style="stroke:#181818;stroke-width:1.0;" x1="747.5" x2="747.5" y1="1086.8865" y2="1106.8865"/><polygon fill="#181818" points="743.5,1096.8865,747.5,1106.8865,751.5,1096.8865,747.5,1100.8865" style="stroke:#181818;stroke-width:1.0;"/><line style="stroke:#181818;stroke-width:1.0;" x1="194.25" x2="69" y1="523.641" y2="523.641"/><line style="stroke:#181818;stroke-width:1.0;" x1="69" x2="69" y1="523.641" y2="568.393"/><polygon fill="#181818" points="65,558.393,69,568.393,73,558.393,69,562.393" style="stroke:#181818;stroke-width:1.0;"/><line style="stroke:#181818;stroke-width:1.0;" x1="612.25" x2="747.5" y1="523.641" y2="523.641"/><line style="stroke:#181818;stroke-width:1.0;" x1="747.5" x2="747.5" y1="523.641" y2="568.393"/><polygon fill="#181818" points="743.5,558.393,747.5,568.393,751.5,558.393,747.5,562.393" style="stroke:#181818;stroke-width:1.0;"/><line style="stroke:#181818;stroke-width:1.0;" x1="747.5" x2="747.5" y1="1872.3035" y2="1882.3035"/><line style="stroke:#181818;stroke-width:1.0;" x1="747.5" x2="1399" y1="1882.3035" y2="1882.3035"/><polygon fill="#181818" points="1395,1237.4981,1399,1227.4981,1403,1237.4981,1399,1233.4981" style="stroke:#181818;stroke-width:1.0;"/><line style="stroke:#181818;stroke-width:1.0;" x1="1399" x2="1399" y1="436.8289" y2="1882.3035"/><line style="stroke:#181818;stroke-width:1.0;" x1="1399" x2="430.75" y1="436.8289" y2="436.8289"/><polygon fill="#181818" points="440.75,432.8289,430.75,436.8289,440.75,440.8289,436.75,436.8289" style="stroke:#181818;stroke-width:1.0;"/><line style="stroke:#181818;stroke-width:1.0;" x1="403.25" x2="403.25" y1="448.8289" y2="488.8889"/><polygon fill="#181818" points="399.25,478.8889,403.25,488.8889,407.25,478.8889,403.25,482.8889" style="stroke:#181818;stroke-width:1.0;"/><line style="stroke:#181818;stroke-width:1.0;" x1="375.75" x2="27" y1="436.8289" y2="436.8289"/><polygon fill="#181818" points="23,1223.4981,27,1233.4981,31,1223.4981,27,1227.4981" style="stroke:#181818;stroke-width:1.0;"/><line style="stroke:#181818;stroke-width:1.0;" x1="27" x2="27" y1="436.8289" y2="1894.3035"/><line style="stroke:#181818;stroke-width:1.0;" x1="27" x2="403.25" y1="1894.3035" y2="1894.3035"/><line style="stroke:#181818;stroke-width:1.0;" x1="403.25" x2="403.25" y1="1894.3035" y2="1926.3035"/><polygon fill="#181818" points="399.25,1916.3035,403.25,1926.3035,407.25,1916.3035,403.25,1920.3035" style="stroke:#181818;stroke-width:1.0;"/><line style="stroke:#181818;stroke-width:1.0;" x1="403.25" x2="403.25" y1="400.5528" y2="424.8289"/><polygon fill="#181818" points="399.25,414.8289,403.25,424.8289,407.25,414.8289,403.25,418.8289" style="stroke:#181818;stroke-width:1.0;"/><line style="stroke:#181818;stroke-width:1.0;" x1="403.25" x2="403.25" y1="71.2719" y2="121.5438"/><polygon fill="#181818" points="399.25,111.5438,403.25,121.5438,407.25,111.5438,403.25,115.5438" style="stroke:#181818;stroke-width:1.0;"/><!--SRC=[lLThJnDP6Fu-l-9iDbdQ3TijSb6fca0lYObhNF6R-65i3tP2ErDcfY9hJ1gvtzaD2hfLmA0WMQ2h1Wejy6DspapxoR-mxvapCssdBReVre4qxPapptjxdlSzSqLHHnBu6iT7LU6Xe8w41Fw1p2VHOmx1rSj71n_8KbgC1QM49AFl8_xmfKWdkoV9CIpRwv6WFzXhhaSaKRLMszlRdQMRV1AZe9GKegYF5nNqIn_tXEDY0f-Kn5XJSv5GECmmRWWYTbQxBlTsk8r58cqTby-rPz_g4tx3gAsBskTbMHgshDTWXIxw_VyHAyNBgg0AacZXrNZSqLc5LucZlUEYkNgR1IsBM4ON_CsI4Uu8jr5BegJYUgVzS4KYRjENUYxqXYyqHWntXRiYFMOTf6WwYKMrQI4w8vsX8Dr9brEDCkRKfCfuADJZ3uMQXTFR5QJXNFdPuY07wKjWDCn35iK7DoGfvV7gpu_qZyyuJb4XkvRncWrSTxzAyL5vTOrChPGdv_GF6tfsceoF6f_MzPK3OtUQd8xtYqZ43o6xtLTHaX_4dYi_HUEyY5GXYNrtuCCRe4ZqJtyzLiwiQ_cCbj_HYgjaVCeutcBe260iwn59_ZMDqvW2_a3NOE6MB4WoYCYyyVW989RENW1GQMEEZ1-GlTTaPgqqUgBbPvYFMY6Z7Krf9rbZUVjpSKxBpvVE9abscopkb_OBUcQBxinE6q-FI7wFpBm7yyn523cE-PJlkYYe7fT3NjliJf9F0R3-wYtP73EM9igJysHpNZyia9drSgPGEltTj3bRVlL6AxuixNqWKpaQ8B9338kgFD8x4k9LdgKjTLUzzwCLAmrlE2v0lJog35QHe22FlhhlDQij320FSu9aSr33wwAAvG4-YhN2Gcb_5qfAGtlrriZEGh2qNF2vikuaGLy-XJpqYu015OMSaSqrKZmkvKRX7uBIZYV8n7XvTDiCsNWvfiJJAlKv90sBDckiTA4XtvsH58uvFlZwQZPNN4Tg78kc__Jgbh6QbiM0ip0e91Bc3vnG86oozCxhtBDIKSN2xBJ3GfBxcnGpP6kMdEuO2_iDMEIxWS4JT0tvNOcqVM5LBoqSaiNdnbz_CNOoT0g7QQbeaToujp0Uz7Xz7hjita0rB2qJIAIyygbqjWgS10P02O3nK0MW9UCDuCC-qu9Fndnif4VrzGn0BZsYDDmqUzPr7vuOhB59arUREpj6vWdu0DK5Dr9IYamUkuBz9_DK_xYjZotM1Mes0nUaAUTLu5U6B2rKmxIQyZ6VWVik6_KeLdwl8kSnj-YQPTWC397SXFuify-3YDSXFb8ueB4wBMN8rnEBULY6Ow0sd-UEjn4C0as02hNyBfbQBx_O98SVZC9YFIReeKAD64vW5NlgDTsAAXPhhM4n9WnmLRzCThEYLUH1tZtLNsUPHIr_RBm_9bEqsnb_Vc8zjuAf30jgDEvHm9MeMbkbAA_GPZpaKrGf5OpNbR1UXdLoh84YPwEbmu-CIb3QDh-nzGUGfbzal08f6eKjex0BZOzsvfCzfab857K2wYkhzp6l-eBG6EhHNKo1HBDGcJtR292tkH4HFr9lCnarC53X5L0Y6DUN3nYa_ZpdLDLg7s5RyzHnrtFTzNcaMhS6d9qSA2WJFQg6T8byo1TDID51tqrfsEcLvaED1M-tgdwLTZsJcguX2isHsXD41SjrqwiLDIAguvitSAtEeDMDpJHv6xa3duulZQLNYRsv_5ogiA_AgO-DKgWI6wvWagOuD-4g3QWNzbZjm6omP6_kSHskwNjCvk4m5QD57k0Xp433RKoTtrcRQOdCVknjkFaBSdHV3YdFOzlv4D-IVD-OZ5-qVput_p-kVXrtwmeTmq2pjFeLdjhCl8hewQ-v0s2OiOrhShTgjBZlFk5Qt4i32Ocd1K7q5QYRQso51MjZMmSr-8dCrmUE3XgEQs7l4bRXlSoKHHTpBdukJfKsjiiRHv-BquokP7SL1h1vt7eaADIDLlPDeReOXDEGI0iZOELkPRBU2p1egW0sCQsfpS3Oy-v3L4kjRiZHWPPVPYF0HAQZW0wo7KjDC77NTgiTSycevl3cRMhDIW1b8422FGRV21WANmCQgA1KdOvRQldNqlYsTPA0CoTB2fZNycz004EMEjcfAwt4FKFMeSKRg3oyD0TkEYUZqbwEd3mpX_GidSFqNM51NtiBRpyKgbcLx7WiNCjVXpJ_0W00]--></g></svg>