<?xml version="1.0" encoding="us-ascii" standalone="no"?><svg xmlns="http://www.w3.org/2000/svg" xmlns:xlink="http://www.w3.org/1999/xlink" contentStyleType="text/css" height="1329px" preserveAspectRatio="none" style="width:530px;height:1329px;background:#F5F5DC;" version="1.1" viewBox="0 0 530 1329" width="530px" zoomAndPan="magnify"><defs/><g><rect fill="#F5F5DC" height="1329" style="stroke:none;stroke-width:1.0;" width="530" x="0" y="0"/><text fill="#000000" font-family="sans-serif" font-size="14" font-weight="bold" lengthAdjust="spacing" textLength="138" x="194.5" y="36.2399">DeltaFIFO.pop()&#23454;&#29616;</text><ellipse cx="350.5" cy="61.2719" fill="#F0E8F5" rx="10" ry="10" style="stroke:#222222;stroke-width:1.0;"/><rect fill="#FFB6C1" height="1195.6784" style="stroke:#DDA0DD;stroke-width:1.5;" width="508" x="11" y="81.2719"/><path d="M57,81.2719 L57,94.5438 L47,104.5438 L11,104.5438 " fill="none" style="stroke:#DDA0DD;stroke-width:1.5;"/><text fill="#FF69B4" font-family="Comic Sans MS" font-size="14" lengthAdjust="spacing" textLength="36" x="14" y="98.5118">pop()</text><polygon fill="#FFDEE3" points="300.5,207.94,400.5,207.94,412.5,231.108,400.5,254.276,300.5,254.276,288.5,231.108,300.5,207.94" style="stroke:#FF69B4;stroke-width:0.5;"/><text fill="#FF1493" font-family="Comic Sans MS" font-size="16" lengthAdjust="spacing" textLength="96" x="300.5" y="226.5">&#22914;&#26524;&#38431;&#21015;&#20851;&#38381;</text><text fill="#FF1493" font-family="Comic Sans MS" font-size="16" lengthAdjust="spacing" textLength="58" x="324.5" y="249.668">f.closed</text><text fill="#FFD700" font-family="Comic Sans MS" font-size="16" lengthAdjust="spacing" textLength="16" x="272.5" y="226.5">&#26159;</text><text fill="#FFD700" font-family="Comic Sans MS" font-size="16" lengthAdjust="spacing" textLength="16" x="412.5" y="226.5">&#21542;</text><rect fill="#F0E8F5" height="37.3761" rx="12.5" ry="12.5" style="stroke:#181818;stroke-width:0.5;" width="160" x="191" y="264.276"/><text fill="#333333" font-family="Comic Sans MS" font-size="12" lengthAdjust="spacing" textLength="140" x="201" y="288.1961">return nil, ErrFIFOClosed</text><rect fill="#F0E8F5" height="37.3761" rx="12.5" ry="12.5" style="stroke:#181818;stroke-width:0.5;" width="118" x="371" y="264.276"/><text fill="#333333" font-family="Comic Sans MS" font-size="12" lengthAdjust="spacing" textLength="98" x="381" y="288.1961">&#31561;&#24453; f.cond.Wait()</text><polygon fill="#FFDEE3" points="260.5,121.5438,440.5,121.5438,452.5,144.7119,440.5,167.8799,260.5,167.8799,248.5,144.7119,260.5,121.5438" style="stroke:#FF69B4;stroke-width:0.5;"/><text fill="#FFD700" font-family="Comic Sans MS" font-size="16" lengthAdjust="spacing" textLength="16" x="354.5" y="186.44">&#26159;</text><text fill="#FF1493" font-family="Comic Sans MS" font-size="16" lengthAdjust="spacing" textLength="176" x="260.5" y="140.1039">&#22914;&#26524;&#20026;&#31354;&#21017;&#36827;&#20837;&#36825;&#20010;&#24490;&#29615;</text><text fill="#FF1493" font-family="Comic Sans MS" font-size="16" lengthAdjust="spacing" textLength="126" x="296.5" y="163.2719">len(f.queue) == 0</text><text fill="#FFD700" font-family="Comic Sans MS" font-size="16" lengthAdjust="spacing" textLength="16" x="232.5" y="140.1039">&#21542;</text><rect fill="#F0E8F5" height="54.7522" rx="12.5" ry="12.5" style="stroke:#181818;stroke-width:0.5;" width="138" x="281.5" y="343.6522"/><text fill="#333333" font-family="Comic Sans MS" font-size="12" lengthAdjust="spacing" textLength="115" x="291.5" y="367.5723">&#22312;queue&#20013;&#25918;&#30340;&#26159;key</text><text fill="#333333" font-family="Comic Sans MS" font-size="12" lengthAdjust="spacing" textLength="83" x="309.5" y="384.9484">id := f.queue[0]</text><rect fill="#F0E8F5" height="54.7522" rx="12.5" ry="12.5" style="stroke:#181818;stroke-width:0.5;" width="150" x="275.5" y="418.4044"/><text fill="#333333" font-family="Comic Sans MS" font-size="12" lengthAdjust="spacing" textLength="127" x="285.5" y="442.3245">&#22312;queue&#20013;&#21024;&#38500;&#36825;&#20010;key</text><text fill="#333333" font-family="Comic Sans MS" font-size="12" lengthAdjust="spacing" textLength="115" x="291.5" y="459.7006">f.queue = f.queue[1:]</text><path d="M21,483.1567 L21,530.8047 L235,530.8047 L235,493.1567 L225,483.1567 L21,483.1567 " fill="#E6E6FA" style="stroke:#8A2BE2;stroke-width:0.5;"/><path d="M225,483.1567 L225,493.1567 L235,493.1567 L225,483.1567 " fill="#E6E6FA" style="stroke:#8A2BE2;stroke-width:0.5;"/><text fill="#0000FF" font-family="Comic Sans MS" font-size="13" lengthAdjust="spacing" textLength="193" x="27" y="503.2367">initialPopulationCount&#26159;&#31532;&#19968;&#27425;</text><text fill="#0000FF" font-family="Comic Sans MS" font-size="13" lengthAdjust="spacing" textLength="173" x="27" y="522.0607">&#35843;&#29992;Replace()&#25554;&#20837;&#30340;&#20803;&#32032;&#25968;&#37327;</text><rect fill="#F0E8F5" height="37.3761" rx="12.5" ry="12.5" style="stroke:#181818;stroke-width:0.5;" width="161" x="270" y="584.3887"/><text fill="#333333" font-family="Comic Sans MS" font-size="12" lengthAdjust="spacing" textLength="141" x="280" y="608.3088">f.initialPopulationCount--</text><polygon fill="#FFDEE3" points="247,530.8047,454,530.8047,466,542.8047,454,554.8047,247,554.8047,235,542.8047,247,530.8047" style="stroke:#FF69B4;stroke-width:0.5;"/><text fill="#FFD700" font-family="Comic Sans MS" font-size="16" lengthAdjust="spacing" textLength="16" x="354.5" y="573.3647">&#26159;</text><text fill="#FF1493" font-family="Comic Sans MS" font-size="16" lengthAdjust="spacing" textLength="207" x="247" y="549.7807">f.initialPopulationCount &gt; 0</text><text fill="#FFD700" font-family="Comic Sans MS" font-size="16" lengthAdjust="spacing" textLength="16" x="466" y="538.1967">&#21542;</text><polygon fill="#FFDEE3" points="350.5,641.7648,362.5,653.7648,350.5,665.7648,338.5,653.7648,350.5,641.7648" style="stroke:#FF69B4;stroke-width:0.5;"/><rect fill="#F0E8F5" height="54.7522" rx="12.5" ry="12.5" style="stroke:#181818;stroke-width:0.5;" width="265" x="218" y="685.7648"/><text fill="#333333" font-family="Comic Sans MS" font-size="12" lengthAdjust="spacing" textLength="245" x="228" y="709.6849">&#20174;items map[string]Deltas&#20013;&#33719;&#21462;&#19968;&#20010;Deltas</text><text fill="#333333" font-family="Comic Sans MS" font-size="12" lengthAdjust="spacing" textLength="119" x="279" y="727.0611">item, ok := f.items[id]</text><rect fill="#F0E8F5" height="54.7522" rx="12.5" ry="12.5" style="stroke:#181818;stroke-width:0.5;" width="191" x="255" y="760.5171"/><text fill="#333333" font-family="Comic Sans MS" font-size="12" lengthAdjust="spacing" textLength="168" x="265" y="784.4372">&#22312;items map&#20013;&#20063;&#21024;&#38500;&#36825;&#20010;&#20803;&#32032;</text><text fill="#333333" font-family="Comic Sans MS" font-size="12" lengthAdjust="spacing" textLength="99" x="295" y="801.8133">delete(f.items, id)</text><rect fill="#F0E8F5" height="54.7522" rx="12.5" ry="12.5" style="stroke:#181818;stroke-width:0.5;" width="213" x="244" y="835.2693"/><text fill="#333333" font-family="Comic Sans MS" font-size="12" lengthAdjust="spacing" textLength="118" x="290" y="859.1894">&#20002;&#32473;PopProcessFunc</text><text fill="#333333" font-family="Comic Sans MS" font-size="12" lengthAdjust="spacing" textLength="190" x="257" y="876.5655">err := process(item, isInInitialList)</text><rect fill="#F0E8F5" height="37.3761" rx="12.5" ry="12.5" style="stroke:#181818;stroke-width:0.5;" width="158" x="271.5" y="910.0216"/><text fill="#333333" font-family="Comic Sans MS" font-size="12" lengthAdjust="spacing" textLength="138" x="281.5" y="933.9417">e, ok := err.(ErrRequeue)</text><rect fill="#F0E8F5" height="54.7522" rx="12.5" ry="12.5" style="stroke:#181818;stroke-width:0.5;" width="199" x="251" y="1025.2578"/><text fill="#333333" font-family="Comic Sans MS" font-size="12" lengthAdjust="spacing" textLength="179" x="261" y="1049.1779">&#22914;&#26524;&#38656;&#35201;requeue&#21017;&#21152;&#22238;&#21040;&#38431;&#21015;&#20013;</text><text fill="#333333" font-family="Comic Sans MS" font-size="12" lengthAdjust="spacing" textLength="152" x="276" y="1066.554">f.addIfNotPresent(id, item)</text><rect fill="#F0E8F5" height="37.3761" rx="12.5" ry="12.5" style="stroke:#181818;stroke-width:0.5;" width="77" x="312" y="1108.8219"/><text fill="#333333" font-family="Comic Sans MS" font-size="12" lengthAdjust="spacing" textLength="57" x="322" y="1132.742">err = e.Err</text><polygon fill="#FFDEE3" points="338.5,971.6737,362.5,971.6737,374.5,983.6737,362.5,995.6737,338.5,995.6737,326.5,983.6737,338.5,971.6737" style="stroke:#FF69B4;stroke-width:0.5;"/><text fill="#FFD700" font-family="Comic Sans MS" font-size="16" lengthAdjust="spacing" textLength="16" x="354.5" y="1014.2338">&#26159;</text><text fill="#FF1493" font-family="Comic Sans MS" font-size="16" lengthAdjust="spacing" textLength="19" x="339" y="990.6498">ok</text><text fill="#FFD700" font-family="Comic Sans MS" font-size="16" lengthAdjust="spacing" textLength="16" x="374.5" y="979.0657">&#21542;</text><polygon fill="#FFDEE3" points="350.5,1166.1981,362.5,1178.1981,350.5,1190.1981,338.5,1178.1981,350.5,1166.1981" style="stroke:#FF69B4;stroke-width:0.5;"/><rect fill="#F0E8F5" height="54.7522" rx="12.5" ry="12.5" style="stroke:#181818;stroke-width:0.5;" width="167" x="267" y="1210.1981"/><text fill="#333333" font-family="Comic Sans MS" font-size="12" lengthAdjust="spacing" textLength="144" x="277" y="1234.1182">&#36820;&#22238;&#36825;&#20010;Deltas&#21644;&#38169;&#35823;&#20449;&#24687;</text><text fill="#333333" font-family="Comic Sans MS" font-size="12" lengthAdjust="spacing" textLength="88" x="304" y="1251.4943">return item, err</text><ellipse cx="350.5" cy="1307.9503" fill="none" rx="11" ry="11" style="stroke:#222222;stroke-width:1.0;"/><ellipse cx="350.5" cy="1307.9503" fill="#F0E8F5" rx="6" ry="6" style="stroke:#222222;stroke-width:1.0;"/><line style="stroke:#181818;stroke-width:1.0;" x1="288.5" x2="271" y1="231.108" y2="231.108"/><line style="stroke:#181818;stroke-width:1.0;" x1="271" x2="271" y1="231.108" y2="264.276"/><polygon fill="#181818" points="267,254.276,271,264.276,275,254.276,271,258.276" style="stroke:#181818;stroke-width:1.0;"/><line style="stroke:#181818;stroke-width:1.0;" x1="412.5" x2="430" y1="231.108" y2="231.108"/><line style="stroke:#181818;stroke-width:1.0;" x1="430" x2="430" y1="231.108" y2="264.276"/><polygon fill="#181818" points="426,254.276,430,264.276,434,254.276,430,258.276" style="stroke:#181818;stroke-width:1.0;"/><line style="stroke:#181818;stroke-width:1.0;" x1="430" x2="430" y1="301.6522" y2="311.6522"/><line style="stroke:#181818;stroke-width:1.0;" x1="430" x2="503" y1="311.6522" y2="311.6522"/><polygon fill="#181818" points="499,238.628,503,228.628,507,238.628,503,234.628" style="stroke:#181818;stroke-width:1.0;"/><line style="stroke:#181818;stroke-width:1.0;" x1="503" x2="503" y1="144.7119" y2="311.6522"/><line style="stroke:#181818;stroke-width:1.0;" x1="503" x2="452.5" y1="144.7119" y2="144.7119"/><polygon fill="#181818" points="462.5,140.7119,452.5,144.7119,462.5,148.7119,458.5,144.7119" style="stroke:#181818;stroke-width:1.0;"/><line style="stroke:#181818;stroke-width:1.0;" x1="350.5" x2="350.5" y1="167.8799" y2="207.94"/><polygon fill="#181818" points="346.5,197.94,350.5,207.94,354.5,197.94,350.5,201.94" style="stroke:#181818;stroke-width:1.0;"/><line style="stroke:#181818;stroke-width:1.0;" x1="248.5" x2="169" y1="144.7119" y2="144.7119"/><polygon fill="#181818" points="165,224.628,169,234.628,173,224.628,169,228.628" style="stroke:#181818;stroke-width:1.0;"/><line style="stroke:#181818;stroke-width:1.0;" x1="169" x2="169" y1="144.7119" y2="323.6522"/><line style="stroke:#181818;stroke-width:1.0;" x1="169" x2="350.5" y1="323.6522" y2="323.6522"/><line style="stroke:#181818;stroke-width:1.0;" x1="350.5" x2="350.5" y1="323.6522" y2="343.6522"/><polygon fill="#181818" points="346.5,333.6522,350.5,343.6522,354.5,333.6522,350.5,337.6522" style="stroke:#181818;stroke-width:1.0;"/><line style="stroke:#181818;stroke-width:1.0;" x1="350.5" x2="350.5" y1="398.4044" y2="418.4044"/><polygon fill="#181818" points="346.5,408.4044,350.5,418.4044,354.5,408.4044,350.5,412.4044" style="stroke:#181818;stroke-width:1.0;"/><line style="stroke:#181818;stroke-width:1.0;" x1="350.5" x2="350.5" y1="554.8047" y2="584.3887"/><polygon fill="#181818" points="346.5,574.3887,350.5,584.3887,354.5,574.3887,350.5,578.3887" style="stroke:#181818;stroke-width:1.0;"/><line style="stroke:#181818;stroke-width:1.0;" x1="466" x2="478" y1="542.8047" y2="542.8047"/><polygon fill="#181818" points="474,593.0768,478,603.0768,482,593.0768,478,597.0768" style="stroke:#181818;stroke-width:1.0;"/><line style="stroke:#181818;stroke-width:1.0;" x1="478" x2="478" y1="542.8047" y2="653.7648"/><line style="stroke:#181818;stroke-width:1.0;" x1="478" x2="362.5" y1="653.7648" y2="653.7648"/><polygon fill="#181818" points="372.5,649.7648,362.5,653.7648,372.5,657.7648,368.5,653.7648" style="stroke:#181818;stroke-width:1.0;"/><line style="stroke:#181818;stroke-width:1.0;" x1="350.5" x2="350.5" y1="621.7648" y2="641.7648"/><polygon fill="#181818" points="346.5,631.7648,350.5,641.7648,354.5,631.7648,350.5,635.7648" style="stroke:#181818;stroke-width:1.0;"/><line style="stroke:#181818;stroke-width:1.0;" x1="350.5" x2="350.5" y1="473.1567" y2="530.8047"/><polygon fill="#181818" points="346.5,520.8047,350.5,530.8047,354.5,520.8047,350.5,524.8047" style="stroke:#181818;stroke-width:1.0;"/><line style="stroke:#181818;stroke-width:1.0;" x1="350.5" x2="350.5" y1="665.7648" y2="685.7648"/><polygon fill="#181818" points="346.5,675.7648,350.5,685.7648,354.5,675.7648,350.5,679.7648" style="stroke:#181818;stroke-width:1.0;"/><line style="stroke:#181818;stroke-width:1.0;" x1="350.5" x2="350.5" y1="740.5171" y2="760.5171"/><polygon fill="#181818" points="346.5,750.5171,350.5,760.5171,354.5,750.5171,350.5,754.5171" style="stroke:#181818;stroke-width:1.0;"/><line style="stroke:#181818;stroke-width:1.0;" x1="350.5" x2="350.5" y1="815.2693" y2="835.2693"/><polygon fill="#181818" points="346.5,825.2693,350.5,835.2693,354.5,825.2693,350.5,829.2693" style="stroke:#181818;stroke-width:1.0;"/><line style="stroke:#181818;stroke-width:1.0;" x1="350.5" x2="350.5" y1="890.0216" y2="910.0216"/><polygon fill="#181818" points="346.5,900.0216,350.5,910.0216,354.5,900.0216,350.5,904.0216" style="stroke:#181818;stroke-width:1.0;"/><line style="stroke:#181818;stroke-width:1.0;" x1="350.5" x2="350.5" y1="1080.01" y2="1108.8219"/><polygon fill="#181818" points="346.5,1098.8219,350.5,1108.8219,354.5,1098.8219,350.5,1102.8219" style="stroke:#181818;stroke-width:1.0;"/><line style="stroke:#181818;stroke-width:1.0;" x1="350.5" x2="350.5" y1="995.6737" y2="1025.2578"/><polygon fill="#181818" points="346.5,1015.2578,350.5,1025.2578,354.5,1015.2578,350.5,1019.2578" style="stroke:#181818;stroke-width:1.0;"/><line style="stroke:#181818;stroke-width:1.0;" x1="374.5" x2="460" y1="983.6737" y2="983.6737"/><polygon fill="#181818" points="456,1078.8219,460,1088.8219,464,1078.8219,460,1082.8219" style="stroke:#181818;stroke-width:1.0;"/><line style="stroke:#181818;stroke-width:1.0;" x1="460" x2="460" y1="983.6737" y2="1178.1981"/><line style="stroke:#181818;stroke-width:1.0;" x1="460" x2="362.5" y1="1178.1981" y2="1178.1981"/><polygon fill="#181818" points="372.5,1174.1981,362.5,1178.1981,372.5,1182.1981,368.5,1178.1981" style="stroke:#181818;stroke-width:1.0;"/><line style="stroke:#181818;stroke-width:1.0;" x1="350.5" x2="350.5" y1="1146.1981" y2="1166.1981"/><polygon fill="#181818" points="346.5,1156.1981,350.5,1166.1981,354.5,1156.1981,350.5,1160.1981" style="stroke:#181818;stroke-width:1.0;"/><line style="stroke:#181818;stroke-width:1.0;" x1="350.5" x2="350.5" y1="947.3977" y2="971.6737"/><polygon fill="#181818" points="346.5,961.6737,350.5,971.6737,354.5,961.6737,350.5,965.6737" style="stroke:#181818;stroke-width:1.0;"/><line style="stroke:#181818;stroke-width:1.0;" x1="350.5" x2="350.5" y1="1190.1981" y2="1210.1981"/><polygon fill="#181818" points="346.5,1200.1981,350.5,1210.1981,354.5,1200.1981,350.5,1204.1981" style="stroke:#181818;stroke-width:1.0;"/><line style="stroke:#181818;stroke-width:1.0;" x1="350.5" x2="350.5" y1="71.2719" y2="121.5438"/><polygon fill="#181818" points="346.5,111.5438,350.5,121.5438,354.5,111.5438,350.5,115.5438" style="stroke:#181818;stroke-width:1.0;"/><line style="stroke:#181818;stroke-width:1.0;" x1="350.5" x2="350.5" y1="1264.9503" y2="1296.9503"/><polygon fill="#181818" points="346.5,1286.9503,350.5,1296.9503,354.5,1286.9503,350.5,1290.9503" style="stroke:#181818;stroke-width:1.0;"/><!--SRC=[bLLTQnj757tVNp6GXwp0aMHRLf9L7B3s0mnfQko7FiXwMBGZQz1gPZixId128MbgwfPYb-0sKMCSfoGc3NPjQA5g0lQVqUhZN_JEpagM4olGVJ3cpfnpxpddxkfMADPzV5jpAuBS8sBT8kuQTnleeORWARgL-XfdJUgPp6SSNN6ozWrdJfqnxc4-h3jcrYp6TOTHaLHdPsT7fRjk0oEJDKW5hRWqH5-iQDzecaVS1gFUn7QEPTkAumwXU5JDtopcFcxcEDEvcv_jDpnQ8GymcixB_Yxdx7xI_GANTJsR_PzSWSi54OJHXE_2nBcvCRvp7REvwt5rMOdc57CqavraXfspfsKdoWJ-TEWiF8xpSUiR2pD5U-PoHZjlvvs5E0TMQJOm5HE3c7FcB5FUbENWCiT6cOmrjwo5h6LDabFCcrBEhKooW-2UZv65VU4wYywNwO05UYhwSw-tTQ9fOPrGS1XMquI5YNssgRSYaIZP8YqK444oOGpMxjS8dElHmRVTlTrE-ttlZ_VHPgj_zYBQUDC_QtNQxwBJTxsjOxHALmNoCTMhwQ-Rk8bJQ7uUPLE8X4ZlFZzEWGPI7H8Ddh-CDfz56tyDdXq14iLFDLtnMOYzSmmIDKnZyGR7eiafeiIVGZRdKfuPtox4vtNY-_0FzaCvxCy7AONg7VqGdMv8Pb2N_iebGaz900O3gXhyZUKfW17jleqdxxIFkZkdlT- -Wn7gU7qq7_6GCOyIUQLi6HKkOABD_K7hjV9a24iketFOj54kQ5SD3mUY9kd67Ijeqg5gcb18n_MNMD3qNPcJ2QaBT7lSpg4rSfCDT3a2xlKE3pljHzt3LwkqV_Aaj_Ds6GU-My5wghlz5284bT76azxV-zrVJWRVRmEXCQd_jMi5RSnVPQ7H-R1516w4gE46fL1mGjVAyGA6O4b_wvze-rSO02nHHMrLm9f8n1HYTULdZ2yHhwpy7D41GUVVb-Esgb7LgY4F-rXWFS5FGJnWe25F4EgqV-zzQ8609SugE0oT9gt8G33dicUWghgQWuIBT559laD28LdmS3e0f7NOjsKy7X6SVPg4aQpsxgF-mMEkxiEh4lsu7xtOYpPFrCw3A0qDzztrlCNgNIQME0xXsw4JRohs1jfSJIwLIZKXWj38P20tAfeD7tQvaNbGowmrYOS_Hr86G-LSKZGeIOEConBid-t0WCfW5LBqzAV1Jgj_VDmvUzLzdBpQoGkeBCCn5Vpin9yA-6omGFiF]--></g></svg>