<?xml version="1.0" encoding="us-ascii" standalone="no"?><svg xmlns="http://www.w3.org/2000/svg" xmlns:xlink="http://www.w3.org/1999/xlink" contentStyleType="text/css" height="913px" preserveAspectRatio="none" style="width:508px;height:913px;background:#F5F5DC;" version="1.1" viewBox="0 0 508 913" width="508px" zoomAndPan="magnify"><defs/><g><rect fill="#F5F5DC" height="913" style="stroke:none;stroke-width:1.0;" width="508" x="0" y="0"/><text fill="#000000" font-family="sans-serif" font-size="14" font-weight="bold" lengthAdjust="spacing" textLength="302" x="101.5" y="36.2399">DeltaFIFO.queueActionInternalLocked()&#23454;&#29616;</text><ellipse cx="277.5" cy="61.2719" fill="#F0E8F5" rx="10" ry="10" style="stroke:#222222;stroke-width:1.0;"/><rect fill="#FFB6C1" height="779.1699" style="stroke:#DDA0DD;stroke-width:1.5;" width="486" x="11" y="81.2719"/><path d="M216,81.2719 L216,94.5438 L206,104.5438 L11,104.5438 " fill="none" style="stroke:#DDA0DD;stroke-width:1.5;"/><text fill="#FF69B4" font-family="Comic Sans MS" font-size="14" lengthAdjust="spacing" textLength="195" x="14" y="98.5118">queueActionInternalLocked()</text><rect fill="#F0E8F5" height="54.7522" rx="12.5" ry="12.5" style="stroke:#181818;stroke-width:0.5;" width="138" x="208.5" y="121.5438"/><text fill="#333333" font-family="Comic Sans MS" font-size="12" lengthAdjust="spacing" textLength="104" x="224.5" y="145.4639">&#35745;&#31639;&#36825;&#20010;&#23545;&#35937;&#30340;key</text><text fill="#333333" font-family="Comic Sans MS" font-size="12" lengthAdjust="spacing" textLength="115" x="221.5" y="162.84">id, err := f.KeyOf(obj)</text><rect fill="#F0E8F5" height="54.7522" rx="12.5" ry="12.5" style="stroke:#181818;stroke-width:0.5;" width="203" x="176" y="196.2961"/><text fill="#333333" font-family="Comic Sans MS" font-size="12" lengthAdjust="spacing" textLength="180" x="186" y="220.2162">&#20174;items map&#20013;&#33719;&#21462;&#24403;&#21069;&#30340;Deltas</text><text fill="#333333" font-family="Comic Sans MS" font-size="12" lengthAdjust="spacing" textLength="126" x="213" y="237.5923">oldDeltas := f.items[id]</text><rect fill="#F0E8F5" height="54.7522" rx="12.5" ry="12.5" style="stroke:#181818;stroke-width:0.5;" width="328" x="113.5" y="271.0483"/><text fill="#333333" font-family="Comic Sans MS" font-size="12" lengthAdjust="spacing" textLength="230" x="171.5" y="294.9684">&#26500;&#36896;Delta,&#28155;&#21152;&#21040;Deltas&#20013;,&#20063;&#23601;&#26159;[]Delta&#20013;</text><text fill="#333333" font-family="Comic Sans MS" font-size="12" lengthAdjust="spacing" textLength="308" x="123.5" y="312.3445">newDeltas := append(oldDeltas, Delta{actionType, obj})</text><rect fill="#F0E8F5" height="72.1284" rx="12.5" ry="12.5" style="stroke:#181818;stroke-width:0.5;" width="260" x="147.5" y="345.8006"/><text fill="#333333" font-family="Comic Sans MS" font-size="12" lengthAdjust="spacing" textLength="240" x="157.5" y="369.7206">&#22914;&#26524;&#26368;&#36817;&#19968;&#20010;Delta&#26159;&#37325;&#22797;&#30340;,&#21017;&#20445;&#30041;&#26368;&#21518;&#19968;&#20010;,</text><text fill="#333333" font-family="Comic Sans MS" font-size="12" lengthAdjust="spacing" textLength="188" x="184.5" y="387.0968">&#30446;&#21069;&#29256;&#26412;&#21482;&#22788;&#29702;Deleted&#30340;&#37325;&#22797;&#22330;&#26223;</text><text fill="#333333" font-family="Comic Sans MS" font-size="12" lengthAdjust="spacing" textLength="212" x="169.5" y="404.4729">newDeltas = dedupDeltas(newDeltas)</text><polygon fill="#FFDEE3" points="151.5,437.9289,403.5,437.9289,415.5,461.097,403.5,484.265,151.5,484.265,139.5,461.097,151.5,437.9289" style="stroke:#FF69B4;stroke-width:0.5;"/><text fill="#FF1493" font-family="Comic Sans MS" font-size="16" lengthAdjust="spacing" textLength="248" x="151.5" y="456.489">&#29702;&#35770;&#19978;newDeltas&#30340;&#38271;&#24230;&#19968;&#23450;&#22823;&#20110;0</text><text fill="#FF1493" font-family="Comic Sans MS" font-size="16" lengthAdjust="spacing" textLength="139" x="219.5" y="479.657">len(newDeltas) &gt; 0</text><text fill="#FFD700" font-family="Comic Sans MS" font-size="16" lengthAdjust="spacing" textLength="16" x="123.5" y="456.489">&#26159;</text><text fill="#FFD700" font-family="Comic Sans MS" font-size="16" lengthAdjust="spacing" textLength="16" x="415.5" y="456.489">&#21542;</text><rect fill="#F0E8F5" height="37.3761" rx="12.5" ry="12.5" style="stroke:#181818;stroke-width:0.5;" width="139" x="60" y="494.265"/><text fill="#333333" font-family="Comic Sans MS" font-size="12" lengthAdjust="spacing" textLength="119" x="70" y="518.1851">_, exists := f.items[id]</text><rect fill="#F0E8F5" height="54.7522" rx="12.5" ry="12.5" style="stroke:#181818;stroke-width:0.5;" width="186" x="36.5" y="627.5612"/><text fill="#333333" font-family="Comic Sans MS" font-size="12" lengthAdjust="spacing" textLength="84" x="82.5" y="651.4813">&#21017;&#22312;&#38431;&#21015;&#20013;&#28155;&#21152;</text><text fill="#333333" font-family="Comic Sans MS" font-size="12" lengthAdjust="spacing" textLength="163" x="49.5" y="668.8575">f.queue = append(f.queue, id)</text><polygon fill="#FFDEE3" points="80.5,551.6411,178.5,551.6411,190.5,574.8092,178.5,597.9772,80.5,597.9772,68.5,574.8092,80.5,551.6411" style="stroke:#FF69B4;stroke-width:0.5;"/><text fill="#FFD700" font-family="Comic Sans MS" font-size="16" lengthAdjust="spacing" textLength="16" x="133.5" y="616.5373">&#26159;</text><text fill="#FF1493" font-family="Comic Sans MS" font-size="16" lengthAdjust="spacing" textLength="94" x="80.5" y="570.2012">&#22914;&#26524;id&#19981;&#23384;&#22312;</text><text fill="#FF1493" font-family="Comic Sans MS" font-size="16" lengthAdjust="spacing" textLength="46" x="104.5" y="593.3692">!exists</text><text fill="#FFD700" font-family="Comic Sans MS" font-size="16" lengthAdjust="spacing" textLength="16" x="190.5" y="570.2012">&#21542;</text><polygon fill="#FFDEE3" points="129.5,702.3135,141.5,714.3135,129.5,726.3135,117.5,714.3135,129.5,702.3135" style="stroke:#FF69B4;stroke-width:0.5;"/><rect fill="#F0E8F5" height="72.1284" rx="12.5" ry="12.5" style="stroke:#181818;stroke-width:0.5;" width="213" x="23" y="746.3135"/><text fill="#333333" font-family="Comic Sans MS" font-size="12" lengthAdjust="spacing" textLength="193" x="33" y="770.2336">&#22914;&#26524;id&#24050;&#32463;&#23384;&#22312;,&#23601;&#21482;&#26356;&#26032;items map</text><text fill="#333333" font-family="Comic Sans MS" font-size="12" lengthAdjust="spacing" textLength="128" x="60" y="787.6097">&#20013;&#23545;&#24212;&#36825;&#20010;key&#30340;Deltas</text><text fill="#333333" font-family="Comic Sans MS" font-size="12" lengthAdjust="spacing" textLength="130" x="60" y="804.9858">f.items[id] = newDeltas</text><rect fill="#F0E8F5" height="37.3761" rx="12.5" ry="12.5" style="stroke:#181818;stroke-width:0.5;" width="119" x="366" y="494.265"/><text fill="#333333" font-family="Comic Sans MS" font-size="12" lengthAdjust="spacing" textLength="99" x="376" y="518.1851">&#29702;&#35770;&#25191;&#34892;&#19981;&#21040;,&#30465;&#30053;</text><polygon fill="#FFDEE3" points="277.5,824.4419,289.5,836.4419,277.5,848.4419,265.5,836.4419,277.5,824.4419" style="stroke:#FF69B4;stroke-width:0.5;"/><ellipse cx="277.5" cy="891.4419" fill="none" rx="11" ry="11" style="stroke:#222222;stroke-width:1.0;"/><ellipse cx="277.5" cy="891.4419" fill="#F0E8F5" rx="6" ry="6" style="stroke:#222222;stroke-width:1.0;"/><line style="stroke:#181818;stroke-width:1.0;" x1="277.5" x2="277.5" y1="176.2961" y2="196.2961"/><polygon fill="#181818" points="273.5,186.2961,277.5,196.2961,281.5,186.2961,277.5,190.2961" style="stroke:#181818;stroke-width:1.0;"/><line style="stroke:#181818;stroke-width:1.0;" x1="277.5" x2="277.5" y1="251.0483" y2="271.0483"/><polygon fill="#181818" points="273.5,261.0483,277.5,271.0483,281.5,261.0483,277.5,265.0483" style="stroke:#181818;stroke-width:1.0;"/><line style="stroke:#181818;stroke-width:1.0;" x1="277.5" x2="277.5" y1="325.8006" y2="345.8006"/><polygon fill="#181818" points="273.5,335.8006,277.5,345.8006,281.5,335.8006,277.5,339.8006" style="stroke:#181818;stroke-width:1.0;"/><line style="stroke:#181818;stroke-width:1.0;" x1="129.5" x2="129.5" y1="597.9772" y2="627.5612"/><polygon fill="#181818" points="125.5,617.5612,129.5,627.5612,133.5,617.5612,129.5,621.5612" style="stroke:#181818;stroke-width:1.0;"/><line style="stroke:#181818;stroke-width:1.0;" x1="190.5" x2="232.5" y1="574.8092" y2="574.8092"/><polygon fill="#181818" points="228.5,639.3533,232.5,649.3533,236.5,639.3533,232.5,643.3533" style="stroke:#181818;stroke-width:1.0;"/><line style="stroke:#181818;stroke-width:1.0;" x1="232.5" x2="232.5" y1="574.8092" y2="714.3135"/><line style="stroke:#181818;stroke-width:1.0;" x1="232.5" x2="141.5" y1="714.3135" y2="714.3135"/><polygon fill="#181818" points="151.5,710.3135,141.5,714.3135,151.5,718.3135,147.5,714.3135" style="stroke:#181818;stroke-width:1.0;"/><line style="stroke:#181818;stroke-width:1.0;" x1="129.5" x2="129.5" y1="682.3135" y2="702.3135"/><polygon fill="#181818" points="125.5,692.3135,129.5,702.3135,133.5,692.3135,129.5,696.3135" style="stroke:#181818;stroke-width:1.0;"/><line style="stroke:#181818;stroke-width:1.0;" x1="129.5" x2="129.5" y1="531.6411" y2="551.6411"/><polygon fill="#181818" points="125.5,541.6411,129.5,551.6411,133.5,541.6411,129.5,545.6411" style="stroke:#181818;stroke-width:1.0;"/><line style="stroke:#181818;stroke-width:1.0;" x1="129.5" x2="129.5" y1="726.3135" y2="746.3135"/><polygon fill="#181818" points="125.5,736.3135,129.5,746.3135,133.5,736.3135,129.5,740.3135" style="stroke:#181818;stroke-width:1.0;"/><line style="stroke:#181818;stroke-width:1.0;" x1="139.5" x2="129.5" y1="461.097" y2="461.097"/><line style="stroke:#181818;stroke-width:1.0;" x1="129.5" x2="129.5" y1="461.097" y2="494.265"/><polygon fill="#181818" points="125.5,484.265,129.5,494.265,133.5,484.265,129.5,488.265" style="stroke:#181818;stroke-width:1.0;"/><line style="stroke:#181818;stroke-width:1.0;" x1="415.5" x2="425.5" y1="461.097" y2="461.097"/><line style="stroke:#181818;stroke-width:1.0;" x1="425.5" x2="425.5" y1="461.097" y2="494.265"/><polygon fill="#181818" points="421.5,484.265,425.5,494.265,429.5,484.265,425.5,488.265" style="stroke:#181818;stroke-width:1.0;"/><line style="stroke:#181818;stroke-width:1.0;" x1="129.5" x2="129.5" y1="818.4419" y2="836.4419"/><line style="stroke:#181818;stroke-width:1.0;" x1="129.5" x2="265.5" y1="836.4419" y2="836.4419"/><polygon fill="#181818" points="255.5,832.4419,265.5,836.4419,255.5,840.4419,259.5,836.4419" style="stroke:#181818;stroke-width:1.0;"/><line style="stroke:#181818;stroke-width:1.0;" x1="425.5" x2="425.5" y1="531.6411" y2="836.4419"/><line style="stroke:#181818;stroke-width:1.0;" x1="425.5" x2="289.5" y1="836.4419" y2="836.4419"/><polygon fill="#181818" points="299.5,832.4419,289.5,836.4419,299.5,840.4419,295.5,836.4419" style="stroke:#181818;stroke-width:1.0;"/><line style="stroke:#181818;stroke-width:1.0;" x1="277.5" x2="277.5" y1="417.9289" y2="437.9289"/><polygon fill="#181818" points="273.5,427.9289,277.5,437.9289,281.5,427.9289,277.5,431.9289" style="stroke:#181818;stroke-width:1.0;"/><line style="stroke:#181818;stroke-width:1.0;" x1="277.5" x2="277.5" y1="71.2719" y2="121.5438"/><polygon fill="#181818" points="273.5,111.5438,277.5,121.5438,281.5,111.5438,277.5,115.5438" style="stroke:#181818;stroke-width:1.0;"/><line style="stroke:#181818;stroke-width:1.0;" x1="277.5" x2="277.5" y1="848.4419" y2="880.4419"/><polygon fill="#181818" points="273.5,870.4419,277.5,880.4419,281.5,870.4419,277.5,874.4419" style="stroke:#181818;stroke-width:1.0;"/><!--SRC=[bLDTRzD857tthnZ4Io9PhDkcAOGFgObj2IsxbRRxrgALYIViq6GSxCcoMOHKLXMa5KsBs9OMGg5Ijo04QK183QbG_up7Jly5rpEk-q6Bn3nOcZltddFkkTUNF5OluokALMJaByBgEh5kkbO5tLKGdBnLdBhfEZLg5voouwApfcQSDuVbc-FQsDsFcmMja1Tnqw4iZWuD3IMXNwqAHWMdGefetA8U-cLSkQSeDh4g3hLFfJDrmv0OrmZ5IJHx8PyvJcQQ0vaBt-NRVned_s0qa8tuBTTrxiJiHx3q4KtxGQogvJB2Y4DZl2EACyE7y0xw6CgCYEXliccNOXSDQgUPOMICWOY9EWn_Arg3Ovh7gS-F3kQDmPCHZQoHDKV579nYhO8fEtKGm-QmNeWoet3r9CUIcHmYr_LHJTTFQoUVBKJjNFefta5mhuoHZilCCg-QO-Tkrt0DZnOZIwzIXbrgbQyvnIbifzAylHOsEuhYJH4AliF25c2DXFi6jSSZF1Jlbk8n64oi-pkGIWwXVdizR3_jxwxwtRTywtF_mthuR6OArz4aHSHM4NPTbBkCIkT-nlMnKigvSIjzKSdvEqt2SCL35QlgTz_tczjyOPb_US9dvw5SzEC1mYH3JjcEhm95L4qG-pg0JB995gpDx4s_4XbgiBt3vrxnHaSM0AxgVtx9En-2bQs9wo88CONYEmU8LhMAgPrAM5HfvbrBDFnxlOfL19hlHQBvvh_1MYjeJVTt7_lTQMXOv0BwtiDvlX4fLtbZrTzz4IwjGXfVRCeqLO56mkVjgBlPHj1wnnVUyesPSF410626RQYK4BpL2rQtnFGFP5v6DhPhLNbB9N6Gf90IIW5ClztpktF9ImItjCjxcq3Fsy_unck_rzI4do2aZEaX47G5QMb4F9I2FjA8_OcfeC_z0RFxctZiM-EZvuXO-a5ilplFtw_mrfjevkASaPKduG8oQ803Ja79tifBtdWAOv73Yn1ASejHCfmueC8-fIKxBdiO-1Stq_8AUrpQHzzNnRS_XZiBKfWAIm2U1yy_1SkTPF7Y2f03_B2xlFUVt6DOtsGB3v8EUG3Q4WSlAaVKvEGuWjdN_VL7aJEDZXgsxeTB_qEYq0bV97uj-CsSgl8L]--></g></svg>