<?xml version="1.0" encoding="us-ascii" standalone="no"?><svg xmlns="http://www.w3.org/2000/svg" xmlns:xlink="http://www.w3.org/1999/xlink" contentStyleType="text/css" height="2582px" preserveAspectRatio="none" style="width:663px;height:2582px;background:#F5F5DC;" version="1.1" viewBox="0 0 663 2582" width="663px" zoomAndPan="magnify"><defs/><g><rect fill="#F5F5DC" height="2582" style="stroke:none;stroke-width:1.0;" width="663" x="0" y="0"/><text fill="#000000" font-family="sans-serif" font-size="14" font-weight="bold" lengthAdjust="spacing" textLength="161" x="249.75" y="36.2399">DeltaFIFO.replace()&#23454;&#29616;</text><ellipse cx="248.5" cy="61.2719" fill="#F0E8F5" rx="10" ry="10" style="stroke:#222222;stroke-width:1.0;"/><rect fill="#FFB6C1" height="2448.2593" style="stroke:#DDA0DD;stroke-width:1.5;" width="641.5" x="11" y="81.2719"/><path d="M80,81.2719 L80,94.5438 L70,104.5438 L11,104.5438 " fill="none" style="stroke:#DDA0DD;stroke-width:1.5;"/><text fill="#FF69B4" font-family="Comic Sans MS" font-size="14" lengthAdjust="spacing" textLength="59" x="14" y="98.5118">replace()</text><rect fill="#F0E8F5" height="54.7522" rx="12.5" ry="12.5" style="stroke:#181818;stroke-width:0.5;" width="273" x="112" y="121.5438"/><text fill="#333333" font-family="Comic Sans MS" font-size="12" lengthAdjust="spacing" textLength="253" x="122" y="145.4639">&#29992;&#26469;&#20445;&#23384;&#21015;&#34920;&#65288;list&#65289;&#20013;&#65292;&#27599;&#20010;&#20803;&#32032;&#30340;key&#65288;&#38190;&#65289;</text><text fill="#333333" font-family="Comic Sans MS" font-size="12" lengthAdjust="spacing" textLength="191" x="149" y="162.84">keys := make(sets.String, len(list))</text><rect fill="#F0E8F5" height="54.7522" rx="12.5" ry="12.5" style="stroke:#181818;stroke-width:0.5;" width="107" x="195" y="196.2961"/><text fill="#333333" font-family="Comic Sans MS" font-size="12" lengthAdjust="spacing" textLength="84" x="205" y="220.2162">&#32769;&#20195;&#30721;&#20860;&#23481;&#36923;&#36753;</text><text fill="#333333" font-family="Comic Sans MS" font-size="12" lengthAdjust="spacing" textLength="77" x="208" y="237.5923">action := Sync</text><rect fill="#F0E8F5" height="37.3761" rx="12.5" ry="12.5" style="stroke:#181818;stroke-width:0.5;" width="120" x="188.5" y="328.9084"/><text fill="#333333" font-family="Comic Sans MS" font-size="12" lengthAdjust="spacing" textLength="100" x="198.5" y="352.8285">action = Replaced</text><polygon fill="#FFDEE3" points="153.5,275.3244,343.5,275.3244,355.5,287.3244,343.5,299.3244,153.5,299.3244,141.5,287.3244,153.5,275.3244" style="stroke:#FF69B4;stroke-width:0.5;"/><text fill="#FFD700" font-family="Comic Sans MS" font-size="16" lengthAdjust="spacing" textLength="16" x="252.5" y="317.8844">&#26159;</text><text fill="#FF1493" font-family="Comic Sans MS" font-size="16" lengthAdjust="spacing" textLength="190" x="153.5" y="294.3004">f.emitDeltaTypeReplaced</text><text fill="#FFD700" font-family="Comic Sans MS" font-size="16" lengthAdjust="spacing" textLength="16" x="355.5" y="282.7164">&#21542;</text><polygon fill="#FFDEE3" points="248.5,386.2845,260.5,398.2845,248.5,410.2845,236.5,398.2845,248.5,386.2845" style="stroke:#FF69B4;stroke-width:0.5;"/><rect fill="#FFE4E1" height="490.8485" rx="10" ry="10" style="stroke:#FF4500;stroke-width:1.5;" width="381" x="56.5" y="420.2845"/><path d="M232.5,420.2845 L232.5,453.8283 L222.5,463.8283 L56.5,463.8283 " fill="none" style="stroke:#FF4500;stroke-width:1.5;"/><text fill="#FF6347" font-family="Comic Sans MS" font-size="14" lengthAdjust="spacing" textLength="166" x="59.5" y="437.5244">&#22312;&#27599;&#20010;item(&#20803;&#32032;)&#21518;&#38754;&#28155;&#21152;</text><text fill="#FF6347" font-family="Comic Sans MS" font-size="14" lengthAdjust="spacing" textLength="154" x="59.5" y="457.7964">&#19968;&#20010;Sync/Replaced&#21160;&#20316;</text><rect fill="#F0E8F5" height="54.7522" rx="12.5" ry="12.5" style="stroke:#181818;stroke-width:0.5;" width="173" x="162" y="547.1644"/><text fill="#333333" font-family="Comic Sans MS" font-size="12" lengthAdjust="spacing" textLength="153" x="172" y="571.0845">DeltaFIFO&#20013;&#24050;&#32463;&#26377;&#36825;&#20123;&#20803;&#32032;</text><text fill="#333333" font-family="Comic Sans MS" font-size="12" lengthAdjust="spacing" textLength="134" x="178" y="588.4606">key, err := f.KeyOf(item)</text><rect fill="#F0E8F5" height="37.3761" rx="12.5" ry="12.5" style="stroke:#181818;stroke-width:0.5;" width="166" x="165.5" y="679.7768"/><text fill="#333333" font-family="Comic Sans MS" font-size="12" lengthAdjust="spacing" textLength="146" x="175.5" y="703.6968">return KeyError{item, err}</text><polygon fill="#FFDEE3" points="217.5,626.1927,279.5,626.1927,291.5,638.1927,279.5,650.1927,217.5,650.1927,205.5,638.1927,217.5,626.1927" style="stroke:#FF69B4;stroke-width:0.5;"/><text fill="#FFD700" font-family="Comic Sans MS" font-size="16" lengthAdjust="spacing" textLength="16" x="252.5" y="668.7528">&#26159;</text><text fill="#FF1493" font-family="Comic Sans MS" font-size="16" lengthAdjust="spacing" textLength="62" x="217.5" y="645.1687">err != nil</text><text fill="#FFD700" font-family="Comic Sans MS" font-size="16" lengthAdjust="spacing" textLength="16" x="291.5" y="633.5847">&#21542;</text><polygon fill="#FFDEE3" points="248.5,738.3808,260.5,750.3808,248.5,762.3808,236.5,750.3808,248.5,738.3808" style="stroke:#FF69B4;stroke-width:0.5;"/><rect fill="#F0E8F5" height="37.3761" rx="12.5" ry="12.5" style="stroke:#181818;stroke-width:0.5;" width="111" x="193" y="782.3808"/><text fill="#333333" font-family="Comic Sans MS" font-size="12" lengthAdjust="spacing" textLength="91" x="203" y="806.3009">keys.Insert(key)</text><rect fill="#F0E8F5" height="37.3761" rx="12.5" ry="12.5" style="stroke:#181818;stroke-width:0.5;" width="316" x="90.5" y="839.7569"/><text fill="#333333" font-family="Comic Sans MS" font-size="12" lengthAdjust="spacing" textLength="296" x="100.5" y="863.677">f.queueActionInternalLocked(action, Replaced, item)</text><polygon fill="#FFDEE3" points="176,480.8283,321,480.8283,333,503.9964,321,527.1644,176,527.1644,164,503.9964,176,480.8283" style="stroke:#FF69B4;stroke-width:0.5;"/><text fill="#FF1493" font-family="Comic Sans MS" font-size="16" lengthAdjust="spacing" textLength="54" x="216" y="499.3884">&#36941;&#21382;list</text><text fill="#FF1493" font-family="Comic Sans MS" font-size="16" lengthAdjust="spacing" textLength="141" x="180" y="522.5564">_, item := range list</text><rect fill="#FFE4E1" height="823.7533" rx="10" ry="10" style="stroke:#FF4500;stroke-width:1.5;" width="455" x="21" y="921.133"/><path d="M175,921.133 L175,934.4049 L165,944.4049 L21,944.4049 " fill="none" style="stroke:#FF4500;stroke-width:1.5;"/><text fill="#FF6347" font-family="Comic Sans MS" font-size="14" lengthAdjust="spacing" textLength="144" x="24" y="938.373">&#21024;&#38500;f.items&#20013;&#30340;&#26087;&#20803;&#32032;</text><polygon fill="#FFDEE3" points="204.5,1009.4049,292.5,1009.4049,304.5,1021.4049,292.5,1033.4049,204.5,1033.4049,192.5,1021.4049,204.5,1009.4049" style="stroke:#FF69B4;stroke-width:0.5;"/><text fill="#FF1493" font-family="Comic Sans MS" font-size="16" lengthAdjust="spacing" textLength="84" x="208.5" y="1028.381">keys.Has(k)</text><text fill="#FFD700" font-family="Comic Sans MS" font-size="16" lengthAdjust="spacing" textLength="16" x="176.5" y="1016.7969">&#26159;</text><text fill="#FFD700" font-family="Comic Sans MS" font-size="16" lengthAdjust="spacing" textLength="16" x="304.5" y="1016.7969">&#21542;</text><rect fill="#F0E8F5" height="37.3761" rx="12.5" ry="12.5" style="stroke:#181818;stroke-width:0.5;" width="69" x="148" y="1043.4049"/><text fill="#333333" font-family="Comic Sans MS" font-size="12" lengthAdjust="spacing" textLength="49" x="158" y="1067.325">continue</text><rect fill="#F0E8F5" height="37.3761" rx="12.5" ry="12.5" style="stroke:#181818;stroke-width:0.5;" width="47" x="291" y="1043.4049"/><text fill="#333333" font-family="Comic Sans MS" font-size="12" lengthAdjust="spacing" textLength="27" x="301" y="1067.325">false</text><polygon fill="#FFDEE3" points="248.5,1086.7811,260.5,1098.7811,248.5,1110.7811,236.5,1098.7811,248.5,1086.7811" style="stroke:#FF69B4;stroke-width:0.5;"/><polygon fill="#FFDEE3" points="151,961.4049,346,961.4049,358,973.4049,346,985.4049,151,985.4049,139,973.4049,151,961.4049" style="stroke:#FF69B4;stroke-width:0.5;"/><text fill="#FF1493" font-family="Comic Sans MS" font-size="16" lengthAdjust="spacing" textLength="195" x="151" y="980.381">k, oldItem := range f.items</text><rect fill="#F0E8F5" height="37.3761" rx="12.5" ry="12.5" style="stroke:#181818;stroke-width:0.5;" width="165" x="166" y="1152.7811"/><text fill="#333333" font-family="Comic Sans MS" font-size="12" lengthAdjust="spacing" textLength="145" x="176" y="1176.7012">var deletedObj interface{}</text><rect fill="#F0E8F5" height="54.7522" rx="12.5" ry="12.5" style="stroke:#181818;stroke-width:0.5;" width="176" x="160.5" y="1210.1572"/><text fill="#333333" font-family="Comic Sans MS" font-size="12" lengthAdjust="spacing" textLength="156" x="170.5" y="1234.0773">&#22914;&#26524;Deltas&#19981;&#20026;&#31354;&#21017;&#26377;&#36820;&#22238;&#20540;</text><text fill="#333333" font-family="Comic Sans MS" font-size="12" lengthAdjust="spacing" textLength="122" x="197.5" y="1251.4534">n := oldItem.Newest()</text><rect fill="#F0E8F5" height="37.3761" rx="12.5" ry="12.5" style="stroke:#181818;stroke-width:0.5;" width="142" x="177.5" y="1342.7695"/><text fill="#333333" font-family="Comic Sans MS" font-size="12" lengthAdjust="spacing" textLength="122" x="187.5" y="1366.6896">deletedObj = n.Object</text><rect fill="#F0E8F5" height="37.3761" rx="12.5" ry="12.5" style="stroke:#181818;stroke-width:0.5;" width="292" x="102.5" y="1400.1456"/><text fill="#333333" font-family="Comic Sans MS" font-size="12" lengthAdjust="spacing" textLength="272" x="112.5" y="1424.0657">d, ok := deletedObj.(DeletedFinalStateUnknown)</text><rect fill="#F0E8F5" height="37.3761" rx="12.5" ry="12.5" style="stroke:#181818;stroke-width:0.5;" width="124" x="186.5" y="1515.3818"/><text fill="#333333" font-family="Comic Sans MS" font-size="12" lengthAdjust="spacing" textLength="104" x="196.5" y="1539.3019">deletedObj = d.Obj</text><polygon fill="#FFDEE3" points="236.5,1461.7978,260.5,1461.7978,272.5,1473.7978,260.5,1485.7978,236.5,1485.7978,224.5,1473.7978,236.5,1461.7978" style="stroke:#FF69B4;stroke-width:0.5;"/><text fill="#FFD700" font-family="Comic Sans MS" font-size="16" lengthAdjust="spacing" textLength="16" x="252.5" y="1504.3578">&#26159;</text><text fill="#FF1493" font-family="Comic Sans MS" font-size="16" lengthAdjust="spacing" textLength="19" x="239" y="1480.7738">ok</text><text fill="#FFD700" font-family="Comic Sans MS" font-size="16" lengthAdjust="spacing" textLength="16" x="272.5" y="1469.1898">&#21542;</text><polygon fill="#FFDEE3" points="248.5,1572.758,260.5,1584.758,248.5,1596.758,236.5,1584.758,248.5,1572.758" style="stroke:#FF69B4;stroke-width:0.5;"/><polygon fill="#FFDEE3" points="223,1289.1855,274,1289.1855,286,1301.1855,274,1313.1855,223,1313.1855,211,1301.1855,223,1289.1855" style="stroke:#FF69B4;stroke-width:0.5;"/><text fill="#FFD700" font-family="Comic Sans MS" font-size="16" lengthAdjust="spacing" textLength="16" x="252.5" y="1331.7455">&#26159;</text><text fill="#FF1493" font-family="Comic Sans MS" font-size="16" lengthAdjust="spacing" textLength="51" x="223" y="1308.1615">n != nil</text><text fill="#FFD700" font-family="Comic Sans MS" font-size="16" lengthAdjust="spacing" textLength="16" x="286" y="1296.5775">&#21542;</text><polygon fill="#FFDEE3" points="248.5,1616.758,260.5,1628.758,248.5,1640.758,236.5,1628.758,248.5,1616.758" style="stroke:#FF69B4;stroke-width:0.5;"/><rect fill="#F0E8F5" height="72.1284" rx="12.5" ry="12.5" style="stroke:#181818;stroke-width:0.5;" width="435" x="31" y="1660.758"/><text fill="#333333" font-family="Comic Sans MS" font-size="12" lengthAdjust="spacing" textLength="305" x="101" y="1684.6781">&#26631;&#35760;&#21024;&#38500;&#65292;&#22240;&#20026;&#21644;apiserver&#22833;&#32852;&#24341;&#36215;&#30340;&#21024;&#38500;&#29366;&#24577;&#27809;&#26377;&#21450;&#26102;</text><text fill="#333333" font-family="Comic Sans MS" font-size="12" lengthAdjust="spacing" textLength="288" x="113" y="1702.0542">&#33719;&#21462;&#21040;&#65292;&#25152;&#20197;&#36825;&#37324;&#26159;DeletedFinalStateUnknown&#31867;&#22411;</text><text fill="#333333" font-family="Comic Sans MS" font-size="12" lengthAdjust="spacing" textLength="415" x="41" y="1719.4303">f.queueActionLocked(Deleted, DeletedFinalStateUnknown{k, deletedObj})</text><rect fill="#FFE4E1" height="705.2688" rx="10" ry="10" style="stroke:#FF4500;stroke-width:1.5;" width="619" x="23.5" y="1754.8863"/><path d="M222.5,1754.8863 L222.5,1808.7021 L212.5,1818.7021 L23.5,1818.7021 " fill="none" style="stroke:#FF4500;stroke-width:1.5;"/><text fill="#FF6347" font-family="Comic Sans MS" font-size="14" lengthAdjust="spacing" textLength="186" x="26.5" y="1772.1262">&#26816;&#27979;&#23545;&#35937;&#19981;&#23384;&#22312;&#38431;&#21015;&#20013;,&#20294;&#23384;&#22312;</text><text fill="#FF6347" font-family="Comic Sans MS" font-size="14" lengthAdjust="spacing" textLength="174" x="29.5" y="1792.3982">KnownObjects&#65288;Indexer&#65289;</text><text fill="#FF6347" font-family="Comic Sans MS" font-size="14" lengthAdjust="spacing" textLength="84" x="29.5" y="1812.6701">&#20013;&#30340;&#23545;&#35937;&#21024;&#38500;</text><rect fill="#F0E8F5" height="54.7522" rx="12.5" ry="12.5" style="stroke:#181818;stroke-width:0.5;" width="248" x="124.5" y="1889.2861"/><text fill="#333333" font-family="Comic Sans MS" font-size="12" lengthAdjust="spacing" textLength="216" x="134.5" y="1913.2062">key&#23601;&#26159;&#22914;"default/pod1"&#36825;&#31181;&#23383;&#31526;&#20018; \n</text><text fill="#333333" font-family="Comic Sans MS" font-size="12" lengthAdjust="spacing" textLength="228" x="134.5" y="1930.5823">knownKeys := f.knownObjects.ListKeys()</text><polygon fill="#FFDEE3" points="134,2012.0383,363,2012.0383,375,2024.0383,363,2036.0383,134,2036.0383,122,2024.0383,134,2012.0383" style="stroke:#FF69B4;stroke-width:0.5;"/><text fill="#FF1493" font-family="Comic Sans MS" font-size="16" lengthAdjust="spacing" textLength="229" x="134" y="2031.0143">keys.Has(k) || len(f.items[k]) &gt; 0</text><text fill="#FFD700" font-family="Comic Sans MS" font-size="16" lengthAdjust="spacing" textLength="16" x="106" y="2019.4303">&#26159;</text><text fill="#FFD700" font-family="Comic Sans MS" font-size="16" lengthAdjust="spacing" textLength="16" x="375" y="2019.4303">&#21542;</text><rect fill="#F0E8F5" height="37.3761" rx="12.5" ry="12.5" style="stroke:#181818;stroke-width:0.5;" width="69" x="77.5" y="2046.0383"/><text fill="#333333" font-family="Comic Sans MS" font-size="12" lengthAdjust="spacing" textLength="49" x="87.5" y="2069.9584">continue</text><rect fill="#F0E8F5" height="54.7522" rx="12.5" ry="12.5" style="stroke:#181818;stroke-width:0.5;" width="321" x="224.5" y="2046.0383"/><text fill="#333333" font-family="Comic Sans MS" font-size="12" lengthAdjust="spacing" textLength="216" x="282.5" y="2069.9584">&#26032;&#21015;&#34920;&#20013;&#19981;&#23384;&#22312;&#30340;&#26087;&#20803;&#32032;&#26631;&#35760;&#20026;&#23558;&#35201;&#21024;&#38500;</text><text fill="#333333" font-family="Comic Sans MS" font-size="12" lengthAdjust="spacing" textLength="301" x="234.5" y="2087.3345">deletedObj, exists, err := f.knownObjects.GetByKey(k)</text><rect fill="#F0E8F5" height="37.3761" rx="12.5" ry="12.5" style="stroke:#181818;stroke-width:0.5;" width="108" x="331" y="2178.6506"/><text fill="#333333" font-family="Comic Sans MS" font-size="12" lengthAdjust="spacing" textLength="88" x="341" y="2202.5707">deletedObj = nil</text><polygon fill="#FFDEE3" points="323,2125.0666,447,2125.0666,459,2137.0666,447,2149.0666,323,2149.0666,311,2137.0666,323,2125.0666" style="stroke:#FF69B4;stroke-width:0.5;"/><text fill="#FFD700" font-family="Comic Sans MS" font-size="16" lengthAdjust="spacing" textLength="16" x="389" y="2167.6267">&#26159;</text><text fill="#FF1493" font-family="Comic Sans MS" font-size="16" lengthAdjust="spacing" textLength="124" x="323" y="2144.0426">err != nil || !exists</text><text fill="#FFD700" font-family="Comic Sans MS" font-size="16" lengthAdjust="spacing" textLength="16" x="459" y="2132.4586">&#21542;</text><polygon fill="#FFDEE3" points="385,2236.0268,397,2248.0268,385,2260.0268,373,2248.0268,385,2236.0268" style="stroke:#FF69B4;stroke-width:0.5;"/><rect fill="#F0E8F5" height="72.1284" rx="12.5" ry="12.5" style="stroke:#181818;stroke-width:0.5;" width="435" x="167.5" y="2280.0268"/><text fill="#333333" font-family="Comic Sans MS" font-size="12" lengthAdjust="spacing" textLength="341" x="225.5" y="2303.9469">&#28155;&#21152;&#19968;&#20010;&#21024;&#38500;&#21160;&#20316;&#65292;&#22240;&#20026;&#19982;apiserver&#22833;&#32852;&#31561;&#22330;&#26223;&#20250;&#24341;&#36215;&#21024;&#38500;&#26102;&#38388;</text><text fill="#333333" font-family="Comic Sans MS" font-size="12" lengthAdjust="spacing" textLength="288" x="249.5" y="2321.323">&#27809;&#26377;&#30417;&#21548;&#21040;&#65292;&#25152;&#20197;&#26159;DeletedFinalStateUnknown&#31867;&#22411;</text><text fill="#333333" font-family="Comic Sans MS" font-size="12" lengthAdjust="spacing" textLength="415" x="177.5" y="2338.6991">f.queueActionLocked(Deleted, DeletedFinalStateUnknown{k, deletedObj})</text><polygon fill="#FFDEE3" points="248.5,2358.1551,260.5,2370.1551,248.5,2382.1551,236.5,2370.1551,248.5,2358.1551" style="stroke:#FF69B4;stroke-width:0.5;"/><polygon fill="#FFDEE3" points="158.5,1964.0383,338.5,1964.0383,350.5,1976.0383,338.5,1988.0383,158.5,1988.0383,146.5,1976.0383,158.5,1964.0383" style="stroke:#FF69B4;stroke-width:0.5;"/><text fill="#FF1493" font-family="Comic Sans MS" font-size="16" lengthAdjust="spacing" textLength="180" x="158.5" y="1983.0143">_, k := range knownKeys</text><polygon fill="#FFDEE3" points="186,1835.7021,311,1835.7021,323,1847.7021,311,1859.7021,186,1859.7021,174,1847.7021,186,1835.7021" style="stroke:#FF69B4;stroke-width:0.5;"/><text fill="#FFD700" font-family="Comic Sans MS" font-size="16" lengthAdjust="spacing" textLength="16" x="252.5" y="1878.2621">&#26159;</text><text fill="#FF1493" font-family="Comic Sans MS" font-size="16" lengthAdjust="spacing" textLength="125" x="186" y="1854.6781">f.knownObjects?</text><text fill="#FFD700" font-family="Comic Sans MS" font-size="16" lengthAdjust="spacing" textLength="16" x="323" y="1843.094">&#21542;</text><polygon fill="#FFDEE3" points="248.5,2424.1551,260.5,2436.1551,248.5,2448.1551,236.5,2436.1551,248.5,2424.1551" style="stroke:#FF69B4;stroke-width:0.5;"/><rect fill="#F0E8F5" height="37.3761" rx="12.5" ry="12.5" style="stroke:#181818;stroke-width:0.5;" width="72" x="212.5" y="2480.1551"/><text fill="#333333" font-family="Comic Sans MS" font-size="12" lengthAdjust="spacing" textLength="52" x="222.5" y="2504.0752">return nil</text><ellipse cx="248.5" cy="2560.5312" fill="none" rx="11" ry="11" style="stroke:#222222;stroke-width:1.0;"/><ellipse cx="248.5" cy="2560.5312" fill="#F0E8F5" rx="6" ry="6" style="stroke:#222222;stroke-width:1.0;"/><line style="stroke:#181818;stroke-width:1.0;" x1="248.5" x2="248.5" y1="176.2961" y2="196.2961"/><polygon fill="#181818" points="244.5,186.2961,248.5,196.2961,252.5,186.2961,248.5,190.2961" style="stroke:#181818;stroke-width:1.0;"/><line style="stroke:#181818;stroke-width:1.0;" x1="248.5" x2="248.5" y1="299.3244" y2="328.9084"/><polygon fill="#181818" points="244.5,318.9084,248.5,328.9084,252.5,318.9084,248.5,322.9084" style="stroke:#181818;stroke-width:1.0;"/><line style="stroke:#181818;stroke-width:1.0;" x1="355.5" x2="367.5" y1="287.3244" y2="287.3244"/><polygon fill="#181818" points="363.5,337.5964,367.5,347.5964,371.5,337.5964,367.5,341.5964" style="stroke:#181818;stroke-width:1.0;"/><line style="stroke:#181818;stroke-width:1.0;" x1="367.5" x2="367.5" y1="287.3244" y2="398.2845"/><line style="stroke:#181818;stroke-width:1.0;" x1="367.5" x2="260.5" y1="398.2845" y2="398.2845"/><polygon fill="#181818" points="270.5,394.2845,260.5,398.2845,270.5,402.2845,266.5,398.2845" style="stroke:#181818;stroke-width:1.0;"/><line style="stroke:#181818;stroke-width:1.0;" x1="248.5" x2="248.5" y1="366.2845" y2="386.2845"/><polygon fill="#181818" points="244.5,376.2845,248.5,386.2845,252.5,376.2845,248.5,380.2845" style="stroke:#181818;stroke-width:1.0;"/><line style="stroke:#181818;stroke-width:1.0;" x1="248.5" x2="248.5" y1="251.0483" y2="275.3244"/><polygon fill="#181818" points="244.5,265.3244,248.5,275.3244,252.5,265.3244,248.5,269.3244" style="stroke:#181818;stroke-width:1.0;"/><line style="stroke:#181818;stroke-width:1.0;" x1="248.5" x2="248.5" y1="650.1927" y2="679.7768"/><polygon fill="#181818" points="244.5,669.7768,248.5,679.7768,252.5,669.7768,248.5,673.7768" style="stroke:#181818;stroke-width:1.0;"/><line style="stroke:#181818;stroke-width:1.0;" x1="291.5" x2="341.5" y1="638.1927" y2="638.1927"/><polygon fill="#181818" points="337.5,688.4648,341.5,698.4648,345.5,688.4648,341.5,692.4648" style="stroke:#181818;stroke-width:1.0;"/><line style="stroke:#181818;stroke-width:1.0;" x1="341.5" x2="341.5" y1="638.1927" y2="750.3808"/><line style="stroke:#181818;stroke-width:1.0;" x1="341.5" x2="260.5" y1="750.3808" y2="750.3808"/><polygon fill="#181818" points="270.5,746.3808,260.5,750.3808,270.5,754.3808,266.5,750.3808" style="stroke:#181818;stroke-width:1.0;"/><line style="stroke:#181818;stroke-width:1.0;" x1="248.5" x2="248.5" y1="717.1529" y2="738.3808"/><polygon fill="#181818" points="244.5,728.3808,248.5,738.3808,252.5,728.3808,248.5,732.3808" style="stroke:#181818;stroke-width:1.0;"/><line style="stroke:#181818;stroke-width:1.0;" x1="248.5" x2="248.5" y1="601.9167" y2="626.1927"/><polygon fill="#181818" points="244.5,616.1927,248.5,626.1927,252.5,616.1927,248.5,620.1927" style="stroke:#181818;stroke-width:1.0;"/><line style="stroke:#181818;stroke-width:1.0;" x1="248.5" x2="248.5" y1="762.3808" y2="782.3808"/><polygon fill="#181818" points="244.5,772.3808,248.5,782.3808,252.5,772.3808,248.5,776.3808" style="stroke:#181818;stroke-width:1.0;"/><line style="stroke:#181818;stroke-width:1.0;" x1="248.5" x2="248.5" y1="819.7569" y2="839.7569"/><polygon fill="#181818" points="244.5,829.7569,248.5,839.7569,252.5,829.7569,248.5,833.7569" style="stroke:#181818;stroke-width:1.0;"/><line style="stroke:#181818;stroke-width:1.0;" x1="248.5" x2="248.5" y1="527.1644" y2="547.1644"/><polygon fill="#181818" points="244.5,537.1644,248.5,547.1644,252.5,537.1644,248.5,541.1644" style="stroke:#181818;stroke-width:1.0;"/><line style="stroke:#181818;stroke-width:1.0;" x1="248.5" x2="248.5" y1="877.133" y2="887.133"/><line style="stroke:#181818;stroke-width:1.0;" x1="248.5" x2="418.5" y1="887.133" y2="887.133"/><polygon fill="#181818" points="414.5,718.3808,418.5,708.3808,422.5,718.3808,418.5,714.3808" style="stroke:#181818;stroke-width:1.0;"/><line style="stroke:#181818;stroke-width:1.0;" x1="418.5" x2="418.5" y1="503.9964" y2="887.133"/><line style="stroke:#181818;stroke-width:1.0;" x1="418.5" x2="333" y1="503.9964" y2="503.9964"/><polygon fill="#181818" points="343,499.9964,333,503.9964,343,507.9964,339,503.9964" style="stroke:#181818;stroke-width:1.0;"/><line style="stroke:#181818;stroke-width:1.0;" x1="164" x2="78.5" y1="503.9964" y2="503.9964"/><polygon fill="#181818" points="74.5,704.3808,78.5,714.3808,82.5,704.3808,78.5,708.3808" style="stroke:#181818;stroke-width:1.0;"/><line style="stroke:#181818;stroke-width:1.0;" x1="78.5" x2="78.5" y1="503.9964" y2="899.133"/><line style="stroke:#181818;stroke-width:1.0;" x1="78.5" x2="248.5" y1="899.133" y2="899.133"/><line style="stroke:#181818;stroke-width:1.0;" x1="248.5" x2="248.5" y1="899.133" y2="961.4049"/><polygon fill="#181818" points="244.5,951.4049,248.5,961.4049,252.5,951.4049,248.5,955.4049" style="stroke:#181818;stroke-width:1.0;"/><line style="stroke:#181818;stroke-width:1.0;" x1="248.5" x2="248.5" y1="410.2845" y2="480.8283"/><polygon fill="#181818" points="244.5,470.8283,248.5,480.8283,252.5,470.8283,248.5,474.8283" style="stroke:#181818;stroke-width:1.0;"/><line style="stroke:#181818;stroke-width:1.0;" x1="192.5" x2="182.5" y1="1021.4049" y2="1021.4049"/><line style="stroke:#181818;stroke-width:1.0;" x1="182.5" x2="182.5" y1="1021.4049" y2="1043.4049"/><polygon fill="#181818" points="178.5,1033.4049,182.5,1043.4049,186.5,1033.4049,182.5,1037.4049" style="stroke:#181818;stroke-width:1.0;"/><line style="stroke:#181818;stroke-width:1.0;" x1="304.5" x2="314.5" y1="1021.4049" y2="1021.4049"/><line style="stroke:#181818;stroke-width:1.0;" x1="314.5" x2="314.5" y1="1021.4049" y2="1043.4049"/><polygon fill="#181818" points="310.5,1033.4049,314.5,1043.4049,318.5,1033.4049,314.5,1037.4049" style="stroke:#181818;stroke-width:1.0;"/><line style="stroke:#181818;stroke-width:1.0;" x1="182.5" x2="182.5" y1="1080.7811" y2="1098.7811"/><line style="stroke:#181818;stroke-width:1.0;" x1="182.5" x2="236.5" y1="1098.7811" y2="1098.7811"/><polygon fill="#181818" points="226.5,1094.7811,236.5,1098.7811,226.5,1102.7811,230.5,1098.7811" style="stroke:#181818;stroke-width:1.0;"/><line style="stroke:#181818;stroke-width:1.0;" x1="314.5" x2="314.5" y1="1080.7811" y2="1098.7811"/><line style="stroke:#181818;stroke-width:1.0;" x1="314.5" x2="260.5" y1="1098.7811" y2="1098.7811"/><polygon fill="#181818" points="270.5,1094.7811,260.5,1098.7811,270.5,1102.7811,266.5,1098.7811" style="stroke:#181818;stroke-width:1.0;"/><line style="stroke:#181818;stroke-width:1.0;" x1="248.5" x2="248.5" y1="985.4049" y2="1009.4049"/><polygon fill="#181818" points="244.5,999.4049,248.5,1009.4049,252.5,999.4049,248.5,1003.4049" style="stroke:#181818;stroke-width:1.0;"/><line style="stroke:#181818;stroke-width:1.0;" x1="248.5" x2="248.5" y1="1110.7811" y2="1120.7811"/><line style="stroke:#181818;stroke-width:1.0;" x1="248.5" x2="370" y1="1120.7811" y2="1120.7811"/><polygon fill="#181818" points="366,1058.093,370,1048.093,374,1058.093,370,1054.093" style="stroke:#181818;stroke-width:1.0;"/><line style="stroke:#181818;stroke-width:1.0;" x1="370" x2="370" y1="973.4049" y2="1120.7811"/><line style="stroke:#181818;stroke-width:1.0;" x1="370" x2="358" y1="973.4049" y2="973.4049"/><polygon fill="#181818" points="368,969.4049,358,973.4049,368,977.4049,364,973.4049" style="stroke:#181818;stroke-width:1.0;"/><line style="stroke:#181818;stroke-width:1.0;" x1="139" x2="126" y1="973.4049" y2="973.4049"/><polygon fill="#181818" points="122,1044.093,126,1054.093,130,1044.093,126,1048.093" style="stroke:#181818;stroke-width:1.0;"/><line style="stroke:#181818;stroke-width:1.0;" x1="126" x2="126" y1="973.4049" y2="1132.7811"/><line style="stroke:#181818;stroke-width:1.0;" x1="126" x2="248.5" y1="1132.7811" y2="1132.7811"/><line style="stroke:#181818;stroke-width:1.0;" x1="248.5" x2="248.5" y1="1132.7811" y2="1152.7811"/><polygon fill="#181818" points="244.5,1142.7811,248.5,1152.7811,252.5,1142.7811,248.5,1146.7811" style="stroke:#181818;stroke-width:1.0;"/><line style="stroke:#181818;stroke-width:1.0;" x1="248.5" x2="248.5" y1="1190.1572" y2="1210.1572"/><polygon fill="#181818" points="244.5,1200.1572,248.5,1210.1572,252.5,1200.1572,248.5,1204.1572" style="stroke:#181818;stroke-width:1.0;"/><line style="stroke:#181818;stroke-width:1.0;" x1="248.5" x2="248.5" y1="1380.1456" y2="1400.1456"/><polygon fill="#181818" points="244.5,1390.1456,248.5,1400.1456,252.5,1390.1456,248.5,1394.1456" style="stroke:#181818;stroke-width:1.0;"/><line style="stroke:#181818;stroke-width:1.0;" x1="248.5" x2="248.5" y1="1485.7978" y2="1515.3818"/><polygon fill="#181818" points="244.5,1505.3818,248.5,1515.3818,252.5,1505.3818,248.5,1509.3818" style="stroke:#181818;stroke-width:1.0;"/><line style="stroke:#181818;stroke-width:1.0;" x1="272.5" x2="320.5" y1="1473.7978" y2="1473.7978"/><polygon fill="#181818" points="316.5,1524.0699,320.5,1534.0699,324.5,1524.0699,320.5,1528.0699" style="stroke:#181818;stroke-width:1.0;"/><line style="stroke:#181818;stroke-width:1.0;" x1="320.5" x2="320.5" y1="1473.7978" y2="1584.758"/><line style="stroke:#181818;stroke-width:1.0;" x1="320.5" x2="260.5" y1="1584.758" y2="1584.758"/><polygon fill="#181818" points="270.5,1580.758,260.5,1584.758,270.5,1588.758,266.5,1584.758" style="stroke:#181818;stroke-width:1.0;"/><line style="stroke:#181818;stroke-width:1.0;" x1="248.5" x2="248.5" y1="1552.758" y2="1572.758"/><polygon fill="#181818" points="244.5,1562.758,248.5,1572.758,252.5,1562.758,248.5,1566.758" style="stroke:#181818;stroke-width:1.0;"/><line style="stroke:#181818;stroke-width:1.0;" x1="248.5" x2="248.5" y1="1437.5218" y2="1461.7978"/><polygon fill="#181818" points="244.5,1451.7978,248.5,1461.7978,252.5,1451.7978,248.5,1455.7978" style="stroke:#181818;stroke-width:1.0;"/><line style="stroke:#181818;stroke-width:1.0;" x1="248.5" x2="248.5" y1="1313.1855" y2="1342.7695"/><polygon fill="#181818" points="244.5,1332.7695,248.5,1342.7695,252.5,1332.7695,248.5,1336.7695" style="stroke:#181818;stroke-width:1.0;"/><line style="stroke:#181818;stroke-width:1.0;" x1="286" x2="404.5" y1="1301.1855" y2="1301.1855"/><polygon fill="#181818" points="400.5,1451.6938,404.5,1461.6938,408.5,1451.6938,404.5,1455.6938" style="stroke:#181818;stroke-width:1.0;"/><line style="stroke:#181818;stroke-width:1.0;" x1="404.5" x2="404.5" y1="1301.1855" y2="1628.758"/><line style="stroke:#181818;stroke-width:1.0;" x1="404.5" x2="260.5" y1="1628.758" y2="1628.758"/><polygon fill="#181818" points="270.5,1624.758,260.5,1628.758,270.5,1632.758,266.5,1628.758" style="stroke:#181818;stroke-width:1.0;"/><line style="stroke:#181818;stroke-width:1.0;" x1="248.5" x2="248.5" y1="1596.758" y2="1616.758"/><polygon fill="#181818" points="244.5,1606.758,248.5,1616.758,252.5,1606.758,248.5,1610.758" style="stroke:#181818;stroke-width:1.0;"/><line style="stroke:#181818;stroke-width:1.0;" x1="248.5" x2="248.5" y1="1264.9094" y2="1289.1855"/><polygon fill="#181818" points="244.5,1279.1855,248.5,1289.1855,252.5,1279.1855,248.5,1283.1855" style="stroke:#181818;stroke-width:1.0;"/><line style="stroke:#181818;stroke-width:1.0;" x1="248.5" x2="248.5" y1="1640.758" y2="1660.758"/><polygon fill="#181818" points="244.5,1650.758,248.5,1660.758,252.5,1650.758,248.5,1654.758" style="stroke:#181818;stroke-width:1.0;"/><line style="stroke:#181818;stroke-width:1.0;" x1="385" x2="385" y1="2149.0666" y2="2178.6506"/><polygon fill="#181818" points="381,2168.6506,385,2178.6506,389,2168.6506,385,2172.6506" style="stroke:#181818;stroke-width:1.0;"/><line style="stroke:#181818;stroke-width:1.0;" x1="459" x2="471" y1="2137.0666" y2="2137.0666"/><polygon fill="#181818" points="467,2187.3387,471,2197.3387,475,2187.3387,471,2191.3387" style="stroke:#181818;stroke-width:1.0;"/><line style="stroke:#181818;stroke-width:1.0;" x1="471" x2="471" y1="2137.0666" y2="2248.0268"/><line style="stroke:#181818;stroke-width:1.0;" x1="471" x2="397" y1="2248.0268" y2="2248.0268"/><polygon fill="#181818" points="407,2244.0268,397,2248.0268,407,2252.0268,403,2248.0268" style="stroke:#181818;stroke-width:1.0;"/><line style="stroke:#181818;stroke-width:1.0;" x1="385" x2="385" y1="2216.0268" y2="2236.0268"/><polygon fill="#181818" points="381,2226.0268,385,2236.0268,389,2226.0268,385,2230.0268" style="stroke:#181818;stroke-width:1.0;"/><line style="stroke:#181818;stroke-width:1.0;" x1="385" x2="385" y1="2100.7906" y2="2125.0666"/><polygon fill="#181818" points="381,2115.0666,385,2125.0666,389,2115.0666,385,2119.0666" style="stroke:#181818;stroke-width:1.0;"/><line style="stroke:#181818;stroke-width:1.0;" x1="385" x2="385" y1="2260.0268" y2="2280.0268"/><polygon fill="#181818" points="381,2270.0268,385,2280.0268,389,2270.0268,385,2274.0268" style="stroke:#181818;stroke-width:1.0;"/><line style="stroke:#181818;stroke-width:1.0;" x1="122" x2="112" y1="2024.0383" y2="2024.0383"/><line style="stroke:#181818;stroke-width:1.0;" x1="112" x2="112" y1="2024.0383" y2="2046.0383"/><polygon fill="#181818" points="108,2036.0383,112,2046.0383,116,2036.0383,112,2040.0383" style="stroke:#181818;stroke-width:1.0;"/><line style="stroke:#181818;stroke-width:1.0;" x1="375" x2="385" y1="2024.0383" y2="2024.0383"/><line style="stroke:#181818;stroke-width:1.0;" x1="385" x2="385" y1="2024.0383" y2="2046.0383"/><polygon fill="#181818" points="381,2036.0383,385,2046.0383,389,2036.0383,385,2040.0383" style="stroke:#181818;stroke-width:1.0;"/><line style="stroke:#181818;stroke-width:1.0;" x1="112" x2="112" y1="2083.4144" y2="2370.1551"/><line style="stroke:#181818;stroke-width:1.0;" x1="112" x2="236.5" y1="2370.1551" y2="2370.1551"/><polygon fill="#181818" points="226.5,2366.1551,236.5,2370.1551,226.5,2374.1551,230.5,2370.1551" style="stroke:#181818;stroke-width:1.0;"/><line style="stroke:#181818;stroke-width:1.0;" x1="385" x2="385" y1="2352.1551" y2="2370.1551"/><line style="stroke:#181818;stroke-width:1.0;" x1="385" x2="260.5" y1="2370.1551" y2="2370.1551"/><polygon fill="#181818" points="270.5,2366.1551,260.5,2370.1551,270.5,2374.1551,266.5,2370.1551" style="stroke:#181818;stroke-width:1.0;"/><line style="stroke:#181818;stroke-width:1.0;" x1="248.5" x2="248.5" y1="1988.0383" y2="2012.0383"/><polygon fill="#181818" points="244.5,2002.0383,248.5,2012.0383,252.5,2002.0383,248.5,2006.0383" style="stroke:#181818;stroke-width:1.0;"/><line style="stroke:#181818;stroke-width:1.0;" x1="248.5" x2="248.5" y1="2382.1551" y2="2392.1551"/><line style="stroke:#181818;stroke-width:1.0;" x1="248.5" x2="616.5" y1="2392.1551" y2="2392.1551"/><polygon fill="#181818" points="612.5,2202.0268,616.5,2192.0268,620.5,2202.0268,616.5,2198.0268" style="stroke:#181818;stroke-width:1.0;"/><line style="stroke:#181818;stroke-width:1.0;" x1="616.5" x2="616.5" y1="1976.0383" y2="2392.1551"/><line style="stroke:#181818;stroke-width:1.0;" x1="616.5" x2="350.5" y1="1976.0383" y2="1976.0383"/><polygon fill="#181818" points="360.5,1972.0383,350.5,1976.0383,360.5,1980.0383,356.5,1976.0383" style="stroke:#181818;stroke-width:1.0;"/><line style="stroke:#181818;stroke-width:1.0;" x1="146.5" x2="55.5" y1="1976.0383" y2="1976.0383"/><polygon fill="#181818" points="51.5,2188.0268,55.5,2198.0268,59.5,2188.0268,55.5,2192.0268" style="stroke:#181818;stroke-width:1.0;"/><line style="stroke:#181818;stroke-width:1.0;" x1="55.5" x2="55.5" y1="1976.0383" y2="2404.1551"/><line style="stroke:#181818;stroke-width:1.0;" x1="55.5" x2="248.5" y1="2404.1551" y2="2404.1551"/><line style="stroke:#181818;stroke-width:1.0;" x1="248.5" x2="248.5" y1="2404.1551" y2="2424.1551"/><polygon fill="#181818" points="244.5,2414.1551,248.5,2424.1551,252.5,2414.1551,248.5,2418.1551" style="stroke:#181818;stroke-width:1.0;"/><line style="stroke:#181818;stroke-width:1.0;" x1="248.5" x2="248.5" y1="1944.0383" y2="1964.0383"/><polygon fill="#181818" points="244.5,1954.0383,248.5,1964.0383,252.5,1954.0383,248.5,1958.0383" style="stroke:#181818;stroke-width:1.0;"/><line style="stroke:#181818;stroke-width:1.0;" x1="248.5" x2="248.5" y1="1859.7021" y2="1889.2861"/><polygon fill="#181818" points="244.5,1879.2861,248.5,1889.2861,252.5,1879.2861,248.5,1883.2861" style="stroke:#181818;stroke-width:1.0;"/><line style="stroke:#181818;stroke-width:1.0;" x1="323" x2="626.5" y1="1847.7021" y2="1847.7021"/><polygon fill="#181818" points="622.5,2137.1506,626.5,2147.1506,630.5,2137.1506,626.5,2141.1506" style="stroke:#181818;stroke-width:1.0;"/><line style="stroke:#181818;stroke-width:1.0;" x1="626.5" x2="626.5" y1="1847.7021" y2="2436.1551"/><line style="stroke:#181818;stroke-width:1.0;" x1="626.5" x2="260.5" y1="2436.1551" y2="2436.1551"/><polygon fill="#181818" points="270.5,2432.1551,260.5,2436.1551,270.5,2440.1551,266.5,2436.1551" style="stroke:#181818;stroke-width:1.0;"/><line style="stroke:#181818;stroke-width:1.0;" x1="248.5" x2="248.5" y1="1732.8863" y2="1835.7021"/><polygon fill="#181818" points="244.5,1825.7021,248.5,1835.7021,252.5,1825.7021,248.5,1829.7021" style="stroke:#181818;stroke-width:1.0;"/><line style="stroke:#181818;stroke-width:1.0;" x1="248.5" x2="248.5" y1="2448.1551" y2="2480.1551"/><polygon fill="#181818" points="244.5,2470.1551,248.5,2480.1551,252.5,2470.1551,248.5,2474.1551" style="stroke:#181818;stroke-width:1.0;"/><line style="stroke:#181818;stroke-width:1.0;" x1="248.5" x2="248.5" y1="71.2719" y2="121.5438"/><polygon fill="#181818" points="244.5,111.5438,248.5,121.5438,252.5,111.5438,248.5,115.5438" style="stroke:#181818;stroke-width:1.0;"/><line style="stroke:#181818;stroke-width:1.0;" x1="248.5" x2="248.5" y1="2517.5312" y2="2549.5312"/><polygon fill="#181818" points="244.5,2539.5312,248.5,2549.5312,252.5,2539.5312,248.5,2543.5312" style="stroke:#181818;stroke-width:1.0;"/><!--SRC=[hLPjKnDN5Fw-l-9glsncCckG5pMe7KYoBQFL6TD-AftEDdk3sspknjqRC4LdGbiLK44xL4IGObMa7UN5KK68zS_aRf9F_eMUktUpR80uxOpB1v9pptdEFSyvpzcST6Z9nASbBKEDOOEMaeOsP6jvD2eXUFgrJ6x8jef4JrYcPQFFr5ZgkDejpYnRntRJhYPYYNxFhbg4-jREpix0T4xBOvImyaO6fJNYeA_IqbL9qWqjRn6zRJercKe9ZBC6mO6rvqH_rzvagjhHTUAZ-Pf7QUCdZ3fwU7xDjgqHFtiBLl9OBFO_iGgQJGrgMCJ7QxbnLtS8RxUEpgvZdlM2ADecs4P7O-t8I7MbEdWcOb6y_z8nU5HrR-hZVKVxKqSFHaprf7hKFgyFLgQOnuIsRKItsfrCS4zkBXp4MD2JKF9aiY-MJBOhfxydmSivUSIVGM3Fn2Y9JQgf0-fvnSO5KyjWES9M5sjJwvBav0m2BCDu9c1eFAvJH4_pQEHFakHGQ8D_om10YjTcLjo7Jwll7x8NzzduRFtHoeVAk6auz4DbehhruaFbbhisNTtwcrtxfVPggVRWrnmkWKTZPXKSf46AuBk3ugTGNijXsS7KKTBKDiXG59cOo1mf4kcLulNoM7NdSMrfZ5shiDMtZV9E_P-xQ90WBZ0O3K18bqYcLpAoICugE6zGh-2lImLyGLnNZo33GR9xVos2w4LCWBwu7tqADNrw9Mmw6Cdipd94ma16DZo0R655b6DGd9T5JH5sPwhny4ztSuTDBWsIwbOPplbTZZGnsUHAzTs2QEt8HGD8bQ5mr1YxpQQkymfv7Tz74GVbXTWQ6SB8AzsBYGUj0qRPvilQphIxC55_FrVTdXTtyDmGvpAAi6rpaAno1fVEPsKE2WJoOquDFprq2X73tCy6PB8nBTe4GMWA56oFycWFygg0297ZVVK8yY9v7vK1uc2Rol3PJndFAfUAk8ZxF9u72CKsqSopLYQ7TLcG7msu5mpuaG3jSTMw0TZuKcFkILRXZWwm0GFbpZuJ9BGGd8iYozG7MXZrmo8-Mu8GRm2LBpL7paKEeaGyyGn8qY15t1iOzr3X-sKrC8US0eA2UZotOSr6EZOnnVhv7tv41YSc2noC-Zp7sVBFxkA2rtYeytPrQxlsrpORd_CQFyFc5rcvudd297dJxrUhdCCZsA5ogENa8ms7JA5hW9i2_t66zWQdm6EEu- -wAN9IV5ODw6MQQXH_GtB46Y6HPXXFQ-NQqTcQKkSfcu7xI0qHs7Rq1YcN4qBkqetwwheO4LWyR7u9Q6E_tT8A1epbCBRPautws0oh_5v_lGcJ8pnhas_SyfZxyX5GowOdtTatFg_yhpwroQRliV5rliWcojMTfo2xnerRK5Gx4ceREspnfeVHClp-qFjXKTGkVXH6TvUWgy1fYmBSnsNtzKsszhQ-yGW6Ww_TXPN6_JzW-O8UejLtruM9xvGp74yqr86bEq1qV1dRi7ZveL2F019CZ0OZarLoeT3FsqmEA8UjRu0PXlMmZhDQqQH72fRUSHX8gZs3kytMdYzNjrv2kkQ6uh1d_9NVcaKv2mkF7yd16FbQXjMOsrLn0D6guv2CqPKhtil3r_ktkUyYw3IAVG9ryv5mxwsB5nqG63GWl8V46FBHMxzUNnuJt8PGTfiBc_Ko5Es4bdOB8rzWsb-2Kg6ctX10wnxdrHuIEEqhtATpmmmZ7bZjhiB2rNklEV6I4vM9jrkWj-hMr1wzrLvCi8LjTswjMdaWj2S2GMcDsLUX149oGecr-RliplEmyFwRvCJpYOHt41CjU_p0dGHoRRv7FPh1YhpVJV0RoYf8_m80]--></g></svg>