<?xml version="1.0" encoding="us-ascii" standalone="no"?><svg xmlns="http://www.w3.org/2000/svg" xmlns:xlink="http://www.w3.org/1999/xlink" contentStyleType="text/css" height="952px" preserveAspectRatio="none" style="width:2995px;height:952px;background:#FFFFFF;" version="1.1" viewBox="0 0 2995 952" width="2995px" zoomAndPan="magnify"><defs/><g><!--cluster cache--><g id="cluster_cache"><path d="M8.5,100.244 L48.5,100.244 A3.75,3.75 0 0 1 51,102.744 L58,126.5159 L1829.5,126.5159 A2.5,2.5 0 0 1 1832,129.0159 L1832,814.744 A2.5,2.5 0 0 1 1829.5,817.244 L8.5,817.244 A2.5,2.5 0 0 1 6,814.744 L6,102.744 A2.5,2.5 0 0 1 8.5,100.244 " fill="none" style="stroke:#000000;stroke-width:1.5;"/><line style="stroke:#000000;stroke-width:1.5;" x1="6" x2="58" y1="126.5159" y2="126.5159"/><text fill="#000000" font-family="sans-serif" font-size="14" font-weight="bold" lengthAdjust="spacing" textLength="39" x="10" y="118.4839">cache</text></g><!--cluster rest--><g id="cluster_rest"><path d="M1858.5,43.244 L1886.5,43.244 A3.75,3.75 0 0 1 1889,45.744 L1896,69.5159 L2985.5,69.5159 A2.5,2.5 0 0 1 2988,72.0159 L2988,942.744 A2.5,2.5 0 0 1 2985.5,945.244 L1858.5,945.244 A2.5,2.5 0 0 1 1856,942.744 L1856,45.744 A2.5,2.5 0 0 1 1858.5,43.244 " fill="none" style="stroke:#000000;stroke-width:1.5;"/><line style="stroke:#000000;stroke-width:1.5;" x1="1856" x2="1896" y1="69.5159" y2="69.5159"/><text fill="#000000" font-family="sans-serif" font-size="14" font-weight="bold" lengthAdjust="spacing" textLength="27" x="1860" y="61.4839">rest</text></g><!--class ListWatch--><g id="elem_ListWatch"><rect codeLine="1" fill="#F1F1F1" height="254.7191" id="ListWatch" rx="2.5" ry="2.5" style="stroke:#181818;stroke-width:0.5;" width="953" x="319.5" y="543.244"/><ellipse cx="759.25" cy="559.244" fill="#ADD1B2" rx="11" ry="11" style="stroke:#181818;stroke-width:1.0;"/><path d="M762.2188,564.8846 Q761.6406,565.1815 761,565.3221 Q760.3594,565.4784 759.6563,565.4784 Q757.1563,565.4784 755.8281,563.8378 Q754.5156,562.1815 754.5156,559.0565 Q754.5156,555.9315 755.8281,554.2753 Q757.1563,552.619 759.6563,552.619 Q760.3594,552.619 761,552.7753 Q761.6563,552.9315 762.2188,553.2284 L762.2188,555.9471 Q761.5938,555.369 761,555.1034 Q760.4063,554.8221 759.7813,554.8221 Q758.4375,554.8221 757.75,555.9003 Q757.0625,556.9628 757.0625,559.0565 Q757.0625,561.1503 757.75,562.2284 Q758.4375,563.2909 759.7813,563.2909 Q760.4063,563.2909 761,563.0253 Q761.5938,562.744 762.2188,562.1659 L762.2188,564.8846 Z " fill="#000000"/><text fill="#000000" font-family="sans-serif" font-size="14" lengthAdjust="spacing" textLength="65" x="779.75" y="565.348">ListWatch</text><line style="stroke:#181818;stroke-width:0.5;" x1="320.5" x2="1271.5" y1="575.244" y2="575.244"/><ellipse cx="330.5" cy="615.1519" fill="none" rx="3" ry="3" style="stroke:#038048;stroke-width:1.0;"/><text fill="#000000" font-family="sans-serif" font-size="14" lengthAdjust="spacing" textLength="124" x="339.5" y="619.7558">ListFunc : ListFunc</text><ellipse cx="330.5" cy="635.4238" fill="none" rx="3" ry="3" style="stroke:#038048;stroke-width:1.0;"/><text fill="#000000" font-family="sans-serif" font-size="14" lengthAdjust="spacing" textLength="158" x="339.5" y="640.0278">WatchFunc : WatchFunc</text><ellipse cx="330.5" cy="655.6957" fill="none" rx="3" ry="3" style="stroke:#038048;stroke-width:1.0;"/><text fill="#000000" font-family="sans-serif" font-size="14" lengthAdjust="spacing" textLength="154" x="339.5" y="660.2997">DisableChunking : bool</text><line style="stroke:#181818;stroke-width:1.0;stroke-dasharray:1.0,2.0;" x1="320.5" x2="781" y1="593.38" y2="593.38"/><text fill="#000000" font-family="sans-serif" font-size="14" lengthAdjust="spacing" textLength="30" x="781" y="598.9839">field</text><line style="stroke:#181818;stroke-width:1.0;stroke-dasharray:1.0,2.0;" x1="811" x2="1271.5" y1="593.38" y2="593.38"/><ellipse cx="330.5" cy="700.2395" fill="#84BE84" rx="3" ry="3" style="stroke:#038048;stroke-width:1.0;"/><text fill="#000000" font-family="sans-serif" font-size="14" lengthAdjust="spacing" textLength="367" x="339.5" y="704.8435">List(options metav1.ListOptions) (runtime.Object, error)</text><ellipse cx="330.5" cy="720.5114" fill="#84BE84" rx="3" ry="3" style="stroke:#038048;stroke-width:1.0;"/><text fill="#000000" font-family="sans-serif" font-size="14" lengthAdjust="spacing" textLength="387" x="339.5" y="725.1154">Watch(options metav1.ListOptions) (watch.Interface, error)</text><line style="stroke:#181818;stroke-width:1.0;stroke-dasharray:1.0,2.0;" x1="320.5" x2="770" y1="678.4676" y2="678.4676"/><text fill="#000000" font-family="sans-serif" font-size="14" lengthAdjust="spacing" textLength="52" x="770" y="684.0716">method</text><line style="stroke:#181818;stroke-width:1.0;stroke-dasharray:1.0,2.0;" x1="822" x2="1271.5" y1="678.4676" y2="678.4676"/><ellipse cx="330.5" cy="765.0553" fill="#84BE84" rx="3" ry="3" style="stroke:#038048;stroke-width:1.0;"/><text fill="#000000" font-family="sans-serif" font-size="14" lengthAdjust="spacing" textLength="927" x="339.5" y="769.6592">NewFilteredListWatchFromClient(c Getter, resource string, namespace string, optionsModifier func(options *metav1.ListOptions)) *ListWatch</text><ellipse cx="330.5" cy="785.3272" fill="#84BE84" rx="3" ry="3" style="stroke:#038048;stroke-width:1.0;"/><text fill="#000000" font-family="sans-serif" font-size="14" lengthAdjust="spacing" textLength="720" x="339.5" y="789.9311">NewListWatchFromClient(c Getter, resource string, namespace string, fieldSelector fields.Selector) *ListWatch</text><line style="stroke:#181818;stroke-width:1.0;stroke-dasharray:1.0,2.0;" x1="320.5" x2="758.5" y1="743.2833" y2="743.2833"/><text fill="#000000" font-family="sans-serif" font-size="14" lengthAdjust="spacing" textLength="75" x="758.5" y="748.8873">constructor</text><line style="stroke:#181818;stroke-width:1.0;stroke-dasharray:1.0,2.0;" x1="833.5" x2="1271.5" y1="743.2833" y2="743.2833"/></g><path d="M22,631.244 L22,660.068 A0,0 0 0 0 22,660.068 L262,660.068 A0,0 0 0 0 262,660.068 L262,649.656 L323.5,613.6519 L262,641.656 L262,641.244 L252,631.244 L22,631.244 A0,0 0 0 0 22,631.244 " fill="#FEFFDD" style="stroke:#181818;stroke-width:0.5;"/><path d="M252,631.244 L252,641.244 L262,641.244 L252,631.244 " fill="#FEFFDD" style="stroke:#181818;stroke-width:0.5;"/><text fill="#000000" font-family="sans-serif" font-size="13" lengthAdjust="spacing" textLength="219" x="28" y="651.324">list&#26576;&#20010;namespace&#19979;&#30340;&#26576;&#20010;resource</text><path d="M22,670.068 L22,698.892 A0,0 0 0 0 22,698.892 L276,698.892 A0,0 0 0 0 276,698.892 L276,688.48 L323.5,633.9238 L276,680.48 L276,680.068 L266,670.068 L22,670.068 A0,0 0 0 0 22,670.068 " fill="#FEFFDD" style="stroke:#181818;stroke-width:0.5;"/><path d="M266,670.068 L266,680.068 L276,680.068 L266,670.068 " fill="#FEFFDD" style="stroke:#181818;stroke-width:0.5;"/><text fill="#000000" font-family="sans-serif" font-size="13" lengthAdjust="spacing" textLength="233" x="28" y="690.148">&#30417;&#21548;&#26576;&#20010;namespace(&#21629;&#21517;&#31354;&#38388;)&#19979;&#30340;&#36164;&#28304;</text><!--class Getter--><g id="elem_Getter"><rect codeLine="22" fill="#F1F1F1" height="84.5438" id="Getter" rx="2.5" ry="2.5" style="stroke:#181818;stroke-width:0.5;" width="190" x="1351" y="628.244"/><ellipse cx="1421.25" cy="644.244" fill="#B4A7E5" rx="11" ry="11" style="stroke:#181818;stroke-width:1.0;"/><path d="M1417.1719,640.0096 L1417.1719,637.8534 L1424.5625,637.8534 L1424.5625,640.0096 L1422.0938,640.0096 L1422.0938,648.0878 L1424.5625,648.0878 L1424.5625,650.244 L1417.1719,650.244 L1417.1719,648.0878 L1419.6406,648.0878 L1419.6406,640.0096 L1417.1719,640.0096 Z " fill="#000000"/><text fill="#000000" font-family="sans-serif" font-size="14" font-style="italic" lengthAdjust="spacing" textLength="41" x="1441.75" y="650.348">Getter</text><line style="stroke:#181818;stroke-width:0.5;" x1="1352" x2="1540" y1="660.244" y2="660.244"/><ellipse cx="1362" cy="700.1519" fill="#84BE84" rx="3" ry="3" style="stroke:#038048;stroke-width:1.0;"/><text fill="#000000" font-family="sans-serif" font-size="14" lengthAdjust="spacing" textLength="164" x="1371" y="704.7558">Get() *restclient.Request</text><line style="stroke:#181818;stroke-width:1.0;stroke-dasharray:1.0,2.0;" x1="1352" x2="1420" y1="678.38" y2="678.38"/><text fill="#000000" font-family="sans-serif" font-size="14" lengthAdjust="spacing" textLength="52" x="1420" y="683.9839">method</text><line style="stroke:#181818;stroke-width:1.0;stroke-dasharray:1.0,2.0;" x1="1472" x2="1540" y1="678.38" y2="678.38"/></g><path d="M1584,641.244 L1584,661.068 L1535,698.6519 L1584,669.068 L1584,688.892 A0,0 0 0 0 1584,688.892 L1816,688.892 A0,0 0 0 0 1816,688.892 L1816,651.244 L1806,641.244 L1584,641.244 A0,0 0 0 0 1584,641.244 " fill="#FEFFDD" style="stroke:#181818;stroke-width:0.5;"/><path d="M1806,641.244 L1806,651.244 L1816,651.244 L1806,641.244 " fill="#FEFFDD" style="stroke:#181818;stroke-width:0.5;"/><text fill="#000000" font-family="sans-serif" font-size="13" lengthAdjust="spacing" textLength="211" x="1590" y="661.324">&#36820;&#22238;rest.Interface&#25509;&#21475;&#31867;&#22411;&#30340;&#23454;&#20363;&#65292;</text><text fill="#000000" font-family="sans-serif" font-size="13" lengthAdjust="spacing" textLength="134" x="1590" y="680.148">&#23454;&#29616;&#26159;rest.RESTClient</text><!--class ListerWatcher--><g id="elem_ListerWatcher"><rect codeLine="77" fill="#F1F1F1" height="104.8157" id="ListerWatcher" rx="2.5" ry="2.5" style="stroke:#181818;stroke-width:0.5;" width="123" x="205.5" y="166.244"/><ellipse cx="220.5" cy="182.244" fill="#B4A7E5" rx="11" ry="11" style="stroke:#181818;stroke-width:1.0;"/><path d="M216.4219,178.0096 L216.4219,175.8534 L223.8125,175.8534 L223.8125,178.0096 L221.3438,178.0096 L221.3438,186.0878 L223.8125,186.0878 L223.8125,188.244 L216.4219,188.244 L216.4219,186.0878 L218.8906,186.0878 L218.8906,178.0096 L216.4219,178.0096 Z " fill="#000000"/><text fill="#000000" font-family="sans-serif" font-size="14" font-style="italic" lengthAdjust="spacing" textLength="91" x="234.5" y="188.348">ListerWatcher</text><line style="stroke:#181818;stroke-width:0.5;" x1="206.5" x2="327.5" y1="198.244" y2="198.244"/><text fill="#000000" font-family="sans-serif" font-size="14" lengthAdjust="spacing" text-decoration="underline" textLength="37" x="211.5" y="242.7558">Lister</text><text fill="#000000" font-family="sans-serif" font-size="14" lengthAdjust="spacing" text-decoration="underline" textLength="54" x="211.5" y="263.0278">Watcher</text><line style="stroke:#181818;stroke-width:1.0;stroke-dasharray:1.0,2.0;" x1="206.5" x2="243.5" y1="216.38" y2="216.38"/><text fill="#000000" font-family="sans-serif" font-size="14" lengthAdjust="spacing" textLength="47" x="243.5" y="221.9839">supper</text><line style="stroke:#181818;stroke-width:1.0;stroke-dasharray:1.0,2.0;" x1="290.5" x2="327.5" y1="216.38" y2="216.38"/></g><!--class Lister--><g id="elem_Lister"><rect codeLine="85" fill="#F1F1F1" height="84.5438" id="Lister" rx="2.5" ry="2.5" style="stroke:#181818;stroke-width:0.5;" width="393" x="1079.5" y="175.744"/><ellipse cx="1253.25" cy="191.744" fill="#B4A7E5" rx="11" ry="11" style="stroke:#181818;stroke-width:1.0;"/><path d="M1249.1719,187.5096 L1249.1719,185.3534 L1256.5625,185.3534 L1256.5625,187.5096 L1254.0938,187.5096 L1254.0938,195.5878 L1256.5625,195.5878 L1256.5625,197.744 L1249.1719,197.744 L1249.1719,195.5878 L1251.6406,195.5878 L1251.6406,187.5096 L1249.1719,187.5096 Z " fill="#000000"/><text fill="#000000" font-family="sans-serif" font-size="14" font-style="italic" lengthAdjust="spacing" textLength="37" x="1273.75" y="197.848">Lister</text><line style="stroke:#181818;stroke-width:0.5;" x1="1080.5" x2="1471.5" y1="207.744" y2="207.744"/><ellipse cx="1090.5" cy="247.6519" fill="#84BE84" rx="3" ry="3" style="stroke:#038048;stroke-width:1.0;"/><text fill="#000000" font-family="sans-serif" font-size="14" lengthAdjust="spacing" textLength="367" x="1099.5" y="252.2558">List(options metav1.ListOptions) (runtime.Object, error)</text><line style="stroke:#181818;stroke-width:1.0;stroke-dasharray:1.0,2.0;" x1="1080.5" x2="1250" y1="225.88" y2="225.88"/><text fill="#000000" font-family="sans-serif" font-size="14" lengthAdjust="spacing" textLength="52" x="1250" y="231.4839">method</text><line style="stroke:#181818;stroke-width:1.0;stroke-dasharray:1.0,2.0;" x1="1302" x2="1471.5" y1="225.88" y2="225.88"/></g><path d="M1508,180.244 L1508,209.48 L1466.5,246.1519 L1508,217.48 L1508,246.7161 A0,0 0 0 0 1508,246.7161 L1816,246.7161 A0,0 0 0 0 1816,246.7161 L1816,190.244 L1806,180.244 L1508,180.244 A0,0 0 0 0 1508,180.244 " fill="#FEFFDD" style="stroke:#181818;stroke-width:0.5;"/><path d="M1806,180.244 L1806,190.244 L1816,190.244 L1806,180.244 " fill="#FEFFDD" style="stroke:#181818;stroke-width:0.5;"/><text fill="#000000" font-family="sans-serif" font-size="13" lengthAdjust="spacing" textLength="275" x="1514" y="200.324">List&#30340;&#36820;&#22238;&#20540;&#24212;&#35813;&#26159;&#19968;&#20010;list&#31867;&#22411;&#30340;&#23545;&#35937;&#65292;&#20063;&#23601;&#26159;</text><text fill="#000000" font-family="sans-serif" font-size="13" lengthAdjust="spacing" textLength="278" x="1514" y="219.148">&#20854;&#20013;&#26377;Items&#23383;&#27573;&#65292;&#37324;&#38754;&#30340;ResourceVersion&#21487;&#20197;</text><text fill="#000000" font-family="sans-serif" font-size="13" lengthAdjust="spacing" textLength="287" x="1514" y="237.972">&#29992;&#26469;&#30417;&#21548;&#65288;watch&#65289;&#65292;&#23601;&#26159;&#35843;&#29992;ListFunc(options)</text><!--class Watcher--><g id="elem_Watcher"><rect codeLine="98" fill="#F1F1F1" height="84.5438" id="Watcher" rx="2.5" ry="2.5" style="stroke:#181818;stroke-width:0.5;" width="413" x="399.5" y="175.744"/><ellipse cx="574.75" cy="191.744" fill="#B4A7E5" rx="11" ry="11" style="stroke:#181818;stroke-width:1.0;"/><path d="M570.6719,187.5096 L570.6719,185.3534 L578.0625,185.3534 L578.0625,187.5096 L575.5938,187.5096 L575.5938,195.5878 L578.0625,195.5878 L578.0625,197.744 L570.6719,197.744 L570.6719,195.5878 L573.1406,195.5878 L573.1406,187.5096 L570.6719,187.5096 Z " fill="#000000"/><text fill="#000000" font-family="sans-serif" font-size="14" font-style="italic" lengthAdjust="spacing" textLength="54" x="595.25" y="197.848">Watcher</text><line style="stroke:#181818;stroke-width:0.5;" x1="400.5" x2="811.5" y1="207.744" y2="207.744"/><ellipse cx="410.5" cy="247.6519" fill="#84BE84" rx="3" ry="3" style="stroke:#038048;stroke-width:1.0;"/><text fill="#000000" font-family="sans-serif" font-size="14" lengthAdjust="spacing" textLength="387" x="419.5" y="252.2558">Watch(options metav1.ListOptions) (watch.Interface, error)</text><line style="stroke:#181818;stroke-width:1.0;stroke-dasharray:1.0,2.0;" x1="400.5" x2="580" y1="225.88" y2="225.88"/><text fill="#000000" font-family="sans-serif" font-size="14" lengthAdjust="spacing" textLength="52" x="580" y="231.4839">method</text><line style="stroke:#181818;stroke-width:1.0;stroke-dasharray:1.0,2.0;" x1="632" x2="811.5" y1="225.88" y2="225.88"/></g><path d="M848,189.244 L848,209.068 L806.5,246.1519 L848,217.068 L848,236.892 A0,0 0 0 0 848,236.892 L1044,236.892 A0,0 0 0 0 1044,236.892 L1044,199.244 L1034,189.244 L848,189.244 A0,0 0 0 0 848,189.244 " fill="#FEFFDD" style="stroke:#181818;stroke-width:0.5;"/><path d="M1034,189.244 L1034,199.244 L1044,199.244 L1034,189.244 " fill="#FEFFDD" style="stroke:#181818;stroke-width:0.5;"/><text fill="#000000" font-family="sans-serif" font-size="13" lengthAdjust="spacing" textLength="171" x="854" y="209.324">&#20174;&#25351;&#23450;&#30340;&#36164;&#28304;&#29256;&#26412;&#24320;&#22987;watch,</text><text fill="#000000" font-family="sans-serif" font-size="13" lengthAdjust="spacing" textLength="175" x="854" y="228.148">&#23601;&#26159;&#35843;&#29992;WatchFunc(options)</text><!--class Interface--><g id="elem_Interface"><rect codeLine="35" fill="#F1F1F1" height="226.4472" id="Interface" rx="2.5" ry="2.5" style="stroke:#181818;stroke-width:0.5;" width="294" x="2275" y="105.244"/><ellipse cx="2388.25" cy="121.244" fill="#B4A7E5" rx="11" ry="11" style="stroke:#181818;stroke-width:1.0;"/><path d="M2384.1719,117.0096 L2384.1719,114.8534 L2391.5625,114.8534 L2391.5625,117.0096 L2389.0938,117.0096 L2389.0938,125.0878 L2391.5625,125.0878 L2391.5625,127.244 L2384.1719,127.244 L2384.1719,125.0878 L2386.6406,125.0878 L2386.6406,117.0096 L2384.1719,117.0096 Z " fill="#000000"/><text fill="#000000" font-family="sans-serif" font-size="14" font-style="italic" lengthAdjust="spacing" textLength="59" x="2408.75" y="127.348">Interface</text><line style="stroke:#181818;stroke-width:0.5;" x1="2276" x2="2568" y1="137.244" y2="137.244"/><ellipse cx="2286" cy="177.1519" fill="#84BE84" rx="3" ry="3" style="stroke:#038048;stroke-width:1.0;"/><text fill="#000000" font-family="sans-serif" font-size="14" lengthAdjust="spacing" textLength="268" x="2295" y="181.7558">GetRateLimiter() flowcontrol.RateLimiter</text><ellipse cx="2286" cy="197.4238" fill="#84BE84" rx="3" ry="3" style="stroke:#038048;stroke-width:1.0;"/><text fill="#000000" font-family="sans-serif" font-size="14" lengthAdjust="spacing" textLength="175" x="2295" y="202.0278">Verb(verb string) *Request</text><ellipse cx="2286" cy="217.6957" fill="#84BE84" rx="3" ry="3" style="stroke:#038048;stroke-width:1.0;"/><text fill="#000000" font-family="sans-serif" font-size="14" lengthAdjust="spacing" textLength="104" x="2295" y="222.2997">Post() *Request</text><ellipse cx="2286" cy="237.9676" fill="#84BE84" rx="3" ry="3" style="stroke:#038048;stroke-width:1.0;"/><text fill="#000000" font-family="sans-serif" font-size="14" lengthAdjust="spacing" textLength="98" x="2295" y="242.5716">Put() *Request</text><ellipse cx="2286" cy="258.2395" fill="#84BE84" rx="3" ry="3" style="stroke:#038048;stroke-width:1.0;"/><text fill="#000000" font-family="sans-serif" font-size="14" lengthAdjust="spacing" textLength="240" x="2295" y="262.8435">Patch(pt types.PatchType) *Request</text><ellipse cx="2286" cy="278.5114" fill="#84BE84" rx="3" ry="3" style="stroke:#038048;stroke-width:1.0;"/><text fill="#000000" font-family="sans-serif" font-size="14" lengthAdjust="spacing" textLength="98" x="2295" y="283.1154">Get() *Request</text><ellipse cx="2286" cy="298.7833" fill="#84BE84" rx="3" ry="3" style="stroke:#038048;stroke-width:1.0;"/><text fill="#000000" font-family="sans-serif" font-size="14" lengthAdjust="spacing" textLength="118" x="2295" y="303.3873">Delete() *Request</text><ellipse cx="2286" cy="319.0553" fill="#84BE84" rx="3" ry="3" style="stroke:#038048;stroke-width:1.0;"/><text fill="#000000" font-family="sans-serif" font-size="14" lengthAdjust="spacing" textLength="230" x="2295" y="323.6592">APIVersion() schema.GroupVersion</text><line style="stroke:#181818;stroke-width:1.0;stroke-dasharray:1.0,2.0;" x1="2276" x2="2396" y1="155.38" y2="155.38"/><text fill="#000000" font-family="sans-serif" font-size="14" lengthAdjust="spacing" textLength="52" x="2396" y="160.9839">method</text><line style="stroke:#181818;stroke-width:1.0;stroke-dasharray:1.0,2.0;" x1="2448" x2="2568" y1="155.38" y2="155.38"/></g><!--class RESTClient--><g id="elem_RESTClient"><rect codeLine="47" fill="#F1F1F1" height="518.254" id="RESTClient" rx="2.5" ry="2.5" style="stroke:#181818;stroke-width:0.5;" width="1100" x="1872" y="411.244"/><ellipse cx="2381.75" cy="427.244" fill="#ADD1B2" rx="11" ry="11" style="stroke:#181818;stroke-width:1.0;"/><path d="M2384.7188,432.8846 Q2384.1406,433.1815 2383.5,433.3221 Q2382.8594,433.4784 2382.1563,433.4784 Q2379.6563,433.4784 2378.3281,431.8378 Q2377.0156,430.1815 2377.0156,427.0565 Q2377.0156,423.9315 2378.3281,422.2753 Q2379.6563,420.619 2382.1563,420.619 Q2382.8594,420.619 2383.5,420.7753 Q2384.1563,420.9315 2384.7188,421.2284 L2384.7188,423.9471 Q2384.0938,423.369 2383.5,423.1034 Q2382.9063,422.8221 2382.2813,422.8221 Q2380.9375,422.8221 2380.25,423.9003 Q2379.5625,424.9628 2379.5625,427.0565 Q2379.5625,429.1503 2380.25,430.2284 Q2380.9375,431.2909 2382.2813,431.2909 Q2382.9063,431.2909 2383.5,431.0253 Q2384.0938,430.744 2384.7188,430.1659 L2384.7188,432.8846 Z " fill="#000000"/><text fill="#000000" font-family="sans-serif" font-size="14" lengthAdjust="spacing" textLength="72" x="2402.25" y="433.348">RESTClient</text><line style="stroke:#181818;stroke-width:0.5;" x1="1873" x2="2971" y1="443.244" y2="443.244"/><rect fill="none" height="6" style="stroke:#C82930;stroke-width:1.0;" width="6" x="1880" y="480.1519"/><text fill="#000000" font-family="sans-serif" font-size="14" lengthAdjust="spacing" textLength="98" x="1892" y="487.7558">base : *url.URL</text><rect fill="none" height="6" style="stroke:#C82930;stroke-width:1.0;" width="6" x="1880" y="500.4238"/><text fill="#000000" font-family="sans-serif" font-size="14" lengthAdjust="spacing" textLength="166" x="1892" y="508.0278">versionedAPIPath : string</text><rect fill="none" height="6" style="stroke:#C82930;stroke-width:1.0;" width="6" x="1880" y="520.6957"/><text fill="#000000" font-family="sans-serif" font-size="14" lengthAdjust="spacing" textLength="196" x="1892" y="528.2997">content : ClientContentConfig</text><rect fill="none" height="6" style="stroke:#C82930;stroke-width:1.0;" width="6" x="1880" y="540.9676"/><text fill="#000000" font-family="sans-serif" font-size="14" lengthAdjust="spacing" textLength="275" x="1892" y="548.5716">createBackoffMgr : func() BackoffManager</text><rect fill="none" height="6" style="stroke:#C82930;stroke-width:1.0;" width="6" x="1880" y="561.2395"/><text fill="#000000" font-family="sans-serif" font-size="14" lengthAdjust="spacing" textLength="238" x="1892" y="568.8435">rateLimiter : flowcontrol.RateLimiter</text><rect fill="none" height="6" style="stroke:#C82930;stroke-width:1.0;" width="6" x="1880" y="581.5114"/><text fill="#000000" font-family="sans-serif" font-size="14" lengthAdjust="spacing" textLength="225" x="1892" y="589.1154">warningHandler : WarningHandler</text><ellipse cx="1883" cy="604.7833" fill="none" rx="3" ry="3" style="stroke:#038048;stroke-width:1.0;"/><text fill="#000000" font-family="sans-serif" font-size="14" lengthAdjust="spacing" textLength="127" x="1892" y="609.3873">Client : *http.Client</text><line style="stroke:#181818;stroke-width:1.0;stroke-dasharray:1.0,2.0;" x1="1873" x2="2407" y1="461.38" y2="461.38"/><text fill="#000000" font-family="sans-serif" font-size="14" lengthAdjust="spacing" textLength="30" x="2407" y="466.9839">field</text><line style="stroke:#181818;stroke-width:1.0;stroke-dasharray:1.0,2.0;" x1="2437" x2="2971" y1="461.38" y2="461.38"/><ellipse cx="1883" cy="649.3272" fill="#84BE84" rx="3" ry="3" style="stroke:#038048;stroke-width:1.0;"/><text fill="#000000" font-family="sans-serif" font-size="14" lengthAdjust="spacing" textLength="230" x="1892" y="653.9311">APIVersion() schema.GroupVersion</text><ellipse cx="1883" cy="669.5991" fill="#84BE84" rx="3" ry="3" style="stroke:#038048;stroke-width:1.0;"/><text fill="#000000" font-family="sans-serif" font-size="14" lengthAdjust="spacing" textLength="118" x="1892" y="674.203">Delete() *Request</text><ellipse cx="1883" cy="689.871" fill="#84BE84" rx="3" ry="3" style="stroke:#038048;stroke-width:1.0;"/><text fill="#000000" font-family="sans-serif" font-size="14" lengthAdjust="spacing" textLength="98" x="1892" y="694.475">Get() *Request</text><ellipse cx="1883" cy="710.1429" fill="#84BE84" rx="3" ry="3" style="stroke:#038048;stroke-width:1.0;"/><text fill="#000000" font-family="sans-serif" font-size="14" lengthAdjust="spacing" textLength="268" x="1892" y="714.7469">GetRateLimiter() flowcontrol.RateLimiter</text><ellipse cx="1883" cy="730.4148" fill="#84BE84" rx="3" ry="3" style="stroke:#038048;stroke-width:1.0;"/><text fill="#000000" font-family="sans-serif" font-size="14" lengthAdjust="spacing" textLength="240" x="1892" y="735.0188">Patch(pt types.PatchType) *Request</text><ellipse cx="1883" cy="750.6867" fill="#84BE84" rx="3" ry="3" style="stroke:#038048;stroke-width:1.0;"/><text fill="#000000" font-family="sans-serif" font-size="14" lengthAdjust="spacing" textLength="104" x="1892" y="755.2907">Post() *Request</text><ellipse cx="1883" cy="770.9586" fill="#84BE84" rx="3" ry="3" style="stroke:#038048;stroke-width:1.0;"/><text fill="#000000" font-family="sans-serif" font-size="14" lengthAdjust="spacing" textLength="98" x="1892" y="775.5626">Put() *Request</text><ellipse cx="1883" cy="791.2305" fill="#84BE84" rx="3" ry="3" style="stroke:#038048;stroke-width:1.0;"/><text fill="#000000" font-family="sans-serif" font-size="14" lengthAdjust="spacing" textLength="175" x="1892" y="795.8345">Verb(verb string) *Request</text><line style="stroke:#181818;stroke-width:1.0;stroke-dasharray:1.0,2.0;" x1="1873" x2="2396" y1="627.5553" y2="627.5553"/><text fill="#000000" font-family="sans-serif" font-size="14" lengthAdjust="spacing" textLength="52" x="2396" y="633.1592">method</text><line style="stroke:#181818;stroke-width:1.0;stroke-dasharray:1.0,2.0;" x1="2448" x2="2971" y1="627.5553" y2="627.5553"/><ellipse cx="1883" cy="835.7744" fill="#84BE84" rx="3" ry="3" style="stroke:#038048;stroke-width:1.0;"/><text fill="#000000" font-family="sans-serif" font-size="14" lengthAdjust="spacing" textLength="1074" x="1892" y="840.3783">NewRESTClient(baseURL *url.URL, versionedAPIPath string, config ClientContentConfig, rateLimiter flowcontrol.RateLimiter, client *http.Client) (*RESTClient, error)</text><ellipse cx="1883" cy="856.0463" fill="#84BE84" rx="3" ry="3" style="stroke:#038048;stroke-width:1.0;"/><text fill="#000000" font-family="sans-serif" font-size="14" lengthAdjust="spacing" textLength="327" x="1892" y="860.6503">RESTClientFor(config *Config) (*RESTClient, error)</text><ellipse cx="1883" cy="876.3182" fill="#84BE84" rx="3" ry="3" style="stroke:#038048;stroke-width:1.0;"/><text fill="#000000" font-family="sans-serif" font-size="14" lengthAdjust="spacing" textLength="591" x="1892" y="880.9222">RESTClientForConfigAndClient(config *Config, httpClient *http.Client) (*RESTClient, error)</text><ellipse cx="1883" cy="896.5901" fill="#84BE84" rx="3" ry="3" style="stroke:#038048;stroke-width:1.0;"/><text fill="#000000" font-family="sans-serif" font-size="14" lengthAdjust="spacing" textLength="411" x="1892" y="901.1941">UnversionedRESTClientFor(config *Config) (*RESTClient, error)</text><ellipse cx="1883" cy="916.862" fill="#84BE84" rx="3" ry="3" style="stroke:#038048;stroke-width:1.0;"/><text fill="#000000" font-family="sans-serif" font-size="14" lengthAdjust="spacing" textLength="675" x="1892" y="921.466">UnversionedRESTClientForConfigAndClient(config *Config, httpClient *http.Client) (*RESTClient, error)</text><line style="stroke:#181818;stroke-width:1.0;stroke-dasharray:1.0,2.0;" x1="1873" x2="2384.5" y1="814.0025" y2="814.0025"/><text fill="#000000" font-family="sans-serif" font-size="14" lengthAdjust="spacing" textLength="75" x="2384.5" y="819.6064">constructor</text><line style="stroke:#181818;stroke-width:1.0;stroke-dasharray:1.0,2.0;" x1="2459.5" x2="2971" y1="814.0025" y2="814.0025"/></g><!--link ListWatch to Getter--><g id="link_ListWatch_Getter"><path codeLine="27" d="M1286,613.244 C1296.99,613.244 1287.09,608.584 1298,607.244 C1310.35,605.724 1313.92,604.244 1326,607.244 C1341.2,611.024 1351.1965,614.5258 1365.6365,621.4958 " fill="none" id="ListWatch-Getter" style="stroke:#181818;stroke-width:1.0;"/><polygon fill="#181818" points="1274,613.244,1280,617.244,1286,613.244,1280,609.244,1274,613.244" style="stroke:#181818;stroke-width:1.0;"/><polygon fill="#181818" points="1371.04,624.104,1364.6736,616.5894,1366.5371,621.9305,1361.196,623.794,1371.04,624.104" style="stroke:#181818;stroke-width:1.0;"/><text fill="#000000" font-family="sans-serif" font-size="13" lengthAdjust="spacing" textLength="26" x="1299" y="602.324">&#20351;&#29992;</text></g><!--link ListWatch to Getter--><g id="link_ListWatch_Getter"><path codeLine="28" d="M1286,633.244 C1308.48,633.244 1314.3621,635.1795 1336.8021,639.5795 " fill="none" id="ListWatch-Getter-1" style="stroke:#181818;stroke-width:1.0;"/><polygon fill="#181818" points="1274,633.244,1280,637.244,1286,633.244,1280,629.244,1274,633.244" style="stroke:#181818;stroke-width:1.0;"/><polygon fill="#181818" points="1342.69,640.734,1334.6278,635.077,1337.7834,639.7719,1333.0885,642.9275,1342.69,640.734" style="stroke:#181818;stroke-width:1.0;"/><text fill="#000000" font-family="sans-serif" font-size="13" lengthAdjust="spacing" textLength="26" x="1299" y="631.324">&#20351;&#29992;</text></g><!--reverse link Interface to RESTClient--><g id="link_Interface_RESTClient"><path codeLine="73" d="M2422,349.344 C2422,374.074 2422,383.264 2422,411.144 " fill="none" id="Interface-backto-RESTClient" style="stroke:#181818;stroke-width:1.0;stroke-dasharray:7.0,7.0;"/><polygon fill="none" points="2422,331.344,2416,349.344,2428,349.344,2422,331.344" style="stroke:#181818;stroke-width:1.0;"/><text fill="#000000" font-family="sans-serif" font-size="13" lengthAdjust="spacing" textLength="26" x="2423" y="377.324">&#23454;&#29616;</text></g><!--link Getter to RESTClient--><g id="link_Getter_RESTClient"><path codeLine="74" d="M1554,698.244 C1618.02,698.244 1520.32,455.064 1567,411.244 C1635.39,347.044 1684.2,407.354 1778,406.244 C1802.1,405.954 1808.99,404.084 1832,411.244 C1845.22,415.364 1852.8535,417.7701 1866.2235,422.2701 " fill="none" id="Getter-RESTClient" style="stroke:#181818;stroke-width:1.0;"/><polygon fill="#181818" points="1542,698.244,1548,702.244,1554,698.244,1548,694.244,1542,698.244" style="stroke:#181818;stroke-width:1.0;"/><polygon fill="#181818" points="1871.91,424.184,1864.6561,417.5221,1867.1712,422.589,1862.1042,425.1041,1871.91,424.184" style="stroke:#181818;stroke-width:1.0;"/><text fill="#000000" font-family="sans-serif" font-size="13" lengthAdjust="spacing" textLength="26" x="1779" y="377.324">&#20351;&#29992;</text></g><!--reverse link ListerWatcher to ListWatch--><g id="link_ListerWatcher_ListWatch"><path codeLine="83" d="M334.4769,286.9718 C353.2769,305.4218 361.83,313.244 382,331.244 C461.63,402.274 553.26,477.704 630.04,539.234 " fill="none" id="ListerWatcher-backto-ListWatch" style="stroke:#181818;stroke-width:1.0;stroke-dasharray:7.0,7.0;"/><polygon fill="none" points="321.63,274.364,330.2744,291.2541,338.6795,282.6895,321.63,274.364" style="stroke:#181818;stroke-width:1.0;"/><text fill="#000000" font-family="sans-serif" font-size="13" lengthAdjust="spacing" textLength="26" x="437" y="377.324">&#23454;&#29616;</text></g><!--link ListerWatcher to Lister--><g id="link_ListerWatcher_Lister"><path codeLine="96" d="M342,236.244 C426.98,236.244 314.23,103.514 382,52.244 C442.25,6.654 990.52,27.774 1062,52.244 C1132.95,76.534 1194.3836,130.6861 1233.7736,171.3161 " fill="none" id="ListerWatcher-Lister" style="stroke:#181818;stroke-width:1.0;"/><polygon fill="#181818" points="330,236.244,336,240.244,342,236.244,336,232.244,330,236.244" style="stroke:#181818;stroke-width:1.0;"/><polygon fill="#181818" points="1237.95,175.624,1234.5573,166.3779,1234.4697,172.0341,1228.8135,171.9465,1237.95,175.624" style="stroke:#181818;stroke-width:1.0;"/><text fill="#000000" font-family="sans-serif" font-size="13" lengthAdjust="spacing" textLength="26" x="695" y="23.324">&#20351;&#29992;</text></g><!--link ListerWatcher to Watcher--><g id="link_ListerWatcher_Watcher"><path codeLine="108" d="M342,256.244 C353.24,256.244 342.9,262.444 354,264.244 C366.28,266.234 369.62,265.504 382,264.244 C391.34,263.294 394.9277,262.9443 404.5177,261.6043 " fill="none" id="ListerWatcher-Watcher" style="stroke:#181818;stroke-width:1.0;"/><polygon fill="#181818" points="330,256.244,336,260.244,342,256.244,336,252.244,330,256.244" style="stroke:#181818;stroke-width:1.0;"/><polygon fill="#181818" points="410.46,260.774,400.9931,258.0579,405.5081,261.4659,402.1001,265.981,410.46,260.774" style="stroke:#181818;stroke-width:1.0;"/><text fill="#000000" font-family="sans-serif" font-size="13" lengthAdjust="spacing" textLength="26" x="355" y="260.324">&#20351;&#29992;</text></g><!--SRC=[hLVTRzis47zs_We-sfvBOA_6CA1BbpP0kXPkkpxBCXMhbIMFeX8CNO00Qz46oT8K2D2X7ocs8MWxjFa0rY5DtFMVaMJdAV_2JYH5VKHobcH-iCdZ7U_uknzvvufkQQwBT4tl4ZnZkkosnlGkkZTHgM1icCJgO0pZUtouWBv0aSwKP-kegOQPTMul5TGuet79TBMsHIQxddtNj6T1h-qu5dVO8wphI8zY7BkiEdrcEhQBGApDVSb3lIP4DLIbditC7i7NsdU8pXg8KEhGMdON7ipuRUOZ5JnjCq8DJIUfVJ3MGOLHJsSEpSVt7PcVCYqm8Xs5u1HrUfEMIMnMrT5bmc2rWIXn7O_g1C5ESF86ihKUSVjQIYBZk-fqJ02C8WFGKq7N2wAkeRfoUYoiSuV3atQ3M2GwjvYvE9vdNIzCJ23us0uZo286GuwHfrMpgIY3vCS2GVXgpT_xKpdtzvQ7p-uBOHmYroTsXs__Nnmbr8iz3Py_2TRUvNnLWoUVWhLVXc_t3v_-LHEUHn_kX_jh1HxDc1ZIdS1HtfLYwe9A5M22Op2TmuzRv0SFPWglKeXG_SBNMKTmK_nFduVhRueDavitnZA1ZfgptHHsGhFPX5y5sUZpUl1y8me-kHJXwcRm-8_Xxa6m4O4LR6tu_omV3LQK4KY6gplXhzlShlNjZPk2U3b0AmcQMGSduTdI69anUoQe0xI6vSp3rMJKiN1g9MlrFQ7jwXnyILv3HbGQqdhN7PUdgtZH6xF6tvO-G-p7Fd4ndzw4OPc-f4NXsYMuNOoKBb-yFWt7SU7kWueBcUjf-39rlBwKSc9LnAkUoq3fgtu1jJMN04dg7hNmhTPCPcrER4mwu1fErWKz0MD6Aqf2vAE9XBD9COSVmynfKWA9-aRJxpg6SNMMWWb_vMeebccsDYjog8neajj8lpphoc9UepO4UKMpEnOtkfqHP4gIn0S0w3BMnvAmvJGyEGcdoEWuCfoDxwUbuvbvF_PYdLGp4s9M8_e1xHJ_6iT95rSadHEgY6ID34bAW88DHAxJcORINq-YAMuValKfXrPb57NX-TJsmkoYtObhScQx1efYcpnRdBTi1TrvGoxRwd-ENXR2N1NuwYUCZprWJLbTKWKmLRTutSkRf4fVkkOarPDGNZXL8NUzVfz8lhfCOwQ-W8HUMY9jv6jRi1cFFzzMg_ZBGXbR_CxU1o-KrttXLxGTgeP7awWJulK_M1m4- -kZxKsewVxU8hHFKTEMT03R7qUxlq47u7zy5UpiWbBI2Zpuszzx7xvOccQavmRlduPR7q3nyE7AuSlVmRGbkplvQWQFj_s3pQHXMtyJljmKRTlHu15lpey6Ix21S3FQ-HbKudOf1gPMqBWLv4SS601FUYKfI17cM9AoJ2dEqdd-Pup9augR6okG_8FLSELXiFLCDQx3fKVXYtV1O35ulSnr6qa-KhYfRh4Ck4eXQZ422Mon9C7jNm00]--></g></svg>