<?xml version="1.0" encoding="us-ascii" standalone="no"?><svg xmlns="http://www.w3.org/2000/svg" xmlns:xlink="http://www.w3.org/1999/xlink" contentStyleType="text/css" height="835px" preserveAspectRatio="none" style="width:1805px;height:835px;background:#F5F5DC;" version="1.1" viewBox="0 0 1805 835" width="1805px" zoomAndPan="magnify"><defs/><g><rect fill="#F5F5DC" height="835" style="stroke:none;stroke-width:1.0;" width="1805" x="0" y="0"/><text fill="#000000" font-family="sans-serif" font-size="14" font-weight="bold" lengthAdjust="spacing" textLength="144" x="829.25" y="36.2399">handleAnyWatch&#23454;&#29616;</text><ellipse cx="897.75" cy="61.2719" fill="#F0E8F5" rx="10" ry="10" style="stroke:#222222;stroke-width:1.0;"/><rect fill="#FFB6C1" height="701.1529" style="stroke:#DDA0DD;stroke-width:1.5;" width="1783.5" x="11" y="81.2719"/><path d="M144,81.2719 L144,94.5438 L134,104.5438 L11,104.5438 " fill="none" style="stroke:#DDA0DD;stroke-width:1.5;"/><text fill="#FF69B4" font-family="Comic Sans MS" font-size="14" lengthAdjust="spacing" textLength="123" x="14" y="98.5118">handleAnyWatch()</text><polygon fill="#FFDEE3" points="875.75,165.5438,919.75,165.5438,931.75,177.5438,919.75,189.5438,875.75,189.5438,863.75,177.5438,875.75,165.5438" style="stroke:#FF69B4;stroke-width:0.5;"/><text fill="#FF1493" font-family="Comic Sans MS" font-size="16" lengthAdjust="spacing" textLength="44" x="875.75" y="184.5198">select</text><rect fill="#F0E8F5" height="37.3761" rx="12.5" ry="12.5" style="stroke:#181818;stroke-width:0.5;" width="347" x="39" y="240.1879"/><text fill="#333333" font-family="Comic Sans MS" font-size="12" lengthAdjust="spacing" textLength="327" x="49" y="264.108">return watchListBookmarkReceived, errorStopRequested</text><rect fill="#F0E8F5" height="37.3761" rx="12.5" ry="12.5" style="stroke:#181818;stroke-width:0.5;" width="248" x="396" y="240.1879"/><text fill="#333333" font-family="Comic Sans MS" font-size="12" lengthAdjust="spacing" textLength="228" x="406" y="264.108">return watchListBookmarkReceived, err</text><rect fill="#F0E8F5" height="54.7522" rx="12.5" ry="12.5" style="stroke:#181818;stroke-width:0.5;" width="284" x="1318.25" y="240.1879"/><text fill="#333333" font-family="Comic Sans MS" font-size="12" lengthAdjust="spacing" textLength="116" x="1403.25" y="264.108">&#26032;&#30340;resourceVersion</text><text fill="#333333" font-family="Comic Sans MS" font-size="12" lengthAdjust="spacing" textLength="264" x="1328.25" y="281.4841">resourceVersion := meta.GetResourceVersion()</text><path d="M664,314.9401 L664,362.5882 A0,0 0 0 0 664,362.5882 L1134,362.5882 A0,0 0 0 0 1134,362.5882 L1134,342.7641 L1154,338.7641 L1134,334.7641 L1134,324.9401 L1124,314.9401 L664,314.9401 A0,0 0 0 0 664,314.9401 " fill="#E6E6FA" style="stroke:#8A2BE2;stroke-width:0.5;"/><path d="M1124,314.9401 L1124,324.9401 L1134,324.9401 L1124,314.9401 " fill="#E6E6FA" style="stroke:#8A2BE2;stroke-width:0.5;"/><text fill="#0000FF" font-family="Comic Sans MS" font-size="13" lengthAdjust="spacing" textLength="449" x="670" y="335.0201">&#29992;DeltaFIFO&#30340;Add/Update/Delete&#31561;&#26041;&#27861;&#23436;&#25104;&#19981;&#21516;&#31867;&#22411; Event&#30340;&#22788;&#29702;&#65292;&#25105;&#20204;&#22312;</text><text fill="#0000FF" font-family="Comic Sans MS" font-size="13" lengthAdjust="spacing" textLength="393" x="670" y="353.8442">5.3&#33410;&#35814;&#32454;&#20171;&#32461;&#22269;DeltaFIFO&#23545;&#24212;&#30340; Add/Update/Delete&#26159;&#22914;&#20309;&#23454;&#29616;&#30340;</text><polygon fill="#FFDEE3" points="1418.75,314.9401,1501.75,314.9401,1513.75,326.9401,1501.75,338.9401,1418.75,338.9401,1406.75,326.9401,1418.75,314.9401" style="stroke:#FF69B4;stroke-width:0.5;"/><text fill="#FF1493" font-family="Comic Sans MS" font-size="16" lengthAdjust="spacing" textLength="83" x="1418.75" y="333.9161">event.Type</text><rect fill="#F0E8F5" height="37.3761" rx="12.5" ry="12.5" style="stroke:#181818;stroke-width:0.5;" width="154" x="1154" y="390.5842"/><text fill="#333333" font-family="Comic Sans MS" font-size="12" lengthAdjust="spacing" textLength="134" x="1164" y="414.5043">store.Add(event.Object)</text><rect fill="#F0E8F5" height="37.3761" rx="12.5" ry="12.5" style="stroke:#181818;stroke-width:0.5;" width="175" x="1350" y="390.5842"/><text fill="#333333" font-family="Comic Sans MS" font-size="12" lengthAdjust="spacing" textLength="155" x="1360" y="414.5043">store.Update(event.Object)</text><rect fill="#F0E8F5" height="37.3761" rx="12.5" ry="12.5" style="stroke:#181818;stroke-width:0.5;" width="170" x="1572.5" y="390.5842"/><text fill="#333333" font-family="Comic Sans MS" font-size="12" lengthAdjust="spacing" textLength="150" x="1582.5" y="414.5043">store.Delete(event.Object)</text><polygon fill="#FFDEE3" points="1460.25,471.9603,1460.25,471.9603,1472.25,483.9603,1460.25,495.9603,1460.25,495.9603,1448.25,483.9603,1460.25,471.9603" style="stroke:#FF69B4;stroke-width:0.5;"/><rect fill="#F0E8F5" height="54.7522" rx="12.5" ry="12.5" style="stroke:#181818;stroke-width:0.5;" width="395" x="1262.75" y="515.9603"/><text fill="#333333" font-family="Comic Sans MS" font-size="12" lengthAdjust="spacing" textLength="375" x="1272.75" y="539.8804">&#26356;&#26032;ResourceVersion&#29256;&#26412;, &#19979;&#27425;&#20351;&#29992;&#35813;resourceVersion&#26469;watch&#30417;&#21548;.</text><text fill="#333333" font-family="Comic Sans MS" font-size="12" lengthAdjust="spacing" textLength="264" x="1323.75" y="557.2565">setLastSyncResourceVersion(resourceVersion)</text><polygon fill="#FFDEE3" points="897.75,580.7126,897.75,580.7126,909.75,592.7126,897.75,604.7126,897.75,604.7126,885.75,592.7126,897.75,580.7126" style="stroke:#FF69B4;stroke-width:0.5;"/><polygon fill="#FFDEE3" points="882.25,121.5438,913.25,121.5438,925.25,133.5438,913.25,145.5438,882.25,145.5438,870.25,133.5438,882.25,121.5438" style="stroke:#FF69B4;stroke-width:0.5;"/><text fill="#FF1493" font-family="Comic Sans MS" font-size="16" lengthAdjust="spacing" textLength="31" x="882.25" y="140.5198">true</text><polygon fill="#FFDEE3" points="698.25,646.7126,1097.25,646.7126,1109.25,669.8806,1097.25,693.0486,698.25,693.0486,686.25,669.8806,698.25,646.7126" style="stroke:#FF69B4;stroke-width:0.5;"/><text fill="#FF1493" font-family="Comic Sans MS" font-size="16" lengthAdjust="spacing" textLength="391" x="702.25" y="665.2726">watch1&#31186;&#23601;&#32467;&#26463;&#20102;&#65292;&#32780;&#19988;&#27809;&#26377;&#25910;&#21040;&#20107;&#20214;&#65292;&#23646;&#20110;&#24322;&#24120;&#24773;&#20917;</text><text fill="#FF1493" font-family="Comic Sans MS" font-size="16" lengthAdjust="spacing" textLength="393" x="702.25" y="688.4406">watchDuration &lt; 1*time.Second &amp;&amp; eventCount == 0</text><text fill="#FFD700" font-family="Comic Sans MS" font-size="16" lengthAdjust="spacing" textLength="16" x="670.25" y="665.2726">&#26159;</text><text fill="#FFD700" font-family="Comic Sans MS" font-size="16" lengthAdjust="spacing" textLength="16" x="1109.25" y="665.2726">&#21542;</text><rect fill="#F0E8F5" height="37.3761" rx="12.5" ry="12.5" style="stroke:#181818;stroke-width:0.5;" width="316" x="518.25" y="703.0486"/><text fill="#333333" font-family="Comic Sans MS" font-size="12" lengthAdjust="spacing" textLength="296" x="528.25" y="726.9687">return watchListBookmarkReceived, fmt.Errorf("...")</text><rect fill="#F0E8F5" height="37.3761" rx="12.5" ry="12.5" style="stroke:#181818;stroke-width:0.5;" width="244" x="997.25" y="703.0486"/><text fill="#333333" font-family="Comic Sans MS" font-size="12" lengthAdjust="spacing" textLength="224" x="1007.25" y="726.9687">return watchListBookmarkReceived, nil</text><polygon fill="#FFDEE3" points="897.75,746.4248,909.75,758.4248,897.75,770.4248,885.75,758.4248,897.75,746.4248" style="stroke:#FF69B4;stroke-width:0.5;"/><ellipse cx="897.75" cy="813.4248" fill="none" rx="11" ry="11" style="stroke:#222222;stroke-width:1.0;"/><ellipse cx="897.75" cy="813.4248" fill="#F0E8F5" rx="6" ry="6" style="stroke:#222222;stroke-width:1.0;"/><line style="stroke:#181818;stroke-width:1.0;" x1="1406.75" x2="1231" y1="326.9401" y2="326.9401"/><line style="stroke:#181818;stroke-width:1.0;" x1="1231" x2="1231" y1="326.9401" y2="390.5842"/><polygon fill="#181818" points="1227,380.5842,1231,390.5842,1235,380.5842,1231,384.5842" style="stroke:#181818;stroke-width:1.0;"/><text fill="#FFD700" font-family="Comic Sans MS" font-size="16" lengthAdjust="spacing" textLength="99" x="1231" y="368.0842">watch.Added</text><line style="stroke:#181818;stroke-width:1.0;" x1="1513.75" x2="1657.5" y1="326.9401" y2="326.9401"/><line style="stroke:#181818;stroke-width:1.0;" x1="1657.5" x2="1657.5" y1="326.9401" y2="390.5842"/><polygon fill="#181818" points="1653.5,380.5842,1657.5,390.5842,1661.5,380.5842,1657.5,384.5842" style="stroke:#181818;stroke-width:1.0;"/><text fill="#FFD700" font-family="Comic Sans MS" font-size="16" lengthAdjust="spacing" textLength="109" x="1657.5" y="368.0842">watch.Deleted</text><line style="stroke:#181818;stroke-width:1.0;" x1="1460.25" x2="1460.25" y1="338.9401" y2="357.7188"/><line style="stroke:#181818;stroke-width:1.0;" x1="1460.25" x2="1437.5" y1="357.7188" y2="357.7188"/><line style="stroke:#181818;stroke-width:1.0;" x1="1437.5" x2="1437.5" y1="357.7188" y2="390.5842"/><polygon fill="#181818" points="1433.5,380.5842,1437.5,390.5842,1441.5,380.5842,1437.5,384.5842" style="stroke:#181818;stroke-width:1.0;"/><text fill="#FFD700" font-family="Comic Sans MS" font-size="16" lengthAdjust="spacing" textLength="115" x="1437.5" y="369.0842">watch.Modified</text><line style="stroke:#181818;stroke-width:1.0;" x1="1231" x2="1231" y1="427.9603" y2="483.9603"/><line style="stroke:#181818;stroke-width:1.0;" x1="1231" x2="1448.25" y1="483.9603" y2="483.9603"/><polygon fill="#181818" points="1438.25,479.9603,1448.25,483.9603,1438.25,487.9603,1442.25,483.9603" style="stroke:#181818;stroke-width:1.0;"/><line style="stroke:#181818;stroke-width:1.0;" x1="1657.5" x2="1657.5" y1="427.9603" y2="483.9603"/><line style="stroke:#181818;stroke-width:1.0;" x1="1657.5" x2="1472.25" y1="483.9603" y2="483.9603"/><polygon fill="#181818" points="1482.25,479.9603,1472.25,483.9603,1482.25,487.9603,1478.25,483.9603" style="stroke:#181818;stroke-width:1.0;"/><line style="stroke:#181818;stroke-width:1.0;" x1="1437.5" x2="1437.5" y1="427.9603" y2="456.9603"/><line style="stroke:#181818;stroke-width:1.0;" x1="1437.5" x2="1460.25" y1="456.9603" y2="456.9603"/><line style="stroke:#181818;stroke-width:1.0;" x1="1460.25" x2="1460.25" y1="456.9603" y2="471.9603"/><polygon fill="#181818" points="1456.25,461.9603,1460.25,471.9603,1464.25,461.9603,1460.25,465.9603" style="stroke:#181818;stroke-width:1.0;"/><line style="stroke:#181818;stroke-width:1.0;" x1="1460.25" x2="1460.25" y1="294.9401" y2="314.9401"/><polygon fill="#181818" points="1456.25,304.9401,1460.25,314.9401,1464.25,304.9401,1460.25,308.9401" style="stroke:#181818;stroke-width:1.0;"/><line style="stroke:#181818;stroke-width:1.0;" x1="1460.25" x2="1460.25" y1="495.9603" y2="515.9603"/><polygon fill="#181818" points="1456.25,505.9603,1460.25,515.9603,1464.25,505.9603,1460.25,509.9603" style="stroke:#181818;stroke-width:1.0;"/><line style="stroke:#181818;stroke-width:1.0;" x1="863.75" x2="212.5" y1="177.5438" y2="177.5438"/><line style="stroke:#181818;stroke-width:1.0;" x1="212.5" x2="212.5" y1="177.5438" y2="240.1879"/><polygon fill="#181818" points="208.5,230.1879,212.5,240.1879,216.5,230.1879,212.5,234.1879" style="stroke:#181818;stroke-width:1.0;"/><text fill="#FFD700" font-family="Comic Sans MS" font-size="16" lengthAdjust="spacing" textLength="68" x="212.5" y="218.6879">&lt;-stopCh</text><line style="stroke:#181818;stroke-width:1.0;" x1="931.75" x2="1460.25" y1="177.5438" y2="177.5438"/><line style="stroke:#181818;stroke-width:1.0;" x1="1460.25" x2="1460.25" y1="177.5438" y2="240.1879"/><polygon fill="#181818" points="1456.25,230.1879,1460.25,240.1879,1464.25,230.1879,1460.25,234.1879" style="stroke:#181818;stroke-width:1.0;"/><text fill="#FFD700" font-family="Comic Sans MS" font-size="16" lengthAdjust="spacing" textLength="218" x="1460.25" y="218.6879">event, ok := &lt;-w.ResultChan()</text><line style="stroke:#181818;stroke-width:1.0;" x1="520" x2="520" y1="177.5438" y2="240.1879"/><polygon fill="#181818" points="516,230.1879,520,240.1879,524,230.1879,520,234.1879" style="stroke:#181818;stroke-width:1.0;"/><text fill="#FFD700" font-family="Comic Sans MS" font-size="16" lengthAdjust="spacing" textLength="98" x="520" y="213.6879">err := &lt;-errCh</text><line style="stroke:#181818;stroke-width:1.0;" x1="1460.25" x2="1460.25" y1="570.7126" y2="592.7126"/><line style="stroke:#181818;stroke-width:1.0;" x1="1460.25" x2="909.75" y1="592.7126" y2="592.7126"/><polygon fill="#181818" points="919.75,588.7126,909.75,592.7126,919.75,596.7126,915.75,592.7126" style="stroke:#181818;stroke-width:1.0;"/><line style="stroke:#181818;stroke-width:1.0;" x1="897.75" x2="897.75" y1="145.5438" y2="165.5438"/><polygon fill="#181818" points="893.75,155.5438,897.75,165.5438,901.75,155.5438,897.75,159.5438" style="stroke:#181818;stroke-width:1.0;"/><line style="stroke:#181818;stroke-width:1.0;" x1="897.75" x2="897.75" y1="604.7126" y2="614.7126"/><line style="stroke:#181818;stroke-width:1.0;" x1="897.75" x2="1778.5" y1="614.7126" y2="614.7126"/><polygon fill="#181818" points="1774.5,451.9603,1778.5,441.9603,1782.5,451.9603,1778.5,447.9603" style="stroke:#181818;stroke-width:1.0;"/><line style="stroke:#181818;stroke-width:1.0;" x1="1778.5" x2="1778.5" y1="133.5438" y2="614.7126"/><line style="stroke:#181818;stroke-width:1.0;" x1="1778.5" x2="925.25" y1="133.5438" y2="133.5438"/><polygon fill="#181818" points="935.25,129.5438,925.25,133.5438,935.25,137.5438,931.25,133.5438" style="stroke:#181818;stroke-width:1.0;"/><line style="stroke:#181818;stroke-width:1.0;" x1="870.25" x2="27" y1="133.5438" y2="133.5438"/><polygon fill="#181818" points="23,437.9603,27,447.9603,31,437.9603,27,441.9603" style="stroke:#181818;stroke-width:1.0;"/><line style="stroke:#181818;stroke-width:1.0;" x1="27" x2="27" y1="133.5438" y2="626.7126"/><line style="stroke:#181818;stroke-width:1.0;" x1="27" x2="897.75" y1="626.7126" y2="626.7126"/><line style="stroke:#181818;stroke-width:1.0;" x1="897.75" x2="897.75" y1="626.7126" y2="646.7126"/><polygon fill="#181818" points="893.75,636.7126,897.75,646.7126,901.75,636.7126,897.75,640.7126" style="stroke:#181818;stroke-width:1.0;"/><line style="stroke:#181818;stroke-width:1.0;" x1="686.25" x2="676.25" y1="669.8806" y2="669.8806"/><line style="stroke:#181818;stroke-width:1.0;" x1="676.25" x2="676.25" y1="669.8806" y2="703.0486"/><polygon fill="#181818" points="672.25,693.0486,676.25,703.0486,680.25,693.0486,676.25,697.0486" style="stroke:#181818;stroke-width:1.0;"/><line style="stroke:#181818;stroke-width:1.0;" x1="1109.25" x2="1119.25" y1="669.8806" y2="669.8806"/><line style="stroke:#181818;stroke-width:1.0;" x1="1119.25" x2="1119.25" y1="669.8806" y2="703.0486"/><polygon fill="#181818" points="1115.25,693.0486,1119.25,703.0486,1123.25,693.0486,1119.25,697.0486" style="stroke:#181818;stroke-width:1.0;"/><line style="stroke:#181818;stroke-width:1.0;" x1="676.25" x2="676.25" y1="740.4248" y2="758.4248"/><line style="stroke:#181818;stroke-width:1.0;" x1="676.25" x2="885.75" y1="758.4248" y2="758.4248"/><polygon fill="#181818" points="875.75,754.4248,885.75,758.4248,875.75,762.4248,879.75,758.4248" style="stroke:#181818;stroke-width:1.0;"/><line style="stroke:#181818;stroke-width:1.0;" x1="1119.25" x2="1119.25" y1="740.4248" y2="758.4248"/><line style="stroke:#181818;stroke-width:1.0;" x1="1119.25" x2="909.75" y1="758.4248" y2="758.4248"/><polygon fill="#181818" points="919.75,754.4248,909.75,758.4248,919.75,762.4248,915.75,758.4248" style="stroke:#181818;stroke-width:1.0;"/><line style="stroke:#181818;stroke-width:1.0;" x1="897.75" x2="897.75" y1="71.2719" y2="121.5438"/><polygon fill="#181818" points="893.75,111.5438,897.75,121.5438,901.75,111.5438,897.75,115.5438" style="stroke:#181818;stroke-width:1.0;"/><line style="stroke:#181818;stroke-width:1.0;" x1="897.75" x2="897.75" y1="770.4248" y2="802.4248"/><polygon fill="#181818" points="893.75,792.4248,897.75,802.4248,901.75,792.4248,897.75,796.4248" style="stroke:#181818;stroke-width:1.0;"/><!--SRC=[bLLRJnj757xthnYbKcH7PB7n9HTC9NilLINII7OlBtdPxXx7K-_5dHrZkL6bYgO82ecSbaHL8LIH6fe76g2NoC51_JDxuIr_eJExYs5DZCZwnNlEcUyxbs_EbXtQC-33bAfHl81fJyBgNQAQw5uAiQUgQgsxnEvOkcWRDa4VA5dvkbACV3RHWHpR5J4hLaExObiqjkRp-P7f4zK49Decrb1TjHnqgvxwDfNIiMhQbZwHJf5aESAOnnQChAKRrS8ucQBa2ZVEvJjsrV4tW78bpgyIOdTZzWIMT2sRVK-ijaeefjYsOhn4neNYARoJElA5Qw6r5XLDB21e9Zkf6N91pd4cowPmDkaiUnHbdFfwPQOgpxmRKIx99QKIpi7MEYPOTE8WYafH4daaDxVVrR7HJ4wHIr8bAqcJogcMH5vEUJhM8EkU0QYfMhe15QltXKgrflToAtYubqevBMon1ZDbYamlOPjbIw_pWoWM4GkYR0HnXacOT2PC0dMRc1r8KzA1sC8UfujvY0C6QFJ4hAaE2orVTQZT5fidzfi4Q8TOgCk1vx53gxRTCbNIge46U07qAGHCLgJEpjNWwmuu5FJPqV4MDemn3XQERiwXybNsv_sPpeTUO5ETGdOh8kWADN0w1XLPUzAP4wQGxGxbF-G_sGj-lK_0iJj4Wy-1EApPYSWn7uSsWQh2Hq1hILSwCviu6RSwp4hujDU6P0fSs0b3iFv20eEgoiVARPPKHTUdFslhAeLfPWOAmPyh_fFN_j-FlPTh_dBV7Jpm-cl1_j3RMaKo9s67lD_l1_sbjszOm2DtkEDjlaXG58NyqO-BHxlRmN397Qu6mmVUnk68rDjzxHsiCnHqXjl_PTVRNdGF7qSQPJ49N61hxKmzV2ZfS9m2mmCzMNuu1IOt0jmRT-dsbrznMSvEmhbbwxY1pu6AahuWMbJQPB38VnuOgpkQSb9S_iO_J5XZyWXMbltDdIda3bRzdMVkuNzitaUxpyVqvJzz7YONR3po-Zj20ZTKh0DqNdLelMTfu_eRWpgLQp9FzXRkXl05Dr0wkdIvu8-VlBtzOFYp__Gtzu2hwEYxDNUmxl_rpDzSyTTVUSjxxi6gEtp5NDx-bdlmq7kpw0q6_lS_U4l_eZlnxPKwH0s_3MMKkqAn2K8TDFxbktmPXSqKsMgaQ6uEPJC8EoZDr9L1j0d7D-y2kw1XKa7ccwUHlYG8mgMuM33u8l3wsvcBGrdOc3tk2swak9R3jPhYo_1_]--></g></svg>