<?xml version="1.0" encoding="us-ascii" standalone="no"?><svg xmlns="http://www.w3.org/2000/svg" xmlns:xlink="http://www.w3.org/1999/xlink" contentStyleType="text/css" height="2421px" preserveAspectRatio="none" style="width:1362px;height:2421px;background:#F5F5DC;" version="1.1" viewBox="0 0 1362 2421" width="1362px" zoomAndPan="magnify"><defs/><g><rect fill="#F5F5DC" height="2421" style="stroke:none;stroke-width:1.0;" width="1362" x="0" y="0"/><text fill="#000000" font-family="sans-serif" font-size="14" font-weight="bold" lengthAdjust="spacing" textLength="123" x="618" y="36.2399">ListAndWatch&#23454;&#29616;</text><ellipse cx="773" cy="61.2719" fill="#F0E8F5" rx="10" ry="10" style="stroke:#222222;stroke-width:1.0;"/><rect fill="#F0E8F5" height="37.3761" rx="12.5" ry="12.5" style="stroke:#181818;stroke-width:0.5;" width="93" x="726.5" y="91.2719"/><text fill="#333333" font-family="Comic Sans MS" font-size="12" lengthAdjust="spacing" textLength="73" x="736.5" y="115.192">r.list(stopCh)</text><rect fill="#FFB6C1" height="950.7943" style="stroke:#DDA0DD;stroke-width:1.5;" width="1101" x="222.5" y="138.648"/><path d="M252.5,138.648 L252.5,151.9199 L242.5,161.9199 L222.5,161.9199 " fill="none" style="stroke:#DDA0DD;stroke-width:1.5;"/><text fill="#FF69B4" font-family="Comic Sans MS" font-size="14" lengthAdjust="spacing" textLength="20" x="225.5" y="155.888">list</text><rect fill="#F0E8F5" height="37.3761" rx="12.5" ry="12.5" style="stroke:#181818;stroke-width:0.5;" width="169" x="688.5" y="178.9199"/><text fill="#333333" font-family="Comic Sans MS" font-size="12" lengthAdjust="spacing" textLength="149" x="698.5" y="202.84">var resourceVersion string</text><rect fill="#F0E8F5" height="72.1284" rx="12.5" ry="12.5" style="stroke:#181818;stroke-width:0.5;" width="498" x="524" y="236.2961"/><text fill="#333333" font-family="Comic Sans MS" font-size="12" lengthAdjust="spacing" textLength="478" x="534" y="260.2162">&#24403;r.lastSyncResourceVersion&#20026;""&#26102;&#36825;&#37324;&#26159;"0",&#24403;&#20351;&#29992;r.lastSyncResourceVersion&#22833;&#36133;&#26102;</text><text fill="#333333" font-family="Comic Sans MS" font-size="12" lengthAdjust="spacing" textLength="36" x="558" y="277.5923">&#36825;&#37324;&#20026;</text><text fill="#333333" font-family="monospace" font-size="12" lengthAdjust="spacing" textLength="43" x="594" y="278.2182">,&#21306;&#21035;&#26159;</text><text fill="#333333" font-family="Comic Sans MS" font-size="12" lengthAdjust="spacing" textLength="329" x="637" y="277.5923">&#20250;&#30452;&#25509;&#35831;&#27714;&#21040;etcd&#65292;&#33719;&#21462;&#19968;&#20010;&#26032;&#30340;&#29256;&#26412;&#65292;&#32780;"0"&#35775;&#38382;&#30340;&#26159;cache</text><text fill="#333333" font-family="Comic Sans MS" font-size="12" lengthAdjust="spacing" textLength="418" x="558" y="294.9684">options := metav1.ListOptions{ResourceVersion: r.relistResourceVersion()}</text><rect fill="#F0E8F5" height="54.7522" rx="12.5" ry="12.5" style="stroke:#181818;stroke-width:0.5;" width="300" x="623" y="328.4244"/><text fill="#333333" font-family="Comic Sans MS" font-size="12" lengthAdjust="spacing" textLength="234" x="633" y="352.3445">&#35774;&#32622;&#36825;&#20010;&#23646;&#24615;&#21518;&#65292;&#19979;&#19968;&#27425;list&#20250;&#20174;etcd&#20013;&#33719;&#21462;</text><text fill="#333333" font-family="Comic Sans MS" font-size="12" lengthAdjust="spacing" textLength="280" x="633" y="369.7206">r.setIsLastSyncResourceVersionUnavailable(true)</text><rect fill="#F0E8F5" height="6" rx="2.5" ry="2.5" style="stroke:#F0E8F5;stroke-width:1.0;" width="1081" x="232.5" y="403.1767"/><rect fill="#F0E8F5" height="37.3761" rx="12.5" ry="12.5" style="stroke:#181818;stroke-width:0.5;" width="233" x="419" y="429.1767"/><text fill="#333333" font-family="Comic Sans MS" font-size="12" lengthAdjust="spacing" textLength="213" x="429" y="453.0968">go func() { //&#20869;&#23884;&#19968;&#20010;&#20989;&#25968;&#36825;&#37324;&#30452;&#25509;&#35843;&#29992;</text><rect fill="#F0E8F5" height="89.5045" rx="12.5" ry="12.5" style="stroke:#181818;stroke-width:0.5;" width="578" x="246.5" y="501.5528"/><text fill="#333333" font-family="Comic Sans MS" font-size="12" lengthAdjust="spacing" textLength="162" x="451.5" y="525.4729">&#20351;&#29992; tool/pager &#32452;&#35013;&#20998;&#39029;&#36923;&#36753;</text><text fill="#333333" font-family="Comic Sans MS" font-size="12" lengthAdjust="spacing" textLength="558" x="256.5" y="542.849">pager := pager.New(pager.SimplePageFunc(func(opts metav1.ListOptions) (runtime.Object, error) {</text><text fill="#333333" font-family="Comic Sans MS" font-size="12" lengthAdjust="spacing" textLength="181" x="268.5" y="560.2251">return r.listerWatcher.List(opts)</text><text fill="#333333" font-family="Comic Sans MS" font-size="12" lengthAdjust="spacing" textLength="12" x="256.5" y="577.6013">}))</text><rect fill="#F0E8F5" height="54.7522" rx="12.5" ry="12.5" style="stroke:#181818;stroke-width:0.5;" width="459" x="306" y="617.2455"/><text fill="#333333" font-family="Comic Sans MS" font-size="12" lengthAdjust="spacing" textLength="48" x="508" y="641.1656">&#33719;&#21462;&#25968;&#25454;</text><text fill="#333333" font-family="Comic Sans MS" font-size="12" lengthAdjust="spacing" textLength="439" x="316" y="658.5417">list, paginatedResult, err = pager.ListWithAlloc(context.Background(), options)</text><rect fill="#F0E8F5" height="54.7522" rx="12.5" ry="12.5" style="stroke:#181818;stroke-width:0.5;" width="300" x="385.5" y="782.9179"/><text fill="#333333" font-family="Comic Sans MS" font-size="12" lengthAdjust="spacing" textLength="234" x="422.5" y="806.838">&#35774;&#32622;&#36825;&#20010;&#23646;&#24615;&#21518;&#65292;&#19979;&#19968;&#27425;list&#20250;&#20174;etcd&#20013;&#33719;&#21462;</text><text fill="#333333" font-family="Comic Sans MS" font-size="12" lengthAdjust="spacing" textLength="280" x="395.5" y="824.2141">r.setIsLastSyncResourceVersionUnavailable(true)</text><rect fill="#F0E8F5" height="54.7522" rx="12.5" ry="12.5" style="stroke:#181818;stroke-width:0.5;" width="410" x="330.5" y="872.6701"/><text fill="#333333" font-family="Comic Sans MS" font-size="12" lengthAdjust="spacing" textLength="390" x="340.5" y="896.5902">list, paginatedResult, err = pager.ListWithAlloc(context.Background(),</text><text fill="#333333" font-family="Comic Sans MS" font-size="12" lengthAdjust="spacing" textLength="364" x="340.5" y="913.9663">metav1.ListOptions{ResourceVersion: r.relistResourceVersion()})</text><polygon fill="#FFDEE3" points="320.5,706.9978,750.5,706.9978,762.5,730.1658,750.5,753.3339,320.5,753.3339,308.5,730.1658,320.5,706.9978" style="stroke:#FF69B4;stroke-width:0.5;"/><text fill="#FFD700" font-family="Comic Sans MS" font-size="16" lengthAdjust="spacing" textLength="16" x="539.5" y="771.8939">&#26159;</text><text fill="#FF1493" font-family="Comic Sans MS" font-size="16" lengthAdjust="spacing" textLength="351" x="356.5" y="725.5578">&#22914;&#26524;&#36807;&#26399;&#25110;&#32773;&#19981;&#21512;&#27861; resourceversion &#21017;&#36827;&#34892;&#37325;&#35797;</text><text fill="#FF1493" font-family="Comic Sans MS" font-size="16" lengthAdjust="spacing" textLength="426" x="324.5" y="748.7258">isExpiredError(err) || isTooLargeResourceVersionError(err)</text><text fill="#FFD700" font-family="Comic Sans MS" font-size="16" lengthAdjust="spacing" textLength="16" x="762.5" y="725.5578">&#21542;</text><polygon fill="#FFDEE3" points="535.5,955.0663,547.5,967.0663,535.5,979.0663,523.5,967.0663,535.5,955.0663" style="stroke:#FF69B4;stroke-width:0.5;"/><rect fill="#F0E8F5" height="37.3761" rx="12.5" ry="12.5" style="stroke:#181818;stroke-width:0.5;" width="89" x="491" y="1014.0663"/><text fill="#333333" font-family="Comic Sans MS" font-size="12" lengthAdjust="spacing" textLength="69" x="501" y="1037.9864">close(listCh)</text><rect fill="#F0E8F5" height="37.3761" rx="12.5" ry="12.5" style="stroke:#181818;stroke-width:0.5;" width="148" x="1002" y="457.7407"/><text fill="#333333" font-family="Comic Sans MS" font-size="12" lengthAdjust="spacing" textLength="128" x="1012" y="481.6608">&#20250;select {case &lt;-listCh:</text><rect fill="#F0E8F5" height="54.7522" rx="12.5" ry="12.5" style="stroke:#181818;stroke-width:0.5;" width="303" x="924.5" y="530.1168"/><text fill="#333333" font-family="Comic Sans MS" font-size="12" lengthAdjust="spacing" textLength="41" x="1057.5" y="554.0369">list&#25104;&#21151;</text><text fill="#333333" font-family="Comic Sans MS" font-size="12" lengthAdjust="spacing" textLength="283" x="934.5" y="571.413">r.setIsLastSyncResourceVersionUnavailable(false)</text><rect fill="#F0E8F5" height="37.3761" rx="12.5" ry="12.5" style="stroke:#181818;stroke-width:0.5;" width="286" x="933" y="611.0573"/><text fill="#333333" font-family="Comic Sans MS" font-size="12" lengthAdjust="spacing" textLength="266" x="943" y="634.9774">listMetaInterface, err := meta.ListAccessor(list)</text><rect fill="#F0E8F5" height="54.7522" rx="12.5" ry="12.5" style="stroke:#181818;stroke-width:0.5;" width="349" x="901.5" y="683.4334"/><text fill="#333333" font-family="Comic Sans MS" font-size="12" lengthAdjust="spacing" textLength="108" x="1013.5" y="707.3535">&#33719;&#21462;&#24403;&#21069;&#26368;&#26032;&#30340;&#29256;&#26412;</text><text fill="#333333" font-family="Comic Sans MS" font-size="12" lengthAdjust="spacing" textLength="329" x="911.5" y="724.7296">resourceVersion = listMetaInterface.GetResourceVersion()</text><rect fill="#F0E8F5" height="54.7522" rx="12.5" ry="12.5" style="stroke:#181818;stroke-width:0.5;" width="263" x="944.5" y="773.1856"/><text fill="#333333" font-family="Comic Sans MS" font-size="12" lengthAdjust="spacing" textLength="72" x="1029.5" y="797.1057">&#36716;&#25442;&#25968;&#25454;&#32467;&#26500;</text><text fill="#333333" font-family="Comic Sans MS" font-size="12" lengthAdjust="spacing" textLength="243" x="954.5" y="814.4819">items, err := meta.ExtractListWithAlloc(list)</text><rect fill="#F0E8F5" height="72.1284" rx="12.5" ry="12.5" style="stroke:#181818;stroke-width:0.5;" width="447" x="852.5" y="862.9379"/><text fill="#333333" font-family="Comic Sans MS" font-size="12" lengthAdjust="spacing" textLength="346" x="889.5" y="886.858">&#23558;list&#21040;&#30340;items&#28155;&#21152;&#21040;store&#20013;&#65292;&#36825;&#37324;&#30340;store&#20063;&#23601;&#26159;DeltaFIFO&#65292;</text><text fill="#333333" font-family="Comic Sans MS" font-size="12" lengthAdjust="spacing" textLength="427" x="862.5" y="904.2341">&#20063;&#23601;&#26159;&#28155;&#21152;&#19968;&#20010;SyncDeltaType&#65292;&#19981;&#36807;&#36825;&#37324;&#30340;resourceVersion&#20540;&#24182;&#27809;&#26377;&#23454;&#38469;&#29992;&#21040;</text><text fill="#333333" font-family="Comic Sans MS" font-size="12" lengthAdjust="spacing" textLength="230" x="937.5" y="921.6102">err := r.syncWith(items, resourceVersion)</text><rect fill="#F0E8F5" height="54.7522" rx="12.5" ry="12.5" style="stroke:#181818;stroke-width:0.5;" width="292" x="930" y="968.1261"/><text fill="#333333" font-family="Comic Sans MS" font-size="12" lengthAdjust="spacing" textLength="119" x="1015" y="992.0462">&#26356;&#26032; resourceVersion</text><text fill="#333333" font-family="Comic Sans MS" font-size="12" lengthAdjust="spacing" textLength="272" x="940" y="1009.4223">r.setLastSyncResourceVersion(resourceVersion)</text><rect fill="#F0E8F5" height="6" rx="2.5" ry="2.5" style="stroke:#F0E8F5;stroke-width:1.0;" width="1081" x="232.5" y="1071.4424"/><rect fill="#F0E8F5" height="37.3761" rx="12.5" ry="12.5" style="stroke:#181818;stroke-width:0.5;" width="232" x="657" y="1109.4424"/><text fill="#333333" font-family="Comic Sans MS" font-size="12" lengthAdjust="spacing" textLength="212" x="667" y="1133.3625">return r.watchWithResync(w, stopCh)</text><rect fill="#FFB6C1" height="1211.3775" style="stroke:#DDA0DD;stroke-width:1.5;" width="1340" x="11" y="1156.8185"/><path d="M148,1156.8185 L148,1170.0904 L138,1180.0904 L11,1180.0904 " fill="none" style="stroke:#DDA0DD;stroke-width:1.5;"/><text fill="#FF69B4" font-family="Comic Sans MS" font-size="14" lengthAdjust="spacing" textLength="127" x="14" y="1174.0584">watchWithResync()</text><path d="M31,1764.5552 L31,1793.3792 L195,1793.3792 L195,1774.5552 L185,1764.5552 L31,1764.5552 " fill="#E6E6FA" style="stroke:#8A2BE2;stroke-width:0.5;"/><path d="M185,1764.5552 L185,1774.5552 L195,1774.5552 L185,1764.5552 " fill="#E6E6FA" style="stroke:#8A2BE2;stroke-width:0.5;"/><text fill="#0000FF" font-family="Comic Sans MS" font-size="13" lengthAdjust="spacing" textLength="143" x="37" y="1784.6352">&#21487;&#20197;&#36339;&#36807;&#19981;&#30475;&#65292;&#40664;&#35748;&#19981;&#36208;</text><rect fill="#F0E8F5" height="37.3761" rx="12.5" ry="12.5" style="stroke:#181818;stroke-width:0.5;" width="208" x="669" y="1197.0904"/><text fill="#333333" font-family="Comic Sans MS" font-size="12" lengthAdjust="spacing" textLength="188" x="679" y="1221.0105">resyncerrc := make(chan error, 1)</text><rect fill="#F0E8F5" height="37.3761" rx="12.5" ry="12.5" style="stroke:#181818;stroke-width:0.5;" width="199" x="673.5" y="1254.4665"/><text fill="#333333" font-family="Comic Sans MS" font-size="12" lengthAdjust="spacing" textLength="179" x="683.5" y="1278.3866">cancelCh := make(chan struct{})</text><rect fill="#F0E8F5" height="37.3761" rx="12.5" ry="12.5" style="stroke:#181818;stroke-width:0.5;" width="141" x="702.5" y="1311.8427"/><text fill="#333333" font-family="Comic Sans MS" font-size="12" lengthAdjust="spacing" textLength="121" x="712.5" y="1335.7627">defer close(cancelCh)</text><rect fill="#F0E8F5" height="6" rx="2.5" ry="2.5" style="stroke:#F0E8F5;stroke-width:1.0;" width="1136" x="205" y="1369.2188"/><rect fill="#F0E8F5" height="37.3761" rx="12.5" ry="12.5" style="stroke:#181818;stroke-width:0.5;" width="284" x="281.5" y="1479.9955"/><text fill="#333333" font-family="Comic Sans MS" font-size="12" lengthAdjust="spacing" textLength="264" x="291.5" y="1503.9156">go r.startResync(stopCh, cancelCh, resyncerrc)</text><rect fill="#FFB6C1" height="714.577" style="stroke:#DDA0DD;stroke-width:1.5;" width="410" x="217" y="1547.619"/><path d="M314,1547.619 L314,1560.891 L304,1570.891 L217,1570.891 " fill="none" style="stroke:#DDA0DD;stroke-width:1.5;"/><text fill="#FF69B4" font-family="Comic Sans MS" font-size="14" lengthAdjust="spacing" textLength="87" x="220" y="1564.859">startResync()</text><rect fill="#F0E8F5" height="54.7522" rx="12.5" ry="12.5" style="stroke:#181818;stroke-width:0.5;" width="242" x="302.5" y="1587.891"/><text fill="#333333" font-family="Comic Sans MS" font-size="12" lengthAdjust="spacing" textLength="222" x="312.5" y="1611.8111">&#36890;&#24120;rsyncPeriod&#20026;0,&#19981;&#20250;&#35302;&#29359;resync&#25805;&#20316;</text><text fill="#333333" font-family="Comic Sans MS" font-size="12" lengthAdjust="spacing" textLength="200" x="312.5" y="1629.1872">resyncCh, cleanup := r.resyncChan()</text><polygon fill="#FFDEE3" points="401.5,1725.6432,445.5,1725.6432,457.5,1737.6432,445.5,1749.6432,401.5,1749.6432,389.5,1737.6432,401.5,1725.6432" style="stroke:#FF69B4;stroke-width:0.5;"/><text fill="#FF1493" font-family="Comic Sans MS" font-size="16" lengthAdjust="spacing" textLength="44" x="401.5" y="1744.6192">select</text><rect fill="#F0E8F5" height="37.3761" rx="12.5" ry="12.5" style="stroke:#181818;stroke-width:0.5;" width="109" x="363" y="1868.7314"/><text fill="#333333" font-family="Comic Sans MS" font-size="12" lengthAdjust="spacing" textLength="89" x="373" y="1892.6515">r.store.Resync()</text><polygon fill="#FFDEE3" points="263,1792.8113,572,1792.8113,584,1815.9793,572,1839.1473,263,1839.1473,251,1815.9793,263,1792.8113" style="stroke:#FF69B4;stroke-width:0.5;"/><text fill="#FFD700" font-family="Comic Sans MS" font-size="16" lengthAdjust="spacing" textLength="24" x="421.5" y="1857.7074">yes</text><text fill="#FF1493" font-family="Comic Sans MS" font-size="16" lengthAdjust="spacing" textLength="176" x="331" y="1811.3713">&#31526;&#21512;&#26465;&#20214;&#26102;&#36827;&#34892;&#37325;&#26032;&#21516;&#27493;</text><text fill="#FF1493" font-family="Comic Sans MS" font-size="16" lengthAdjust="spacing" textLength="305" x="267" y="1834.5393">r.ShouldResync == nil || r.ShouldResync()</text><text fill="#FFD700" font-family="Comic Sans MS" font-size="16" lengthAdjust="spacing" textLength="16" x="584" y="1811.3713">&#21542;</text><polygon fill="#FFDEE3" points="417.5,1935.6915,429.5,1947.6915,417.5,1959.6915,405.5,1947.6915,417.5,1935.6915" style="stroke:#FF69B4;stroke-width:0.5;"/><rect fill="#F0E8F5" height="54.7522" rx="12.5" ry="12.5" style="stroke:#181818;stroke-width:0.5;" width="159" x="338" y="1994.4193"/><text fill="#333333" font-family="Comic Sans MS" font-size="12" lengthAdjust="spacing" textLength="139" x="348" y="2018.3394">&#36864;&#20986;&#26102;&#20851;&#38381; resync &#23450;&#26102;&#22120;</text><text fill="#333333" font-family="Comic Sans MS" font-size="12" lengthAdjust="spacing" textLength="52" x="348" y="2035.7155">cleanup()</text><rect fill="#F0E8F5" height="37.3761" rx="12.5" ry="12.5" style="stroke:#181818;stroke-width:0.5;" width="217" x="309" y="2071.8199"/><text fill="#333333" font-family="Comic Sans MS" font-size="12" lengthAdjust="spacing" textLength="197" x="319" y="2095.74">resyncCh, cleanup = r.resyncChan()</text><polygon fill="#FFDEE3" points="423.5,2204.196,423.5,2204.196,435.5,2216.196,423.5,2228.196,423.5,2228.196,411.5,2216.196,423.5,2204.196" style="stroke:#FF69B4;stroke-width:0.5;"/><polygon fill="#FFDEE3" points="408,1677.6432,439,1677.6432,451,1689.6432,439,1701.6432,408,1701.6432,396,1689.6432,408,1677.6432" style="stroke:#FF69B4;stroke-width:0.5;"/><text fill="#FF1493" font-family="Comic Sans MS" font-size="16" lengthAdjust="spacing" textLength="31" x="408" y="1696.6192">true</text><rect fill="#F0E8F5" height="37.3761" rx="12.5" ry="12.5" style="stroke:#181818;stroke-width:0.5;" width="232" x="876" y="1395.2188"/><text fill="#333333" font-family="Comic Sans MS" font-size="12" lengthAdjust="spacing" textLength="212" x="886" y="1419.1389">return r.watch(w, stopCh, resyncerrc)</text><rect fill="#FFB6C1" height="887.6011" style="stroke:#DDA0DD;stroke-width:1.5;" width="674" x="655" y="1442.5949"/><path d="M715,1442.5949 L715,1455.8668 L705,1465.8668 L655,1465.8668 " fill="none" style="stroke:#DDA0DD;stroke-width:1.5;"/><text fill="#FF69B4" font-family="Comic Sans MS" font-size="14" lengthAdjust="spacing" textLength="50" x="658" y="1459.8348">watch()</text><rect fill="#F0E8F5" height="54.7522" rx="12.5" ry="12.5" style="stroke:#181818;stroke-width:0.5;" width="654" x="665" y="1482.8668"/><text fill="#333333" font-family="Comic Sans MS" font-size="12" lengthAdjust="spacing" textLength="286" x="822" y="1506.7869">&#37197;&#32622;&#24102;backoff(&#19979;&#27425;&#37325;&#35797;&#20250;&#31561;&#24453;)&#36864;&#36991;&#30340; rety &#37325;&#35797;&#23545;&#35937;.</text><text fill="#333333" font-family="Comic Sans MS" font-size="12" lengthAdjust="spacing" textLength="631" x="678" y="1524.163">retry := NewRetryWithDeadline(r.MaxInternalErrorRetryDuration, time.Minute, apierrors.IsInternalError, r.clock)</text><polygon fill="#FFDEE3" points="970,1615.8665,1014,1615.8665,1026,1627.8665,1014,1639.8665,970,1639.8665,958,1627.8665,970,1615.8665" style="stroke:#FF69B4;stroke-width:0.5;"/><text fill="#FF1493" font-family="Comic Sans MS" font-size="16" lengthAdjust="spacing" textLength="44" x="970" y="1634.8425">select</text><rect fill="#F0E8F5" height="37.3761" rx="12.5" ry="12.5" style="stroke:#181818;stroke-width:0.5;" width="72" x="697.5" y="1696.2026"/><text fill="#333333" font-family="Comic Sans MS" font-size="12" lengthAdjust="spacing" textLength="52" x="707.5" y="1720.1227">return nil</text><rect fill="#F0E8F5" height="54.7522" rx="12.5" ry="12.5" style="stroke:#181818;stroke-width:0.5;" width="465" x="821.5" y="1696.2026"/><text fill="#333333" font-family="Comic Sans MS" font-size="12" lengthAdjust="spacing" textLength="117" x="1002.5" y="1720.1227">&#36229;&#26102;&#26102;&#38388;&#26159;5&#65374;10&#20998;&#38047;</text><text fill="#333333" font-family="Comic Sans MS" font-size="12" lengthAdjust="spacing" textLength="445" x="831.5" y="1737.4988">timeoutSeconds := int64(r.minWatchTimeout.Seconds() * (rand.Float64() + 1.0))</text><rect fill="#F0E8F5" height="159.009" rx="12.5" ry="12.5" style="stroke:#181818;stroke-width:0.5;" width="419" x="844.5" y="1785.9548"/><text fill="#333333" font-family="Comic Sans MS" font-size="12" lengthAdjust="spacing" textLength="173" x="854.5" y="1809.8749">options := metav1.ListOptions{</text><text fill="#333333" font-family="Comic Sans MS" font-size="12" lengthAdjust="spacing" textLength="387" x="866.5" y="1827.251">&#19978;&#27425;&#30340; resource version, &#36825;&#26679;&#35746;&#38405;&#21040; apiserver &#21518;, &#21487;&#20197;&#25343;&#21040;&#22686;&#37327;&#30340;&#25968;&#25454;.</text><text fill="#333333" font-family="Comic Sans MS" font-size="12" lengthAdjust="spacing" textLength="266" x="866.5" y="1844.6271">ResourceVersion: r.LastSyncResourceVersion(),</text><text fill="#333333" font-family="Comic Sans MS" font-size="12" lengthAdjust="spacing" textLength="347" x="866.5" y="1862.0033">&#22914;&#26524;&#36229;&#26102;&#27809;&#26377;&#25509;&#25910;&#21040;&#20219;&#20309;Event,&#36825;&#37324;&#38656;&#35201;&#20572;&#27490;&#30417;&#21548;&#65292;&#36991;&#20813;&#19968;&#30452;&#38459;&#22622;</text><text fill="#333333" font-family="Comic Sans MS" font-size="12" lengthAdjust="spacing" textLength="203" x="866.5" y="1879.3794">TimeoutSeconds: &amp;timeoutSeconds,</text><text fill="#333333" font-family="Comic Sans MS" font-size="12" lengthAdjust="spacing" textLength="366" x="866.5" y="1896.7555">&#29992;&#20110;&#38477;&#20302;apiserver&#21387;&#21147;&#65292;bookmark&#31867;&#22411;&#21709;&#24212;&#30340;&#23545;&#35937;&#20027;&#35201;&#21482;&#26377;RV&#20449;&#24687;</text><text fill="#333333" font-family="Comic Sans MS" font-size="12" lengthAdjust="spacing" textLength="164" x="866.5" y="1914.1316">AllowWatchBookmarks: true,</text><text fill="#333333" font-family="Comic Sans MS" font-size="12" lengthAdjust="spacing" textLength="4" x="854.5" y="1931.5077">}</text><rect fill="#F0E8F5" height="72.1284" rx="12.5" ry="12.5" style="stroke:#181818;stroke-width:0.5;" width="321" x="893.5" y="1979.6915"/><text fill="#333333" font-family="Comic Sans MS" font-size="12" lengthAdjust="spacing" textLength="301" x="903.5" y="2003.6116">&#21019;&#24314;&#19968;&#20010;watcher&#30417;&#21548;&#23545;&#35937;, &#30417;&#21548;apiserver&#33719;&#21462;&#21464;&#26356;&#20107;&#20214;,</text><text fill="#333333" font-family="Comic Sans MS" font-size="12" lengthAdjust="spacing" textLength="232" x="939.5" y="2020.9877">&#25226;&#26032;&#22686;&#20107;&#20214;&#25172;&#21040; watch.ResultChan &#38431;&#21015;&#20013;.</text><text fill="#333333" font-family="Comic Sans MS" font-size="12" lengthAdjust="spacing" textLength="220" x="954.5" y="2038.3639">w, err = r.listerWatcher.Watch(options)</text><rect fill="#F0E8F5" height="72.1284" rx="12.5" ry="12.5" style="stroke:#181818;stroke-width:0.5;" width="463" x="822.5" y="2074.4683"/><text fill="#333333" font-family="Comic Sans MS" font-size="12" lengthAdjust="spacing" textLength="436" x="832.5" y="2098.3884">&#35843;&#29992; `watcherHandler` &#30417;&#21548;&#26032;&#22686;&#30340;&#20107;&#20214;, &#28982;&#21518;&#25226;&#26032;&#22686;&#21152;&#21040; DeltaFIFO &#22686;&#37327;&#38431;&#21015;&#37324;.</text><text fill="#333333" font-family="Comic Sans MS" font-size="12" lengthAdjust="spacing" textLength="424" x="832.5" y="2115.7645">err = handleWatch(start, w, r.store, r.expectedType, r.expectedGVK,r.name,</text><text fill="#333333" font-family="Comic Sans MS" font-size="12" lengthAdjust="spacing" textLength="431" x="844.5" y="2133.1406">r.typeDescription, r.setLastSyncResourceVersion,r.clock, resyncerrc, stopCh)</text><rect fill="#F0E8F5" height="37.3761" rx="12.5" ry="12.5" style="stroke:#181818;stroke-width:0.5;" width="104" x="1002" y="2166.5966"/><text fill="#333333" font-family="Comic Sans MS" font-size="12" lengthAdjust="spacing" textLength="84" x="1012" y="2190.5167">retry.After(err)</text><polygon fill="#FFDEE3" points="992,2272.196,992,2272.196,1004,2284.196,992,2296.196,992,2296.196,980,2284.196,992,2272.196" style="stroke:#FF69B4;stroke-width:0.5;"/><polygon fill="#FFDEE3" points="976.5,1567.8665,1007.5,1567.8665,1019.5,1579.8665,1007.5,1591.8665,976.5,1591.8665,964.5,1579.8665,976.5,1567.8665" style="stroke:#FF69B4;stroke-width:0.5;"/><text fill="#FF1493" font-family="Comic Sans MS" font-size="16" lengthAdjust="spacing" textLength="31" x="976.5" y="1586.8425">true</text><rect fill="#F0E8F5" height="6" rx="2.5" ry="2.5" style="stroke:#F0E8F5;stroke-width:1.0;" width="1136" x="205" y="2350.196"/><ellipse cx="773" cy="2399.196" fill="none" rx="11" ry="11" style="stroke:#222222;stroke-width:1.0;"/><ellipse cx="773" cy="2399.196" fill="#F0E8F5" rx="6" ry="6" style="stroke:#222222;stroke-width:1.0;"/><line style="stroke:#181818;stroke-width:1.0;" x1="773" x2="773" y1="71.2719" y2="91.2719"/><polygon fill="#181818" points="769,81.2719,773,91.2719,777,81.2719,773,85.2719" style="stroke:#181818;stroke-width:1.0;"/><line style="stroke:#181818;stroke-width:1.0;" x1="773" x2="773" y1="216.2961" y2="236.2961"/><polygon fill="#181818" points="769,226.2961,773,236.2961,777,226.2961,773,230.2961" style="stroke:#181818;stroke-width:1.0;"/><line style="stroke:#181818;stroke-width:1.0;" x1="773" x2="773" y1="308.4244" y2="328.4244"/><polygon fill="#181818" points="769,318.4244,773,328.4244,777,318.4244,773,322.4244" style="stroke:#181818;stroke-width:1.0;"/><line style="stroke:#181818;stroke-width:1.0;" x1="535.5" x2="535.5" y1="466.5528" y2="501.5528"/><polygon fill="#181818" points="531.5,491.5528,535.5,501.5528,539.5,491.5528,535.5,495.5528" style="stroke:#181818;stroke-width:1.0;"/><line style="stroke:#181818;stroke-width:1.0;" x1="535.5" x2="535.5" y1="591.0573" y2="617.2455"/><polygon fill="#181818" points="531.5,607.2455,535.5,617.2455,539.5,607.2455,535.5,611.2455" style="stroke:#181818;stroke-width:1.0;"/><line style="stroke:#181818;stroke-width:1.0;" x1="535.5" x2="535.5" y1="837.6701" y2="872.6701"/><polygon fill="#181818" points="531.5,862.6701,535.5,872.6701,539.5,862.6701,535.5,866.6701" style="stroke:#181818;stroke-width:1.0;"/><line style="stroke:#181818;stroke-width:1.0;" x1="535.5" x2="535.5" y1="753.3339" y2="782.9179"/><polygon fill="#181818" points="531.5,772.9179,535.5,782.9179,539.5,772.9179,535.5,776.9179" style="stroke:#181818;stroke-width:1.0;"/><line style="stroke:#181818;stroke-width:1.0;" x1="762.5" x2="774.5" y1="730.1658" y2="730.1658"/><polygon fill="#181818" points="770.5,839.5861,774.5,849.5861,778.5,839.5861,774.5,843.5861" style="stroke:#181818;stroke-width:1.0;"/><line style="stroke:#181818;stroke-width:1.0;" x1="774.5" x2="774.5" y1="730.1658" y2="967.0663"/><line style="stroke:#181818;stroke-width:1.0;" x1="774.5" x2="547.5" y1="967.0663" y2="967.0663"/><polygon fill="#181818" points="557.5,963.0663,547.5,967.0663,557.5,971.0663,553.5,967.0663" style="stroke:#181818;stroke-width:1.0;"/><line style="stroke:#181818;stroke-width:1.0;" x1="535.5" x2="535.5" y1="927.4224" y2="955.0663"/><polygon fill="#181818" points="531.5,945.0663,535.5,955.0663,539.5,945.0663,535.5,949.0663" style="stroke:#181818;stroke-width:1.0;"/><line style="stroke:#181818;stroke-width:1.0;" x1="535.5" x2="535.5" y1="671.9978" y2="706.9978"/><polygon fill="#181818" points="531.5,696.9978,535.5,706.9978,539.5,696.9978,535.5,700.9978" style="stroke:#181818;stroke-width:1.0;"/><line style="stroke:#181818;stroke-width:1.0;" x1="535.5" x2="535.5" y1="979.0663" y2="1014.0663"/><polygon fill="#181818" points="531.5,1004.0663,535.5,1014.0663,539.5,1004.0663,535.5,1008.0663" style="stroke:#181818;stroke-width:1.0;"/><line style="stroke:#181818;stroke-width:1.0;" x1="1076" x2="1076" y1="495.1168" y2="530.1168"/><polygon fill="#181818" points="1072,520.1168,1076,530.1168,1080,520.1168,1076,524.1168" style="stroke:#181818;stroke-width:1.0;"/><line style="stroke:#181818;stroke-width:1.0;" x1="1076" x2="1076" y1="584.869" y2="611.0573"/><polygon fill="#181818" points="1072,601.0573,1076,611.0573,1080,601.0573,1076,605.0573" style="stroke:#181818;stroke-width:1.0;"/><line style="stroke:#181818;stroke-width:1.0;" x1="1076" x2="1076" y1="648.4334" y2="683.4334"/><polygon fill="#181818" points="1072,673.4334,1076,683.4334,1080,673.4334,1076,677.4334" style="stroke:#181818;stroke-width:1.0;"/><line style="stroke:#181818;stroke-width:1.0;" x1="1076" x2="1076" y1="738.1856" y2="773.1856"/><polygon fill="#181818" points="1072,763.1856,1076,773.1856,1080,763.1856,1076,767.1856" style="stroke:#181818;stroke-width:1.0;"/><line style="stroke:#181818;stroke-width:1.0;" x1="1076" x2="1076" y1="827.9379" y2="862.9379"/><polygon fill="#181818" points="1072,852.9379,1076,862.9379,1080,852.9379,1076,856.9379" style="stroke:#181818;stroke-width:1.0;"/><line style="stroke:#181818;stroke-width:1.0;" x1="1076" x2="1076" y1="935.0663" y2="968.1261"/><polygon fill="#181818" points="1072,958.1261,1076,968.1261,1080,958.1261,1076,962.1261" style="stroke:#181818;stroke-width:1.0;"/><line style="stroke:#181818;stroke-width:1.0;" x1="535.5" x2="535.5" y1="409.1767" y2="429.1767"/><polygon fill="#181818" points="531.5,419.1767,535.5,429.1767,539.5,419.1767,535.5,423.1767" style="stroke:#181818;stroke-width:1.0;"/><line style="stroke:#181818;stroke-width:1.0;" x1="1076" x2="1076" y1="409.1767" y2="457.7407"/><polygon fill="#181818" points="1072,447.7407,1076,457.7407,1080,447.7407,1076,451.7407" style="stroke:#181818;stroke-width:1.0;"/><line style="stroke:#181818;stroke-width:1.0;" x1="535.5" x2="535.5" y1="1051.4424" y2="1071.4424"/><polygon fill="#181818" points="531.5,1061.4424,535.5,1071.4424,539.5,1061.4424,535.5,1065.4424" style="stroke:#181818;stroke-width:1.0;"/><line style="stroke:#181818;stroke-width:1.0;" x1="1076" x2="1076" y1="1022.8784" y2="1071.4424"/><polygon fill="#181818" points="1072,1061.4424,1076,1071.4424,1080,1061.4424,1076,1065.4424" style="stroke:#181818;stroke-width:1.0;"/><line style="stroke:#181818;stroke-width:1.0;" x1="773" x2="773" y1="383.1767" y2="403.1767"/><polygon fill="#181818" points="769,393.1767,773,403.1767,777,393.1767,773,397.1767" style="stroke:#181818;stroke-width:1.0;"/><line style="stroke:#181818;stroke-width:1.0;" x1="773" x2="773" y1="128.648" y2="178.9199"/><polygon fill="#181818" points="769,168.9199,773,178.9199,777,168.9199,773,172.9199" style="stroke:#181818;stroke-width:1.0;"/><line style="stroke:#181818;stroke-width:1.0;" x1="773" x2="773" y1="1077.4424" y2="1109.4424"/><polygon fill="#181818" points="769,1099.4424,773,1109.4424,777,1099.4424,773,1103.4424" style="stroke:#181818;stroke-width:1.0;"/><line style="stroke:#181818;stroke-width:1.0;" x1="773" x2="773" y1="1234.4665" y2="1254.4665"/><polygon fill="#181818" points="769,1244.4665,773,1254.4665,777,1244.4665,773,1248.4665" style="stroke:#181818;stroke-width:1.0;"/><line style="stroke:#181818;stroke-width:1.0;" x1="773" x2="773" y1="1291.8427" y2="1311.8427"/><polygon fill="#181818" points="769,1301.8427,773,1311.8427,777,1301.8427,773,1305.8427" style="stroke:#181818;stroke-width:1.0;"/><line style="stroke:#181818;stroke-width:1.0;" x1="417.5" x2="417.5" y1="1839.1473" y2="1868.7314"/><polygon fill="#181818" points="413.5,1858.7314,417.5,1868.7314,421.5,1858.7314,417.5,1862.7314" style="stroke:#181818;stroke-width:1.0;"/><line style="stroke:#181818;stroke-width:1.0;" x1="584" x2="596" y1="1815.9793" y2="1815.9793"/><polygon fill="#181818" points="592,1871.8354,596,1881.8354,600,1871.8354,596,1875.8354" style="stroke:#181818;stroke-width:1.0;"/><line style="stroke:#181818;stroke-width:1.0;" x1="596" x2="596" y1="1815.9793" y2="1947.6915"/><line style="stroke:#181818;stroke-width:1.0;" x1="596" x2="429.5" y1="1947.6915" y2="1947.6915"/><polygon fill="#181818" points="439.5,1943.6915,429.5,1947.6915,439.5,1951.6915,435.5,1947.6915" style="stroke:#181818;stroke-width:1.0;"/><line style="stroke:#181818;stroke-width:1.0;" x1="417.5" x2="417.5" y1="1906.1075" y2="1935.6915"/><polygon fill="#181818" points="413.5,1925.6915,417.5,1935.6915,421.5,1925.6915,417.5,1929.6915" style="stroke:#181818;stroke-width:1.0;"/><line style="stroke:#181818;stroke-width:1.0;" x1="417.5" x2="417.5" y1="1959.6915" y2="1994.4193"/><polygon fill="#181818" points="413.5,1984.4193,417.5,1994.4193,421.5,1984.4193,417.5,1988.4193" style="stroke:#181818;stroke-width:1.0;"/><line style="stroke:#181818;stroke-width:1.0;" x1="417.5" x2="417.5" y1="2049.1715" y2="2071.8199"/><polygon fill="#181818" points="413.5,2061.8199,417.5,2071.8199,421.5,2061.8199,417.5,2065.8199" style="stroke:#181818;stroke-width:1.0;"/><line style="stroke:#181818;stroke-width:1.0;" x1="417.5" x2="417.5" y1="1749.6432" y2="1792.8113"/><polygon fill="#181818" points="413.5,1782.8113,417.5,1792.8113,421.5,1782.8113,417.5,1786.8113" style="stroke:#181818;stroke-width:1.0;"/><text fill="#FFD700" font-family="Comic Sans MS" font-size="16" lengthAdjust="spacing" textLength="120" x="421.5" y="1778.2032">case &lt;-resyncCh</text><line style="stroke:#181818;stroke-width:1.0;" x1="423.5" x2="423.5" y1="2109.196" y2="2204.196"/><polygon fill="#181818" points="419.5,2194.196,423.5,2204.196,427.5,2194.196,423.5,2198.196" style="stroke:#181818;stroke-width:1.0;"/><line style="stroke:#181818;stroke-width:1.0;" x1="423.5" x2="423.5" y1="1701.6432" y2="1725.6432"/><polygon fill="#181818" points="419.5,1715.6432,423.5,1725.6432,427.5,1715.6432,423.5,1719.6432" style="stroke:#181818;stroke-width:1.0;"/><line style="stroke:#181818;stroke-width:1.0;" x1="423.5" x2="423.5" y1="2228.196" y2="2238.196"/><line style="stroke:#181818;stroke-width:1.0;" x1="423.5" x2="608" y1="2238.196" y2="2238.196"/><polygon fill="#181818" points="604,1988.4593,608,1978.4593,612,1988.4593,608,1984.4593" style="stroke:#181818;stroke-width:1.0;"/><line style="stroke:#181818;stroke-width:1.0;" x1="608" x2="608" y1="1689.6432" y2="2238.196"/><line style="stroke:#181818;stroke-width:1.0;" x1="608" x2="451" y1="1689.6432" y2="1689.6432"/><polygon fill="#181818" points="461,1685.6432,451,1689.6432,461,1693.6432,457,1689.6432" style="stroke:#181818;stroke-width:1.0;"/><line style="stroke:#181818;stroke-width:1.0;" x1="396" x2="239" y1="1689.6432" y2="1689.6432"/><polygon fill="#181818" points="235,1974.4593,239,1984.4593,243,1974.4593,239,1978.4593" style="stroke:#181818;stroke-width:1.0;"/><line style="stroke:#181818;stroke-width:1.0;" x1="239" x2="239" y1="1689.6432" y2="2250.196"/><line style="stroke:#181818;stroke-width:1.0;" x1="239" x2="423.5" y1="2250.196" y2="2250.196"/><line style="stroke:#181818;stroke-width:1.0;" x1="423.5" x2="423.5" y1="1642.6432" y2="1677.6432"/><polygon fill="#181818" points="419.5,1667.6432,423.5,1677.6432,427.5,1667.6432,423.5,1671.6432" style="stroke:#181818;stroke-width:1.0;"/><line style="stroke:#181818;stroke-width:1.0;" x1="423.5" x2="423.5" y1="1517.3716" y2="1587.891"/><polygon fill="#181818" points="419.5,1577.891,423.5,1587.891,427.5,1577.891,423.5,1581.891" style="stroke:#181818;stroke-width:1.0;"/><line style="stroke:#181818;stroke-width:1.0;" x1="1054" x2="1054" y1="1750.9548" y2="1785.9548"/><polygon fill="#181818" points="1050,1775.9548,1054,1785.9548,1058,1775.9548,1054,1779.9548" style="stroke:#181818;stroke-width:1.0;"/><line style="stroke:#181818;stroke-width:1.0;" x1="1054" x2="1054" y1="1944.9638" y2="1979.6915"/><polygon fill="#181818" points="1050,1969.6915,1054,1979.6915,1058,1969.6915,1054,1973.6915" style="stroke:#181818;stroke-width:1.0;"/><line style="stroke:#181818;stroke-width:1.0;" x1="1054" x2="1054" y1="2051.8199" y2="2074.4683"/><polygon fill="#181818" points="1050,2064.4683,1054,2074.4683,1058,2064.4683,1054,2068.4683" style="stroke:#181818;stroke-width:1.0;"/><line style="stroke:#181818;stroke-width:1.0;" x1="1054" x2="1054" y1="2146.5966" y2="2166.5966"/><polygon fill="#181818" points="1050,2156.5966,1054,2166.5966,1058,2156.5966,1054,2160.5966" style="stroke:#181818;stroke-width:1.0;"/><line style="stroke:#181818;stroke-width:1.0;" x1="958" x2="733.5" y1="1627.8665" y2="1627.8665"/><line style="stroke:#181818;stroke-width:1.0;" x1="733.5" x2="733.5" y1="1627.8665" y2="1696.2026"/><polygon fill="#181818" points="729.5,1686.2026,733.5,1696.2026,737.5,1686.2026,733.5,1690.2026" style="stroke:#181818;stroke-width:1.0;"/><text fill="#FFD700" font-family="Comic Sans MS" font-size="16" lengthAdjust="spacing" textLength="68" x="733.5" y="1669.0105">&lt;-stopCh</text><line style="stroke:#181818;stroke-width:1.0;" x1="1026" x2="1054" y1="1627.8665" y2="1627.8665"/><line style="stroke:#181818;stroke-width:1.0;" x1="1054" x2="1054" y1="1627.8665" y2="1696.2026"/><polygon fill="#181818" points="1050,1686.2026,1054,1696.2026,1058,1686.2026,1054,1690.2026" style="stroke:#181818;stroke-width:1.0;"/><text fill="#FFD700" font-family="Comic Sans MS" font-size="16" lengthAdjust="spacing" textLength="54" x="1054" y="1669.0105">default</text><line style="stroke:#181818;stroke-width:1.0;" x1="733.5" x2="733.5" y1="1733.5787" y2="2284.196"/><line style="stroke:#181818;stroke-width:1.0;" x1="733.5" x2="980" y1="2284.196" y2="2284.196"/><polygon fill="#181818" points="970,2280.196,980,2284.196,970,2288.196,974,2284.196" style="stroke:#181818;stroke-width:1.0;"/><line style="stroke:#181818;stroke-width:1.0;" x1="1054" x2="1054" y1="2203.9727" y2="2284.196"/><line style="stroke:#181818;stroke-width:1.0;" x1="1054" x2="1004" y1="2284.196" y2="2284.196"/><polygon fill="#181818" points="1014,2280.196,1004,2284.196,1014,2288.196,1010,2284.196" style="stroke:#181818;stroke-width:1.0;"/><line style="stroke:#181818;stroke-width:1.0;" x1="992" x2="992" y1="1591.8665" y2="1615.8665"/><polygon fill="#181818" points="988,1605.8665,992,1615.8665,996,1605.8665,992,1609.8665" style="stroke:#181818;stroke-width:1.0;"/><line style="stroke:#181818;stroke-width:1.0;" x1="992" x2="992" y1="2296.196" y2="2306.196"/><line style="stroke:#181818;stroke-width:1.0;" x1="992" x2="1298.5" y1="2306.196" y2="2306.196"/><polygon fill="#181818" points="1294.5,1988.4593,1298.5,1978.4593,1302.5,1988.4593,1298.5,1984.4593" style="stroke:#181818;stroke-width:1.0;"/><line style="stroke:#181818;stroke-width:1.0;" x1="1298.5" x2="1298.5" y1="1579.8665" y2="2306.196"/><line style="stroke:#181818;stroke-width:1.0;" x1="1298.5" x2="1019.5" y1="1579.8665" y2="1579.8665"/><polygon fill="#181818" points="1029.5,1575.8665,1019.5,1579.8665,1029.5,1583.8665,1025.5,1579.8665" style="stroke:#181818;stroke-width:1.0;"/><line style="stroke:#181818;stroke-width:1.0;" x1="964.5" x2="685.5" y1="1579.8665" y2="1579.8665"/><polygon fill="#181818" points="681.5,1974.4593,685.5,1984.4593,689.5,1974.4593,685.5,1978.4593" style="stroke:#181818;stroke-width:1.0;"/><line style="stroke:#181818;stroke-width:1.0;" x1="685.5" x2="685.5" y1="1579.8665" y2="2318.196"/><line style="stroke:#181818;stroke-width:1.0;" x1="685.5" x2="992" y1="2318.196" y2="2318.196"/><line style="stroke:#181818;stroke-width:1.0;" x1="992" x2="992" y1="2318.196" y2="2350.196"/><polygon fill="#181818" points="988,2340.196,992,2350.196,996,2340.196,992,2344.196" style="stroke:#181818;stroke-width:1.0;"/><line style="stroke:#181818;stroke-width:1.0;" x1="992" x2="992" y1="1537.619" y2="1567.8665"/><polygon fill="#181818" points="988,1557.8665,992,1567.8665,996,1557.8665,992,1561.8665" style="stroke:#181818;stroke-width:1.0;"/><line style="stroke:#181818;stroke-width:1.0;" x1="992" x2="992" y1="1432.5949" y2="1482.8668"/><polygon fill="#181818" points="988,1472.8668,992,1482.8668,996,1472.8668,992,1476.8668" style="stroke:#181818;stroke-width:1.0;"/><line style="stroke:#181818;stroke-width:1.0;" x1="423.5" x2="423.5" y1="1375.2188" y2="1479.9955"/><polygon fill="#181818" points="419.5,1469.9955,423.5,1479.9955,427.5,1469.9955,423.5,1473.9955" style="stroke:#181818;stroke-width:1.0;"/><line style="stroke:#181818;stroke-width:1.0;" x1="992" x2="992" y1="1375.2188" y2="1395.2188"/><polygon fill="#181818" points="988,1385.2188,992,1395.2188,996,1385.2188,992,1389.2188" style="stroke:#181818;stroke-width:1.0;"/><line style="stroke:#181818;stroke-width:1.0;" x1="773" x2="773" y1="1349.2188" y2="1369.2188"/><polygon fill="#181818" points="769,1359.2188,773,1369.2188,777,1359.2188,773,1363.2188" style="stroke:#181818;stroke-width:1.0;"/><line style="stroke:#181818;stroke-width:1.0;" x1="773" x2="773" y1="1146.8185" y2="1197.0904"/><polygon fill="#181818" points="769,1187.0904,773,1197.0904,777,1187.0904,773,1191.0904" style="stroke:#181818;stroke-width:1.0;"/><line style="stroke:#181818;stroke-width:1.0;" x1="773" x2="773" y1="2356.196" y2="2388.196"/><polygon fill="#181818" points="769,2378.196,773,2388.196,777,2378.196,773,2382.196" style="stroke:#181818;stroke-width:1.0;"/><!--SRC=[jLZjSnF76VzS_HKxTAOzjSeXWt4I0PsnBIbb0Y63AVcI3rbEQ_lgqvrcxsJZ4cPCYh7n6qvviurhOXgSJ0f-AM24XV4_epsTFkLVwBEx9rbtqeaqQGGpbdUVVTvVVezFsSwuGVuKmvgZZ-hEU5h7GnJdqTKOWayVraQ6g5KqS_sMOL7qssmoyq7sXBopQ8xG-dcsFzdV9ywpbkdufyUF7sySVOBp1FLRULr30zYqqRc1sBLOBAVZl6Nc8iLbqvcCv75MDqdZjEV3lkwmi6osg_l3ZlBgLmFwtmZgwk7oCQNMc2yzm2lzVZBvF_8gOEheZcwPFh-0njqdclWTsd6y-trnUa4QJKr2qR5ab3CotPakBicq7DAgT18-sMnOz0Uzn_eonzfppFHaUhAz8WwMLimJquaCn8diYNG_f-J7XNOUQyIaINWwtPjCfwFCwUlfv-QSEkhd87ZF8F3STdhDt6VOqORPvbfrOJiMiqTq4zmBUTaFsIASd35p0_mPybC8Y1m8GEptN5YAgcFyFUUbs8vLw1-EdvHNKl-MMtaftevYYYYnhIBLo2L2RHvHsw6wEGGi91s1b1MCOhuq8o3eK0u_Z_qapWqYjdy7-67R6HWtjGj1waffxyWHzy6kTx1ScvfpbxQE98yau45b_w1wz_l8P-pR7U_54tZNaF8RoK7mIx2vFJRzRyxjIENDIlNX2tVXYRVrojtvYarl4qVB_VXcpbjunMxVhvGcAgKVtFlRrPKRrLlJxkfJVZKn1sfucmUr1vjm3dmqh0sJGrbMWGVCHgdJA4ySFDgbSi-VbwTNGxgc45KfuNuBNIZnQqrUyZRVLlStmGhGX-sikHFViSK5KAPIcWKbtQVhd0DOKoalS0igfMVIWWO7gjh4EMEVRU-nlvXu5Ei6lcmGnQ550a5jl1oqw4ZZ5w7Ca8K6YwQcnD5LTFGekpd9Niv9Lx6fVVVUjdIsxzZjlqEeJWOPVEu4_o4PKEHObd6qW8UWArJBDxn_JRBfcxNrbxM9ilVswm0BIGGU5b_KJyYO8hyDwFc2GJw5xrckej0J0cAt2KKSARHeEdgUgESl_vLeJW8Hw8yqxfTxyuSIfqXD93EVK56j84sK56SV3xou5czsO5kJPNZ0MUxyPe2I2qXmitGJEoG7WIeQKZDKjvPB_KntXdiDmz8K3ReIkUAeXnr7YIUGduHXFVH1f82_sSPNxjggTp3bhZvof-zx4vELqZnRd7QVtsjKxAXViMnwsJjuwAtFrQRclQrxw7CJwNRcIa6d99VX_b90jpZwyaiulcXPPp4T8g7qEYIB0n5Ie6RYo1acPiZFu2NqYpFzP-PxI9F_JnX2N7zPEmWfIGoR88KjRWHp3tgrFXZCFSsmRA9mfersNIziX8Um7Wn32fnh4mFg0LtLCCWuzPvycegiOf6qxlGYctaK-tb16CHWJSX04ODpuB8pu5awY3KY_U_tLU76NaqZjWt9nMdZ4GeY95C49WUxDU-kJZHtzA32eMbr6hNee7v4McFJLZ3ozf-wyuzbZLVBTzor6y5QT4ZU3fgKkU9GWAR1p6fl6cBRD_aDp2omHV1oNvNPp3Tm09EP4gWCFgraBrwv8SzUFsBREr1-QM8uE7icUnv80fmR59APREiyUEB5nV424RKu3xsZmJhaDJRnXhtUTV-pxgxU0aHJMvw4tWvQ1UJuBlADXqG14TnanVTAY6U4XrsOCVUtmyIjEHYHWKgq50vv6fClZ7_gmq30Agury0NkobW2jG55OIfPhnpKfX2xlLKfF_5UFGT_WbUhgxFWtbfvoTlybZlvvQ7JG2f_3GxJHBhW4Q9emzYKCok1kfgKJsaOA8t-uI0bOA-YvbnjRYIf71c4GIexHFrLg4Uq37zmASUUlZdIuWIglnQnypKDXKtwe_bnl6NIfceJAwnKelpwKq9r2rhyNZ81te2-v7stKPtPalpTE_EL_TKsavfV2eKCWasG9_AhVenRgfL_nePrWDPo5BHSyeyzfaCG5TaNsvFmNgdu3RCkhJtbuI265Au-tU23zv_hbVAkWBh-g8MyPejpxhCdVE02hXcsYaPEUWsTFerCtU0ZDtYX-FDrdDXjvsl0ppoAq1BK-jEJaSHyqhGEciv39nJI2JQr1zQnoUUr1y_y626skSBFbh-FVEc7i9DogTQ0lplUliuogh4sDo8XmdErgGVKFoEwORnpe0RxnM6NU6UbIFesDH80pxN9UK1ChBHn6Q27DJYe05G2d2JX6jzmdjrYRoVZ48JQzGDernpCZYDvpRPUUplhQgk3W8QEyz81Q7s1V-SDB4rmpe1rLw7gENn5Z4GJ6mBT2PfqaM8EQn98eEfpkbbqO6ZZWYwQbAsUiGEFm04gj1vjvDSioLFlrNVU3Yaa0WGrTJAQ3tHA31Ym0vlGKkFjJa9wm__QWnSmK4_ykB_MbUGRpJyUHVBWVhEApW01E9aJAwHkEZtTuF2yRegjuwAaK7qIMCB-07iCDdDgrh0mfusZFw8kDHdlL3ITTzGERGCGGca6ialcaPoUo5yL4WWWWVlDAs_pSMq9ThTj7dcRKBX60E8J_hHpPm_WZZrUgqtTvWkqm4TgHvbjK7BKI6y1tS6Fl_d8q0Y80akgUtSNDAgKovNzUvbHOZe9YMrggnFUndLsVTLzzhZwy6ksoFT_A28sEG_021RSsbAPhQzr57Wn4D4K-bqmn9sr1U1KsLkeBSEaMsZuaYtCifc7eCbbonh9OpfItIcpjLbsPvxjtGM7ofgkbCfSzzi_W8aNBbKErjthMnrbSR0v9bAip-SBslBoYrRnMeSCOzCFMNbFuiSnkIvB5qhr4aZ-rh3AX-Ytbm3JLVPcOHf6o-MG7Y5tPeOFoSThajozTPUdd92bodsDjtzKMth4fXy06bOxy0EEO_NjBhpaYv_AuK8TQRByMmVwmZVtpr2K1g5V-9PANI4-ldMeUcCNgg9XXOJkg87CaQmGgJuaOxJwKkrX8KugAo1MWflaJtd-XLmfGASaEGxYct__wDB72QgQE4yw9oDL7NYP9hP6zO9iyvt0TSBlxSrJBeIFeven7LTx1o42uay6lzBqZW3uNB__0W00]--></g></svg>