<?xml version="1.0" encoding="us-ascii" standalone="no"?><svg xmlns="http://www.w3.org/2000/svg" xmlns:xlink="http://www.w3.org/1999/xlink" contentStyleType="text/css" height="559px" preserveAspectRatio="none" style="width:689px;height:559px;background:#F5F5DC;" version="1.1" viewBox="0 0 689 559" width="689px" zoomAndPan="magnify"><defs/><g><rect fill="#F5F5DC" height="559" style="stroke:none;stroke-width:1.0;" width="689" x="0" y="0"/><text fill="#000000" font-family="sans-serif" font-size="14" font-weight="bold" lengthAdjust="spacing" textLength="157" x="264.75" y="36.2399">Queue.Add()&#26041;&#27861;&#30340;&#23454;&#29616;</text><ellipse cx="201.5" cy="61.2719" fill="#F0E8F5" rx="10" ry="10" style="stroke:#222222;stroke-width:1.0;"/><rect fill="#FFB6C1" height="425.5369" style="stroke:#DDA0DD;stroke-width:1.5;" width="667.5" x="11" y="81.2719"/><path d="M58,81.2719 L58,94.5438 L48,104.5438 L11,104.5438 " fill="none" style="stroke:#DDA0DD;stroke-width:1.5;"/><text fill="#FF69B4" font-family="Comic Sans MS" font-size="14" lengthAdjust="spacing" textLength="37" x="14" y="98.5118">Add()</text><polygon fill="#FFDEE3" points="121.5,121.5438,281.5,121.5438,293.5,144.7119,281.5,167.8799,121.5,167.8799,109.5,144.7119,121.5,121.5438" style="stroke:#FF69B4;stroke-width:0.5;"/><text fill="#FF1493" font-family="Comic Sans MS" font-size="16" lengthAdjust="spacing" textLength="160" x="121.5" y="140.1039">&#22914;&#26524;queue&#27491;&#22312;&#34987;&#20851;&#38381;</text><text fill="#FF1493" font-family="Comic Sans MS" font-size="16" lengthAdjust="spacing" textLength="120" x="153.5" y="163.2719">q.shuttingDown</text><text fill="#FFD700" font-family="Comic Sans MS" font-size="16" lengthAdjust="spacing" textLength="16" x="93.5" y="140.1039">&#26159;</text><text fill="#FFD700" font-family="Comic Sans MS" font-size="16" lengthAdjust="spacing" textLength="16" x="293.5" y="140.1039">&#21542;</text><rect fill="#F0E8F5" height="37.3761" rx="12.5" ry="12.5" style="stroke:#181818;stroke-width:0.5;" width="92" x="23" y="177.8799"/><text fill="#333333" font-family="Comic Sans MS" font-size="12" lengthAdjust="spacing" textLength="72" x="33" y="201.8">&#21017;&#36820;&#22238;return</text><polygon fill="#FFDEE3" points="213,177.8799,455,177.8799,467,201.048,455,224.216,213,224.216,201,201.048,213,177.8799" style="stroke:#FF69B4;stroke-width:0.5;"/><text fill="#FF1493" font-family="Comic Sans MS" font-size="16" lengthAdjust="spacing" textLength="242" x="213" y="196.44">&#22914;&#26524;&#35813;&#20803;&#32032;&#24050;&#32463;&#23384;&#22312;&#20110;dirty&#38598;&#21512;&#20013;</text><text fill="#FF1493" font-family="Comic Sans MS" font-size="16" lengthAdjust="spacing" textLength="122" x="309" y="219.608">q.dirty.has(item)</text><text fill="#FFD700" font-family="Comic Sans MS" font-size="16" lengthAdjust="spacing" textLength="16" x="185" y="196.44">&#26159;</text><text fill="#FFD700" font-family="Comic Sans MS" font-size="16" lengthAdjust="spacing" textLength="16" x="467" y="196.44">&#21542;</text><rect fill="#F0E8F5" height="37.3761" rx="12.5" ry="12.5" style="stroke:#181818;stroke-width:0.5;" width="92" x="145" y="234.216"/><text fill="#333333" font-family="Comic Sans MS" font-size="12" lengthAdjust="spacing" textLength="72" x="155" y="258.1361">&#21017;&#36820;&#22238;return</text><rect fill="#F0E8F5" height="54.7522" rx="12.5" ry="12.5" style="stroke:#181818;stroke-width:0.5;" width="126" x="414" y="234.216"/><text fill="#333333" font-family="Comic Sans MS" font-size="12" lengthAdjust="spacing" textLength="95" x="424" y="258.1361">&#28155;&#21152;&#21040;dirty set&#20013;</text><text fill="#333333" font-family="Comic Sans MS" font-size="12" lengthAdjust="spacing" textLength="106" x="424" y="275.5122">q.dirty.insert(item)</text><polygon fill="#FFDEE3" points="393,308.9683,561,308.9683,573,332.1363,561,355.3043,393,355.3043,381,332.1363,393,308.9683" style="stroke:#FF69B4;stroke-width:0.5;"/><text fill="#FF1493" font-family="Comic Sans MS" font-size="16" lengthAdjust="spacing" textLength="168" x="393" y="327.5283">q.processing.has(item)</text><text fill="#FF1493" font-family="Comic Sans MS" font-size="16" lengthAdjust="spacing" textLength="96" x="441" y="350.6963">&#22914;&#26524;&#27491;&#22312;&#22788;&#29702;</text><text fill="#FFD700" font-family="Comic Sans MS" font-size="16" lengthAdjust="spacing" textLength="16" x="365" y="327.5283">&#26159;</text><text fill="#FFD700" font-family="Comic Sans MS" font-size="16" lengthAdjust="spacing" textLength="16" x="573" y="327.5283">&#21542;</text><rect fill="#F0E8F5" height="37.3761" rx="12.5" ry="12.5" style="stroke:#181818;stroke-width:0.5;" width="92" x="325" y="365.3043"/><text fill="#333333" font-family="Comic Sans MS" font-size="12" lengthAdjust="spacing" textLength="72" x="335" y="389.2244">&#21017;&#36820;&#22238;return</text><rect fill="#F0E8F5" height="54.7522" rx="12.5" ry="12.5" style="stroke:#181818;stroke-width:0.5;" width="133" x="516.5" y="365.3043"/><text fill="#333333" font-family="Comic Sans MS" font-size="12" lengthAdjust="spacing" textLength="108" x="526.5" y="389.2244">&#21017;&#28155;&#21152;&#21040;q.queue&#20013;;</text><text fill="#333333" font-family="Comic Sans MS" font-size="12" lengthAdjust="spacing" textLength="110" x="529.5" y="406.6006">q.queue.Push(item)</text><rect fill="#F0E8F5" height="54.7522" rx="12.5" ry="12.5" style="stroke:#181818;stroke-width:0.5;" width="167" x="499.5" y="440.0566"/><text fill="#333333" font-family="Comic Sans MS" font-size="12" lengthAdjust="spacing" textLength="144" x="509.5" y="463.9767">&#36890;&#30693;getter&#26377;&#26032;&#30340;&#20803;&#32032;&#21040;&#26469;</text><text fill="#333333" font-family="Comic Sans MS" font-size="12" lengthAdjust="spacing" textLength="82" x="542.5" y="481.3528">q.cond.Signal()</text><ellipse cx="201.5" cy="537.8088" fill="none" rx="11" ry="11" style="stroke:#222222;stroke-width:1.0;"/><ellipse cx="201.5" cy="537.8088" fill="#F0E8F5" rx="6" ry="6" style="stroke:#222222;stroke-width:1.0;"/><line style="stroke:#181818;stroke-width:1.0;" x1="583" x2="583" y1="420.0566" y2="440.0566"/><polygon fill="#181818" points="579,430.0566,583,440.0566,587,430.0566,583,434.0566" style="stroke:#181818;stroke-width:1.0;"/><line style="stroke:#181818;stroke-width:1.0;" x1="381" x2="371" y1="332.1363" y2="332.1363"/><line style="stroke:#181818;stroke-width:1.0;" x1="371" x2="371" y1="332.1363" y2="365.3043"/><polygon fill="#181818" points="367,355.3043,371,365.3043,375,355.3043,371,359.3043" style="stroke:#181818;stroke-width:1.0;"/><line style="stroke:#181818;stroke-width:1.0;" x1="573" x2="583" y1="332.1363" y2="332.1363"/><line style="stroke:#181818;stroke-width:1.0;" x1="583" x2="583" y1="332.1363" y2="365.3043"/><polygon fill="#181818" points="579,355.3043,583,365.3043,587,355.3043,583,359.3043" style="stroke:#181818;stroke-width:1.0;"/><line style="stroke:#181818;stroke-width:1.0;" x1="583" x2="583" y1="494.8088" y2="499.8088"/><line style="stroke:#181818;stroke-width:1.0;" x1="583" x2="201.5" y1="499.8088" y2="499.8088"/><line style="stroke:#181818;stroke-width:1.0;" x1="201.5" x2="201.5" y1="499.8088" y2="526.8088"/><polygon fill="#181818" points="197.5,516.8088,201.5,526.8088,205.5,516.8088,201.5,520.8088" style="stroke:#181818;stroke-width:1.0;"/><line style="stroke:#181818;stroke-width:1.0;" x1="477" x2="477" y1="288.9683" y2="308.9683"/><polygon fill="#181818" points="473,298.9683,477,308.9683,481,298.9683,477,302.9683" style="stroke:#181818;stroke-width:1.0;"/><line style="stroke:#181818;stroke-width:1.0;" x1="201" x2="191" y1="201.048" y2="201.048"/><line style="stroke:#181818;stroke-width:1.0;" x1="191" x2="191" y1="201.048" y2="234.216"/><polygon fill="#181818" points="187,224.216,191,234.216,195,224.216,191,228.216" style="stroke:#181818;stroke-width:1.0;"/><line style="stroke:#181818;stroke-width:1.0;" x1="467" x2="477" y1="201.048" y2="201.048"/><line style="stroke:#181818;stroke-width:1.0;" x1="477" x2="477" y1="201.048" y2="234.216"/><polygon fill="#181818" points="473,224.216,477,234.216,481,224.216,477,228.216" style="stroke:#181818;stroke-width:1.0;"/><line style="stroke:#181818;stroke-width:1.0;" x1="109.5" x2="69" y1="144.7119" y2="144.7119"/><line style="stroke:#181818;stroke-width:1.0;" x1="69" x2="69" y1="144.7119" y2="177.8799"/><polygon fill="#181818" points="65,167.8799,69,177.8799,73,167.8799,69,171.8799" style="stroke:#181818;stroke-width:1.0;"/><line style="stroke:#181818;stroke-width:1.0;" x1="293.5" x2="334" y1="144.7119" y2="144.7119"/><line style="stroke:#181818;stroke-width:1.0;" x1="334" x2="334" y1="144.7119" y2="177.8799"/><polygon fill="#181818" points="330,167.8799,334,177.8799,338,167.8799,334,171.8799" style="stroke:#181818;stroke-width:1.0;"/><line style="stroke:#181818;stroke-width:1.0;" x1="201.5" x2="201.5" y1="71.2719" y2="121.5438"/><polygon fill="#181818" points="197.5,111.5438,201.5,121.5438,205.5,111.5438,201.5,115.5438" style="stroke:#181818;stroke-width:1.0;"/><!--SRC=[bL9DJnD16BxFhvZ4ItjP5_e1235fz-EaHksrbqrtQ2TiPzhPMGaQ4wD0gWVae8Y0I5I8YK4QCK7bu9zXjl0ld9tTRYcs9hwRR7RVtNa-tlUPy_cIXsu2fyRn0yoNJEpKcTE4Zm2KLNPg2tL60-8QrACCNhDrQzeknDyeSn7hzsr3DyggRrF2asukbqjRTvmcWWPjuXgiECI7jolWCG0kTfgKk6FfRDEoOenRcA2qMvmfvw-IsVP4VkQVVFrF5VmGmObYnEymHXSJzY4iSqhN_nEhvJ2EEQOamHjId2zSmXluoEMdLFT-R9eHnE2aFcuOLjwQY9W8vUXlqReisxvAFLsQB5kJen6jebMqIseFj1Oq4U5Z5r6m2wOH_HcrMwCcbkxa4hbfbdJJ76UdN3GYEtFNampAwNa8tWjGWBIIwsQouSRFyFXrRsjPVDtjhNK1y1SmaMEM-JHaQjImBU9MekCmYHBmkTn38bEX03mFC-BWQRYxquwmmyEFOkVp-OSlOkNuuirXbLHvM_CR0UUOr4swIBAGDn21cN3pA0lW3T5vU_xxbTZUPOW7ZCm2k80z3o3FHncnVf1LzWOSvqVxOkLPx_kUEFdMEtqf3ZSbszclDHSpldInlIhMEsS_56jqjJNLrngEdy4SDRCnUS8jQmIzBAKWUXXMeGw49wVYnPxeT1Koz15NV7qcJ7p4U4mscvwAzBUr5gCrvFjo3WD1aTBeZzXTF3pnQRctlfeTLfeA6AcuNwdoqUhx0Ac9jgQM9YtCmYg1oQjsD_0RLpseinTFjdhlz-k8SyJ2dUVXHZVAJxoGJZTyjmyJGssj9kEYLN2TE5xc4WoIoPe7WwVq3bMePC1e2_m1]--></g></svg>