<?xml version="1.0" encoding="us-ascii" standalone="no"?><svg xmlns="http://www.w3.org/2000/svg" xmlns:xlink="http://www.w3.org/1999/xlink" contentStyleType="text/css" height="500px" preserveAspectRatio="none" style="width:635px;height:500px;background:#F5F5DC;" version="1.1" viewBox="0 0 635 500" width="635px" zoomAndPan="magnify"><defs/><g><rect fill="#F5F5DC" height="500" style="stroke:none;stroke-width:1.0;" width="635" x="0" y="0"/><text fill="#000000" font-family="sans-serif" font-size="14" font-weight="bold" lengthAdjust="spacing" textLength="166" x="233" y="36.2399">Queue.Done()&#26041;&#27861;&#30340;&#23454;&#29616;</text><ellipse cx="324.5" cy="61.2719" fill="#F0E8F5" rx="10" ry="10" style="stroke:#222222;stroke-width:1.0;"/><rect fill="#FFB6C1" height="366.0328" style="stroke:#DDA0DD;stroke-width:1.5;" width="613" x="11" y="81.2719"/><path d="M66,81.2719 L66,94.5438 L56,104.5438 L11,104.5438 " fill="none" style="stroke:#DDA0DD;stroke-width:1.5;"/><text fill="#FF69B4" font-family="Comic Sans MS" font-size="14" lengthAdjust="spacing" textLength="45" x="14" y="98.5118">Done()</text><rect fill="#F0E8F5" height="54.7522" rx="12.5" ry="12.5" style="stroke:#181818;stroke-width:0.5;" width="189" x="230" y="121.5438"/><text fill="#333333" font-family="Comic Sans MS" font-size="12" lengthAdjust="spacing" textLength="169" x="240" y="145.4639">&#22312;processing&#38598;&#21512;&#20013;&#21024;&#38500;&#35813;&#20803;&#32032;</text><text fill="#333333" font-family="Comic Sans MS" font-size="12" lengthAdjust="spacing" textLength="144" x="255" y="162.84">q.processing.delete(item)</text><polygon fill="#FFDEE3" points="33,196.2961,339,196.2961,351,219.4641,339,242.6322,33,242.6322,21,219.4641,33,196.2961" style="stroke:#FF69B4;stroke-width:0.5;"/><text fill="#FFD700" font-family="Comic Sans MS" font-size="16" lengthAdjust="spacing" textLength="16" x="190" y="261.1922">&#26159;</text><text fill="#FF1493" font-family="Comic Sans MS" font-size="16" lengthAdjust="spacing" textLength="306" x="33" y="214.8561">&#22914;&#26524;dirty&#20013;&#36824;&#26377;&#65292;&#21017;&#35828;&#26126;&#36824;&#38656;&#35201;&#20877;&#27425;&#22788;&#29702;&#65292;</text><text fill="#FF1493" font-family="Comic Sans MS" font-size="16" lengthAdjust="spacing" textLength="249" x="65" y="238.0242">&#25918;&#21040;q.queue&#20013; if q.dirty.has(item)</text><rect fill="#F0E8F5" height="54.7522" rx="12.5" ry="12.5" style="stroke:#181818;stroke-width:0.5;" width="130" x="121" y="285.8002"/><text fill="#333333" font-family="Comic Sans MS" font-size="12" lengthAdjust="spacing" textLength="81" x="143" y="309.7203">&#25918;&#21040;q.queue&#20013;</text><text fill="#333333" font-family="Comic Sans MS" font-size="12" lengthAdjust="spacing" textLength="110" x="131" y="327.0964">q.queue.Push(item)</text><rect fill="#F0E8F5" height="54.7522" rx="12.5" ry="12.5" style="stroke:#181818;stroke-width:0.5;" width="140" x="116" y="360.5525"/><text fill="#333333" font-family="Comic Sans MS" font-size="12" lengthAdjust="spacing" textLength="120" x="126" y="384.4725">&#36890;&#30693;getter&#26377;&#26032;&#30340;&#20803;&#32032;</text><text fill="#333333" font-family="Comic Sans MS" font-size="12" lengthAdjust="spacing" textLength="82" x="150" y="401.8487">q.cond.Signal()</text><polygon fill="#FFDEE3" points="399,207.4641,566,207.4641,578,219.4641,566,231.4641,399,231.4641,387,219.4641,399,207.4641" style="stroke:#FF69B4;stroke-width:0.5;"/><text fill="#FFD700" font-family="Comic Sans MS" font-size="16" lengthAdjust="spacing" textLength="16" x="486.5" y="250.0242">&#26159;</text><text fill="#FF1493" font-family="Comic Sans MS" font-size="16" lengthAdjust="spacing" textLength="167" x="399" y="226.4401">q.processing.len() == 0</text><text fill="#FFD700" font-family="Comic Sans MS" font-size="16" lengthAdjust="spacing" textLength="16" x="371" y="214.8561">&#21542;</text><text fill="#FFD700" font-family="Comic Sans MS" font-size="16" lengthAdjust="spacing" textLength="16" x="578" y="214.8561">&#21542;</text><rect fill="#F0E8F5" height="54.7522" rx="12.5" ry="12.5" style="stroke:#181818;stroke-width:0.5;" width="140" x="412.5" y="274.6322"/><text fill="#333333" font-family="Comic Sans MS" font-size="12" lengthAdjust="spacing" textLength="120" x="422.5" y="298.5523">&#36890;&#30693;getter&#26377;&#26032;&#30340;&#20803;&#32032;</text><text fill="#333333" font-family="Comic Sans MS" font-size="12" lengthAdjust="spacing" textLength="82" x="446.5" y="315.9284">q.cond.Signal()</text><ellipse cx="324.5" cy="478.3047" fill="none" rx="11" ry="11" style="stroke:#222222;stroke-width:1.0;"/><ellipse cx="324.5" cy="478.3047" fill="#F0E8F5" rx="6" ry="6" style="stroke:#222222;stroke-width:1.0;"/><line style="stroke:#181818;stroke-width:1.0;" x1="186" x2="186" y1="340.5525" y2="360.5525"/><polygon fill="#181818" points="182,350.5525,186,360.5525,190,350.5525,186,354.5525" style="stroke:#181818;stroke-width:1.0;"/><line style="stroke:#181818;stroke-width:1.0;" x1="186" x2="186" y1="242.6322" y2="285.8002"/><polygon fill="#181818" points="182,275.8002,186,285.8002,190,275.8002,186,279.8002" style="stroke:#181818;stroke-width:1.0;"/><line style="stroke:#181818;stroke-width:1.0;" x1="186" x2="186" y1="415.3047" y2="435.3047"/><polygon fill="#181818" points="182,425.3047,186,435.3047,190,425.3047,186,429.3047" style="stroke:#181818;stroke-width:1.0;"/><line style="stroke:#181818;stroke-width:1.0;" x1="482.5" x2="482.5" y1="231.4641" y2="274.6322"/><polygon fill="#181818" points="478.5,264.6322,482.5,274.6322,486.5,264.6322,482.5,268.6322" style="stroke:#181818;stroke-width:1.0;"/><line style="stroke:#181818;stroke-width:1.0;" x1="482.5" x2="482.5" y1="329.3844" y2="435.3047"/><polygon fill="#181818" points="478.5,425.3047,482.5,435.3047,486.5,425.3047,482.5,429.3047" style="stroke:#181818;stroke-width:1.0;"/><line style="stroke:#181818;stroke-width:1.0;" x1="351" x2="387" y1="219.4641" y2="219.4641"/><polygon fill="#181818" points="377,215.4641,387,219.4641,377,223.4641,381,219.4641" style="stroke:#181818;stroke-width:1.0;"/><line style="stroke:#181818;stroke-width:1.0;" x1="324.5" x2="324.5" y1="176.2961" y2="181.2961"/><line style="stroke:#181818;stroke-width:1.0;" x1="324.5" x2="186" y1="181.2961" y2="181.2961"/><line style="stroke:#181818;stroke-width:1.0;" x1="186" x2="186" y1="181.2961" y2="196.2961"/><polygon fill="#181818" points="182,186.2961,186,196.2961,190,186.2961,186,190.2961" style="stroke:#181818;stroke-width:1.0;"/><line style="stroke:#181818;stroke-width:1.0;" x1="578" x2="608" y1="219.4641" y2="219.4641"/><line style="stroke:#181818;stroke-width:1.0;" x1="608" x2="608" y1="219.4641" y2="435.3047"/><polygon fill="#181818" points="604,425.3047,608,435.3047,612,425.3047,608,429.3047" style="stroke:#181818;stroke-width:1.0;"/><line style="stroke:#181818;stroke-width:1.0;" x1="186" x2="608" y1="435.3047" y2="435.3047"/><line style="stroke:#181818;stroke-width:1.0;" x1="324.5" x2="324.5" y1="71.2719" y2="121.5438"/><polygon fill="#181818" points="320.5,111.5438,324.5,121.5438,328.5,111.5438,324.5,115.5438" style="stroke:#181818;stroke-width:1.0;"/><line style="stroke:#181818;stroke-width:1.0;" x1="324.5" x2="324.5" y1="435.3047" y2="467.3047"/><polygon fill="#181818" points="320.5,457.3047,324.5,467.3047,328.5,457.3047,324.5,461.3047" style="stroke:#181818;stroke-width:1.0;"/><!--SRC=[dL9DQnD16BxlhnZnuEvbtUQh7xP2iXyWgAW1JxaCkvDqwEvCCZjHeWXLQuYWfGSjQGsrGbiyg2tOWuBedt4toSc_uCncswQr4NGEm-upCy_pFk_ppeUyvQEh2dGvleTvoyAmnc007Yf0h19qbsgCDebdKfyoSD4nx1adFpgZp4Fi27TCmombk4C9Jz5iDdiCtOG10YODi0lAa8JWHbbvf2WUXW4btaGvnxBj4STrJD0nMfWjvSwAESvKRlQlUaT7PVm0WQc2r8UCqVkf-YakQzem_f6h3Xd775EIyfsgE9SVuplnaSrD9-YTaMb640CPOr8px9mz9PK8vUZFeWsn7EUiz4mnKx8pvpFQ1RlW59CSgDiC4E4JWyWxUSkKDoLSFwzZnvcCYLjMqR2iINPA1LFQcR-Spg3ede_0xIPg8jsY1AbQlFur_lowlxaIVThghnueboxK6Qm543H3T1U9ThlGlrO5b2ZX4YOY036vffYd90QRU6L93D8XKq8k4aeDZFYLkQZtliweYy8GazhmJJjQw_pyyZ7gR0ytTWRxkz6pf_t3xGgH3a13FxcgUyX77AcOeq2xaZZ4LQ16Uq_YhPw76My9ci6FRjnx_klRYwYpCTW_ZBkh0XdsbWTxZwFso_Z3ksXdfR_M5XSgfCBZLz-Zpa53RyW6YDUIiA4dNFeY34TI6bz41AXnTrzBHEVaTlPbXQJV-grck3XUuznmURF_ThU6E4TCr1Ql7yZkfYuhlA6xebDw6TS8zDNqaHgjxMd83n6kggTwu2EYQc1X0HWQa7MDbVK_Eb8YqHhzYHYhYjX1afX8ZzQLtm00]--></g></svg>