<?xml version="1.0" encoding="us-ascii" standalone="no"?><svg xmlns="http://www.w3.org/2000/svg" xmlns:xlink="http://www.w3.org/1999/xlink" contentStyleType="text/css" height="1099px" preserveAspectRatio="none" style="width:531px;height:1099px;background:#F5F5DC;" version="1.1" viewBox="0 0 531 1099" width="531px" zoomAndPan="magnify"><defs/><g><rect fill="#F5F5DC" height="1099" style="stroke:none;stroke-width:1.0;" width="531" x="0" y="0"/><text fill="#000000" font-family="sans-serif" font-size="14" font-weight="bold" lengthAdjust="spacing" textLength="154" x="187" y="36.2399">Queue.Get()&#26041;&#27861;&#30340;&#23454;&#29616;</text><ellipse cx="219.5" cy="61.2719" fill="#F0E8F5" rx="10" ry="10" style="stroke:#222222;stroke-width:1.0;"/><rect fill="#FFB6C1" height="965.2143" style="stroke:#DDA0DD;stroke-width:1.5;" width="509" x="11" y="81.2719"/><path d="M54,81.2719 L54,94.5438 L44,104.5438 L11,104.5438 " fill="none" style="stroke:#DDA0DD;stroke-width:1.5;"/><text fill="#FF69B4" font-family="Comic Sans MS" font-size="14" lengthAdjust="spacing" textLength="33" x="14" y="98.5118">Get()</text><rect fill="#F0E8F5" height="54.7522" rx="12.5" ry="12.5" style="stroke:#181818;stroke-width:0.5;" width="155" x="142" y="207.94"/><text fill="#333333" font-family="Comic Sans MS" font-size="12" lengthAdjust="spacing" textLength="132" x="152" y="231.8601">&#21017;&#31561;&#24453;&#19979;&#19968;&#20010;&#20803;&#32032;&#30340;&#21040;&#26469;</text><text fill="#333333" font-family="Comic Sans MS" font-size="12" lengthAdjust="spacing" textLength="66" x="185" y="249.2362">q.cond.Wait</text><polygon fill="#FFDEE3" points="72.5,121.5438,366.5,121.5438,378.5,144.7119,366.5,167.8799,72.5,167.8799,60.5,144.7119,72.5,121.5438" style="stroke:#FF69B4;stroke-width:0.5;"/><text fill="#FFD700" font-family="Comic Sans MS" font-size="16" lengthAdjust="spacing" textLength="16" x="223.5" y="186.44">&#26159;</text><text fill="#FF1493" font-family="Comic Sans MS" font-size="16" lengthAdjust="spacing" textLength="270" x="72.5" y="140.1039">&#22914;&#26524;q.queue&#20026;&#31354;&#65292;&#24182;&#19988;&#27809;&#26377;&#27491;&#22312;&#20851;&#38381;</text><text fill="#FF1493" font-family="Comic Sans MS" font-size="16" lengthAdjust="spacing" textLength="294" x="72.5" y="163.2719">q.queue.Len() == 0 &amp;&amp; !q.shuttingDown</text><text fill="#FFD700" font-family="Comic Sans MS" font-size="16" lengthAdjust="spacing" textLength="16" x="44.5" y="140.1039">&#21542;</text><polygon fill="#FFDEE3" points="112,304.6922,327,304.6922,339,339.4443,327,374.1963,112,374.1963,100,339.4443,112,304.6922" style="stroke:#FF69B4;stroke-width:0.5;"/><text fill="#FF1493" font-family="Comic Sans MS" font-size="16" lengthAdjust="spacing" textLength="215" x="112" y="323.2522">&#36825;&#26102;&#22914;&#26524;q.queue&#38271;&#24230;&#36824;&#26159;0&#65292;</text><text fill="#FF1493" font-family="Comic Sans MS" font-size="16" lengthAdjust="spacing" textLength="215" x="112" y="346.4203">&#21017;&#35828;&#26126;q.shuttingDown&#20026;true</text><text fill="#FF1493" font-family="Comic Sans MS" font-size="16" lengthAdjust="spacing" textLength="139" x="156" y="369.5883">q.queue.Len() == 0</text><text fill="#FFD700" font-family="Comic Sans MS" font-size="16" lengthAdjust="spacing" textLength="16" x="84" y="334.8363">&#26159;</text><text fill="#FFD700" font-family="Comic Sans MS" font-size="16" lengthAdjust="spacing" textLength="16" x="339" y="334.8363">&#21542;</text><rect fill="#F0E8F5" height="54.7522" rx="12.5" ry="12.5" style="stroke:#181818;stroke-width:0.5;" width="134" x="23" y="384.1963"/><text fill="#333333" font-family="Comic Sans MS" font-size="12" lengthAdjust="spacing" textLength="72" x="57" y="408.1164">&#25152;&#20197;&#30452;&#25509;&#36820;&#22238;</text><text fill="#333333" font-family="Comic Sans MS" font-size="12" lengthAdjust="spacing" textLength="114" x="33" y="425.4926">return *new(T), true</text><rect fill="#F0E8F5" height="54.7522" rx="12.5" ry="12.5" style="stroke:#181818;stroke-width:0.5;" width="173" x="262.5" y="384.1963"/><text fill="#333333" font-family="Comic Sans MS" font-size="12" lengthAdjust="spacing" textLength="153" x="272.5" y="408.1164">&#33719;&#21462;q.queue&#20013;&#30340;&#31532;&#19968;&#20010;&#20803;&#32032;</text><text fill="#333333" font-family="Comic Sans MS" font-size="12" lengthAdjust="spacing" textLength="117" x="296.5" y="425.4926">item = q.queue.Pop()</text><rect fill="#4682B4" height="331.2809" style="stroke:#DDA0DD;stroke-width:1.5;" width="244" x="227" y="448.9486"/><path d="M273,448.9486 L273,462.2205 L263,472.2205 L227,472.2205 " fill="none" style="stroke:#DDA0DD;stroke-width:1.5;"/><text fill="#FF69B4" font-family="Comic Sans MS" font-size="14" lengthAdjust="spacing" textLength="36" x="230" y="466.1885">Pop()</text><rect fill="#F0E8F5" height="54.7522" rx="12.5" ry="12.5" style="stroke:#181818;stroke-width:0.5;" width="149" x="274.5" y="489.2205"/><text fill="#333333" font-family="Comic Sans MS" font-size="12" lengthAdjust="spacing" textLength="129" x="284.5" y="513.1406">&#33719;&#21462;q.queue&#31532;&#19968;&#20010;&#20803;&#32032;</text><text fill="#333333" font-family="Comic Sans MS" font-size="12" lengthAdjust="spacing" textLength="75" x="308.5" y="530.5167">item = (*q)[0]</text><rect fill="#F0E8F5" height="72.1284" rx="12.5" ry="12.5" style="stroke:#181818;stroke-width:0.5;" width="224" x="237" y="563.9727"/><text fill="#333333" font-family="Comic Sans MS" font-size="12" lengthAdjust="spacing" textLength="193" x="247" y="587.8928">&#36825;&#37324;&#30340;nil&#22797;&#21046;&#26159;&#20026;&#20102;&#35753;&#24213;&#23618;&#25968;&#32452;&#19981;&#20877;</text><text fill="#333333" font-family="Comic Sans MS" font-size="12" lengthAdjust="spacing" textLength="204" x="247" y="605.269">&#24341;&#29992;&#20803;&#32032;&#23545;&#35937;&#65292;&#20174;&#32780;&#33021;&#22815;&#23454;&#29616;&#22403;&#22334;&#22238;&#25910;</text><text fill="#333333" font-family="Comic Sans MS" font-size="12" lengthAdjust="spacing" textLength="94" x="295" y="622.6451">(*q)[0] = *new(T)</text><rect fill="#F0E8F5" height="54.7522" rx="12.5" ry="12.5" style="stroke:#181818;stroke-width:0.5;" width="89" x="304.5" y="656.1011"/><text fill="#333333" font-family="Comic Sans MS" font-size="12" lengthAdjust="spacing" textLength="69" x="314.5" y="680.0212">&#26356;&#26032;q.queue</text><text fill="#333333" font-family="Comic Sans MS" font-size="12" lengthAdjust="spacing" textLength="65" x="314.5" y="697.3973">*q = (*q)[1:]</text><rect fill="#F0E8F5" height="37.3761" rx="12.5" ry="12.5" style="stroke:#181818;stroke-width:0.5;" width="85" x="306.5" y="730.8533"/><text fill="#333333" font-family="Comic Sans MS" font-size="12" lengthAdjust="spacing" textLength="65" x="316.5" y="754.7734">return item</text><rect fill="#F0E8F5" height="54.7522" rx="12.5" ry="12.5" style="stroke:#181818;stroke-width:0.5;" width="318" x="190" y="800.2295"/><text fill="#333333" font-family="Comic Sans MS" font-size="12" lengthAdjust="spacing" textLength="298" x="200" y="824.1496">&#21018;&#25165;&#33719;&#21462;&#21040;&#30340;q.queue&#31532;&#19968;&#20010;&#20803;&#32032;&#25918;&#21040;processing&#38598;&#21512;&#20013;</text><text fill="#333333" font-family="Comic Sans MS" font-size="12" lengthAdjust="spacing" textLength="141" x="272" y="841.5257">q.processing.insert(item)</text><rect fill="#F0E8F5" height="54.7522" rx="12.5" ry="12.5" style="stroke:#181818;stroke-width:0.5;" width="157" x="270.5" y="874.9817"/><text fill="#333333" font-family="Comic Sans MS" font-size="12" lengthAdjust="spacing" textLength="134" x="280.5" y="898.9018">&#22312;dirty&#38598;&#21512;&#20013;&#21024;&#38500;&#35813;&#20803;&#32032;</text><text fill="#333333" font-family="Comic Sans MS" font-size="12" lengthAdjust="spacing" textLength="109" x="292.5" y="916.2779">q.dirty.delete(item)</text><rect fill="#F0E8F5" height="54.7522" rx="12.5" ry="12.5" style="stroke:#181818;stroke-width:0.5;" width="118" x="290" y="949.734"/><text fill="#333333" font-family="Comic Sans MS" font-size="12" lengthAdjust="spacing" textLength="48" x="324" y="973.654">&#36820;&#22238;&#20803;&#32032;</text><text fill="#333333" font-family="Comic Sans MS" font-size="12" lengthAdjust="spacing" textLength="98" x="300" y="991.0302">return item, false</text><polygon fill="#FFDEE3" points="219.5,1010.4862,231.5,1022.4862,219.5,1034.4862,207.5,1022.4862,219.5,1010.4862" style="stroke:#FF69B4;stroke-width:0.5;"/><ellipse cx="219.5" cy="1077.4862" fill="none" rx="11" ry="11" style="stroke:#222222;stroke-width:1.0;"/><ellipse cx="219.5" cy="1077.4862" fill="#F0E8F5" rx="6" ry="6" style="stroke:#222222;stroke-width:1.0;"/><line style="stroke:#181818;stroke-width:1.0;" x1="219.5" x2="219.5" y1="167.8799" y2="207.94"/><polygon fill="#181818" points="215.5,197.94,219.5,207.94,223.5,197.94,219.5,201.94" style="stroke:#181818;stroke-width:1.0;"/><line style="stroke:#181818;stroke-width:1.0;" x1="219.5" x2="219.5" y1="262.6922" y2="272.6922"/><line style="stroke:#181818;stroke-width:1.0;" x1="219.5" x2="390.5" y1="272.6922" y2="272.6922"/><polygon fill="#181818" points="386.5,216.148,390.5,206.148,394.5,216.148,390.5,212.148" style="stroke:#181818;stroke-width:1.0;"/><line style="stroke:#181818;stroke-width:1.0;" x1="390.5" x2="390.5" y1="144.7119" y2="272.6922"/><line style="stroke:#181818;stroke-width:1.0;" x1="390.5" x2="378.5" y1="144.7119" y2="144.7119"/><polygon fill="#181818" points="388.5,140.7119,378.5,144.7119,388.5,148.7119,384.5,144.7119" style="stroke:#181818;stroke-width:1.0;"/><line style="stroke:#181818;stroke-width:1.0;" x1="60.5" x2="48.5" y1="144.7119" y2="144.7119"/><polygon fill="#181818" points="44.5,202.148,48.5,212.148,52.5,202.148,48.5,206.148" style="stroke:#181818;stroke-width:1.0;"/><line style="stroke:#181818;stroke-width:1.0;" x1="48.5" x2="48.5" y1="144.7119" y2="284.6922"/><line style="stroke:#181818;stroke-width:1.0;" x1="48.5" x2="219.5" y1="284.6922" y2="284.6922"/><line style="stroke:#181818;stroke-width:1.0;" x1="219.5" x2="219.5" y1="284.6922" y2="304.6922"/><polygon fill="#181818" points="215.5,294.6922,219.5,304.6922,223.5,294.6922,219.5,298.6922" style="stroke:#181818;stroke-width:1.0;"/><line style="stroke:#181818;stroke-width:1.0;" x1="349" x2="349" y1="543.9727" y2="563.9727"/><polygon fill="#181818" points="345,553.9727,349,563.9727,353,553.9727,349,557.9727" style="stroke:#181818;stroke-width:1.0;"/><line style="stroke:#181818;stroke-width:1.0;" x1="349" x2="349" y1="636.1011" y2="656.1011"/><polygon fill="#181818" points="345,646.1011,349,656.1011,353,646.1011,349,650.1011" style="stroke:#181818;stroke-width:1.0;"/><line style="stroke:#181818;stroke-width:1.0;" x1="349" x2="349" y1="710.8533" y2="730.8533"/><polygon fill="#181818" points="345,720.8533,349,730.8533,353,720.8533,349,724.8533" style="stroke:#181818;stroke-width:1.0;"/><line style="stroke:#181818;stroke-width:1.0;" x1="349" x2="349" y1="438.9486" y2="489.2205"/><polygon fill="#181818" points="345,479.2205,349,489.2205,353,479.2205,349,483.2205" style="stroke:#181818;stroke-width:1.0;"/><line style="stroke:#181818;stroke-width:1.0;" x1="349" x2="349" y1="768.2295" y2="800.2295"/><polygon fill="#181818" points="345,790.2295,349,800.2295,353,790.2295,349,794.2295" style="stroke:#181818;stroke-width:1.0;"/><line style="stroke:#181818;stroke-width:1.0;" x1="349" x2="349" y1="854.9817" y2="874.9817"/><polygon fill="#181818" points="345,864.9817,349,874.9817,353,864.9817,349,868.9817" style="stroke:#181818;stroke-width:1.0;"/><line style="stroke:#181818;stroke-width:1.0;" x1="349" x2="349" y1="929.734" y2="949.734"/><polygon fill="#181818" points="345,939.734,349,949.734,353,939.734,349,943.734" style="stroke:#181818;stroke-width:1.0;"/><line style="stroke:#181818;stroke-width:1.0;" x1="100" x2="90" y1="339.4443" y2="339.4443"/><line style="stroke:#181818;stroke-width:1.0;" x1="90" x2="90" y1="339.4443" y2="384.1963"/><polygon fill="#181818" points="86,374.1963,90,384.1963,94,374.1963,90,378.1963" style="stroke:#181818;stroke-width:1.0;"/><line style="stroke:#181818;stroke-width:1.0;" x1="339" x2="349" y1="339.4443" y2="339.4443"/><line style="stroke:#181818;stroke-width:1.0;" x1="349" x2="349" y1="339.4443" y2="384.1963"/><polygon fill="#181818" points="345,374.1963,349,384.1963,353,374.1963,349,378.1963" style="stroke:#181818;stroke-width:1.0;"/><line style="stroke:#181818;stroke-width:1.0;" x1="90" x2="90" y1="438.9486" y2="1022.4862"/><line style="stroke:#181818;stroke-width:1.0;" x1="90" x2="207.5" y1="1022.4862" y2="1022.4862"/><polygon fill="#181818" points="197.5,1018.4862,207.5,1022.4862,197.5,1026.4862,201.5,1022.4862" style="stroke:#181818;stroke-width:1.0;"/><line style="stroke:#181818;stroke-width:1.0;" x1="349" x2="349" y1="1004.4862" y2="1022.4862"/><line style="stroke:#181818;stroke-width:1.0;" x1="349" x2="231.5" y1="1022.4862" y2="1022.4862"/><polygon fill="#181818" points="241.5,1018.4862,231.5,1022.4862,241.5,1026.4862,237.5,1022.4862" style="stroke:#181818;stroke-width:1.0;"/><line style="stroke:#181818;stroke-width:1.0;" x1="219.5" x2="219.5" y1="71.2719" y2="121.5438"/><polygon fill="#181818" points="215.5,111.5438,219.5,121.5438,223.5,111.5438,219.5,115.5438" style="stroke:#181818;stroke-width:1.0;"/><line style="stroke:#181818;stroke-width:1.0;" x1="219.5" x2="219.5" y1="1034.4862" y2="1066.4862"/><polygon fill="#181818" points="215.5,1056.4862,219.5,1066.4862,223.5,1056.4862,219.5,1060.4862" style="stroke:#181818;stroke-width:1.0;"/><!--SRC=[vLLTJzjM6BxthpXhfSP6bMSWf1JA91BRk-cchKpQnRmBApd0KPDZOfyCiQeIAeK55R9U91GAOwq6g9rAeIjY8NJap_ZOpbN_meu_yWLasdPLgRvyppdFr_j4kMMHkIpyZDFJ1Fs0o9oCz2bJpu5x761VKa_VdJAD0iwaZAnXWgkgf0ohG-6POMQWsPohAIcL3EQgWKaq7HmSR8s-r7CGf8mSIeC97LlWYmdkFiTba9upSAOddIehIeXn6s7OcYPk9kFdoLIrFtxp7_cQHnFeHmZw4pw_Rfh6RCJUXINVaAJ_Y3MZcmGHPE08hqjnVAW3h-rZC7uZcDu9JPiOcc10wXM64bVwVIPi47XHjCG-LJrFFJm-a5G6BaTK4af27G_sOAGBEOX9pqKCgKDooh_fZsSkIworamvoMHwNPBcNdMGYvTkvzMdKGPPU5eAl2x00nSyXuGLdxSHvMt6VFgIljztI8STPTn5cCRD-fbXhWh0Ld9dmduEeIXoxHTWc8g413ZSxZTWDdkuzSBQtycBUfx2hDVTbxVsx5NfoR5VBpX_FdQrbP_ytklM2BhvjFDdNS7HJl0qnBu2nCI21QzV09tdHcYuGWl2KRCnY0I0ByCxwWS2DqEA6kxzCpnRjwYExEczNVwUB2-xHCzz2yT3vPHTeM2CiZRoOPbh5RtL4HZc8Cqs1Z_S43aq2tgjlE4-Ek_GsAdLQs_FgwunAOh8rpDYyWoDdlTGjY1aZPW6scCvx402PXZYIxAzcH2FEyhnzkkjk7ZcbNQzUfflR6ZOXAPWOz64uotyZN0S-w2Z7mQpLL1eyzaf_qf_NMg7kCw_kgrUTxdqbYC0S66kf-SgOuONH023SKp00L-E9uO6eHXV1UyFoVNdXE-dxqOw7zOt6JojC2qPPkhDAYyVCBal6hYrvhr_IMeM-UU1K3jtJXtPrbIwjiZJVLTpoYn2Q7fnuRvwpaEtJaZU_uYtyHNT-3Kj8jnVerXaBo2aV-meq4f4p6L5K7J8SbkZQOQHVmttvfjZ-aKwrKTI-ct3AAX464sPCYq-TvTKm35OaPkloI9po6JkUCOqqj2nMXyRc4drSP4i9bMeaBxOFHOGjQ1BUPuqqZx3oPv19vbeFQV5POsF7EzWD2LX_GL2gu9QOWLb8O1U2HiB-D7VKOUqwcDHPUOB2eqckxJ7MqG4kzhyM7_i0jXxx5okFNTnth1s4HGoMHlkFv4hhrtBbtaSOpFs_0G00]--></g></svg>