<?xml version="1.0" encoding="us-ascii" standalone="no"?><svg xmlns="http://www.w3.org/2000/svg" xmlns:xlink="http://www.w3.org/1999/xlink" contentStyleType="text/css" height="834px" preserveAspectRatio="none" style="width:1651px;height:834px;background:#F5F5DC;" version="1.1" viewBox="0 0 1651 834" width="1651px" zoomAndPan="magnify"><defs/><g><rect fill="#F5F5DC" height="834" style="stroke:none;stroke-width:1.0;" width="1651" x="0" y="0"/><text fill="#000000" font-family="sans-serif" font-size="14" font-weight="bold" lengthAdjust="spacing" textLength="55" x="796.5" y="36.2399">pop&#23454;&#29616;</text><ellipse cx="870.5" cy="61.2719" fill="#F0E8F5" rx="10" ry="10" style="stroke:#222222;stroke-width:1.0;"/><rect fill="#FFB6C1" height="700.1211" style="stroke:#DDA0DD;stroke-width:1.5;" width="1629" x="11" y="81.2719"/><path d="M47,81.2719 L47,94.5438 L37,104.5438 L11,104.5438 " fill="none" style="stroke:#DDA0DD;stroke-width:1.5;"/><text fill="#FF69B4" font-family="Comic Sans MS" font-size="14" lengthAdjust="spacing" textLength="26" x="14" y="98.5118">pop</text><rect fill="#F0E8F5" height="37.3761" rx="12.5" ry="12.5" style="stroke:#181818;stroke-width:0.5;" width="184" x="778.5" y="121.5438"/><text fill="#333333" font-family="Comic Sans MS" font-size="12" lengthAdjust="spacing" textLength="164" x="788.5" y="145.4639">var nextCh chan&lt;- interface{}</text><rect fill="#F0E8F5" height="37.3761" rx="12.5" ry="12.5" style="stroke:#181818;stroke-width:0.5;" width="167" x="787" y="178.9199"/><text fill="#333333" font-family="Comic Sans MS" font-size="12" lengthAdjust="spacing" textLength="147" x="797" y="202.84">var notification interface{}</text><path d="M49,290.2961 L49,319.1201 L401,319.1201 L401,300.2961 L391,290.2961 L49,290.2961 " fill="#E6E6FA" style="stroke:#8A2BE2;stroke-width:0.5;"/><path d="M391,290.2961 L391,300.2961 L401,300.2961 L391,290.2961 " fill="#E6E6FA" style="stroke:#8A2BE2;stroke-width:0.5;"/><text fill="#0000FF" font-family="Comic Sans MS" font-size="13" lengthAdjust="spacing" textLength="331" x="55" y="310.3761">&#19979;&#38754;&#23558;&#33719;&#21462;&#21040;&#30340;&#36890;&#30693;&#28155;&#21152;&#21040;nextCh&#20013;&#65292;&#20379;run()&#26041;&#27861;&#20013;&#28040;&#36153;</text><path d="M1360,290.2961 L1360,319.1201 L1602,319.1201 L1602,300.2961 L1592,290.2961 L1360,290.2961 " fill="#E6E6FA" style="stroke:#8A2BE2;stroke-width:0.5;"/><path d="M1592,290.2961 L1592,300.2961 L1602,300.2961 L1592,290.2961 " fill="#E6E6FA" style="stroke:#8A2BE2;stroke-width:0.5;"/><text fill="#0000FF" font-family="Comic Sans MS" font-size="13" lengthAdjust="spacing" textLength="221" x="1366" y="310.3761">&#36923;&#36753;&#20174;&#36825;&#37324;&#24320;&#22987;&#65292;&#20174;addCh&#20013;&#25552;&#21462;&#36890;&#30693;</text><polygon fill="#FFDEE3" points="848.5,280.2961,892.5,280.2961,904.5,292.2961,892.5,304.2961,848.5,304.2961,836.5,292.2961,848.5,280.2961" style="stroke:#FF69B4;stroke-width:0.5;"/><text fill="#FF1493" font-family="Comic Sans MS" font-size="16" lengthAdjust="spacing" textLength="44" x="848.5" y="299.2721">select</text><rect fill="#F0E8F5" height="37.3761" rx="12.5" ry="12.5" style="stroke:#181818;stroke-width:0.5;" width="82" x="541.5" y="359.2162"/><text fill="#333333" font-family="Comic Sans MS" font-size="12" lengthAdjust="spacing" textLength="62" x="551.5" y="383.1363">var ok bool</text><rect fill="#F0E8F5" height="54.7522" rx="12.5" ry="12.5" style="stroke:#181818;stroke-width:0.5;" width="343" x="411" y="431.5923"/><text fill="#333333" font-family="Comic Sans MS" font-size="12" lengthAdjust="spacing" textLength="323" x="421" y="455.5124">&#20174;pendingNotifications&#20013;&#28040;&#36153;&#36890;&#30693;&#65292;&#29983;&#20135;&#32773;&#22312;&#19979;&#38754;&#30340;case&#20013;</text><text fill="#333333" font-family="Comic Sans MS" font-size="12" lengthAdjust="spacing" textLength="287" x="421" y="472.8885">notification, ok = p.pendingNotifications.ReadOne()</text><rect fill="#F0E8F5" height="72.1284" rx="12.5" ry="12.5" style="stroke:#181818;stroke-width:0.5;" width="253" x="456" y="597.2647"/><text fill="#333333" font-family="Comic Sans MS" font-size="12" lengthAdjust="spacing" textLength="227" x="466" y="621.1848">&#26082;&#28982;&#27809;&#26377;&#20107;&#24773;&#35201;&#20570;, &#37027;&#20040;&#23601;&#35774; nextCh &#20026; nil.</text><text fill="#333333" font-family="Comic Sans MS" font-size="12" lengthAdjust="spacing" textLength="212" x="487" y="638.5609">&#24403; nextCh &#20026; nil &#26102;, select &#24573;&#30053;&#35813; case.</text><text fill="#333333" font-family="Comic Sans MS" font-size="12" lengthAdjust="spacing" textLength="3" x="466" y="655.937">&#160;</text><text fill="#333333" font-family="Comic Sans MS" font-size="12" lengthAdjust="spacing" textLength="66" x="547" y="655.937">nextCh = nil</text><polygon fill="#FFDEE3" points="517.5,521.3445,647.5,521.3445,659.5,544.5126,647.5,567.6806,517.5,567.6806,505.5,544.5126,517.5,521.3445" style="stroke:#FF69B4;stroke-width:0.5;"/><text fill="#FFD700" font-family="Comic Sans MS" font-size="16" lengthAdjust="spacing" textLength="16" x="586.5" y="586.2407">&#26159;</text><text fill="#FF1493" font-family="Comic Sans MS" font-size="16" lengthAdjust="spacing" textLength="126" x="517.5" y="539.9046">&#27809;&#26377;&#20869;&#23481;&#21487;&#20197;pop</text><text fill="#FF1493" font-family="Comic Sans MS" font-size="16" lengthAdjust="spacing" textLength="24" x="565.5" y="563.0726">!ok</text><text fill="#FFD700" font-family="Comic Sans MS" font-size="16" lengthAdjust="spacing" textLength="16" x="659.5" y="539.9046">&#21542;</text><polygon fill="#FFDEE3" points="582.5,689.393,594.5,701.393,582.5,713.393,570.5,701.393,582.5,689.393" style="stroke:#FF69B4;stroke-width:0.5;"/><polygon fill="#FFDEE3" points="945.5,359.2162,1076.5,359.2162,1088.5,371.2162,1076.5,383.2162,945.5,383.2162,933.5,371.2162,945.5,359.2162" style="stroke:#FF69B4;stroke-width:0.5;"/><text fill="#FF1493" font-family="Comic Sans MS" font-size="16" lengthAdjust="spacing" textLength="131" x="945.5" y="378.1922">notification == nil</text><text fill="#FFD700" font-family="Comic Sans MS" font-size="16" lengthAdjust="spacing" textLength="16" x="917.5" y="366.6082">&#26159;</text><text fill="#FFD700" font-family="Comic Sans MS" font-size="16" lengthAdjust="spacing" textLength="16" x="1088.5" y="366.6082">&#21542;</text><rect fill="#F0E8F5" height="54.7522" rx="12.5" ry="12.5" style="stroke:#181818;stroke-width:0.5;" width="196" x="764" y="393.2162"/><text fill="#333333" font-family="Comic Sans MS" font-size="12" lengthAdjust="spacing" textLength="118" x="801" y="417.1363">&#24403; notification &#20026;&#31354;&#26102;</text><text fill="#333333" font-family="Comic Sans MS" font-size="12" lengthAdjust="spacing" textLength="176" x="774" y="434.5124">notification = notificationToAdd</text><rect fill="#F0E8F5" height="54.7522" rx="12.5" ry="12.5" style="stroke:#181818;stroke-width:0.5;" width="188" x="768" y="482.9684"/><text fill="#333333" font-family="Comic Sans MS" font-size="12" lengthAdjust="spacing" textLength="168" x="778" y="506.8885">&#32473; nextCh &#19968;&#20010;&#33021;&#29992;&#30340; channel.</text><text fill="#333333" font-family="Comic Sans MS" font-size="12" lengthAdjust="spacing" textLength="103" x="805" y="524.2646">nextCh = p.nextCh</text><rect fill="#F0E8F5" height="54.7522" rx="12.5" ry="12.5" style="stroke:#181818;stroke-width:0.5;" width="360" x="980" y="393.2162"/><text fill="#333333" font-family="Comic Sans MS" font-size="12" lengthAdjust="spacing" textLength="340" x="990" y="417.1363">&#23558;&#26032;&#28155;&#21152;&#30340;&#36890;&#30693;&#20002;&#21040;pendingNotifications(ringbuffer &#32531;&#20914;&#37324;)&#20013;</text><text fill="#333333" font-family="Comic Sans MS" font-size="12" lengthAdjust="spacing" textLength="291" x="1017" y="434.5124">p.pendingNotifications.WriteOne(notificationToAdd)</text><polygon fill="#FFDEE3" points="1011,543.7207,1023,555.7207,1011,567.7207,999,555.7207,1011,543.7207" style="stroke:#FF69B4;stroke-width:0.5;"/><polygon fill="#FFDEE3" points="870.5,723.393,870.5,723.393,882.5,735.393,870.5,747.393,870.5,747.393,858.5,735.393,870.5,723.393" style="stroke:#FF69B4;stroke-width:0.5;"/><polygon fill="#FFDEE3" points="855,236.2961,886,236.2961,898,248.2961,886,260.2961,855,260.2961,843,248.2961,855,236.2961" style="stroke:#FF69B4;stroke-width:0.5;"/><text fill="#FF1493" font-family="Comic Sans MS" font-size="16" lengthAdjust="spacing" textLength="31" x="855" y="255.2721">true</text><ellipse cx="870.5" cy="812.393" fill="none" rx="11" ry="11" style="stroke:#222222;stroke-width:1.0;"/><ellipse cx="870.5" cy="812.393" fill="#F0E8F5" rx="6" ry="6" style="stroke:#222222;stroke-width:1.0;"/><line style="stroke:#181818;stroke-width:1.0;" x1="870.5" x2="870.5" y1="158.9199" y2="178.9199"/><polygon fill="#181818" points="866.5,168.9199,870.5,178.9199,874.5,168.9199,870.5,172.9199" style="stroke:#181818;stroke-width:1.0;"/><line style="stroke:#181818;stroke-width:1.0;" x1="582.5" x2="582.5" y1="396.5923" y2="431.5923"/><polygon fill="#181818" points="578.5,421.5923,582.5,431.5923,586.5,421.5923,582.5,425.5923" style="stroke:#181818;stroke-width:1.0;"/><line style="stroke:#181818;stroke-width:1.0;" x1="582.5" x2="582.5" y1="567.6806" y2="597.2647"/><polygon fill="#181818" points="578.5,587.2647,582.5,597.2647,586.5,587.2647,582.5,591.2647" style="stroke:#181818;stroke-width:1.0;"/><line style="stroke:#181818;stroke-width:1.0;" x1="659.5" x2="719" y1="544.5126" y2="544.5126"/><polygon fill="#181818" points="715,617.7448,719,627.7448,723,617.7448,719,621.7448" style="stroke:#181818;stroke-width:1.0;"/><line style="stroke:#181818;stroke-width:1.0;" x1="719" x2="719" y1="544.5126" y2="701.393"/><line style="stroke:#181818;stroke-width:1.0;" x1="719" x2="594.5" y1="701.393" y2="701.393"/><polygon fill="#181818" points="604.5,697.393,594.5,701.393,604.5,705.393,600.5,701.393" style="stroke:#181818;stroke-width:1.0;"/><line style="stroke:#181818;stroke-width:1.0;" x1="582.5" x2="582.5" y1="669.393" y2="689.393"/><polygon fill="#181818" points="578.5,679.393,582.5,689.393,586.5,679.393,582.5,683.393" style="stroke:#181818;stroke-width:1.0;"/><line style="stroke:#181818;stroke-width:1.0;" x1="582.5" x2="582.5" y1="486.3445" y2="521.3445"/><polygon fill="#181818" points="578.5,511.3445,582.5,521.3445,586.5,511.3445,582.5,515.3445" style="stroke:#181818;stroke-width:1.0;"/><line style="stroke:#181818;stroke-width:1.0;" x1="862" x2="862" y1="447.9684" y2="482.9684"/><polygon fill="#181818" points="858,472.9684,862,482.9684,866,472.9684,862,476.9684" style="stroke:#181818;stroke-width:1.0;"/><line style="stroke:#181818;stroke-width:1.0;" x1="933.5" x2="862" y1="371.2162" y2="371.2162"/><line style="stroke:#181818;stroke-width:1.0;" x1="862" x2="862" y1="371.2162" y2="393.2162"/><polygon fill="#181818" points="858,383.2162,862,393.2162,866,383.2162,862,387.2162" style="stroke:#181818;stroke-width:1.0;"/><line style="stroke:#181818;stroke-width:1.0;" x1="1088.5" x2="1160" y1="371.2162" y2="371.2162"/><line style="stroke:#181818;stroke-width:1.0;" x1="1160" x2="1160" y1="371.2162" y2="393.2162"/><polygon fill="#181818" points="1156,383.2162,1160,393.2162,1164,383.2162,1160,387.2162" style="stroke:#181818;stroke-width:1.0;"/><line style="stroke:#181818;stroke-width:1.0;" x1="862" x2="862" y1="537.7207" y2="555.7207"/><line style="stroke:#181818;stroke-width:1.0;" x1="862" x2="999" y1="555.7207" y2="555.7207"/><polygon fill="#181818" points="989,551.7207,999,555.7207,989,559.7207,993,555.7207" style="stroke:#181818;stroke-width:1.0;"/><line style="stroke:#181818;stroke-width:1.0;" x1="1160" x2="1160" y1="447.9684" y2="555.7207"/><line style="stroke:#181818;stroke-width:1.0;" x1="1160" x2="1023" y1="555.7207" y2="555.7207"/><polygon fill="#181818" points="1033,551.7207,1023,555.7207,1033,559.7207,1029,555.7207" style="stroke:#181818;stroke-width:1.0;"/><line style="stroke:#181818;stroke-width:1.0;" x1="836.5" x2="582.5" y1="292.2961" y2="292.2961"/><line style="stroke:#181818;stroke-width:1.0;" x1="582.5" x2="582.5" y1="292.2961" y2="359.2162"/><polygon fill="#181818" points="578.5,349.2162,582.5,359.2162,586.5,349.2162,582.5,353.2162" style="stroke:#181818;stroke-width:1.0;"/><text fill="#FFD700" font-family="Comic Sans MS" font-size="16" lengthAdjust="spacing" textLength="162" x="582.5" y="333.4401">nextCh &lt;- notification</text><line style="stroke:#181818;stroke-width:1.0;" x1="904.5" x2="1011" y1="292.2961" y2="292.2961"/><line style="stroke:#181818;stroke-width:1.0;" x1="1011" x2="1011" y1="292.2961" y2="359.2162"/><polygon fill="#181818" points="1007,349.2162,1011,359.2162,1015,349.2162,1011,353.2162" style="stroke:#181818;stroke-width:1.0;"/><text fill="#FFD700" font-family="Comic Sans MS" font-size="16" lengthAdjust="spacing" textLength="262" x="1011" y="333.4401">notificationToAdd, ok := &lt;-p.addCh</text><line style="stroke:#181818;stroke-width:1.0;" x1="582.5" x2="582.5" y1="713.393" y2="735.393"/><line style="stroke:#181818;stroke-width:1.0;" x1="582.5" x2="858.5" y1="735.393" y2="735.393"/><polygon fill="#181818" points="848.5,731.393,858.5,735.393,848.5,739.393,852.5,735.393" style="stroke:#181818;stroke-width:1.0;"/><line style="stroke:#181818;stroke-width:1.0;" x1="1011" x2="1011" y1="567.7207" y2="735.393"/><line style="stroke:#181818;stroke-width:1.0;" x1="1011" x2="882.5" y1="735.393" y2="735.393"/><polygon fill="#181818" points="892.5,731.393,882.5,735.393,892.5,739.393,888.5,735.393" style="stroke:#181818;stroke-width:1.0;"/><line style="stroke:#181818;stroke-width:1.0;" x1="870.5" x2="870.5" y1="260.2961" y2="280.2961"/><polygon fill="#181818" points="866.5,270.2961,870.5,280.2961,874.5,270.2961,870.5,274.2961" style="stroke:#181818;stroke-width:1.0;"/><line style="stroke:#181818;stroke-width:1.0;" x1="870.5" x2="870.5" y1="747.393" y2="757.393"/><line style="stroke:#181818;stroke-width:1.0;" x1="870.5" x2="1624" y1="757.393" y2="757.393"/><polygon fill="#181818" points="1620,565.9286,1624,555.9286,1628,565.9286,1624,561.9286" style="stroke:#181818;stroke-width:1.0;"/><line style="stroke:#181818;stroke-width:1.0;" x1="1624" x2="1624" y1="248.2961" y2="757.393"/><line style="stroke:#181818;stroke-width:1.0;" x1="1624" x2="898" y1="248.2961" y2="248.2961"/><polygon fill="#181818" points="908,244.2961,898,248.2961,908,252.2961,904,248.2961" style="stroke:#181818;stroke-width:1.0;"/><line style="stroke:#181818;stroke-width:1.0;" x1="843" x2="27" y1="248.2961" y2="248.2961"/><polygon fill="#181818" points="23,551.9286,27,561.9286,31,551.9286,27,555.9286" style="stroke:#181818;stroke-width:1.0;"/><line style="stroke:#181818;stroke-width:1.0;" x1="27" x2="27" y1="248.2961" y2="769.393"/><line style="stroke:#181818;stroke-width:1.0;" x1="27" x2="870.5" y1="769.393" y2="769.393"/><line style="stroke:#181818;stroke-width:1.0;" x1="870.5" x2="870.5" y1="769.393" y2="801.393"/><polygon fill="#181818" points="866.5,791.393,870.5,801.393,874.5,791.393,870.5,795.393" style="stroke:#181818;stroke-width:1.0;"/><line style="stroke:#181818;stroke-width:1.0;" x1="870.5" x2="870.5" y1="216.2961" y2="236.2961"/><polygon fill="#181818" points="866.5,226.2961,870.5,236.2961,874.5,226.2961,870.5,230.2961" style="stroke:#181818;stroke-width:1.0;"/><line style="stroke:#181818;stroke-width:1.0;" x1="870.5" x2="870.5" y1="71.2719" y2="121.5438"/><polygon fill="#181818" points="866.5,111.5438,870.5,121.5438,874.5,111.5438,870.5,115.5438" style="stroke:#181818;stroke-width:1.0;"/><!--SRC=[bLJVJzjM57wk_uexxIMHM1OWf2s1ISIndxPEAfFsmejhtv0hadij-wQihIgbQs5iLD2fBLrPjsvCjDsaGTPDD12W_un_vMd_miwrdTGEfDAkN-pZSyztplTzzyxO_4OTVo9fEYVN2RzH8TgYfJNGBGd1AclwqgB5cjIGMPrPw4CrhrnIfw9_p3AmrO-hSbukXt6LKHv79oSd1w4hMWCZcJM8ZkOrQgFFvgNRacGGhS6eCH9EhIXALEDJGl4WMhnSBWo3gUfuuV9xyVg_vibDZCQB0b-pBBOSewTgLIxcy_-pbgbPd732Q5mlrN5XAb7ltHoJXOjXz6eqj4MnXIRoeyXG2iguGAACuxDDvs6fwZ3qfRc9iZ9nVaMbg1JLkL07fZSRcFAHGaofKnLPP8gmUHvZ0qqIu9NANBvI6JLEkIYBSMO-ZZq8xDKnCfdfxltiRxGboLuY55W5EyfWaf1RXHhp8Xl5pe4a3hp7RS7U46pwkcOXYh_YSWtfDOtEV8G8vTYgQZg-TRkKo66SL8ckXRATILck4K3ASAk9is408NkPSBs6CZQkOvttexfcuqoC1rZ9glqKiOHkYK-dizxxQSTjhmORRzpDBNUjxM_VwxMs_UUxtfkk-zql48cAEfq__ps-xvp-Q3Lf9kjj7Nf_FuQOTx0M_7EOg8ZXA0s1X6Eo9NIDiNef6NUw6oRa4xfu9T6kFIWRDGAm_gFdpj7BeBNYFdiLjGnjYeaXLRfm0QN67HDOiyZCdLSxTnLhnkSKPxAbS2Efeept-bVlsRVkwegxT-XkxZlTNH0HBT05BhhyW2rb4R4XxOVzBE8rJCEDqBxtPCU_Tn3jTexMlRihmOixxftjCTJx-ZVdSCrj_nNidVPDu7IE42NrN880MEx9mw44v3qv64EHkCXzU-8_tWtsTqDzSp4oMk3Y4N96MsV5ncWWNBV1B-w35zde4oYefYoIOECBDcSO8LtJis0QCwSPXbmRjWkoo6AD9uAzLZSu_Hx42zu-xNrptprkkI_NXJcw6s41eT_c0x1JfD_xpI44I1s1sN2OOSgJd4t3w25loMt0dl_x4N2NIarNHcU6BwKB-zsdxzHeEPq_Whid_gDNOBRm35Cy91yqCb30p4MloP89CL8uSE2yhNPqmWO7pkdim6axpxGP2oBNcjKgNCt-yKDtzJNGdXNU7sfcXEU_j0Z7mlHdvi-MqkeCl0BlqJqZnL_XHIG90SDx3kuyPlu7]--></g></svg>