<?xml version="1.0" encoding="us-ascii" standalone="no"?><svg xmlns="http://www.w3.org/2000/svg" xmlns:xlink="http://www.w3.org/1999/xlink" contentStyleType="text/css" height="740px" preserveAspectRatio="none" style="width:1206px;height:740px;background:#F5F5DC;" version="1.1" viewBox="0 0 1206 740" width="1206px" zoomAndPan="magnify"><defs/><g><rect fill="#F5F5DC" height="740" style="stroke:none;stroke-width:1.0;" width="1206" x="0" y="0"/><text fill="#000000" font-family="sans-serif" font-size="14" font-weight="bold" lengthAdjust="spacing" textLength="124" x="539.5" y="36.2399">processDeltas&#23454;&#29616;</text><ellipse cx="775.5" cy="61.2719" fill="#F0E8F5" rx="10" ry="10" style="stroke:#222222;stroke-width:1.0;"/><rect fill="#FFB6C1" height="606.2688" style="stroke:#DDA0DD;stroke-width:1.5;" width="1184" x="11" y="81.2719"/><path d="M114,81.2719 L114,94.5438 L104,104.5438 L11,104.5438 " fill="none" style="stroke:#DDA0DD;stroke-width:1.5;"/><text fill="#FF69B4" font-family="Comic Sans MS" font-size="14" lengthAdjust="spacing" textLength="93" x="14" y="98.5118">processDeltas</text><path d="M21,414.5842 L21,462.2322 L346,462.2322 L346,424.5842 L336,414.5842 L21,414.5842 " fill="#E6E6FA" style="stroke:#8A2BE2;stroke-width:0.5;"/><path d="M336,414.5842 L336,424.5842 L346,424.5842 L336,414.5842 " fill="#E6E6FA" style="stroke:#8A2BE2;stroke-width:0.5;"/><text fill="#0000FF" font-family="Comic Sans MS" font-size="13" lengthAdjust="spacing" textLength="304" x="27" y="434.6642">&#23545;&#20110;&#27599;&#20010;Deltas&#26469;&#35828;&#65292;&#20854;&#20013;&#20445;&#23384;&#20102;&#24456;&#22810;Delta&#65292;&#20063;&#23601;&#26159;</text><text fill="#0000FF" font-family="Comic Sans MS" font-size="13" lengthAdjust="spacing" textLength="299" x="27" y="453.4882">&#23545;&#24212;&#19981;&#21516;&#31867;&#22411;&#30340;&#22810;&#20010;&#23545;&#35937;&#65292;&#36825;&#37324;&#30340;&#36941;&#21382;&#20250;&#20174;&#26087;&#24448;&#26032;&#36208;</text><rect fill="#F0E8F5" height="37.3761" rx="12.5" ry="12.5" style="stroke:#181818;stroke-width:0.5;" width="100" x="725.5" y="165.5438"/><text fill="#333333" font-family="Comic Sans MS" font-size="12" lengthAdjust="spacing" textLength="80" x="735.5" y="189.4639">obj := d.Object</text><polygon fill="#FFDEE3" points="750,222.9199,801,222.9199,813,234.9199,801,246.9199,750,246.9199,738,234.9199,750,222.9199" style="stroke:#FF69B4;stroke-width:0.5;"/><text fill="#FF1493" font-family="Comic Sans MS" font-size="16" lengthAdjust="spacing" textLength="51" x="750" y="241.896">d.Type</text><rect fill="#F0E8F5" height="37.3761" rx="12.5" ry="12.5" style="stroke:#181818;stroke-width:0.5;" width="225" x="525.25" y="340.5321"/><text fill="#333333" font-family="Comic Sans MS" font-size="12" lengthAdjust="spacing" textLength="205" x="535.25" y="364.4522">old, exists, err := clientState.Get(obj)</text><polygon fill="#FFDEE3" points="603.75,403.7001,671.75,403.7001,683.75,426.8682,671.75,450.0362,603.75,450.0362,591.75,426.8682,603.75,403.7001" style="stroke:#FF69B4;stroke-width:0.5;"/><text fill="#FF1493" font-family="Comic Sans MS" font-size="16" lengthAdjust="spacing" textLength="41" x="615.75" y="422.2602">exists</text><text fill="#FF1493" font-family="Comic Sans MS" font-size="16" lengthAdjust="spacing" textLength="64" x="607.75" y="445.4282">&#26159;&#21542;&#23384;&#22312;</text><text fill="#FFD700" font-family="Comic Sans MS" font-size="16" lengthAdjust="spacing" textLength="16" x="575.75" y="422.2602">&#26159;</text><text fill="#FFD700" font-family="Comic Sans MS" font-size="16" lengthAdjust="spacing" textLength="16" x="683.75" y="422.2602">&#21542;</text><rect fill="#F0E8F5" height="54.7522" rx="12.5" ry="12.5" style="stroke:#181818;stroke-width:0.5;" width="170" x="418.5" y="460.0362"/><text fill="#333333" font-family="Comic Sans MS" font-size="12" lengthAdjust="spacing" textLength="150" x="428.5" y="483.9563">&#23384;&#22312;&#21017;&#26356;&#26032;indexer&#20013;&#30340;&#23545;&#35937;</text><text fill="#333333" font-family="Comic Sans MS" font-size="12" lengthAdjust="spacing" textLength="132" x="428.5" y="501.3325">clientState.Update(obj)</text><rect fill="#F0E8F5" height="54.7522" rx="12.5" ry="12.5" style="stroke:#181818;stroke-width:0.5;" width="259" x="374" y="534.7885"/><text fill="#333333" font-family="Comic Sans MS" font-size="12" lengthAdjust="spacing" textLength="239" x="384" y="558.7086">&#35843;&#29992;ResoureceEventHnadler&#30340;OnUpdate()</text><text fill="#333333" font-family="Comic Sans MS" font-size="12" lengthAdjust="spacing" textLength="3" x="384" y="576.0847">&#160;</text><text fill="#333333" font-family="Comic Sans MS" font-size="12" lengthAdjust="spacing" textLength="152" x="435" y="576.0847">handler.OnUpdate(old, obj)</text><rect fill="#F0E8F5" height="54.7522" rx="12.5" ry="12.5" style="stroke:#181818;stroke-width:0.5;" width="182" x="681" y="460.0362"/><text fill="#333333" font-family="Comic Sans MS" font-size="12" lengthAdjust="spacing" textLength="162" x="691" y="483.9563">&#19981;&#23384;&#22312;&#23558;&#23545;&#35937;&#28155;&#21152;&#21040;indexer&#20013;</text><text fill="#333333" font-family="Comic Sans MS" font-size="12" lengthAdjust="spacing" textLength="3" x="691" y="501.3325">&#160;</text><text fill="#333333" font-family="Comic Sans MS" font-size="12" lengthAdjust="spacing" textLength="111" x="718" y="501.3325">clientState.Add(obj)</text><rect fill="#F0E8F5" height="54.7522" rx="12.5" ry="12.5" style="stroke:#181818;stroke-width:0.5;" width="238" x="653" y="534.7885"/><text fill="#333333" font-family="Comic Sans MS" font-size="12" lengthAdjust="spacing" textLength="218" x="663" y="558.7086">&#35843;&#29992;ResoureceEventHnadler&#30340;OnAdd()</text><text fill="#333333" font-family="Comic Sans MS" font-size="12" lengthAdjust="spacing" textLength="187" x="681" y="576.0847">handler.OnAdd(obj, isInInitialList)</text><polygon fill="#FFDEE3" points="637.75,595.5407,649.75,607.5407,637.75,619.5407,625.75,607.5407,637.75,595.5407" style="stroke:#FF69B4;stroke-width:0.5;"/><rect fill="#F0E8F5" height="54.7522" rx="12.5" ry="12.5" style="stroke:#181818;stroke-width:0.5;" width="266" x="901" y="317.364"/><text fill="#333333" font-family="Comic Sans MS" font-size="12" lengthAdjust="spacing" textLength="246" x="911" y="341.2841">&#22914;&#26524;&#26159;&#21024;&#38500;&#25805;&#20316;&#65292;&#21017;&#20174;indexer&#20013;&#21024;&#38500;&#36825;&#20010;&#23545;&#35937;</text><text fill="#333333" font-family="Comic Sans MS" font-size="12" lengthAdjust="spacing" textLength="127" x="962" y="358.6603">clientState.Delete(obj)</text><rect fill="#F0E8F5" height="54.7522" rx="12.5" ry="12.5" style="stroke:#181818;stroke-width:0.5;" width="254" x="907" y="397.9082"/><text fill="#333333" font-family="Comic Sans MS" font-size="12" lengthAdjust="spacing" textLength="234" x="917" y="421.8283">&#35843;&#29992;ResoureceEventHnadler&#30340;OnDelete()</text><text fill="#333333" font-family="Comic Sans MS" font-size="12" lengthAdjust="spacing" textLength="124" x="968" y="439.2044">handler.OnDelete(obj)</text><polygon fill="#FFDEE3" points="775.5,629.5407,775.5,629.5407,787.5,641.5407,775.5,653.5407,775.5,653.5407,763.5,641.5407,775.5,629.5407" style="stroke:#FF69B4;stroke-width:0.5;"/><polygon fill="#FFDEE3" points="703,121.5438,848,121.5438,860,133.5438,848,145.5438,703,145.5438,691,133.5438,703,121.5438" style="stroke:#FF69B4;stroke-width:0.5;"/><text fill="#FF1493" font-family="Comic Sans MS" font-size="16" lengthAdjust="spacing" textLength="141" x="707" y="140.5198">_, d := range deltas</text><ellipse cx="775.5" cy="718.5407" fill="none" rx="11" ry="11" style="stroke:#222222;stroke-width:1.0;"/><ellipse cx="775.5" cy="718.5407" fill="#F0E8F5" rx="6" ry="6" style="stroke:#222222;stroke-width:1.0;"/><line style="stroke:#181818;stroke-width:1.0;" x1="503.5" x2="503.5" y1="514.7885" y2="534.7885"/><polygon fill="#181818" points="499.5,524.7885,503.5,534.7885,507.5,524.7885,503.5,528.7885" style="stroke:#181818;stroke-width:1.0;"/><line style="stroke:#181818;stroke-width:1.0;" x1="772" x2="772" y1="514.7885" y2="534.7885"/><polygon fill="#181818" points="768,524.7885,772,534.7885,776,524.7885,772,528.7885" style="stroke:#181818;stroke-width:1.0;"/><line style="stroke:#181818;stroke-width:1.0;" x1="591.75" x2="503.5" y1="426.8682" y2="426.8682"/><line style="stroke:#181818;stroke-width:1.0;" x1="503.5" x2="503.5" y1="426.8682" y2="460.0362"/><polygon fill="#181818" points="499.5,450.0362,503.5,460.0362,507.5,450.0362,503.5,454.0362" style="stroke:#181818;stroke-width:1.0;"/><line style="stroke:#181818;stroke-width:1.0;" x1="683.75" x2="772" y1="426.8682" y2="426.8682"/><line style="stroke:#181818;stroke-width:1.0;" x1="772" x2="772" y1="426.8682" y2="460.0362"/><polygon fill="#181818" points="768,450.0362,772,460.0362,776,450.0362,772,454.0362" style="stroke:#181818;stroke-width:1.0;"/><line style="stroke:#181818;stroke-width:1.0;" x1="503.5" x2="503.5" y1="589.5407" y2="607.5407"/><line style="stroke:#181818;stroke-width:1.0;" x1="503.5" x2="625.75" y1="607.5407" y2="607.5407"/><polygon fill="#181818" points="615.75,603.5407,625.75,607.5407,615.75,611.5407,619.75,607.5407" style="stroke:#181818;stroke-width:1.0;"/><line style="stroke:#181818;stroke-width:1.0;" x1="772" x2="772" y1="589.5407" y2="607.5407"/><line style="stroke:#181818;stroke-width:1.0;" x1="772" x2="649.75" y1="607.5407" y2="607.5407"/><polygon fill="#181818" points="659.75,603.5407,649.75,607.5407,659.75,611.5407,655.75,607.5407" style="stroke:#181818;stroke-width:1.0;"/><line style="stroke:#181818;stroke-width:1.0;" x1="637.75" x2="637.75" y1="377.9082" y2="403.7001"/><polygon fill="#181818" points="633.75,393.7001,637.75,403.7001,641.75,393.7001,637.75,397.7001" style="stroke:#181818;stroke-width:1.0;"/><line style="stroke:#181818;stroke-width:1.0;" x1="1034" x2="1034" y1="372.1163" y2="397.9082"/><polygon fill="#181818" points="1030,387.9082,1034,397.9082,1038,387.9082,1034,391.9082" style="stroke:#181818;stroke-width:1.0;"/><line style="stroke:#181818;stroke-width:1.0;" x1="738" x2="637.75" y1="234.9199" y2="234.9199"/><line style="stroke:#181818;stroke-width:1.0;" x1="637.75" x2="637.75" y1="234.9199" y2="340.5321"/><polygon fill="#181818" points="633.75,330.5321,637.75,340.5321,641.75,330.5321,637.75,334.5321" style="stroke:#181818;stroke-width:1.0;"/><text fill="#FFD700" font-family="Comic Sans MS" font-size="16" lengthAdjust="spacing" textLength="245" x="637.75" y="278.588">Sync, Replaced, Added, Updated</text><text fill="#FFD700" font-family="Comic Sans MS" font-size="16" lengthAdjust="spacing" textLength="203" x="641.75" y="301.756">&#38500;&#20102;Deleted&#20043;&#22806;&#30340;&#25152;&#26377;&#24773;&#20917;</text><line style="stroke:#181818;stroke-width:1.0;" x1="813" x2="1034" y1="234.9199" y2="234.9199"/><line style="stroke:#181818;stroke-width:1.0;" x1="1034" x2="1034" y1="234.9199" y2="317.364"/><polygon fill="#181818" points="1030,307.364,1034,317.364,1038,307.364,1034,311.364" style="stroke:#181818;stroke-width:1.0;"/><text fill="#FFD700" font-family="Comic Sans MS" font-size="16" lengthAdjust="spacing" textLength="59" x="1034" y="278.588">Deleted</text><line style="stroke:#181818;stroke-width:1.0;" x1="637.75" x2="637.75" y1="619.5407" y2="641.5407"/><line style="stroke:#181818;stroke-width:1.0;" x1="637.75" x2="763.5" y1="641.5407" y2="641.5407"/><polygon fill="#181818" points="753.5,637.5407,763.5,641.5407,753.5,645.5407,757.5,641.5407" style="stroke:#181818;stroke-width:1.0;"/><line style="stroke:#181818;stroke-width:1.0;" x1="1034" x2="1034" y1="452.6605" y2="641.5407"/><line style="stroke:#181818;stroke-width:1.0;" x1="1034" x2="787.5" y1="641.5407" y2="641.5407"/><polygon fill="#181818" points="797.5,637.5407,787.5,641.5407,797.5,645.5407,793.5,641.5407" style="stroke:#181818;stroke-width:1.0;"/><line style="stroke:#181818;stroke-width:1.0;" x1="775.5" x2="775.5" y1="202.9199" y2="222.9199"/><polygon fill="#181818" points="771.5,212.9199,775.5,222.9199,779.5,212.9199,775.5,216.9199" style="stroke:#181818;stroke-width:1.0;"/><line style="stroke:#181818;stroke-width:1.0;" x1="775.5" x2="775.5" y1="145.5438" y2="165.5438"/><polygon fill="#181818" points="771.5,155.5438,775.5,165.5438,779.5,155.5438,775.5,159.5438" style="stroke:#181818;stroke-width:1.0;"/><line style="stroke:#181818;stroke-width:1.0;" x1="775.5" x2="775.5" y1="653.5407" y2="663.5407"/><line style="stroke:#181818;stroke-width:1.0;" x1="775.5" x2="1179" y1="663.5407" y2="663.5407"/><polygon fill="#181818" points="1175,448.4082,1179,438.4082,1183,448.4082,1179,444.4082" style="stroke:#181818;stroke-width:1.0;"/><line style="stroke:#181818;stroke-width:1.0;" x1="1179" x2="1179" y1="133.5438" y2="663.5407"/><line style="stroke:#181818;stroke-width:1.0;" x1="1179" x2="860" y1="133.5438" y2="133.5438"/><polygon fill="#181818" points="870,129.5438,860,133.5438,870,137.5438,866,133.5438" style="stroke:#181818;stroke-width:1.0;"/><line style="stroke:#181818;stroke-width:1.0;" x1="691" x2="360" y1="133.5438" y2="133.5438"/><polygon fill="#181818" points="356,434.4082,360,444.4082,364,434.4082,360,438.4082" style="stroke:#181818;stroke-width:1.0;"/><line style="stroke:#181818;stroke-width:1.0;" x1="360" x2="360" y1="133.5438" y2="675.5407"/><line style="stroke:#181818;stroke-width:1.0;" x1="360" x2="775.5" y1="675.5407" y2="675.5407"/><line style="stroke:#181818;stroke-width:1.0;" x1="775.5" x2="775.5" y1="675.5407" y2="707.5407"/><polygon fill="#181818" points="771.5,697.5407,775.5,707.5407,779.5,697.5407,775.5,701.5407" style="stroke:#181818;stroke-width:1.0;"/><line style="stroke:#181818;stroke-width:1.0;" x1="775.5" x2="775.5" y1="71.2719" y2="121.5438"/><polygon fill="#181818" points="771.5,111.5438,775.5,121.5438,779.5,111.5438,775.5,115.5438" style="stroke:#181818;stroke-width:1.0;"/><!--SRC=[dLHRRzD857xthnY9bqIgkccR1WZiIariBqXSf0RUAgq6UsYdTSRHU4ef20aMMWAq1MaHIxkbW5IWGYfD9IwziF1dF6xwj7zXpzXk4hlDhdRdnVAPSxxlVESofpqnxP2VD6m9UesAQPtYKOwhwAQ6u9ImDJ7AtKbcbrt7vUYOcJDEc8FHdSjjmW_iPZbNBeLsqsKYjWuC3BHC5t2LeB9RfHQgOEQXynNjbgRP55TTPdUbCtN3Y33EKKPQriB9KZvDPffz-PF_o7TmLQ4t2EehA7xCkJiLioUmzEEvt7_4gc4kgA0kY_4I6US7E_3QEWRonqFhS2IQCy9HVwvRCOoyqQUOc2l8uQHpS4mpJNrYgBzaz1-DQ1ICWZaKzi6r9gk4YQwD63G7zRBoLERQKHLhzQI3NDU7ShhUJKwfK5PoJlyGpo1Kpo6enbsBU9vE784z-M5bRw6XQTu4PL1V6CmoZ4jOPOFP5HM7uXa29m4TY1DCe8G9J8rHSCwWNtgGZOe_8exPA0I73jdGGnrLsjQFEd9ZszzP23OU-rll8xJWnPlcniU_lix9cS_-rhh__OLSV-xlpCflTRcw5Fh0fR_zKZOsW-SRQJIvyzJVcfTFvlOsT-NAexsbUn05u73Lt7mDaStlY_ltvy2-VsTUBipwNvVytONWztVos-tWMQFvgT529B0vgOIBxfLnfSxklNXbd5ZYLElEcwB26aCPk_VIT8sq5LlOWx9KffdLWuP9pS4MiNlGa6shp-MQZGMnqGX3-ukh81Ba4J3usu_awZF8CNXmErX-4DoTaREViWcfHTS107ATUiA3B-SgBSkXC6KL0Q2zFnEHWMopfn9Xz2hq2CLnYXTAA9-yXHBBvRKieXxAW2MBn1XXYK1WZ9naVJ7uuoEKYZARN2SSUgIA79Ot5T6PJYJrY8m0kDcuk_TqRPXuxYGd5Z6kGTGPXcs7S82-oEBOR2eEZOWHWSOmKuwzBRUmC8TvYACQ0LhJC4KrBv6qncoa8_YoAn- -alKEZOUv4_AWeVzFcmey92myRM4nU0-qvomxos0_iNCE6fXM2AjxDJ5ucNYUsWH5-VRNO6LPTRt-2cOk-6tU_tDPRLjz4VQWhJUwXcLfxOwMA7kd-8WbfVzVbSTHMQrBEuz41OtHfcdnN_ZkQ6fLmvS9NYctzZS0]--></g></svg>