<?xml version="1.0" encoding="us-ascii" standalone="no"?><svg xmlns="http://www.w3.org/2000/svg" xmlns:xlink="http://www.w3.org/1999/xlink" contentStyleType="text/css" height="676px" preserveAspectRatio="none" style="width:405px;height:676px;background:#F5F5DC;" version="1.1" viewBox="0 0 405 676" width="405px" zoomAndPan="magnify"><defs/><g><rect fill="#F5F5DC" height="676" style="stroke:none;stroke-width:1.0;" width="405" x="0" y="0"/><text fill="#000000" font-family="sans-serif" font-size="14" font-weight="bold" lengthAdjust="spacing" textLength="95" x="153.5" y="36.2399">ByIndex()&#23454;&#29616;</text><ellipse cx="202.5" cy="61.2719" fill="#F0E8F5" rx="10" ry="10" style="stroke:#222222;stroke-width:1.0;"/><rect fill="#FFB6C1" height="542.1767" style="stroke:#DDA0DD;stroke-width:1.5;" width="383" x="11" y="81.2719"/><path d="M68,81.2719 L68,94.5438 L58,104.5438 L11,104.5438 " fill="none" style="stroke:#DDA0DD;stroke-width:1.5;"/><text fill="#FF69B4" font-family="Comic Sans MS" font-size="14" lengthAdjust="spacing" textLength="47" x="14" y="98.5118">Index()</text><rect fill="#F0E8F5" height="37.3761" rx="12.5" ry="12.5" style="stroke:#181818;stroke-width:0.5;" width="363" x="21" y="121.5438"/><text fill="#333333" font-family="Comic Sans MS" font-size="12" lengthAdjust="spacing" textLength="343" x="31" y="145.4639">set, err := c.index.getKeysByIndex(indexName, indexedValue)</text><rect fill="#FFB6C1" height="204.4003" style="stroke:#DDA0DD;stroke-width:1.5;" width="239" x="83" y="168.9199"/><path d="M208,168.9199 L208,182.1919 L198,192.1919 L83,192.1919 " fill="none" style="stroke:#DDA0DD;stroke-width:1.5;"/><text fill="#FF69B4" font-family="Comic Sans MS" font-size="14" lengthAdjust="spacing" textLength="115" x="86" y="186.1599">getKeysByIndex()</text><rect fill="#F0E8F5" height="37.3761" rx="12.5" ry="12.5" style="stroke:#181818;stroke-width:0.5;" width="219" x="93" y="209.1919"/><text fill="#333333" font-family="Comic Sans MS" font-size="12" lengthAdjust="spacing" textLength="199" x="103" y="233.112">indexFunc := i.indexers[indexName]</text><rect fill="#F0E8F5" height="37.3761" rx="12.5" ry="12.5" style="stroke:#181818;stroke-width:0.5;" width="183" x="111" y="266.568"/><text fill="#333333" font-family="Comic Sans MS" font-size="12" lengthAdjust="spacing" textLength="163" x="121" y="290.4881">index := i.indices[indexName]</text><rect fill="#F0E8F5" height="37.3761" rx="12.5" ry="12.5" style="stroke:#181818;stroke-width:0.5;" width="191" x="107" y="323.9441"/><text fill="#333333" font-family="Comic Sans MS" font-size="12" lengthAdjust="spacing" textLength="171" x="117" y="347.8642">return index[indexedValue], nil</text><rect fill="#F0E8F5" height="37.3761" rx="12.5" ry="12.5" style="stroke:#181818;stroke-width:0.5;" width="229" x="88" y="393.3202"/><text fill="#333333" font-family="Comic Sans MS" font-size="12" lengthAdjust="spacing" textLength="209" x="98" y="417.2403">list := make([]interface{}, 0, set.Len())</text><rect fill="#F0E8F5" height="37.3761" rx="12.5" ry="12.5" style="stroke:#181818;stroke-width:0.5;" width="192" x="106.5" y="494.6963"/><text fill="#333333" font-family="Comic Sans MS" font-size="12" lengthAdjust="spacing" textLength="172" x="116.5" y="518.6164">list = append(list, c.items[key])</text><polygon fill="#FFDEE3" points="144.5,450.6963,260.5,450.6963,272.5,462.6963,260.5,474.6963,144.5,474.6963,132.5,462.6963,144.5,450.6963" style="stroke:#FF69B4;stroke-width:0.5;"/><text fill="#FF1493" font-family="Comic Sans MS" font-size="16" lengthAdjust="spacing" textLength="116" x="144.5" y="469.6724">key := range set</text><rect fill="#F0E8F5" height="37.3761" rx="12.5" ry="12.5" style="stroke:#181818;stroke-width:0.5;" width="95" x="155" y="574.0725"/><text fill="#333333" font-family="Comic Sans MS" font-size="12" lengthAdjust="spacing" textLength="75" x="165" y="597.9926">return list, nil</text><ellipse cx="202.5" cy="654.4486" fill="none" rx="11" ry="11" style="stroke:#222222;stroke-width:1.0;"/><ellipse cx="202.5" cy="654.4486" fill="#F0E8F5" rx="6" ry="6" style="stroke:#222222;stroke-width:1.0;"/><line style="stroke:#181818;stroke-width:1.0;" x1="202.5" x2="202.5" y1="246.568" y2="266.568"/><polygon fill="#181818" points="198.5,256.568,202.5,266.568,206.5,256.568,202.5,260.568" style="stroke:#181818;stroke-width:1.0;"/><line style="stroke:#181818;stroke-width:1.0;" x1="202.5" x2="202.5" y1="303.9441" y2="323.9441"/><polygon fill="#181818" points="198.5,313.9441,202.5,323.9441,206.5,313.9441,202.5,317.9441" style="stroke:#181818;stroke-width:1.0;"/><line style="stroke:#181818;stroke-width:1.0;" x1="202.5" x2="202.5" y1="158.9199" y2="209.1919"/><polygon fill="#181818" points="198.5,199.1919,202.5,209.1919,206.5,199.1919,202.5,203.1919" style="stroke:#181818;stroke-width:1.0;"/><line style="stroke:#181818;stroke-width:1.0;" x1="202.5" x2="202.5" y1="361.3202" y2="393.3202"/><polygon fill="#181818" points="198.5,383.3202,202.5,393.3202,206.5,383.3202,202.5,387.3202" style="stroke:#181818;stroke-width:1.0;"/><line style="stroke:#181818;stroke-width:1.0;" x1="202.5" x2="202.5" y1="474.6963" y2="494.6963"/><polygon fill="#181818" points="198.5,484.6963,202.5,494.6963,206.5,484.6963,202.5,488.6963" style="stroke:#181818;stroke-width:1.0;"/><line style="stroke:#181818;stroke-width:1.0;" x1="202.5" x2="202.5" y1="532.0725" y2="542.0725"/><line style="stroke:#181818;stroke-width:1.0;" x1="202.5" x2="310.5" y1="542.0725" y2="542.0725"/><polygon fill="#181818" points="306.5,511.3844,310.5,501.3844,314.5,511.3844,310.5,507.3844" style="stroke:#181818;stroke-width:1.0;"/><line style="stroke:#181818;stroke-width:1.0;" x1="310.5" x2="310.5" y1="462.6963" y2="542.0725"/><line style="stroke:#181818;stroke-width:1.0;" x1="310.5" x2="272.5" y1="462.6963" y2="462.6963"/><polygon fill="#181818" points="282.5,458.6963,272.5,462.6963,282.5,466.6963,278.5,462.6963" style="stroke:#181818;stroke-width:1.0;"/><line style="stroke:#181818;stroke-width:1.0;" x1="132.5" x2="94.5" y1="462.6963" y2="462.6963"/><polygon fill="#181818" points="90.5,497.3844,94.5,507.3844,98.5,497.3844,94.5,501.3844" style="stroke:#181818;stroke-width:1.0;"/><line style="stroke:#181818;stroke-width:1.0;" x1="94.5" x2="94.5" y1="462.6963" y2="554.0725"/><line style="stroke:#181818;stroke-width:1.0;" x1="94.5" x2="202.5" y1="554.0725" y2="554.0725"/><line style="stroke:#181818;stroke-width:1.0;" x1="202.5" x2="202.5" y1="554.0725" y2="574.0725"/><polygon fill="#181818" points="198.5,564.0725,202.5,574.0725,206.5,564.0725,202.5,568.0725" style="stroke:#181818;stroke-width:1.0;"/><line style="stroke:#181818;stroke-width:1.0;" x1="202.5" x2="202.5" y1="430.6963" y2="450.6963"/><polygon fill="#181818" points="198.5,440.6963,202.5,450.6963,206.5,440.6963,202.5,444.6963" style="stroke:#181818;stroke-width:1.0;"/><line style="stroke:#181818;stroke-width:1.0;" x1="202.5" x2="202.5" y1="71.2719" y2="121.5438"/><polygon fill="#181818" points="198.5,111.5438,202.5,121.5438,206.5,111.5438,202.5,115.5438" style="stroke:#181818;stroke-width:1.0;"/><line style="stroke:#181818;stroke-width:1.0;" x1="202.5" x2="202.5" y1="611.4486" y2="643.4486"/><polygon fill="#181818" points="198.5,633.4486,202.5,643.4486,206.5,633.4486,202.5,637.4486" style="stroke:#181818;stroke-width:1.0;"/><!--SRC=[bLDBRjim55nNfo2GZGG8ZcpBIk8a1QmFWI9f5pMGZU458RswX2LIeAYcQf0hz0WzGj5B5Rr6IUeJnuaAb2jn-DxCl25rLSacXxSMIINzGcKJKx8Jf40F5b8h9Eb-9tZDieZdNA0Jx2NdUD6USP61w74SUL5eSCoPxD3vV3v07qW1AE85JT6Qi0gzNrkFbfLHKd2MZShXE4bQZblAO423Yz0_5iDuwb_yKwy_MjDlWAQ1rYT2yFjE_HbNVEPv_ybL4Y6ff9nrVCyS-ui3lgSvvlwPGJ-sGmi60isyiJ0IFvbg9SObl3JjgONniVJvQXOcizSPao09yChS0q_h0fWSlOW5NiIHhjHm-LfYmvqSYCVnoelZiN728DBZN9rsRr2bbmCActSiWw-sy_ldZp_VVrbMjQTCPQiUPQIUYaauOTbQzw3k_QWYgTBlp7Nzrh82wI8G0YslKJgX6fxiGDv0K_Kg1jJtwoBp2TaToMjmBetfbk-enJ57UYrD2wvPgXLegm2YsWoisykZug6GfZ1I9q3MWhLsDeUcjYvYD6yhGVqqnftPBNDQIKrTa3tOcorb4iGdaiB3euiy5waW9hV0RAURw_upLU7PUsXqao1i1xgcdwobkqQaB9MEhNUk3b12KMrKqzOPJ1WcwqrlkYqrBfySLfANVm40]--></g></svg>