<?xml version="1.0" encoding="us-ascii" standalone="no"?><svg xmlns="http://www.w3.org/2000/svg" xmlns:xlink="http://www.w3.org/1999/xlink" contentStyleType="text/css" height="1176px" preserveAspectRatio="none" style="width:864px;height:1176px;background:#F5F5DC;" version="1.1" viewBox="0 0 864 1176" width="864px" zoomAndPan="magnify"><defs/><g><rect fill="#F5F5DC" height="1176" style="stroke:none;stroke-width:1.0;" width="864" x="0" y="0"/><text fill="#000000" font-family="sans-serif" font-size="14" font-weight="bold" lengthAdjust="spacing" textLength="77" x="392" y="36.2399">Index()&#23454;&#29616;</text><ellipse cx="455.75" cy="61.2719" fill="#F0E8F5" rx="10" ry="10" style="stroke:#222222;stroke-width:1.0;"/><rect fill="#FFB6C1" height="1084.5897" style="stroke:#DDA0DD;stroke-width:1.5;" width="842" x="11" y="81.2719"/><path d="M68,81.2719 L68,94.5438 L58,104.5438 L11,104.5438 " fill="none" style="stroke:#DDA0DD;stroke-width:1.5;"/><text fill="#FF69B4" font-family="Comic Sans MS" font-size="14" lengthAdjust="spacing" textLength="47" x="14" y="98.5118">Index()</text><rect fill="#F0E8F5" height="37.3761" rx="12.5" ry="12.5" style="stroke:#181818;stroke-width:0.5;" width="373" x="269.25" y="121.5438"/><text fill="#333333" font-family="Comic Sans MS" font-size="12" lengthAdjust="spacing" textLength="353" x="279.25" y="145.4639">storeKeySet, err := c.index.getKeysFromIndex(indexName, obj)</text><rect fill="#FFE4E1" height="701.3092" style="stroke:#DDA0DD;stroke-width:1.5;" width="822" x="21" y="168.9199"/><path d="M164,168.9199 L164,182.1919 L154,192.1919 L21,192.1919 " fill="none" style="stroke:#DDA0DD;stroke-width:1.5;"/><text fill="#FF69B4" font-family="Comic Sans MS" font-size="14" lengthAdjust="spacing" textLength="133" x="24" y="186.1599">getKeysFromIndex()</text><rect fill="#F0E8F5" height="54.7522" rx="12.5" ry="12.5" style="stroke:#181818;stroke-width:0.5;" width="398" x="256.75" y="209.1919"/><text fill="#333333" font-family="Comic Sans MS" font-size="12" lengthAdjust="spacing" textLength="378" x="266.75" y="233.112">&#25552;&#21462;&#32034;&#24341;&#20989;&#25968;&#65292;&#27604;&#22914;&#21516;namespace&#25552;&#21462;&#21040; MetaNamespaceIndexFunc</text><text fill="#333333" font-family="Comic Sans MS" font-size="12" lengthAdjust="spacing" textLength="3" x="266.75" y="250.4881">&#160;</text><text fill="#333333" font-family="Comic Sans MS" font-size="12" lengthAdjust="spacing" textLength="199" x="365.75" y="250.4881">indexFunc := i.indexers[indexName]</text><rect fill="#F0E8F5" height="54.7522" rx="12.5" ry="12.5" style="stroke:#181818;stroke-width:0.5;" width="222" x="344.75" y="283.9441"/><text fill="#333333" font-family="Comic Sans MS" font-size="12" lengthAdjust="spacing" textLength="196" x="354.75" y="307.8642">&#23545;&#35937;&#20002;&#36827;&#21435;&#25343;&#21040;&#32034;&#24341;&#20540;&#65292;&#27604;&#22914;default</text><text fill="#333333" font-family="Comic Sans MS" font-size="12" lengthAdjust="spacing" textLength="202" x="354.75" y="325.2403">indexedValues, err := indexFunc(obj)</text><rect fill="#F0E8F5" height="54.7522" rx="12.5" ry="12.5" style="stroke:#181818;stroke-width:0.5;" width="276" x="317.75" y="358.6963"/><text fill="#333333" font-family="Comic Sans MS" font-size="12" lengthAdjust="spacing" textLength="256" x="327.75" y="382.6164">indexName&#22914;namespace&#65292;&#36825;&#37324;&#21487;&#20197;&#26597;&#21040;Index</text><text fill="#333333" font-family="Comic Sans MS" font-size="12" lengthAdjust="spacing" textLength="9" x="327.75" y="399.9926">&#160;&#160;&#160;</text><text fill="#333333" font-family="Comic Sans MS" font-size="12" lengthAdjust="spacing" textLength="163" x="378.75" y="399.9926">index := i.indices[indexName]</text><rect fill="#F0E8F5" height="37.3761" rx="12.5" ry="12.5" style="stroke:#181818;stroke-width:0.5;" width="175" x="368.25" y="433.4486"/><text fill="#333333" font-family="Comic Sans MS" font-size="12" lengthAdjust="spacing" textLength="155" x="378.25" y="457.3687">var storeKeySet sets.String</text><polygon fill="#FFDEE3" points="366.75,495.1008,544.75,495.1008,556.75,507.1008,544.75,519.1008,366.75,519.1008,354.75,507.1008,366.75,495.1008" style="stroke:#FF69B4;stroke-width:0.5;"/><text fill="#FF1493" font-family="Comic Sans MS" font-size="16" lengthAdjust="spacing" textLength="178" x="366.75" y="514.0768">len(indexedValues) == 1</text><text fill="#FFD700" font-family="Comic Sans MS" font-size="16" lengthAdjust="spacing" textLength="16" x="338.75" y="502.4928">&#26159;</text><text fill="#FFD700" font-family="Comic Sans MS" font-size="16" lengthAdjust="spacing" textLength="16" x="556.75" y="502.4928">&#21542;</text><rect fill="#F0E8F5" height="54.7522" rx="12.5" ry="12.5" style="stroke:#181818;stroke-width:0.5;" width="428" x="33" y="529.1008"/><text fill="#333333" font-family="Comic Sans MS" font-size="12" lengthAdjust="spacing" textLength="408" x="43" y="553.0209">&#20248;&#21270;&#65306;&#22823;&#22810;&#25968;&#24773;&#20917;&#23545;&#24212;&#32034;&#24341;&#20540;&#20026;1&#30340;&#22330;&#26223;&#65292;&#27604;&#22914;&#29992;namespace&#26102;&#20540;&#23601;&#26159;&#21807;&#19968;&#30340;</text><text fill="#333333" font-family="Comic Sans MS" font-size="12" lengthAdjust="spacing" textLength="354" x="70" y="570.397">storeKeySet = index[indexedValues[0]])&#31867;&#20284;&#20110;=index["default"]</text><rect fill="#F0E8F5" height="37.3761" rx="12.5" ry="12.5" style="stroke:#181818;stroke-width:0.5;" width="172" x="578.5" y="529.1008"/><text fill="#333333" font-family="Comic Sans MS" font-size="12" lengthAdjust="spacing" textLength="152" x="588.5" y="553.0209">storeKeySet = sets.String{}</text><rect fill="#F0E8F5" height="37.3761" rx="12.5" ry="12.5" style="stroke:#181818;stroke-width:0.5;" width="155" x="587" y="689.4769"/><text fill="#333333" font-family="Comic Sans MS" font-size="12" lengthAdjust="spacing" textLength="135" x="597" y="713.397">storeKeySet.Insert(key)</text><polygon fill="#FFDEE3" points="541,645.4769,788,645.4769,800,657.4769,788,669.4769,541,669.4769,529,657.4769,541,645.4769" style="stroke:#FF69B4;stroke-width:0.5;"/><text fill="#FF1493" font-family="Comic Sans MS" font-size="16" lengthAdjust="spacing" textLength="247" x="541" y="664.4529">key := range index[indexedValue]</text><polygon fill="#FFDEE3" points="520,601.4769,809,601.4769,821,613.4769,809,625.4769,520,625.4769,508,613.4769,520,601.4769" style="stroke:#FF69B4;stroke-width:0.5;"/><text fill="#FF1493" font-family="Comic Sans MS" font-size="16" lengthAdjust="spacing" textLength="289" x="520" y="620.4529">_, indexedValue := range indexedValue</text><polygon fill="#FFDEE3" points="455.75,776.853,467.75,788.853,455.75,800.853,443.75,788.853,455.75,776.853" style="stroke:#FF69B4;stroke-width:0.5;"/><rect fill="#F0E8F5" height="37.3761" rx="12.5" ry="12.5" style="stroke:#181818;stroke-width:0.5;" width="148" x="381.75" y="820.853"/><text fill="#333333" font-family="Comic Sans MS" font-size="12" lengthAdjust="spacing" textLength="128" x="391.75" y="844.7731">return storeKeySet, nil</text><rect fill="#F0E8F5" height="37.3761" rx="12.5" ry="12.5" style="stroke:#181818;stroke-width:0.5;" width="281" x="315.25" y="890.2291"/><text fill="#333333" font-family="Comic Sans MS" font-size="12" lengthAdjust="spacing" textLength="261" x="325.25" y="914.1492">list := make([]interface{}, 0, storeKeySet.Len())</text><rect fill="#F0E8F5" height="37.3761" rx="12.5" ry="12.5" style="stroke:#181818;stroke-width:0.5;" width="223" x="344.25" y="1037.1094"/><text fill="#333333" font-family="Comic Sans MS" font-size="12" lengthAdjust="spacing" textLength="203" x="354.25" y="1061.0295">list = append(list, c.items[storeKey])</text><polygon fill="#FFDEE3" points="296.25,947.6052,615.25,947.6052,627.25,982.3573,615.25,1017.1094,296.25,1017.1094,284.25,982.3573,296.25,947.6052" style="stroke:#FF69B4;stroke-width:0.5;"/><text fill="#FF1493" font-family="Comic Sans MS" font-size="16" lengthAdjust="spacing" textLength="317" x="296.25" y="966.1653">storeKey&#20063;&#23601;&#26159;default/pod_1&#36825;&#31181;&#23383;&#31526;&#20018;&#65292;</text><text fill="#FF1493" font-family="Comic Sans MS" font-size="16" lengthAdjust="spacing" textLength="311" x="300.25" y="989.3333">&#36890;&#36807;&#20854;&#23601;&#21487;&#20197;&#21040;items map&#20013;&#25552;&#21462;&#38656;&#35201;&#30340;obj</text><text fill="#FF1493" font-family="Comic Sans MS" font-size="16" lengthAdjust="spacing" textLength="223" x="344.25" y="1012.5014">storeKey := range storeKeySet</text><rect fill="#F0E8F5" height="37.3761" rx="12.5" ry="12.5" style="stroke:#181818;stroke-width:0.5;" width="95" x="408.25" y="1116.4855"/><text fill="#333333" font-family="Comic Sans MS" font-size="12" lengthAdjust="spacing" textLength="75" x="418.25" y="1140.4056">return list, nil</text><line style="stroke:#181818;stroke-width:1.0;" x1="455.75" x2="455.75" y1="263.9441" y2="283.9441"/><polygon fill="#181818" points="451.75,273.9441,455.75,283.9441,459.75,273.9441,455.75,277.9441" style="stroke:#181818;stroke-width:1.0;"/><line style="stroke:#181818;stroke-width:1.0;" x1="455.75" x2="455.75" y1="338.6963" y2="358.6963"/><polygon fill="#181818" points="451.75,348.6963,455.75,358.6963,459.75,348.6963,455.75,352.6963" style="stroke:#181818;stroke-width:1.0;"/><line style="stroke:#181818;stroke-width:1.0;" x1="455.75" x2="455.75" y1="413.4486" y2="433.4486"/><polygon fill="#181818" points="451.75,423.4486,455.75,433.4486,459.75,423.4486,455.75,427.4486" style="stroke:#181818;stroke-width:1.0;"/><line style="stroke:#181818;stroke-width:1.0;" x1="664.5" x2="664.5" y1="669.4769" y2="689.4769"/><polygon fill="#181818" points="660.5,679.4769,664.5,689.4769,668.5,679.4769,664.5,683.4769" style="stroke:#181818;stroke-width:1.0;"/><line style="stroke:#181818;stroke-width:1.0;" x1="664.5" x2="664.5" y1="726.853" y2="736.853"/><line style="stroke:#181818;stroke-width:1.0;" x1="664.5" x2="812" y1="736.853" y2="736.853"/><polygon fill="#181818" points="808,706.1649,812,696.1649,816,706.1649,812,702.1649" style="stroke:#181818;stroke-width:1.0;"/><line style="stroke:#181818;stroke-width:1.0;" x1="812" x2="812" y1="657.4769" y2="736.853"/><line style="stroke:#181818;stroke-width:1.0;" x1="812" x2="800" y1="657.4769" y2="657.4769"/><polygon fill="#181818" points="810,653.4769,800,657.4769,810,661.4769,806,657.4769" style="stroke:#181818;stroke-width:1.0;"/><line style="stroke:#181818;stroke-width:1.0;" x1="529" x2="517" y1="657.4769" y2="657.4769"/><polygon fill="#181818" points="513,692.1649,517,702.1649,521,692.1649,517,696.1649" style="stroke:#181818;stroke-width:1.0;"/><line style="stroke:#181818;stroke-width:1.0;" x1="517" x2="517" y1="657.4769" y2="748.853"/><line style="stroke:#181818;stroke-width:1.0;" x1="517" x2="833" y1="748.853" y2="748.853"/><line style="stroke:#181818;stroke-width:1.0;" x1="833" x2="833" y1="613.4769" y2="748.853"/><line style="stroke:#181818;stroke-width:1.0;" x1="833" x2="821" y1="613.4769" y2="613.4769"/><polygon fill="#181818" points="831,609.4769,821,613.4769,831,617.4769,827,613.4769" style="stroke:#181818;stroke-width:1.0;"/><line style="stroke:#181818;stroke-width:1.0;" x1="664.5" x2="664.5" y1="625.4769" y2="645.4769"/><polygon fill="#181818" points="660.5,635.4769,664.5,645.4769,668.5,635.4769,664.5,639.4769" style="stroke:#181818;stroke-width:1.0;"/><line style="stroke:#181818;stroke-width:1.0;" x1="508" x2="493" y1="613.4769" y2="613.4769"/><polygon fill="#181818" points="489,689.1649,493,699.1649,497,689.1649,493,693.1649" style="stroke:#181818;stroke-width:1.0;"/><line style="stroke:#181818;stroke-width:1.0;" x1="493" x2="493" y1="613.4769" y2="788.853"/><line style="stroke:#181818;stroke-width:1.0;" x1="493" x2="467.75" y1="788.853" y2="788.853"/><polygon fill="#181818" points="477.75,784.853,467.75,788.853,477.75,792.853,473.75,788.853" style="stroke:#181818;stroke-width:1.0;"/><line style="stroke:#181818;stroke-width:1.0;" x1="664.5" x2="664.5" y1="566.4769" y2="601.4769"/><polygon fill="#181818" points="660.5,591.4769,664.5,601.4769,668.5,591.4769,664.5,595.4769" style="stroke:#181818;stroke-width:1.0;"/><line style="stroke:#181818;stroke-width:1.0;" x1="354.75" x2="247" y1="507.1008" y2="507.1008"/><line style="stroke:#181818;stroke-width:1.0;" x1="247" x2="247" y1="507.1008" y2="529.1008"/><polygon fill="#181818" points="243,519.1008,247,529.1008,251,519.1008,247,523.1008" style="stroke:#181818;stroke-width:1.0;"/><line style="stroke:#181818;stroke-width:1.0;" x1="556.75" x2="664.5" y1="507.1008" y2="507.1008"/><line style="stroke:#181818;stroke-width:1.0;" x1="664.5" x2="664.5" y1="507.1008" y2="529.1008"/><polygon fill="#181818" points="660.5,519.1008,664.5,529.1008,668.5,519.1008,664.5,523.1008" style="stroke:#181818;stroke-width:1.0;"/><line style="stroke:#181818;stroke-width:1.0;" x1="247" x2="247" y1="583.853" y2="788.853"/><line style="stroke:#181818;stroke-width:1.0;" x1="247" x2="443.75" y1="788.853" y2="788.853"/><polygon fill="#181818" points="433.75,784.853,443.75,788.853,433.75,792.853,437.75,788.853" style="stroke:#181818;stroke-width:1.0;"/><line style="stroke:#181818;stroke-width:1.0;" x1="455.75" x2="455.75" y1="470.8247" y2="495.1008"/><polygon fill="#181818" points="451.75,485.1008,455.75,495.1008,459.75,485.1008,455.75,489.1008" style="stroke:#181818;stroke-width:1.0;"/><line style="stroke:#181818;stroke-width:1.0;" x1="455.75" x2="455.75" y1="800.853" y2="820.853"/><polygon fill="#181818" points="451.75,810.853,455.75,820.853,459.75,810.853,455.75,814.853" style="stroke:#181818;stroke-width:1.0;"/><line style="stroke:#181818;stroke-width:1.0;" x1="455.75" x2="455.75" y1="158.9199" y2="209.1919"/><polygon fill="#181818" points="451.75,199.1919,455.75,209.1919,459.75,199.1919,455.75,203.1919" style="stroke:#181818;stroke-width:1.0;"/><line style="stroke:#181818;stroke-width:1.0;" x1="455.75" x2="455.75" y1="858.2291" y2="890.2291"/><polygon fill="#181818" points="451.75,880.2291,455.75,890.2291,459.75,880.2291,455.75,884.2291" style="stroke:#181818;stroke-width:1.0;"/><line style="stroke:#181818;stroke-width:1.0;" x1="455.75" x2="455.75" y1="1017.1094" y2="1037.1094"/><polygon fill="#181818" points="451.75,1027.1094,455.75,1037.1094,459.75,1027.1094,455.75,1031.1094" style="stroke:#181818;stroke-width:1.0;"/><line style="stroke:#181818;stroke-width:1.0;" x1="455.75" x2="455.75" y1="1074.4855" y2="1084.4855"/><line style="stroke:#181818;stroke-width:1.0;" x1="455.75" x2="639.25" y1="1084.4855" y2="1084.4855"/><polygon fill="#181818" points="635.25,1042.4214,639.25,1032.4214,643.25,1042.4214,639.25,1038.4214" style="stroke:#181818;stroke-width:1.0;"/><line style="stroke:#181818;stroke-width:1.0;" x1="639.25" x2="639.25" y1="982.3573" y2="1084.4855"/><line style="stroke:#181818;stroke-width:1.0;" x1="639.25" x2="627.25" y1="982.3573" y2="982.3573"/><polygon fill="#181818" points="637.25,978.3573,627.25,982.3573,637.25,986.3573,633.25,982.3573" style="stroke:#181818;stroke-width:1.0;"/><line style="stroke:#181818;stroke-width:1.0;" x1="284.25" x2="272.25" y1="982.3573" y2="982.3573"/><polygon fill="#181818" points="268.25,1028.4214,272.25,1038.4214,276.25,1028.4214,272.25,1032.4214" style="stroke:#181818;stroke-width:1.0;"/><line style="stroke:#181818;stroke-width:1.0;" x1="272.25" x2="272.25" y1="982.3573" y2="1096.4855"/><line style="stroke:#181818;stroke-width:1.0;" x1="272.25" x2="455.75" y1="1096.4855" y2="1096.4855"/><line style="stroke:#181818;stroke-width:1.0;" x1="455.75" x2="455.75" y1="1096.4855" y2="1116.4855"/><polygon fill="#181818" points="451.75,1106.4855,455.75,1116.4855,459.75,1106.4855,455.75,1110.4855" style="stroke:#181818;stroke-width:1.0;"/><line style="stroke:#181818;stroke-width:1.0;" x1="455.75" x2="455.75" y1="927.6052" y2="947.6052"/><polygon fill="#181818" points="451.75,937.6052,455.75,947.6052,459.75,937.6052,455.75,941.6052" style="stroke:#181818;stroke-width:1.0;"/><line style="stroke:#181818;stroke-width:1.0;" x1="455.75" x2="455.75" y1="71.2719" y2="121.5438"/><polygon fill="#181818" points="451.75,111.5438,455.75,121.5438,459.75,111.5438,455.75,115.5438" style="stroke:#181818;stroke-width:1.0;"/><!--SRC=[bLHTRnD757rcVyK8NdObowmJnu2DAyNsheGAFDHINnmBRRqJCyrwrfeTGzCeKe3IL6gQv25yfQW81A4FfKugG2Onof_PiPqd_a9dTtR7tf0WCNxQE_UUS-wvTtpPeuiE_4Qn6XJTGdInWgmciLfWIG7ybAp6GfEu7MoNNSSbu9of6nVD6N7d4XkIE6wMzN8fZ9ikfb5qUdfQXgvRBGZARWirGDN27hXMLPOLnKPMoyNsgNHcnJ04nbM4eOpcBfMonybCCvEzz4M- -AgAVeOWamluBKBSsn5x0gjoGTU_4gjj4OeeSd64br2SdPd06_SndRqGHhyJJHCC2PZIJpF3o1gPW0cx57ukMkV7D8zJNvoTAXbJ9oCQEIDdpePpS1kT5iJqr47Cc3ELSf0PXDidEIPdCa5UgSpgbSffxPHovQ2To-UZ7UJkEH1SmJRyITNOltyDrtSLnLj0c3lBLxBC5oNqry1sDQW0qVRm9CgzZxL504hUeow1tyB5AgGf00a1-I9ef55mdMv2ocyyaxWjaH-6Wq6dWFl3ZreX52q0FylLv310TFA3ZKssyN3uzWNhFs2h7mSFTZ_rrmRTBRPpbsskOOxhjQq656dijrrm3LBhUXmEOSqERaX0C4V53w3uBf2FX7n8l9eKN1TQywpxORJttE-z61t-oTOF1hyVSfv8qKfVoh7XlDLng7968DdVMqu7Uj8WIQSA6yxa9H4lbermkD7XawFLDRRHzGzU3PwzucHX6qgiNa19rQW1Jn1zoo9WOax0WzHBLob1k5bGmXGq3rG7OZKXLmF58iXe07b07JpkQe3UX3WoB-_t7xErXv_ws-pbQ_PocyzYSEy- -_KTDuZjRqb7_Dv-PhZz2tkwFtZIbVOCj_uUJ-lHUvx7TlSu1Tlg-hqLdg_4yqdeZeoh9LJMz7fT6-uT-Fs-lxzU51bdem6SZIo0ZWU1oZPtj5X_4dV2aQNbGfHp-oRY-w_UI859mi1hOk4cJ4GrkLHHrG9SF9QPa5qV5oJ5fAzW3n8Qr6i5cGEn7U8g9tpo3pGl1aqWxH0C4cyI8wSGvuct9d8TvD50OSjQW6gjZZ25P9xFOsav1VJK94RwAjyCBL8JjHTV-n-UYT55Xfzlk_QD3D_QuUi_s9j7mtzs_Dv_VEvp61ojR8yELzdzzxn0B3JVPaHXo-CQsdxlZNYtHqzNHZjt-0xmfm7cC5y1VcAwiQKJ-kHCmvQAm6gtUQzgy9KA_ei2YbgSNzUa6sCBO-D4IUYOTEj_]--></g></svg>