<?xml version="1.0" encoding="us-ascii" standalone="no"?><svg xmlns="http://www.w3.org/2000/svg" xmlns:xlink="http://www.w3.org/1999/xlink" contentStyleType="text/css" height="1568px" preserveAspectRatio="none" style="width:642px;height:1568px;background:#F5F5DC;" version="1.1" viewBox="0 0 642 1568" width="642px" zoomAndPan="magnify"><defs/><g><rect fill="#F5F5DC" height="1568" style="stroke:none;stroke-width:1.0;" width="642" x="0" y="0"/><text fill="#000000" font-family="sans-serif" font-size="14" font-weight="bold" lengthAdjust="spacing" textLength="136" x="251.75" y="36.2399">updateIndices()&#23454;&#29616;</text><ellipse cx="334.5" cy="61.2719" fill="#F0E8F5" rx="10" ry="10" style="stroke:#222222;stroke-width:1.0;"/><rect fill="#FFB6C1" height="1433.9344" style="stroke:#DDA0DD;stroke-width:1.5;" width="620.5" x="11" y="81.2719"/><path d="M127,81.2719 L127,94.5438 L117,104.5438 L11,104.5438 " fill="none" style="stroke:#DDA0DD;stroke-width:1.5;"/><text fill="#FF69B4" font-family="Comic Sans MS" font-size="14" lengthAdjust="spacing" textLength="106" x="14" y="98.5118">updateIndices()</text><rect fill="#F0E8F5" height="37.3761" rx="12.5" ry="12.5" style="stroke:#181818;stroke-width:0.5;" width="288" x="190.5" y="207.94"/><text fill="#333333" font-family="Comic Sans MS" font-size="12" lengthAdjust="spacing" textLength="268" x="200.5" y="231.8601">i.updateSingleIndex(name, oldObj, newObj, key)</text><rect fill="#FFE4E1" height="1225.8903" style="stroke:#DDA0DD;stroke-width:1.5;" width="580.5" x="39" y="255.3161"/><path d="M185,255.3161 L185,268.588 L175,278.588 L39,278.588 " fill="none" style="stroke:#DDA0DD;stroke-width:1.5;"/><text fill="#FF69B4" font-family="Comic Sans MS" font-size="14" lengthAdjust="spacing" textLength="136" x="42" y="272.556">updateSingleIndex()</text><rect fill="#F0E8F5" height="37.3761" rx="12.5" ry="12.5" style="stroke:#181818;stroke-width:0.5;" width="243" x="213" y="295.588"/><text fill="#333333" font-family="Comic Sans MS" font-size="12" lengthAdjust="spacing" textLength="223" x="223" y="319.5081">var oldIndexValues, indexValues []string</text><rect fill="#F0E8F5" height="37.3761" rx="12.5" ry="12.5" style="stroke:#181818;stroke-width:0.5;" width="207" x="231" y="352.9641"/><text fill="#333333" font-family="Comic Sans MS" font-size="12" lengthAdjust="spacing" textLength="187" x="241" y="376.8842">indexFunc, ok := i.indexers[name]</text><polygon fill="#FFDEE3" points="194,410.3402,475,410.3402,487,433.5083,475,456.6763,194,456.6763,182,433.5083,194,410.3402" style="stroke:#FF69B4;stroke-width:0.5;"/><text fill="#FF1493" font-family="Comic Sans MS" font-size="16" lengthAdjust="spacing" textLength="277" x="194" y="428.9003">oldObj&#26159;&#21542;&#23384;&#22312;(&#26159;&#21024;&#38500;&#25110;&#20462;&#25913;&#25805;&#20316;&#21527;?)</text><text fill="#FF1493" font-family="Comic Sans MS" font-size="16" lengthAdjust="spacing" textLength="92" x="294" y="452.0683">oldObj != nil</text><text fill="#FFD700" font-family="Comic Sans MS" font-size="16" lengthAdjust="spacing" textLength="16" x="166" y="428.9003">&#26159;</text><text fill="#FFD700" font-family="Comic Sans MS" font-size="16" lengthAdjust="spacing" textLength="52" x="487" y="428.9003">&#21542;,&#21019;&#24314;</text><rect fill="#F0E8F5" height="37.3761" rx="12.5" ry="12.5" style="stroke:#181818;stroke-width:0.5;" width="242" x="51" y="466.6763"/><text fill="#333333" font-family="Comic Sans MS" font-size="12" lengthAdjust="spacing" textLength="222" x="61" y="490.5964">oldIndexValues, err = indexFunc(oldObj)</text><rect fill="#F0E8F5" height="54.7522" rx="12.5" ry="12.5" style="stroke:#181818;stroke-width:0.5;" width="221" x="386.5" y="466.6763"/><text fill="#333333" font-family="Comic Sans MS" font-size="12" lengthAdjust="spacing" textLength="84" x="456.5" y="490.5964">&#30456;&#24403;&#20110;&#32622;&#31354;&#25805;&#20316;</text><text fill="#333333" font-family="Comic Sans MS" font-size="12" lengthAdjust="spacing" textLength="201" x="396.5" y="507.9725">oldIndexValues = oldIndexValues[:0]</text><polygon fill="#FFDEE3" points="334.5,527.4286,346.5,539.4286,334.5,551.4286,322.5,539.4286,334.5,527.4286" style="stroke:#FF69B4;stroke-width:0.5;"/><polygon fill="#FFDEE3" points="190.5,571.4286,478.5,571.4286,490.5,594.5966,478.5,617.7647,190.5,617.7647,178.5,594.5966,190.5,571.4286" style="stroke:#FF69B4;stroke-width:0.5;"/><text fill="#FF1493" font-family="Comic Sans MS" font-size="16" lengthAdjust="spacing" textLength="284" x="190.5" y="589.9886">newObj&#26159;&#21542;&#23384;&#22312;(&#26159;&#21019;&#24314;&#25110;&#20462;&#25913;&#25805;&#20316;&#21527;?)</text><text fill="#FF1493" font-family="Comic Sans MS" font-size="16" lengthAdjust="spacing" textLength="99" x="290.5" y="613.1567">newObj != nil</text><text fill="#FFD700" font-family="Comic Sans MS" font-size="16" lengthAdjust="spacing" textLength="16" x="162.5" y="589.9886">&#26159;</text><text fill="#FFD700" font-family="Comic Sans MS" font-size="16" lengthAdjust="spacing" textLength="52" x="490.5" y="589.9886">&#21542;,&#21024;&#38500;</text><rect fill="#F0E8F5" height="37.3761" rx="12.5" ry="12.5" style="stroke:#181818;stroke-width:0.5;" width="231" x="53" y="627.7647"/><text fill="#333333" font-family="Comic Sans MS" font-size="12" lengthAdjust="spacing" textLength="211" x="63" y="651.6848">indexValues, err = indexFunc(newObj)</text><rect fill="#F0E8F5" height="54.7522" rx="12.5" ry="12.5" style="stroke:#181818;stroke-width:0.5;" width="185" x="408" y="627.7647"/><text fill="#333333" font-family="Comic Sans MS" font-size="12" lengthAdjust="spacing" textLength="84" x="478" y="651.6848">&#30456;&#24403;&#20110;&#32622;&#31354;&#25805;&#20316;</text><text fill="#333333" font-family="Comic Sans MS" font-size="12" lengthAdjust="spacing" textLength="165" x="418" y="669.0609">indexValues = indexValues[:0]</text><polygon fill="#FFDEE3" points="334.5,688.5169,346.5,700.5169,334.5,712.5169,322.5,700.5169,334.5,688.5169" style="stroke:#FF69B4;stroke-width:0.5;"/><rect fill="#F0E8F5" height="54.7522" rx="12.5" ry="12.5" style="stroke:#181818;stroke-width:0.5;" width="286" x="191.5" y="732.5169"/><text fill="#333333" font-family="Comic Sans MS" font-size="12" lengthAdjust="spacing" textLength="266" x="201.5" y="756.437">&#25343;&#21040;&#19968;&#20010;Index&#65292;&#23545;&#24212;&#31867;&#22411;map[string]sets.String</text><text fill="#333333" font-family="Comic Sans MS" font-size="12" lengthAdjust="spacing" textLength="131" x="273.5" y="773.8131">index := i.indices[name]</text><rect fill="#F0E8F5" height="72.1284" rx="12.5" ry="12.5" style="stroke:#181818;stroke-width:0.5;" width="151" x="259" y="883.1893"/><text fill="#333333" font-family="Comic Sans MS" font-size="12" lengthAdjust="spacing" textLength="72" x="302" y="907.1094">&#21017;&#21021;&#22987;&#21270;&#19968;&#20010;</text><text fill="#333333" font-family="Comic Sans MS" font-size="12" lengthAdjust="spacing" textLength="82" x="296" y="924.4855">index = Index{}</text><text fill="#333333" font-family="Comic Sans MS" font-size="12" lengthAdjust="spacing" textLength="128" x="272" y="941.8616">i.indices[name] = index</text><polygon fill="#FFDEE3" points="275.5,807.2691,393.5,807.2691,405.5,830.4372,393.5,853.6052,275.5,853.6052,263.5,830.4372,275.5,807.2691" style="stroke:#FF69B4;stroke-width:0.5;"/><text fill="#FFD700" font-family="Comic Sans MS" font-size="16" lengthAdjust="spacing" textLength="16" x="338.5" y="872.1653">&#26159;</text><text fill="#FF1493" font-family="Comic Sans MS" font-size="16" lengthAdjust="spacing" textLength="114" x="275.5" y="825.8292">&#22914;&#26524;map&#19981;&#23384;&#22312;</text><text fill="#FF1493" font-family="Comic Sans MS" font-size="16" lengthAdjust="spacing" textLength="86" x="291.5" y="848.9972">index == nil</text><text fill="#FFD700" font-family="Comic Sans MS" font-size="16" lengthAdjust="spacing" textLength="16" x="405.5" y="825.8292">&#21542;</text><polygon fill="#FFDEE3" points="334.5,975.3176,346.5,987.3176,334.5,999.3176,322.5,987.3176,334.5,975.3176" style="stroke:#FF69B4;stroke-width:0.5;"/><rect fill="#F0E8F5" height="37.3761" rx="12.5" ry="12.5" style="stroke:#181818;stroke-width:0.5;" width="56" x="306.5" y="1118.4058"/><text fill="#333333" font-family="Comic Sans MS" font-size="12" lengthAdjust="spacing" textLength="36" x="316.5" y="1142.3259">return</text><polygon fill="#FFDEE3" points="141.5,1019.3176,527.5,1019.3176,539.5,1054.0697,527.5,1088.8218,141.5,1088.8218,129.5,1054.0697,141.5,1019.3176" style="stroke:#FF69B4;stroke-width:0.5;"/><text fill="#FFD700" font-family="Comic Sans MS" font-size="16" lengthAdjust="spacing" textLength="16" x="338.5" y="1107.3818">&#26159;</text><text fill="#FF1493" font-family="Comic Sans MS" font-size="16" lengthAdjust="spacing" textLength="272" x="205.5" y="1037.8777">&#23567;&#20248;&#21270;&#65306;&#35201;&#20462;&#25913;&#26032;&#20540;&#30340;&#19982;&#21407;&#26469;&#26087;&#20540;&#19968;&#26679;</text><text fill="#FF1493" font-family="Comic Sans MS" font-size="16" lengthAdjust="spacing" textLength="374" x="145.5" y="1061.0457">len(indexValues) == 1 &amp;&amp; len(oldIndexValues) == 1</text><text fill="#FF1493" font-family="Comic Sans MS" font-size="16" lengthAdjust="spacing" textLength="296" x="209.5" y="1084.2138">&amp;&amp; indexValues[0] == oldIndexValues[0]</text><text fill="#FFD700" font-family="Comic Sans MS" font-size="16" lengthAdjust="spacing" textLength="16" x="539.5" y="1049.4617">&#21542;</text><rect fill="#F0E8F5" height="37.3761" rx="12.5" ry="12.5" style="stroke:#181818;stroke-width:0.5;" width="244" x="212.5" y="1264.118"/><text fill="#333333" font-family="Comic Sans MS" font-size="12" lengthAdjust="spacing" textLength="224" x="222.5" y="1288.0381">i.deleteKeyFromIndex(key, value, index)</text><polygon fill="#FFDEE3" points="162.5,1197.7819,506.5,1197.7819,518.5,1220.95,506.5,1244.118,162.5,1244.118,150.5,1220.95,162.5,1197.7819" style="stroke:#FF69B4;stroke-width:0.5;"/><text fill="#FF1493" font-family="Comic Sans MS" font-size="16" lengthAdjust="spacing" textLength="340" x="162.5" y="1216.342">&#22788;&#29702;oldIndexValues&#65292;&#20063;&#21363;&#26159;&#38656;&#35201;&#21024;&#38500;&#30340;&#32034;&#24341;&#20540;</text><text fill="#FF1493" font-family="Comic Sans MS" font-size="16" lengthAdjust="spacing" textLength="242" x="230.5" y="1239.51">_, value := range oldIndexValues</text><rect fill="#F0E8F5" height="37.3761" rx="12.5" ry="12.5" style="stroke:#181818;stroke-width:0.5;" width="213" x="228" y="1409.8302"/><text fill="#333333" font-family="Comic Sans MS" font-size="12" lengthAdjust="spacing" textLength="193" x="238" y="1433.7503">i.addKeyToIndex(key, value, index)</text><polygon fill="#FFDEE3" points="175.5,1343.4941,493.5,1343.4941,505.5,1366.6622,493.5,1389.8302,175.5,1389.8302,163.5,1366.6622,175.5,1343.4941" style="stroke:#FF69B4;stroke-width:0.5;"/><text fill="#FF1493" font-family="Comic Sans MS" font-size="16" lengthAdjust="spacing" textLength="314" x="175.5" y="1362.0542">&#22788;&#29702;indexValues&#65292;&#20063;&#23601;&#26159;&#38656;&#35201;&#28155;&#21152;&#30340;&#32034;&#24341;&#20540;</text><text fill="#FF1493" font-family="Comic Sans MS" font-size="16" lengthAdjust="spacing" textLength="216" x="243.5" y="1385.2222">_, value := range indexValues</text><polygon fill="#FFDEE3" points="234,121.5438,435,121.5438,447,144.7119,435,167.8799,234,167.8799,222,144.7119,234,121.5438" style="stroke:#FF69B4;stroke-width:0.5;"/><text fill="#FFD700" font-family="Comic Sans MS" font-size="16" lengthAdjust="spacing" textLength="16" x="338.5" y="186.44">&#26159;</text><text fill="#FF1493" font-family="Comic Sans MS" font-size="16" lengthAdjust="spacing" textLength="197" x="234" y="140.1039">&#25152;&#26377;&#36923;&#36753;&#37117;&#22312;&#36825;&#20010;for&#24490;&#29615;&#20013;</text><text fill="#FF1493" font-family="Comic Sans MS" font-size="16" lengthAdjust="spacing" textLength="182" x="238" y="163.2719">name := range i.indexers</text><text fill="#FFD700" font-family="Comic Sans MS" font-size="16" lengthAdjust="spacing" textLength="16" x="206" y="140.1039">&#21542;</text><ellipse cx="334.5" cy="1546.2063" fill="none" rx="11" ry="11" style="stroke:#222222;stroke-width:1.0;"/><ellipse cx="334.5" cy="1546.2063" fill="#F0E8F5" rx="6" ry="6" style="stroke:#222222;stroke-width:1.0;"/><line style="stroke:#181818;stroke-width:1.0;" x1="334.5" x2="334.5" y1="332.9641" y2="352.9641"/><polygon fill="#181818" points="330.5,342.9641,334.5,352.9641,338.5,342.9641,334.5,346.9641" style="stroke:#181818;stroke-width:1.0;"/><line style="stroke:#181818;stroke-width:1.0;" x1="182" x2="172" y1="433.5083" y2="433.5083"/><line style="stroke:#181818;stroke-width:1.0;" x1="172" x2="172" y1="433.5083" y2="466.6763"/><polygon fill="#181818" points="168,456.6763,172,466.6763,176,456.6763,172,460.6763" style="stroke:#181818;stroke-width:1.0;"/><line style="stroke:#181818;stroke-width:1.0;" x1="487" x2="497" y1="433.5083" y2="433.5083"/><line style="stroke:#181818;stroke-width:1.0;" x1="497" x2="497" y1="433.5083" y2="466.6763"/><polygon fill="#181818" points="493,456.6763,497,466.6763,501,456.6763,497,460.6763" style="stroke:#181818;stroke-width:1.0;"/><line style="stroke:#181818;stroke-width:1.0;" x1="172" x2="172" y1="504.0524" y2="539.4286"/><line style="stroke:#181818;stroke-width:1.0;" x1="172" x2="322.5" y1="539.4286" y2="539.4286"/><polygon fill="#181818" points="312.5,535.4286,322.5,539.4286,312.5,543.4286,316.5,539.4286" style="stroke:#181818;stroke-width:1.0;"/><line style="stroke:#181818;stroke-width:1.0;" x1="497" x2="497" y1="521.4286" y2="539.4286"/><line style="stroke:#181818;stroke-width:1.0;" x1="497" x2="346.5" y1="539.4286" y2="539.4286"/><polygon fill="#181818" points="356.5,535.4286,346.5,539.4286,356.5,543.4286,352.5,539.4286" style="stroke:#181818;stroke-width:1.0;"/><line style="stroke:#181818;stroke-width:1.0;" x1="334.5" x2="334.5" y1="390.3402" y2="410.3402"/><polygon fill="#181818" points="330.5,400.3402,334.5,410.3402,338.5,400.3402,334.5,404.3402" style="stroke:#181818;stroke-width:1.0;"/><line style="stroke:#181818;stroke-width:1.0;" x1="178.5" x2="168.5" y1="594.5966" y2="594.5966"/><line style="stroke:#181818;stroke-width:1.0;" x1="168.5" x2="168.5" y1="594.5966" y2="627.7647"/><polygon fill="#181818" points="164.5,617.7647,168.5,627.7647,172.5,617.7647,168.5,621.7647" style="stroke:#181818;stroke-width:1.0;"/><line style="stroke:#181818;stroke-width:1.0;" x1="490.5" x2="500.5" y1="594.5966" y2="594.5966"/><line style="stroke:#181818;stroke-width:1.0;" x1="500.5" x2="500.5" y1="594.5966" y2="627.7647"/><polygon fill="#181818" points="496.5,617.7647,500.5,627.7647,504.5,617.7647,500.5,621.7647" style="stroke:#181818;stroke-width:1.0;"/><line style="stroke:#181818;stroke-width:1.0;" x1="168.5" x2="168.5" y1="665.1408" y2="700.5169"/><line style="stroke:#181818;stroke-width:1.0;" x1="168.5" x2="322.5" y1="700.5169" y2="700.5169"/><polygon fill="#181818" points="312.5,696.5169,322.5,700.5169,312.5,704.5169,316.5,700.5169" style="stroke:#181818;stroke-width:1.0;"/><line style="stroke:#181818;stroke-width:1.0;" x1="500.5" x2="500.5" y1="682.5169" y2="700.5169"/><line style="stroke:#181818;stroke-width:1.0;" x1="500.5" x2="346.5" y1="700.5169" y2="700.5169"/><polygon fill="#181818" points="356.5,696.5169,346.5,700.5169,356.5,704.5169,352.5,700.5169" style="stroke:#181818;stroke-width:1.0;"/><line style="stroke:#181818;stroke-width:1.0;" x1="334.5" x2="334.5" y1="551.4286" y2="571.4286"/><polygon fill="#181818" points="330.5,561.4286,334.5,571.4286,338.5,561.4286,334.5,565.4286" style="stroke:#181818;stroke-width:1.0;"/><line style="stroke:#181818;stroke-width:1.0;" x1="334.5" x2="334.5" y1="712.5169" y2="732.5169"/><polygon fill="#181818" points="330.5,722.5169,334.5,732.5169,338.5,722.5169,334.5,726.5169" style="stroke:#181818;stroke-width:1.0;"/><line style="stroke:#181818;stroke-width:1.0;" x1="334.5" x2="334.5" y1="853.6052" y2="883.1893"/><polygon fill="#181818" points="330.5,873.1893,334.5,883.1893,338.5,873.1893,334.5,877.1893" style="stroke:#181818;stroke-width:1.0;"/><line style="stroke:#181818;stroke-width:1.0;" x1="405.5" x2="420" y1="830.4372" y2="830.4372"/><polygon fill="#181818" points="416,903.6694,420,913.6694,424,903.6694,420,907.6694" style="stroke:#181818;stroke-width:1.0;"/><line style="stroke:#181818;stroke-width:1.0;" x1="420" x2="420" y1="830.4372" y2="987.3176"/><line style="stroke:#181818;stroke-width:1.0;" x1="420" x2="346.5" y1="987.3176" y2="987.3176"/><polygon fill="#181818" points="356.5,983.3176,346.5,987.3176,356.5,991.3176,352.5,987.3176" style="stroke:#181818;stroke-width:1.0;"/><line style="stroke:#181818;stroke-width:1.0;" x1="334.5" x2="334.5" y1="955.3176" y2="975.3176"/><polygon fill="#181818" points="330.5,965.3176,334.5,975.3176,338.5,965.3176,334.5,969.3176" style="stroke:#181818;stroke-width:1.0;"/><line style="stroke:#181818;stroke-width:1.0;" x1="334.5" x2="334.5" y1="787.2691" y2="807.2691"/><polygon fill="#181818" points="330.5,797.2691,334.5,807.2691,338.5,797.2691,334.5,801.2691" style="stroke:#181818;stroke-width:1.0;"/><line style="stroke:#181818;stroke-width:1.0;" x1="334.5" x2="334.5" y1="1088.8218" y2="1118.4058"/><polygon fill="#181818" points="330.5,1108.4058,334.5,1118.4058,338.5,1108.4058,334.5,1112.4058" style="stroke:#181818;stroke-width:1.0;"/><line style="stroke:#181818;stroke-width:1.0;" x1="539.5" x2="551.5" y1="1054.0697" y2="1054.0697"/><polygon fill="#181818" points="547.5,1112.7178,551.5,1122.7178,555.5,1112.7178,551.5,1116.7178" style="stroke:#181818;stroke-width:1.0;"/><line style="stroke:#181818;stroke-width:1.0;" x1="551.5" x2="551.5" y1="1054.0697" y2="1177.7819"/><line style="stroke:#181818;stroke-width:1.0;" x1="551.5" x2="334.5" y1="1177.7819" y2="1177.7819"/><line style="stroke:#181818;stroke-width:1.0;" x1="334.5" x2="334.5" y1="1177.7819" y2="1197.7819"/><polygon fill="#181818" points="330.5,1187.7819,334.5,1197.7819,338.5,1187.7819,334.5,1191.7819" style="stroke:#181818;stroke-width:1.0;"/><line style="stroke:#181818;stroke-width:1.0;" x1="334.5" x2="334.5" y1="999.3176" y2="1019.3176"/><polygon fill="#181818" points="330.5,1009.3176,334.5,1019.3176,338.5,1009.3176,334.5,1013.3176" style="stroke:#181818;stroke-width:1.0;"/><line style="stroke:#181818;stroke-width:1.0;" x1="334.5" x2="334.5" y1="1244.118" y2="1264.118"/><polygon fill="#181818" points="330.5,1254.118,334.5,1264.118,338.5,1254.118,334.5,1258.118" style="stroke:#181818;stroke-width:1.0;"/><line style="stroke:#181818;stroke-width:1.0;" x1="334.5" x2="334.5" y1="1301.4941" y2="1311.4941"/><line style="stroke:#181818;stroke-width:1.0;" x1="334.5" x2="530.5" y1="1311.4941" y2="1311.4941"/><polygon fill="#181818" points="526.5,1275.222,530.5,1265.222,534.5,1275.222,530.5,1271.222" style="stroke:#181818;stroke-width:1.0;"/><line style="stroke:#181818;stroke-width:1.0;" x1="530.5" x2="530.5" y1="1220.95" y2="1311.4941"/><line style="stroke:#181818;stroke-width:1.0;" x1="530.5" x2="518.5" y1="1220.95" y2="1220.95"/><polygon fill="#181818" points="528.5,1216.95,518.5,1220.95,528.5,1224.95,524.5,1220.95" style="stroke:#181818;stroke-width:1.0;"/><line style="stroke:#181818;stroke-width:1.0;" x1="150.5" x2="138.5" y1="1220.95" y2="1220.95"/><polygon fill="#181818" points="134.5,1261.222,138.5,1271.222,142.5,1261.222,138.5,1265.222" style="stroke:#181818;stroke-width:1.0;"/><line style="stroke:#181818;stroke-width:1.0;" x1="138.5" x2="138.5" y1="1220.95" y2="1323.4941"/><line style="stroke:#181818;stroke-width:1.0;" x1="138.5" x2="334.5" y1="1323.4941" y2="1323.4941"/><line style="stroke:#181818;stroke-width:1.0;" x1="334.5" x2="334.5" y1="1323.4941" y2="1343.4941"/><polygon fill="#181818" points="330.5,1333.4941,334.5,1343.4941,338.5,1333.4941,334.5,1337.4941" style="stroke:#181818;stroke-width:1.0;"/><line style="stroke:#181818;stroke-width:1.0;" x1="334.5" x2="334.5" y1="1389.8302" y2="1409.8302"/><polygon fill="#181818" points="330.5,1399.8302,334.5,1409.8302,338.5,1399.8302,334.5,1403.8302" style="stroke:#181818;stroke-width:1.0;"/><line style="stroke:#181818;stroke-width:1.0;" x1="334.5" x2="334.5" y1="1447.2063" y2="1457.2063"/><line style="stroke:#181818;stroke-width:1.0;" x1="334.5" x2="517.5" y1="1457.2063" y2="1457.2063"/><polygon fill="#181818" points="513.5,1420.9343,517.5,1410.9343,521.5,1420.9343,517.5,1416.9343" style="stroke:#181818;stroke-width:1.0;"/><line style="stroke:#181818;stroke-width:1.0;" x1="517.5" x2="517.5" y1="1366.6622" y2="1457.2063"/><line style="stroke:#181818;stroke-width:1.0;" x1="517.5" x2="505.5" y1="1366.6622" y2="1366.6622"/><polygon fill="#181818" points="515.5,1362.6622,505.5,1366.6622,515.5,1370.6622,511.5,1366.6622" style="stroke:#181818;stroke-width:1.0;"/><line style="stroke:#181818;stroke-width:1.0;" x1="163.5" x2="151.5" y1="1366.6622" y2="1366.6622"/><polygon fill="#181818" points="147.5,1406.9343,151.5,1416.9343,155.5,1406.9343,151.5,1410.9343" style="stroke:#181818;stroke-width:1.0;"/><line style="stroke:#181818;stroke-width:1.0;" x1="151.5" x2="151.5" y1="1366.6622" y2="1469.2063"/><line style="stroke:#181818;stroke-width:1.0;" x1="151.5" x2="624.5" y1="1469.2063" y2="1469.2063"/><line style="stroke:#181818;stroke-width:1.0;" x1="624.5" x2="624.5" y1="144.7119" y2="1469.2063"/><line style="stroke:#181818;stroke-width:1.0;" x1="624.5" x2="447" y1="144.7119" y2="144.7119"/><polygon fill="#181818" points="457,140.7119,447,144.7119,457,148.7119,453,144.7119" style="stroke:#181818;stroke-width:1.0;"/><line style="stroke:#181818;stroke-width:1.0;" x1="334.5" x2="334.5" y1="245.3161" y2="295.588"/><polygon fill="#181818" points="330.5,285.588,334.5,295.588,338.5,285.588,334.5,289.588" style="stroke:#181818;stroke-width:1.0;"/><line style="stroke:#181818;stroke-width:1.0;" x1="334.5" x2="334.5" y1="167.8799" y2="207.94"/><polygon fill="#181818" points="330.5,197.94,334.5,207.94,338.5,197.94,334.5,201.94" style="stroke:#181818;stroke-width:1.0;"/><line style="stroke:#181818;stroke-width:1.0;" x1="222" x2="27" y1="144.7119" y2="144.7119"/><polygon fill="#181818" points="23,805.4891,27,815.4891,31,805.4891,27,809.4891" style="stroke:#181818;stroke-width:1.0;"/><line style="stroke:#181818;stroke-width:1.0;" x1="27" x2="27" y1="144.7119" y2="1503.2063"/><line style="stroke:#181818;stroke-width:1.0;" x1="27" x2="334.5" y1="1503.2063" y2="1503.2063"/><line style="stroke:#181818;stroke-width:1.0;" x1="334.5" x2="334.5" y1="1503.2063" y2="1535.2063"/><polygon fill="#181818" points="330.5,1525.2063,334.5,1535.2063,338.5,1525.2063,334.5,1529.2063" style="stroke:#181818;stroke-width:1.0;"/><line style="stroke:#181818;stroke-width:1.0;" x1="334.5" x2="334.5" y1="71.2719" y2="121.5438"/><polygon fill="#181818" points="330.5,111.5438,334.5,121.5438,338.5,111.5438,334.5,115.5438" style="stroke:#181818;stroke-width:1.0;"/><!--SRC=[bLNjJzj66F_kl-AcILqiHIn0I5iecyYBfMdj9YtJlj1eykA3tkASexC3PLMbRAkcT9ICgHs5DgLewkXMgP1ganeWb7_6vy2d_Wkx5pilXaJWV8Zzt3tFx-LvVBvcEqic_4JHymvQGCvI6kdpH2-2EmfWLrBF5-Q9LSP6oZ8j0ZxKOfahseHSiuW1IH3NKh5KKiGr2pj-T7nyl1FwGYz2aBAAA0-oEhR1ZQnoLr4Cf1SjR0o4qzAPZAnn7M7OYIQk9kDXC4qRZLyTYXSiPT4F48mcEBvEYBNee_VLIb-EnIvOgwGJ1pd8mdwzFiRnYPvwNHtZySiY-fKKJJ0aO2mso8nCF3FAaR3bmDEaO-pIj33qbPcnP6Rix8gPH2QXpOW-MFbo4M9dO2Ccj8bqYk_auT9PZdLwqWEUJi_4qkb1SfA959TpxMD_1fbx9WJbag4xy3Die3oq8ohTsMpN6efY5n1c3hFHJB614Jvdi97bcS2V8hR9OJq8E8OAAOkt4DiRyUvNlFhzayh1yRlVJtu-fFM_ZuystEQhEOlGTw_QjLst-HhSn03pfazE0wBZUGZG2C86l0s9hG9aiohhkohJDOb694mMuNcJWy7R4PuP1PPfVFdTzr60uQBuBy0bTOgbz9BhpL8x7UPsJIxeX9SGQz_ePXdQKO2w3s0sPpk4fK_9xM99A-Cy0ovmsbt2ivnFRaeH6z4SY4XcJ05TtQQlrva3N0wjRfrilF2gQ-xHZlTeptkuuXxMwUhZJrNcnas7_tnDu8DfW97PDG8ujo0MvHcJC6b829W67Nu-kYfvGzDcBM4yehJwb1xigq4L0SUkzjCcFNpexjVQXpljV_ObAtzJFn83wG_CJiPoFWgRWRckVjcHq_evWU7wPUPm_MYOU5dW3F7S-mk9HttAqM3PegAtV4Ih3RTPOOCkB7hVUa1tz-Z-e_QR0xgvNDHBitAUSZPqx96ik1UvKhe0wCmLVwE2iGfSfTi_UPjrLiXjhaXN-LiKC0NJmpmJScbrWrQVqPVBzC6QP2gC3_A1u7tdBgyQ8X4O4B9L3Rd0MN8jjF6RsrfdAEzRJuwtV_JxlTQWbLRxoJstMQErvzwplxp7Brc4CV6std9G4-98ZyygbpGABbqI2_sZvw_vWyFtz3OebkFBeM6DvSBUVCGvNnXKffqRDEW0WKwPu2d_iO1CSx2NujO_JUcBU-tLN_hBijbozvxJbN-PbfDwXLaivvkPs_xlJzhwWzaQMFDj52pmfEv96nBLUQr636X21tuEbpHY5UMPoSvKFzy_7DNEv0j-fvcYKpGRRpeqlRS7zDUjyz54PtBK3OCH_Dew9pr5tCjFWX94fTtTkErO9UL_]--></g></svg>