<?xml version="1.0" encoding="us-ascii" standalone="no"?><svg xmlns="http://www.w3.org/2000/svg" xmlns:xlink="http://www.w3.org/1999/xlink" contentStyleType="text/css" height="563px" preserveAspectRatio="none" style="width:336px;height:563px;background:#F5F5DC;" version="1.1" viewBox="0 0 336 563" width="336px" zoomAndPan="magnify"><defs/><g><rect fill="#F5F5DC" height="563" style="stroke:none;stroke-width:1.0;" width="336" x="0" y="0"/><text fill="#000000" font-family="sans-serif" font-size="14" font-weight="bold" lengthAdjust="spacing" textLength="293" x="20" y="36.2399">TypedMaxOfRateLimiter.When()&#26041;&#27861;&#30340;&#23454;&#29616;</text><ellipse cx="159" cy="61.2719" fill="#F0E8F5" rx="10" ry="10" style="stroke:#222222;stroke-width:1.0;"/><rect fill="#FFB6C1" height="429.2887" style="stroke:#DDA0DD;stroke-width:1.5;" width="214" x="61" y="81.2719"/><path d="M119,81.2719 L119,94.5438 L109,104.5438 L61,104.5438 " fill="none" style="stroke:#DDA0DD;stroke-width:1.5;"/><text fill="#FF69B4" font-family="Comic Sans MS" font-size="14" lengthAdjust="spacing" textLength="48" x="64" y="98.5118">When()</text><rect fill="#F0E8F5" height="37.3761" rx="12.5" ry="12.5" style="stroke:#181818;stroke-width:0.5;" width="146" x="86" y="121.5438"/><text fill="#333333" font-family="Comic Sans MS" font-size="12" lengthAdjust="spacing" textLength="126" x="96" y="145.4639">ret := time.Duration(0)</text><rect fill="#F0E8F5" height="37.3761" rx="12.5" ry="12.5" style="stroke:#181818;stroke-width:0.5;" width="165" x="76.5" y="253.6722"/><text fill="#333333" font-family="Comic Sans MS" font-size="12" lengthAdjust="spacing" textLength="145" x="86.5" y="277.5923">curr := limiter.When(item)</text><rect fill="#F0E8F5" height="37.3761" rx="12.5" ry="12.5" style="stroke:#181818;stroke-width:0.5;" width="73" x="122.5" y="368.9084"/><text fill="#333333" font-family="Comic Sans MS" font-size="12" lengthAdjust="spacing" textLength="53" x="132.5" y="392.8285">ret = curr</text><polygon fill="#FFDEE3" points="125,315.3244,193,315.3244,205,327.3244,193,339.3244,125,339.3244,113,327.3244,125,315.3244" style="stroke:#FF69B4;stroke-width:0.5;"/><text fill="#FFD700" font-family="Comic Sans MS" font-size="16" lengthAdjust="spacing" textLength="16" x="163" y="357.8844">&#26159;</text><text fill="#FF1493" font-family="Comic Sans MS" font-size="16" lengthAdjust="spacing" textLength="68" x="125" y="334.3004">curr &gt; ret</text><text fill="#FFD700" font-family="Comic Sans MS" font-size="16" lengthAdjust="spacing" textLength="16" x="205" y="322.7164">&#21542;</text><polygon fill="#FFDEE3" points="159,426.2845,171,438.2845,159,450.2845,147,438.2845,159,426.2845" style="stroke:#FF69B4;stroke-width:0.5;"/><rect fill="#F0E8F5" height="54.7522" rx="12.5" ry="12.5" style="stroke:#181818;stroke-width:0.5;" width="176" x="71" y="178.9199"/><text fill="#333333" font-family="Comic Sans MS" font-size="12" lengthAdjust="spacing" textLength="108" x="105" y="202.84">&#36941;&#21382;&#25968;&#25454;&#38480;&#36895;&#22120;&#21015;&#34920;</text><text fill="#333333" font-family="Comic Sans MS" font-size="12" lengthAdjust="spacing" textLength="153" x="84" y="220.2162">_, limiter := range r.limiters</text><polygon fill="#FFDEE3" points="103,474.5606,215,474.5606,227,486.5606,215,498.5606,103,498.5606,91,486.5606,103,474.5606" style="stroke:#FF69B4;stroke-width:0.5;"/><text fill="#FF1493" font-family="Comic Sans MS" font-size="16" lengthAdjust="spacing" textLength="112" x="103" y="493.5366">&#36824;&#27809;&#26377;&#36941;&#21382;&#23436;&#25104;</text><text fill="#FFD700" font-family="Comic Sans MS" font-size="16" lengthAdjust="spacing" textLength="16" x="227" y="481.9526">&#26159;</text><ellipse cx="159" cy="541.5606" fill="none" rx="11" ry="11" style="stroke:#222222;stroke-width:1.0;"/><ellipse cx="159" cy="541.5606" fill="#F0E8F5" rx="6" ry="6" style="stroke:#222222;stroke-width:1.0;"/><line style="stroke:#181818;stroke-width:1.0;" x1="159" x2="159" y1="339.3244" y2="368.9084"/><polygon fill="#181818" points="155,358.9084,159,368.9084,163,358.9084,159,362.9084" style="stroke:#181818;stroke-width:1.0;"/><line style="stroke:#181818;stroke-width:1.0;" x1="205" x2="217" y1="327.3244" y2="327.3244"/><polygon fill="#181818" points="213,377.5964,217,387.5964,221,377.5964,217,381.5964" style="stroke:#181818;stroke-width:1.0;"/><line style="stroke:#181818;stroke-width:1.0;" x1="217" x2="217" y1="327.3244" y2="438.2845"/><line style="stroke:#181818;stroke-width:1.0;" x1="217" x2="171" y1="438.2845" y2="438.2845"/><polygon fill="#181818" points="181,434.2845,171,438.2845,181,442.2845,177,438.2845" style="stroke:#181818;stroke-width:1.0;"/><line style="stroke:#181818;stroke-width:1.0;" x1="159" x2="159" y1="406.2845" y2="426.2845"/><polygon fill="#181818" points="155,416.2845,159,426.2845,163,416.2845,159,420.2845" style="stroke:#181818;stroke-width:1.0;"/><line style="stroke:#181818;stroke-width:1.0;" x1="159" x2="159" y1="291.0483" y2="315.3244"/><polygon fill="#181818" points="155,305.3244,159,315.3244,163,305.3244,159,309.3244" style="stroke:#181818;stroke-width:1.0;"/><line style="stroke:#181818;stroke-width:1.0;" x1="159" x2="159" y1="233.6722" y2="253.6722"/><polygon fill="#181818" points="155,243.6722,159,253.6722,163,243.6722,159,247.6722" style="stroke:#181818;stroke-width:1.0;"/><line style="stroke:#181818;stroke-width:1.0;" x1="227" x2="259" y1="486.5606" y2="486.5606"/><polygon fill="#181818" points="255,353.7203,259,343.7203,263,353.7203,259,349.7203" style="stroke:#181818;stroke-width:1.0;"/><line style="stroke:#181818;stroke-width:1.0;" x1="259" x2="259" y1="206.2961" y2="486.5606"/><line style="stroke:#181818;stroke-width:1.0;" x1="259" x2="247" y1="206.2961" y2="206.2961"/><polygon fill="#181818" points="257,202.2961,247,206.2961,257,210.2961,253,206.2961" style="stroke:#181818;stroke-width:1.0;"/><line style="stroke:#181818;stroke-width:1.0;" x1="159" x2="159" y1="450.2845" y2="474.5606"/><polygon fill="#181818" points="155,464.5606,159,474.5606,163,464.5606,159,468.5606" style="stroke:#181818;stroke-width:1.0;"/><line style="stroke:#181818;stroke-width:1.0;" x1="159" x2="159" y1="158.9199" y2="178.9199"/><polygon fill="#181818" points="155,168.9199,159,178.9199,163,168.9199,159,172.9199" style="stroke:#181818;stroke-width:1.0;"/><line style="stroke:#181818;stroke-width:1.0;" x1="159" x2="159" y1="71.2719" y2="121.5438"/><polygon fill="#181818" points="155,111.5438,159,121.5438,163,111.5438,159,115.5438" style="stroke:#181818;stroke-width:1.0;"/><line style="stroke:#181818;stroke-width:1.0;" x1="159" x2="159" y1="498.5606" y2="530.5606"/><polygon fill="#181818" points="155,520.5606,159,530.5606,163,520.5606,159,524.5606" style="stroke:#181818;stroke-width:1.0;"/><!--SRC=[bL9DQnD16BxFhnZmu0OaRZxR9cqXsOzJQw4Hl1Hap4xImTsPC3infY9KA5AX3K6eDY9AGAHuY4KlqKl_J7QR_0jdFvAcjH7Sq_AyxpvVxwwwectZTO2gWZmZegqJLEV8WIy0b4yPLP_MEMjIIsCsu_2EgHhBPYwQCMvXFiLDJTNA8MuoAc8qaydCe0V8mL1Z3gd22g8ktAo0bm1O13cCMWlbJDqm8euDGl4CpQ-KipV5J3ELNVcdtdHK8NiOflA1FkASjMBrQrpwagh-9rS3SK44OJJck-OucvlZkygHoIw5w7OKcbFCOLfTL8QHDLA14cK2_srQbOzftfHUBgNBHlfsHYDlvCrIU0TMRJgOYeM7o9avNGis0xXnMsEpcyo9wtf9rVL5SSfvBOYpUZ_-1u6ipyRmORk1hKtqVAksZGJU80uHc2SVxMAg9Fntl_oV9vSV3hp1fylEEG2kaAt7fg8LKE1OmC8Q5CJ1IRt9KN0JHKqK0U2uWP4SxeZ9gsElyze_EVUF1vDUTxB_sUkTUOVln_qpk4FXutlGZeG39eve7KEUZ26t20hL9Wz7zhmz-UP86LA3IZXVXz9A0X8NAlxfzmGKSacM4HfSWy5A4M3RnL3nkbyJ05EBrC3T9xAf5k9MONpHav-DXlkZuJUls_7VVXdtZqR3tyLfZjOkaNqfuujJ_qVV__Wc2kKDZlp3xfLim0l3XcHRhF47]--></g></svg>