<?xml version="1.0" encoding="us-ascii" standalone="no"?><svg xmlns="http://www.w3.org/2000/svg" xmlns:xlink="http://www.w3.org/1999/xlink" contentStyleType="text/css" height="638px" preserveAspectRatio="none" style="width:770px;height:638px;background:#F5F5DC;" version="1.1" viewBox="0 0 770 638" width="770px" zoomAndPan="magnify"><defs/><g><rect fill="#F5F5DC" height="638" style="stroke:none;stroke-width:1.0;" width="770" x="0" y="0"/><text fill="#000000" font-family="sans-serif" font-size="14" font-weight="bold" lengthAdjust="spacing" textLength="412" x="177.75" y="36.2399">TypedItemExponentialFailureRateLimiter.When()&#26041;&#27861;&#30340;&#23454;&#29616;</text><ellipse cx="367" cy="61.2719" fill="#F0E8F5" rx="10" ry="10" style="stroke:#222222;stroke-width:1.0;"/><rect fill="#FFB6C1" height="503.9531" style="stroke:#DDA0DD;stroke-width:1.5;" width="748.5" x="11" y="81.2719"/><path d="M69,81.2719 L69,94.5438 L59,104.5438 L11,104.5438 " fill="none" style="stroke:#DDA0DD;stroke-width:1.5;"/><text fill="#FF69B4" font-family="Comic Sans MS" font-size="14" lengthAdjust="spacing" textLength="48" x="14" y="98.5118">When()</text><rect fill="#F0E8F5" height="54.7522" rx="12.5" ry="12.5" style="stroke:#181818;stroke-width:0.5;" width="224" x="255" y="121.5438"/><text fill="#333333" font-family="Comic Sans MS" font-size="12" lengthAdjust="spacing" textLength="67" x="337" y="145.4639">&#22833;&#36133;&#27425;&#25968;&#21152;1</text><text fill="#333333" font-family="Comic Sans MS" font-size="12" lengthAdjust="spacing" textLength="201" x="268" y="162.84">r.failures[item] = r.failures[item] + 1</text><rect fill="#F0E8F5" height="54.7522" rx="12.5" ry="12.5" style="stroke:#181818;stroke-width:0.5;" width="438" x="148" y="196.2961"/><text fill="#333333" font-family="Comic Sans MS" font-size="12" lengthAdjust="spacing" textLength="288" x="230" y="220.2162">&#27599;&#35843;&#29992;&#19968;&#27425;&#65292;exp&#20063;&#23601;&#21152;1&#65292;&#23545;&#24212;&#21040;&#36825;&#37324;&#26102;2^n&#25351;&#25968;&#29190;&#28856;</text><text fill="#333333" font-family="Comic Sans MS" font-size="12" lengthAdjust="spacing" textLength="418" x="158" y="237.5923">backoff := float64(r.baseDelay.Nanoseconds()) * math.Pow(2, float64(exp))</text><polygon fill="#FFDEE3" points="274,271.0483,460,271.0483,472,294.2164,460,317.3844,274,317.3844,262,294.2164,274,271.0483" style="stroke:#FF69B4;stroke-width:0.5;"/><text fill="#FF1493" font-family="Comic Sans MS" font-size="16" lengthAdjust="spacing" textLength="144" x="306" y="289.6083">&#22914;&#26524;&#36229;&#36807;&#20102;&#26368;&#22823;&#25972;&#22411;</text><text fill="#FF1493" font-family="Comic Sans MS" font-size="16" lengthAdjust="spacing" textLength="186" x="274" y="312.7764">backoff &gt; math.MaxInt64</text><text fill="#FFD700" font-family="Comic Sans MS" font-size="16" lengthAdjust="spacing" textLength="16" x="246" y="289.6083">&#26159;</text><text fill="#FFD700" font-family="Comic Sans MS" font-size="16" lengthAdjust="spacing" textLength="16" x="472" y="289.6083">&#21542;</text><rect fill="#F0E8F5" height="54.7522" rx="12.5" ry="12.5" style="stroke:#181818;stroke-width:0.5;" width="272" x="23" y="327.3844"/><text fill="#333333" font-family="Comic Sans MS" font-size="12" lengthAdjust="spacing" textLength="252" x="33" y="351.3045">&#23601;&#36820;&#22238;&#26368;&#22823;&#24310;&#26102;&#65292;&#19981;&#28982;&#21518;&#38754;&#30340;&#26102;&#38388;&#36716;&#25442;&#23601;&#20250;&#28322;&#20986;</text><text fill="#333333" font-family="Comic Sans MS" font-size="12" lengthAdjust="spacing" textLength="102" x="105" y="368.6806">return r.maxDelay</text><rect fill="#F0E8F5" height="54.7522" rx="12.5" ry="12.5" style="stroke:#181818;stroke-width:0.5;" width="222" x="464" y="327.3844"/><text fill="#333333" font-family="Comic Sans MS" font-size="12" lengthAdjust="spacing" textLength="97" x="522" y="351.3045">&#36716;&#25442;&#25104;&#26102;&#38388;&#21333;&#20301;ns</text><text fill="#333333" font-family="Comic Sans MS" font-size="12" lengthAdjust="spacing" textLength="202" x="474" y="368.6806">calculated := time.Duration(backoff)</text><polygon fill="#FFDEE3" points="483,402.1366,667,402.1366,679,425.3047,667,448.4727,483,448.4727,471,425.3047,483,402.1366" style="stroke:#FF69B4;stroke-width:0.5;"/><text fill="#FF1493" font-family="Comic Sans MS" font-size="16" lengthAdjust="spacing" textLength="144" x="515" y="420.6967">&#22914;&#26524;&#36229;&#36807;&#20102;&#26368;&#22823;&#25972;&#22411;</text><text fill="#FF1493" font-family="Comic Sans MS" font-size="16" lengthAdjust="spacing" textLength="180" x="487" y="443.8647">calculated &gt; r.maxDelay</text><text fill="#FFD700" font-family="Comic Sans MS" font-size="16" lengthAdjust="spacing" textLength="16" x="455" y="420.6967">&#26159;</text><text fill="#FFD700" font-family="Comic Sans MS" font-size="16" lengthAdjust="spacing" textLength="16" x="679" y="420.6967">&#21542;</text><rect fill="#F0E8F5" height="54.7522" rx="12.5" ry="12.5" style="stroke:#181818;stroke-width:0.5;" width="272" x="325" y="458.4727"/><text fill="#333333" font-family="Comic Sans MS" font-size="12" lengthAdjust="spacing" textLength="252" x="335" y="482.3928">&#23601;&#36820;&#22238;&#26368;&#22823;&#24310;&#26102;&#65292;&#19981;&#28982;&#21518;&#38754;&#30340;&#26102;&#38388;&#36716;&#25442;&#23601;&#20250;&#28322;&#20986;</text><text fill="#333333" font-family="Comic Sans MS" font-size="12" lengthAdjust="spacing" textLength="102" x="407" y="499.769">return r.maxDelay</text><rect fill="#F0E8F5" height="37.3761" rx="12.5" ry="12.5" style="stroke:#181818;stroke-width:0.5;" width="117" x="630.5" y="458.4727"/><text fill="#333333" font-family="Comic Sans MS" font-size="12" lengthAdjust="spacing" textLength="97" x="640.5" y="482.3928">return calculated</text><polygon fill="#FFDEE3" points="575,519.225,587,531.225,575,543.225,563,531.225,575,519.225" style="stroke:#FF69B4;stroke-width:0.5;"/><polygon fill="#FFDEE3" points="367,549.225,379,561.225,367,573.225,355,561.225,367,549.225" style="stroke:#FF69B4;stroke-width:0.5;"/><ellipse cx="367" cy="616.225" fill="none" rx="11" ry="11" style="stroke:#222222;stroke-width:1.0;"/><ellipse cx="367" cy="616.225" fill="#F0E8F5" rx="6" ry="6" style="stroke:#222222;stroke-width:1.0;"/><line style="stroke:#181818;stroke-width:1.0;" x1="367" x2="367" y1="176.2961" y2="196.2961"/><polygon fill="#181818" points="363,186.2961,367,196.2961,371,186.2961,367,190.2961" style="stroke:#181818;stroke-width:1.0;"/><line style="stroke:#181818;stroke-width:1.0;" x1="471" x2="461" y1="425.3047" y2="425.3047"/><line style="stroke:#181818;stroke-width:1.0;" x1="461" x2="461" y1="425.3047" y2="458.4727"/><polygon fill="#181818" points="457,448.4727,461,458.4727,465,448.4727,461,452.4727" style="stroke:#181818;stroke-width:1.0;"/><line style="stroke:#181818;stroke-width:1.0;" x1="679" x2="689" y1="425.3047" y2="425.3047"/><line style="stroke:#181818;stroke-width:1.0;" x1="689" x2="689" y1="425.3047" y2="458.4727"/><polygon fill="#181818" points="685,448.4727,689,458.4727,693,448.4727,689,452.4727" style="stroke:#181818;stroke-width:1.0;"/><line style="stroke:#181818;stroke-width:1.0;" x1="461" x2="461" y1="513.225" y2="531.225"/><line style="stroke:#181818;stroke-width:1.0;" x1="461" x2="563" y1="531.225" y2="531.225"/><polygon fill="#181818" points="553,527.225,563,531.225,553,535.225,557,531.225" style="stroke:#181818;stroke-width:1.0;"/><line style="stroke:#181818;stroke-width:1.0;" x1="689" x2="689" y1="495.8489" y2="531.225"/><line style="stroke:#181818;stroke-width:1.0;" x1="689" x2="587" y1="531.225" y2="531.225"/><polygon fill="#181818" points="597,527.225,587,531.225,597,535.225,593,531.225" style="stroke:#181818;stroke-width:1.0;"/><line style="stroke:#181818;stroke-width:1.0;" x1="575" x2="575" y1="382.1366" y2="402.1366"/><polygon fill="#181818" points="571,392.1366,575,402.1366,579,392.1366,575,396.1366" style="stroke:#181818;stroke-width:1.0;"/><line style="stroke:#181818;stroke-width:1.0;" x1="262" x2="159" y1="294.2164" y2="294.2164"/><line style="stroke:#181818;stroke-width:1.0;" x1="159" x2="159" y1="294.2164" y2="327.3844"/><polygon fill="#181818" points="155,317.3844,159,327.3844,163,317.3844,159,321.3844" style="stroke:#181818;stroke-width:1.0;"/><line style="stroke:#181818;stroke-width:1.0;" x1="472" x2="575" y1="294.2164" y2="294.2164"/><line style="stroke:#181818;stroke-width:1.0;" x1="575" x2="575" y1="294.2164" y2="327.3844"/><polygon fill="#181818" points="571,317.3844,575,327.3844,579,317.3844,575,321.3844" style="stroke:#181818;stroke-width:1.0;"/><line style="stroke:#181818;stroke-width:1.0;" x1="159" x2="159" y1="382.1366" y2="561.225"/><line style="stroke:#181818;stroke-width:1.0;" x1="159" x2="355" y1="561.225" y2="561.225"/><polygon fill="#181818" points="345,557.225,355,561.225,345,565.225,349,561.225" style="stroke:#181818;stroke-width:1.0;"/><line style="stroke:#181818;stroke-width:1.0;" x1="575" x2="575" y1="543.225" y2="561.225"/><line style="stroke:#181818;stroke-width:1.0;" x1="575" x2="379" y1="561.225" y2="561.225"/><polygon fill="#181818" points="389,557.225,379,561.225,389,565.225,385,561.225" style="stroke:#181818;stroke-width:1.0;"/><line style="stroke:#181818;stroke-width:1.0;" x1="367" x2="367" y1="251.0483" y2="271.0483"/><polygon fill="#181818" points="363,261.0483,367,271.0483,371,261.0483,367,265.0483" style="stroke:#181818;stroke-width:1.0;"/><line style="stroke:#181818;stroke-width:1.0;" x1="367" x2="367" y1="71.2719" y2="121.5438"/><polygon fill="#181818" points="363,111.5438,367,121.5438,371,111.5438,367,115.5438" style="stroke:#181818;stroke-width:1.0;"/><line style="stroke:#181818;stroke-width:1.0;" x1="367" x2="367" y1="573.225" y2="605.225"/><polygon fill="#181818" points="363,595.225,367,605.225,371,595.225,367,599.225" style="stroke:#181818;stroke-width:1.0;"/><!--SRC=[hLFTJXD16BtVfvZ4crPDRKjR_abeTpSX0MB0n0lHP6YdC75tffcTIgin8OYKA4Kkg2XYLOBe1P4IIGCLmijqj-NALt2ssvRoKwA9kyacU-QRSxvplfa-WwSrD231ACTFC4_B64ung8Dd4X1F64OVJp6Q9B48rIW3DrIlqgK6dJNAOeWrS3NYZOHhk4e9hwCT7HrDQ1Jg24IeZgDW7183Z8nBpoKfXg5EIQojd2ehYiCnZ0bgeg7kSE2YcAhw0jtNwZMMnl5J17mXMnyoHcVgwkUuv4wlzn-v4f1np34bTRvp7GU2BNndFZe2dJLqp37D26B0xsqNXX9GVBOIeHnTRjeh7bMzADqrw0yh_giPbP0IKWThSw3Hf8u8Rpk8e1gK8tQb3IUkIgmvanPnMHxqod8xE-5GnBRJTwT-1aLw6WBtqWaK6-98Lr89IaHF66egn5gIeJ78qJ3MCKVCStyQ4PVRUdje_SnLrkVD7_dASa6I32wcK6_IAP5w9hZzcbjxrVslriuNArSmNttsWGa2c2VkC1iF1Ad-4FHVXcu1Ns-3mzfzKosygAn-Bn_C2gRVHqiebIWVVZ8BUpQb-3Tt3ytIghbOg9wyFyqiMMj5_oDYBMM4Q6LneJ9t84sA86Wy3dhwGLoZa8S2BkQPX0QIaGRJdb58g86Yub8OBhSRt0GwvDEUktJ6vR_Tt21KtUvU2SU1InZRdhFo6zNYo-f9fbnQi3PcpQrlLcxVpB-U80sr0OTd1AQ6Y61m0sm0b_LkrmsuI4bCg4Tug9wicX_o3e7vgoYQ5uxA1zdAVD5SMJxzk2c25k3fsdxrUCVAReejvQDrgxHfPag2mic88PvaThGwJDKizKf8Cn1mcIlRRbl8BdBsMuih3fsPpPMFiyGGor6eHPEQ67JCJeXZ7Nda98FslNBLpGZd0Fo5zrQkWPQ6Bfl_B_Ql2G00Eu960aAjNdFMOAs6n71SQdv1xHIB4qqJVm00]--></g></svg>